%TF.GenerationSoftware,KiCad,Pcbnew,10.0.1*%
%TF.CreationDate,2026-05-25T09:19:08+02:00*%
%TF.ProjectId,swr_meter,7377725f-6d65-4746-9572-2e6b69636164,rev?*%
%TF.SameCoordinates,Original*%
%TF.FileFunction,Copper,L3,Inr*%
%TF.FilePolarity,Positive*%
%FSLAX46Y46*%
G04 Gerber Fmt 4.6, Leading zero omitted, Abs format (unit mm)*
G04 Created by KiCad (PCBNEW 10.0.1) date 2026-05-25 09:19:08*
%MOMM*%
%LPD*%
G01*
G04 APERTURE LIST*
G04 Aperture macros list*
%AMRoundRect*
0 Rectangle with rounded corners*
0 $1 Rounding radius*
0 $2 $3 $4 $5 $6 $7 $8 $9 X,Y pos of 4 corners*
0 Add a 4 corners polygon primitive as box body*
4,1,4,$2,$3,$4,$5,$6,$7,$8,$9,$2,$3,0*
0 Add four circle primitives for the rounded corners*
1,1,$1+$1,$2,$3*
1,1,$1+$1,$4,$5*
1,1,$1+$1,$6,$7*
1,1,$1+$1,$8,$9*
0 Add four rect primitives between the rounded corners*
20,1,$1+$1,$2,$3,$4,$5,0*
20,1,$1+$1,$4,$5,$6,$7,0*
20,1,$1+$1,$6,$7,$8,$9,0*
20,1,$1+$1,$8,$9,$2,$3,0*%
G04 Aperture macros list end*
%TA.AperFunction,ComponentPad*%
%ADD10C,1.998980*%
%TD*%
%TA.AperFunction,ComponentPad*%
%ADD11C,2.499360*%
%TD*%
%TA.AperFunction,ComponentPad*%
%ADD12C,3.600000*%
%TD*%
%TA.AperFunction,ComponentPad*%
%ADD13C,1.500000*%
%TD*%
%TA.AperFunction,ComponentPad*%
%ADD14C,1.600000*%
%TD*%
%TA.AperFunction,ComponentPad*%
%ADD15RoundRect,0.250000X0.620000X0.845000X-0.620000X0.845000X-0.620000X-0.845000X0.620000X-0.845000X0*%
%TD*%
%TA.AperFunction,ComponentPad*%
%ADD16O,1.740000X2.190000*%
%TD*%
%TA.AperFunction,ComponentPad*%
%ADD17RoundRect,0.760000X-1.140000X1.140000X-1.140000X-1.140000X1.140000X-1.140000X1.140000X1.140000X0*%
%TD*%
%TA.AperFunction,ComponentPad*%
%ADD18C,4.000000*%
%TD*%
%TA.AperFunction,ComponentPad*%
%ADD19RoundRect,0.250000X-0.620000X-0.845000X0.620000X-0.845000X0.620000X0.845000X-0.620000X0.845000X0*%
%TD*%
%TA.AperFunction,ComponentPad*%
%ADD20RoundRect,0.250000X-0.600000X0.600000X-0.600000X-0.600000X0.600000X-0.600000X0.600000X0.600000X0*%
%TD*%
%TA.AperFunction,ComponentPad*%
%ADD21C,1.700000*%
%TD*%
%TA.AperFunction,ComponentPad*%
%ADD22RoundRect,0.250001X0.499999X-0.499999X0.499999X0.499999X-0.499999X0.499999X-0.499999X-0.499999X0*%
%TD*%
%TA.AperFunction,ViaPad*%
%ADD23C,0.600000*%
%TD*%
%TA.AperFunction,Conductor*%
%ADD24C,1.000000*%
%TD*%
G04 APERTURE END LIST*
D10*
%TO.N,Net-(U8-RF2)*%
%TO.C,X3*%
X127424245Y-54497677D03*
D11*
%TO.N,GND*%
X129964245Y-57037677D03*
X129964245Y-51957677D03*
X124884245Y-57037677D03*
X124884245Y-51957677D03*
%TD*%
D12*
%TO.N,GND*%
%TO.C,H203*%
X117500000Y-52500000D03*
%TD*%
D13*
%TO.N,+3.3V*%
%TO.C,LS1*%
X156603570Y-93016821D03*
%TO.N,PiezoAlarm*%
X156603570Y-85416821D03*
%TD*%
D12*
%TO.N,GND*%
%TO.C,H202*%
X172500000Y-111802405D03*
%TD*%
D14*
%TO.N,GND*%
%TO.C,U5*%
X115300000Y-104000000D03*
%TO.N,/UIO0*%
X117840000Y-104000000D03*
%TO.N,/UIO1*%
X120380000Y-104000000D03*
%TO.N,unconnected-(U5-2_OUT2-Pad4)*%
X122920000Y-104000000D03*
%TO.N,unconnected-(U5-3_LRCLK2-Pad5)*%
X125460000Y-104000000D03*
%TO.N,SWR-Alarm*%
X128000000Y-104000000D03*
%TO.N,/UIO3*%
X130540000Y-104000000D03*
%TO.N,/UIO4*%
X133080000Y-104000000D03*
%TO.N,/UIO5*%
X135620000Y-104000000D03*
%TO.N,RA8875-33*%
X138160000Y-104000000D03*
%TO.N,/UIO6*%
X140700000Y-104000000D03*
%TO.N,RA8875-5*%
X143240000Y-104000000D03*
%TO.N,RA8875-7*%
X145780000Y-104000000D03*
%TO.N,RA8875-6*%
X148320000Y-104000000D03*
%TO.N,RA8875-8*%
X148320000Y-88760000D03*
%TO.N,PiezoAlarm*%
X145780000Y-88760000D03*
%TO.N,InputSelect*%
X143240000Y-88760000D03*
%TO.N,RA8875-35*%
X140700000Y-88760000D03*
%TO.N,RA8875-34*%
X138160000Y-88760000D03*
%TO.N,Net-(U4-SDA)*%
X135620000Y-88760000D03*
%TO.N,Net-(U4-SCL)*%
X133080000Y-88760000D03*
%TO.N,unconnected-(U5-20_A6_TX5_LRCLK1-Pad27)*%
X130540000Y-88760000D03*
%TO.N,unconnected-(U5-21_A7_RX5_BCLK1-Pad28)*%
X128000000Y-88760000D03*
%TO.N,unconnected-(U5-22_A8_CTX1-Pad29)*%
X125460000Y-88760000D03*
%TO.N,unconnected-(U5-23_A9_CRX1_MCLK1-Pad30)*%
X122920000Y-88760000D03*
%TO.N,+3.3V*%
X120380000Y-88760000D03*
%TO.N,GND*%
X117840000Y-88760000D03*
%TO.N,+5V*%
X115300000Y-88760000D03*
%TD*%
D10*
%TO.N,Net-(U7-RF2)*%
%TO.C,X2*%
X149900000Y-54500000D03*
D11*
%TO.N,GND*%
X152440000Y-57040000D03*
X152440000Y-51960000D03*
X147360000Y-57040000D03*
X147360000Y-51960000D03*
%TD*%
D15*
%TO.N,Net-(J1-Pin_1)*%
%TO.C,J1*%
X126000000Y-72500000D03*
D16*
%TO.N,GND*%
X123460000Y-72500000D03*
%TD*%
D12*
%TO.N,GND*%
%TO.C,H204*%
X172500000Y-52500000D03*
%TD*%
D15*
%TO.N,Net-(J2-Pin_1)*%
%TO.C,J2*%
X148500000Y-72500000D03*
D16*
%TO.N,GND*%
X145960000Y-72500000D03*
%TD*%
D12*
%TO.N,GND*%
%TO.C,H201*%
X117500724Y-111900000D03*
%TD*%
D17*
%TO.N,GND*%
%TO.C,J3*%
X174300000Y-72600000D03*
D18*
%TO.N,Net-(J3-Pin_2)*%
X174300000Y-77600000D03*
%TD*%
D19*
%TO.N,/UIO0*%
%TO.C,J5*%
X125269371Y-111000000D03*
D16*
%TO.N,/UIO1*%
X127809371Y-111000000D03*
%TO.N,SWR-Alarm*%
X130349371Y-111000000D03*
%TO.N,/UIO3*%
X132889371Y-111000000D03*
%TO.N,/UIO4*%
X135429371Y-111000000D03*
%TO.N,GND*%
X137969371Y-111000000D03*
%TO.N,/UIO5*%
X140509371Y-111000000D03*
%TO.N,/UIO6*%
X143049371Y-111000000D03*
%TO.N,GND*%
X145589371Y-111000000D03*
%TD*%
D20*
%TO.N,RA8875-35*%
%TO.C,J4*%
X168160000Y-101000000D03*
D21*
%TO.N,RA8875-34*%
X168160000Y-103540000D03*
%TO.N,RA8875-33*%
X165620000Y-101000000D03*
%TO.N,RA8875-7*%
X165620000Y-103540000D03*
%TO.N,unconnected-(J4-Pin_5-Pad5)*%
X163080000Y-101000000D03*
%TO.N,RA8875-5*%
X163080000Y-103540000D03*
%TO.N,RA8875-6*%
X160540000Y-101000000D03*
%TO.N,RA8875-8*%
X160540000Y-103540000D03*
%TO.N,GND*%
X158000000Y-101000000D03*
%TO.N,+5V*%
X158000000Y-103540000D03*
%TD*%
D22*
%TO.N,Net-(J3-Pin_2)*%
%TO.C,U201*%
X173615000Y-92317500D03*
D13*
%TO.N,GND*%
X171075000Y-92317500D03*
%TO.N,+5V*%
X168535000Y-92317500D03*
%TD*%
D23*
%TO.N,GND*%
X131800000Y-99000000D03*
X132600000Y-53400000D03*
X139800000Y-66900000D03*
X154800000Y-55600000D03*
X136500000Y-53400000D03*
X176500000Y-86000000D03*
X176500000Y-93500000D03*
X139800000Y-65600000D03*
X122800000Y-99000000D03*
X157400000Y-53400000D03*
X131600000Y-84800000D03*
X133300000Y-66200000D03*
X157600000Y-61600000D03*
X114400000Y-93400000D03*
X162000000Y-68200000D03*
X162000000Y-63000000D03*
X130000000Y-55600000D03*
X145000000Y-94400000D03*
X155300000Y-66200000D03*
X132600000Y-84800000D03*
X152000000Y-115500000D03*
X176500000Y-61000000D03*
X153500000Y-53400000D03*
X176500000Y-96000000D03*
X154500000Y-115500000D03*
X132000000Y-63400000D03*
X157600000Y-68900000D03*
X176500000Y-51000000D03*
X122000000Y-48500000D03*
X140200000Y-54600000D03*
X164500000Y-115500000D03*
X114500000Y-56000000D03*
X122800000Y-86200000D03*
X146400000Y-94400000D03*
X132600000Y-55600000D03*
X131800000Y-86200000D03*
X176500000Y-111000000D03*
X169500000Y-115500000D03*
X129000000Y-71500000D03*
X162000000Y-59100000D03*
X139800000Y-61700000D03*
X167000000Y-115500000D03*
X134500000Y-115500000D03*
X114500000Y-83500000D03*
X114500000Y-51000000D03*
X135600000Y-58400000D03*
X162200000Y-52000000D03*
X135200000Y-55600000D03*
X130800000Y-90800000D03*
X114500000Y-68500000D03*
X152000000Y-48500000D03*
X139500000Y-115500000D03*
X157000000Y-115500000D03*
X162200000Y-54600000D03*
X152200000Y-55600000D03*
X130800000Y-99000000D03*
X135600000Y-61700000D03*
X143600000Y-94400000D03*
X162000000Y-61700000D03*
X117000000Y-115500000D03*
X132000000Y-66200000D03*
X128800000Y-99000000D03*
X151000000Y-69500000D03*
X154800000Y-53400000D03*
X129800000Y-86200000D03*
X164500000Y-69500000D03*
X151000000Y-70500000D03*
X114500000Y-71000000D03*
X159500000Y-115500000D03*
X149500000Y-115500000D03*
X176500000Y-71000000D03*
X157600000Y-62900000D03*
X155600000Y-58400000D03*
X132000000Y-61200000D03*
X127800000Y-99000000D03*
X174500000Y-115500000D03*
X151000000Y-71500000D03*
X128800000Y-86200000D03*
X133400000Y-58400000D03*
X144500000Y-115500000D03*
X154000000Y-66200000D03*
X114500000Y-96000000D03*
X176500000Y-98500000D03*
X163500000Y-68500000D03*
X153500000Y-55600000D03*
X156600000Y-61200000D03*
X162000000Y-64300000D03*
X135200000Y-53400000D03*
X142000000Y-48500000D03*
X176500000Y-53500000D03*
X114600000Y-80900000D03*
X156600000Y-63400000D03*
X126800000Y-86200000D03*
X133900000Y-53400000D03*
X126800000Y-99000000D03*
X172000000Y-115500000D03*
X129000000Y-68500000D03*
X114500000Y-48500000D03*
X176500000Y-88500000D03*
X123800000Y-86200000D03*
X114500000Y-115500000D03*
X134593242Y-61387378D03*
X114500000Y-53500000D03*
X157600000Y-66300000D03*
X176500000Y-63500000D03*
X131300000Y-53400000D03*
X147000000Y-48500000D03*
X157600000Y-67600000D03*
X169500000Y-48500000D03*
X130000000Y-53400000D03*
X133600000Y-84800000D03*
X135600000Y-66900000D03*
X125800000Y-90800000D03*
X125800000Y-86200000D03*
X140200000Y-53300000D03*
X140200000Y-64600000D03*
X176500000Y-73500000D03*
X129000000Y-69500000D03*
X139800000Y-63000000D03*
X124500000Y-48500000D03*
X123800000Y-99000000D03*
X129000000Y-70500000D03*
X119500000Y-48500000D03*
X129800000Y-90800000D03*
X156600000Y-58400000D03*
X176500000Y-66000000D03*
X114500000Y-106000000D03*
X122800000Y-90800000D03*
X133300000Y-61200000D03*
X176500000Y-58500000D03*
X149500000Y-48500000D03*
X162000000Y-60400000D03*
X114500000Y-101000000D03*
X176500000Y-48500000D03*
X140200000Y-52000000D03*
X129800000Y-99000000D03*
X133900000Y-55600000D03*
X156100000Y-55600000D03*
X127000000Y-115500000D03*
X121800000Y-90800000D03*
X132000000Y-115500000D03*
X119500000Y-115500000D03*
X130800000Y-86200000D03*
X114500000Y-58500000D03*
X114500000Y-76000000D03*
X152200000Y-53400000D03*
X157800000Y-58400000D03*
X162000000Y-65600000D03*
X126800000Y-90800000D03*
X136600000Y-84800000D03*
X162000000Y-66900000D03*
X127800000Y-90800000D03*
X132000000Y-48500000D03*
X155300000Y-61200000D03*
X123800000Y-90800000D03*
X176500000Y-113500000D03*
X114500000Y-98500000D03*
X172000000Y-48500000D03*
X176500000Y-56000000D03*
X134600000Y-63400000D03*
X128800000Y-90800000D03*
X114500000Y-73500000D03*
X133300000Y-63400000D03*
X131300000Y-55600000D03*
X162000000Y-57800000D03*
X134500000Y-48500000D03*
X154500000Y-48500000D03*
X138600000Y-84800000D03*
X129500000Y-115500000D03*
X176500000Y-81000000D03*
X114500000Y-66000000D03*
X117000000Y-48500000D03*
X154000000Y-63400000D03*
X156600000Y-66200000D03*
X124800000Y-90800000D03*
X122000000Y-115500000D03*
X176500000Y-91000000D03*
X144500000Y-48500000D03*
X141500000Y-68500000D03*
X114500000Y-63500000D03*
X154000000Y-61200000D03*
X135600000Y-57400000D03*
X135600000Y-68200000D03*
X176500000Y-103500000D03*
X139800000Y-68200000D03*
X114400000Y-90900000D03*
X174500000Y-48500000D03*
X156100000Y-53400000D03*
X127000000Y-48500000D03*
X158600000Y-52000000D03*
X134600000Y-84800000D03*
X135600000Y-84800000D03*
X114500000Y-61000000D03*
X137000000Y-115500000D03*
X176500000Y-106000000D03*
X176500000Y-101000000D03*
X124500000Y-115500000D03*
X155300000Y-63400000D03*
X114500000Y-108500000D03*
X147000000Y-115500000D03*
X142000000Y-115500000D03*
X124800000Y-86200000D03*
X158600000Y-53300000D03*
X129500000Y-48500000D03*
X124800000Y-99000000D03*
X135600000Y-63000000D03*
X139800000Y-60400000D03*
X167000000Y-48500000D03*
X134600000Y-66200000D03*
X139800000Y-57800000D03*
X157800000Y-57400000D03*
X134600000Y-58400000D03*
X114600000Y-78400000D03*
X162000000Y-115500000D03*
X176500000Y-68500000D03*
X142500000Y-69500000D03*
X164500000Y-48500000D03*
X162200000Y-53300000D03*
X176500000Y-83500000D03*
X137600000Y-84800000D03*
X125800000Y-99000000D03*
X136400000Y-52000000D03*
X176500000Y-108500000D03*
X127800000Y-86200000D03*
X151000000Y-68500000D03*
X135600000Y-66000000D03*
X139800000Y-59100000D03*
X157400000Y-55600000D03*
%TO.N,+3.3V*%
X144000000Y-60000000D03*
X144000000Y-59000000D03*
X166000000Y-59000000D03*
X166000000Y-58000000D03*
X144000000Y-58000000D03*
X166000000Y-60000000D03*
%TO.N,Net-(U7-CTRL)*%
X134400000Y-57000000D03*
X147400000Y-86000000D03*
X155400000Y-56800000D03*
X148400000Y-86000000D03*
X156800000Y-56800000D03*
X132900000Y-57000000D03*
X146600000Y-86000000D03*
%TO.N,+5V*%
X141950000Y-72750000D03*
X164000000Y-74400000D03*
X142000000Y-74200000D03*
X164000000Y-73400000D03*
X163950000Y-72350000D03*
X140200000Y-82800000D03*
X139317766Y-82800001D03*
X142000000Y-75400000D03*
X138317765Y-82800002D03*
%TD*%
%TO.N,+5V*%
D24*
X155400000Y-102200000D02*
X156740000Y-103540000D01*
X157200000Y-97600000D02*
X155400000Y-99400000D01*
X117599998Y-82800002D02*
X115300000Y-85100000D01*
X138317765Y-82800002D02*
X117599998Y-82800002D01*
X156740000Y-103540000D02*
X158000000Y-103540000D01*
X138317766Y-82800001D02*
X138317765Y-82800002D01*
X155400000Y-99400000D02*
X155400000Y-102200000D01*
X163950000Y-72350000D02*
X163950000Y-83950000D01*
X139317766Y-82800001D02*
X138317766Y-82800001D01*
X163252500Y-97600000D02*
X157200000Y-97600000D01*
X142000000Y-76500000D02*
X148300000Y-82800000D01*
X140200000Y-82800000D02*
X148300000Y-82800000D01*
X168535000Y-88535000D02*
X168535000Y-92317500D01*
X140200000Y-82800000D02*
X139317767Y-82800000D01*
X115300000Y-85100000D02*
X115300000Y-88760000D01*
X142000000Y-72800000D02*
X141950000Y-72750000D01*
X142000000Y-74200000D02*
X142000000Y-76500000D01*
X156000000Y-88000000D02*
X160317500Y-92317500D01*
X168535000Y-92317500D02*
X163252500Y-97600000D01*
X142000000Y-74200000D02*
X142000000Y-72800000D01*
X160317500Y-92317500D02*
X168535000Y-92317500D01*
X148300000Y-82800000D02*
X153500000Y-88000000D01*
X139317767Y-82800000D02*
X139317766Y-82800001D01*
X163950000Y-83950000D02*
X168535000Y-88535000D01*
X153500000Y-88000000D02*
X156000000Y-88000000D01*
%TO.N,RA8875-5*%
X143240000Y-104000000D02*
X143240000Y-105440000D01*
X160800000Y-107600000D02*
X163080000Y-105320000D01*
X145400000Y-107600000D02*
X160800000Y-107600000D01*
X143240000Y-105440000D02*
X145400000Y-107600000D01*
X163080000Y-105320000D02*
X163080000Y-103540000D01*
%TO.N,RA8875-8*%
X159800000Y-105800000D02*
X156600000Y-105800000D01*
X160540000Y-103540000D02*
X160540000Y-105060000D01*
X148320000Y-97520000D02*
X148320000Y-88760000D01*
X160540000Y-105060000D02*
X159800000Y-105800000D01*
X156600000Y-105800000D02*
X148320000Y-97520000D01*
%TD*%
M02*
