%TF.GenerationSoftware,KiCad,Pcbnew,10.0.1*%
%TF.CreationDate,2026-05-25T09:19:08+02:00*%
%TF.ProjectId,swr_meter,7377725f-6d65-4746-9572-2e6b69636164,rev?*%
%TF.SameCoordinates,Original*%
%TF.FileFunction,Soldermask,Top*%
%TF.FilePolarity,Negative*%
%FSLAX46Y46*%
G04 Gerber Fmt 4.6, Leading zero omitted, Abs format (unit mm)*
G04 Created by KiCad (PCBNEW 10.0.1) date 2026-05-25 09:19:08*
%MOMM*%
%LPD*%
G01*
G04 APERTURE LIST*
G04 Aperture macros list*
%AMRoundRect*
0 Rectangle with rounded corners*
0 $1 Rounding radius*
0 $2 $3 $4 $5 $6 $7 $8 $9 X,Y pos of 4 corners*
0 Add a 4 corners polygon primitive as box body*
4,1,4,$2,$3,$4,$5,$6,$7,$8,$9,$2,$3,0*
0 Add four circle primitives for the rounded corners*
1,1,$1+$1,$2,$3*
1,1,$1+$1,$4,$5*
1,1,$1+$1,$6,$7*
1,1,$1+$1,$8,$9*
0 Add four rect primitives between the rounded corners*
20,1,$1+$1,$2,$3,$4,$5,0*
20,1,$1+$1,$4,$5,$6,$7,0*
20,1,$1+$1,$6,$7,$8,$9,0*
20,1,$1+$1,$8,$9,$2,$3,0*%
G04 Aperture macros list end*
%ADD10C,1.998980*%
%ADD11C,2.499360*%
%ADD12RoundRect,0.237500X0.237500X-0.300000X0.237500X0.300000X-0.237500X0.300000X-0.237500X-0.300000X0*%
%ADD13C,3.600000*%
%ADD14C,5.500000*%
%ADD15RoundRect,0.237500X0.300000X0.237500X-0.300000X0.237500X-0.300000X-0.237500X0.300000X-0.237500X0*%
%ADD16C,1.500000*%
%ADD17RoundRect,0.237500X-0.250000X-0.237500X0.250000X-0.237500X0.250000X0.237500X-0.250000X0.237500X0*%
%ADD18RoundRect,0.250000X0.350000X-0.275000X0.350000X0.275000X-0.350000X0.275000X-0.350000X-0.275000X0*%
%ADD19RoundRect,0.237500X-0.237500X0.300000X-0.237500X-0.300000X0.237500X-0.300000X0.237500X0.300000X0*%
%ADD20RoundRect,0.237500X0.250000X0.237500X-0.250000X0.237500X-0.250000X-0.237500X0.250000X-0.237500X0*%
%ADD21R,1.525000X0.650000*%
%ADD22RoundRect,0.250000X-0.475000X0.337500X-0.475000X-0.337500X0.475000X-0.337500X0.475000X0.337500X0*%
%ADD23RoundRect,0.250000X-0.350000X-0.450000X0.350000X-0.450000X0.350000X0.450000X-0.350000X0.450000X0*%
%ADD24RoundRect,0.250000X0.275000X0.350000X-0.275000X0.350000X-0.275000X-0.350000X0.275000X-0.350000X0*%
%ADD25R,0.400000X1.050000*%
%ADD26RoundRect,0.250000X0.475000X-0.337500X0.475000X0.337500X-0.475000X0.337500X-0.475000X-0.337500X0*%
%ADD27RoundRect,0.250000X-0.337500X-0.475000X0.337500X-0.475000X0.337500X0.475000X-0.337500X0.475000X0*%
%ADD28C,1.600000*%
%ADD29RoundRect,0.250000X0.620000X0.845000X-0.620000X0.845000X-0.620000X-0.845000X0.620000X-0.845000X0*%
%ADD30O,1.740000X2.190000*%
%ADD31R,0.600000X1.100000*%
%ADD32R,1.400000X4.000000*%
%ADD33R,1.500000X4.000000*%
%ADD34RoundRect,0.250000X-0.550000X1.050000X-0.550000X-1.050000X0.550000X-1.050000X0.550000X1.050000X0*%
%ADD35RoundRect,0.237500X-0.237500X0.250000X-0.237500X-0.250000X0.237500X-0.250000X0.237500X0.250000X0*%
%ADD36RoundRect,0.760000X-1.140000X1.140000X-1.140000X-1.140000X1.140000X-1.140000X1.140000X1.140000X0*%
%ADD37C,4.000000*%
%ADD38RoundRect,0.250000X-0.620000X-0.845000X0.620000X-0.845000X0.620000X0.845000X-0.620000X0.845000X0*%
%ADD39R,1.200000X0.450000*%
%ADD40RoundRect,0.250000X-0.600000X0.600000X-0.600000X-0.600000X0.600000X-0.600000X0.600000X0.600000X0*%
%ADD41C,1.700000*%
%ADD42RoundRect,0.250001X0.499999X-0.499999X0.499999X0.499999X-0.499999X0.499999X-0.499999X-0.499999X0*%
G04 APERTURE END LIST*
D10*
%TO.C,X3*%
X127424245Y-54497677D03*
D11*
X129964245Y-57037677D03*
X129964245Y-51957677D03*
X124884245Y-57037677D03*
X124884245Y-51957677D03*
%TD*%
D12*
%TO.C,C2*%
X152400000Y-70462500D03*
X152400000Y-68737500D03*
%TD*%
D13*
%TO.C,H203*%
X117500000Y-52500000D03*
D14*
X117500000Y-52500000D03*
%TD*%
D15*
%TO.C,C22*%
X163462500Y-69600000D03*
X161737500Y-69600000D03*
%TD*%
D16*
%TO.C,LS1*%
X156603570Y-93016821D03*
X156603570Y-85416821D03*
%TD*%
D12*
%TO.C,C4*%
X130400000Y-70462500D03*
X130400000Y-68737500D03*
%TD*%
D17*
%TO.C,R4*%
X160287500Y-64750000D03*
X162112500Y-64750000D03*
%TD*%
D18*
%TO.C,FB1*%
X130059854Y-84192091D03*
X130059854Y-81892091D03*
%TD*%
D19*
%TO.C,C19*%
X160500000Y-61425000D03*
X160500000Y-63150000D03*
%TD*%
D20*
%TO.C,R7*%
X159612500Y-59887500D03*
X157787500Y-59887500D03*
%TD*%
%TO.C,R11*%
X159225000Y-64750000D03*
X157400000Y-64750000D03*
%TD*%
D21*
%TO.C,U2*%
X132288000Y-68695000D03*
X132288000Y-69965000D03*
X132288000Y-71235000D03*
X132288000Y-72505000D03*
X137712000Y-72505000D03*
X137712000Y-71235000D03*
X137712000Y-69965000D03*
X137712000Y-68695000D03*
%TD*%
D19*
%TO.C,C1*%
X159800000Y-65737500D03*
X159800000Y-67462500D03*
%TD*%
D12*
%TO.C,C21*%
X140200000Y-56462500D03*
X140200000Y-54737500D03*
%TD*%
D22*
%TO.C,C12*%
X132059854Y-82004591D03*
X132059854Y-84079591D03*
%TD*%
D21*
%TO.C,U1*%
X154369242Y-68798868D03*
X154369242Y-70068868D03*
X154369242Y-71338868D03*
X154369242Y-72608868D03*
X159793242Y-72608868D03*
X159793242Y-71338868D03*
X159793242Y-70068868D03*
X159793242Y-68798868D03*
%TD*%
D23*
%TO.C,R13*%
X119000000Y-95000000D03*
X121000000Y-95000000D03*
%TD*%
D24*
%TO.C,L1*%
X134385903Y-59984380D03*
X132085903Y-59984380D03*
%TD*%
D25*
%TO.C,U8*%
X138492886Y-54545662D03*
X137842886Y-54545662D03*
X137192886Y-54545662D03*
X137192886Y-56445662D03*
X137842886Y-56445662D03*
X138492886Y-56445662D03*
%TD*%
D24*
%TO.C,FB6*%
X143991427Y-56390326D03*
X141691427Y-56390326D03*
%TD*%
D15*
%TO.C,C23*%
X141462500Y-69600000D03*
X139737500Y-69600000D03*
%TD*%
D22*
%TO.C,C9*%
X136559854Y-82004591D03*
X136559854Y-84079591D03*
%TD*%
D24*
%TO.C,FB2*%
X145350000Y-86000000D03*
X143050000Y-86000000D03*
%TD*%
D26*
%TO.C,C25*%
X166000000Y-90000000D03*
X166000000Y-87925000D03*
%TD*%
D20*
%TO.C,R8*%
X137549833Y-59984380D03*
X135724833Y-59984380D03*
%TD*%
D26*
%TO.C,C15*%
X167984529Y-89985480D03*
X167984529Y-87910480D03*
%TD*%
D20*
%TO.C,R12*%
X137399746Y-64595937D03*
X135574746Y-64595937D03*
%TD*%
D24*
%TO.C,FB3*%
X141950000Y-71000000D03*
X139650000Y-71000000D03*
%TD*%
D13*
%TO.C,H202*%
X172500000Y-111802405D03*
D14*
X172500000Y-111802405D03*
%TD*%
D12*
%TO.C,C5*%
X152400000Y-74262500D03*
X152400000Y-72537500D03*
%TD*%
D24*
%TO.C,L3*%
X134385903Y-64686985D03*
X132085903Y-64686985D03*
%TD*%
D27*
%TO.C,C16*%
X115762500Y-86000000D03*
X117837500Y-86000000D03*
%TD*%
D28*
%TO.C,U5*%
X115300000Y-104000000D03*
X117840000Y-104000000D03*
X120380000Y-104000000D03*
X122920000Y-104000000D03*
X125460000Y-104000000D03*
X128000000Y-104000000D03*
X130540000Y-104000000D03*
X133080000Y-104000000D03*
X135620000Y-104000000D03*
X138160000Y-104000000D03*
X140700000Y-104000000D03*
X143240000Y-104000000D03*
X145780000Y-104000000D03*
X148320000Y-104000000D03*
X148320000Y-88760000D03*
X145780000Y-88760000D03*
X143240000Y-88760000D03*
X140700000Y-88760000D03*
X138160000Y-88760000D03*
X135620000Y-88760000D03*
X133080000Y-88760000D03*
X130540000Y-88760000D03*
X128000000Y-88760000D03*
X125460000Y-88760000D03*
X122920000Y-88760000D03*
X120380000Y-88760000D03*
X117840000Y-88760000D03*
X115300000Y-88760000D03*
%TD*%
D10*
%TO.C,X2*%
X149900000Y-54500000D03*
D11*
X152440000Y-57040000D03*
X152440000Y-51960000D03*
X147360000Y-57040000D03*
X147360000Y-51960000D03*
%TD*%
D29*
%TO.C,J1*%
X126000000Y-72500000D03*
D30*
X123460000Y-72500000D03*
%TD*%
D13*
%TO.C,H204*%
X172500000Y-52500000D03*
D14*
X172500000Y-52500000D03*
%TD*%
D23*
%TO.C,R14*%
X119000000Y-97000000D03*
X121000000Y-97000000D03*
%TD*%
D25*
%TO.C,U7*%
X160489664Y-54500000D03*
X159839664Y-54500000D03*
X159189664Y-54500000D03*
X159189664Y-56400000D03*
X159839664Y-56400000D03*
X160489664Y-56400000D03*
%TD*%
D22*
%TO.C,C11*%
X134559854Y-82004591D03*
X134559854Y-84079591D03*
%TD*%
D17*
%TO.C,R5*%
X138284453Y-64614350D03*
X140109453Y-64614350D03*
%TD*%
D12*
%TO.C,C20*%
X162200000Y-56462500D03*
X162200000Y-54737500D03*
%TD*%
D31*
%TO.C,U3*%
X130109854Y-80142091D03*
X132009854Y-80142091D03*
X131059854Y-77942091D03*
%TD*%
D24*
%TO.C,L4*%
X156133182Y-64781068D03*
X153833182Y-64781068D03*
%TD*%
D27*
%TO.C,C14*%
X118962500Y-93000000D03*
X121037500Y-93000000D03*
%TD*%
D24*
%TO.C,FB4*%
X163950000Y-71000000D03*
X161650000Y-71000000D03*
%TD*%
D26*
%TO.C,C26*%
X143400000Y-92837500D03*
X143400000Y-90762500D03*
%TD*%
D32*
%TO.C,X1*%
X160500000Y-49500000D03*
D33*
X157960000Y-49500000D03*
X163040000Y-49500000D03*
%TD*%
D19*
%TO.C,C18*%
X138393559Y-61484980D03*
X138393559Y-63209980D03*
%TD*%
D34*
%TO.C,C24*%
X174500000Y-82700000D03*
X174500000Y-86300000D03*
%TD*%
D27*
%TO.C,C13*%
X119000000Y-99037500D03*
X121075000Y-99037500D03*
%TD*%
D29*
%TO.C,J2*%
X148500000Y-72500000D03*
D30*
X145960000Y-72500000D03*
%TD*%
D13*
%TO.C,H201*%
X117500724Y-111900000D03*
D14*
X117500724Y-111900000D03*
%TD*%
D35*
%TO.C,R9*%
X159100000Y-61375000D03*
X159100000Y-63200000D03*
%TD*%
D36*
%TO.C,J3*%
X174300000Y-72600000D03*
D37*
X174300000Y-77600000D03*
%TD*%
D19*
%TO.C,C3*%
X137800000Y-65737500D03*
X137800000Y-67462500D03*
%TD*%
D32*
%TO.C,X4*%
X138460000Y-49500000D03*
D33*
X135920000Y-49500000D03*
X141000000Y-49500000D03*
%TD*%
D24*
%TO.C,L2*%
X156450000Y-59887500D03*
X154150000Y-59887500D03*
%TD*%
%TO.C,FB5*%
X166150000Y-56400000D03*
X163850000Y-56400000D03*
%TD*%
D38*
%TO.C,J5*%
X125269371Y-111000000D03*
D30*
X127809371Y-111000000D03*
X130349371Y-111000000D03*
X132889371Y-111000000D03*
X135429371Y-111000000D03*
X137969371Y-111000000D03*
X140509371Y-111000000D03*
X143049371Y-111000000D03*
X145589371Y-111000000D03*
%TD*%
D26*
%TO.C,C17*%
X169985879Y-89985480D03*
X169985879Y-87910480D03*
%TD*%
D39*
%TO.C,U4*%
X141042091Y-81370791D03*
X141042091Y-80720791D03*
X141042091Y-80070791D03*
X141042091Y-79420791D03*
X138542091Y-79420791D03*
X138542091Y-80070791D03*
X138542091Y-80720791D03*
X138542091Y-81370791D03*
%TD*%
D26*
%TO.C,C10*%
X136559854Y-78879591D03*
X136559854Y-76804591D03*
%TD*%
D35*
%TO.C,R10*%
X136999587Y-61480397D03*
X136999587Y-63305397D03*
%TD*%
D40*
%TO.C,J4*%
X168160000Y-101000000D03*
D41*
X168160000Y-103540000D03*
X165620000Y-101000000D03*
X165620000Y-103540000D03*
X163080000Y-101000000D03*
X163080000Y-103540000D03*
X160540000Y-101000000D03*
X160540000Y-103540000D03*
X158000000Y-101000000D03*
X158000000Y-103540000D03*
%TD*%
D12*
%TO.C,C6*%
X130400000Y-74262500D03*
X130400000Y-72537500D03*
%TD*%
D42*
%TO.C,U201*%
X173615000Y-92317500D03*
D16*
X171075000Y-92317500D03*
X168535000Y-92317500D03*
%TD*%
G36*
X160087905Y-53552236D02*
G01*
X160112095Y-53554637D01*
X160171590Y-53566519D01*
X160216276Y-53585069D01*
X160256343Y-53611886D01*
X160290528Y-53646124D01*
X160317297Y-53686254D01*
X160335768Y-53730920D01*
X160347554Y-53790290D01*
X160349927Y-53814435D01*
X160349927Y-55008416D01*
X160330242Y-55075455D01*
X160277438Y-55121210D01*
X160225927Y-55132416D01*
X160099927Y-55132416D01*
X160074935Y-55157408D01*
X160013612Y-55190893D01*
X159987254Y-55193727D01*
X149223927Y-55193727D01*
X149156888Y-55174042D01*
X149111133Y-55121238D01*
X149099927Y-55069727D01*
X149099927Y-53917823D01*
X149119612Y-53850784D01*
X149172416Y-53805029D01*
X149224023Y-53793823D01*
X159900000Y-53802091D01*
X159900000Y-53676187D01*
X159919685Y-53609148D01*
X159972489Y-53563393D01*
X160024095Y-53552187D01*
X160087905Y-53552236D01*
G37*
G36*
X161140604Y-57133031D02*
G01*
X161186976Y-57185294D01*
X161198795Y-57237931D01*
X161218309Y-69577105D01*
X161198730Y-69644175D01*
X161145999Y-69690014D01*
X161094479Y-69701301D01*
X158253145Y-69705203D01*
X158186079Y-69685610D01*
X158140251Y-69632869D01*
X158128975Y-69581203D01*
X158128975Y-65500112D01*
X155452975Y-65500112D01*
X155385936Y-65480427D01*
X155340181Y-65427623D01*
X155328975Y-65376112D01*
X155328975Y-64024411D01*
X155348660Y-63957372D01*
X155401464Y-63911617D01*
X155453274Y-63900411D01*
X158121728Y-63906841D01*
X158128975Y-60899983D01*
X155452981Y-60900106D01*
X155385940Y-60880425D01*
X155340183Y-60827623D01*
X155328975Y-60776106D01*
X155328975Y-59225656D01*
X155348660Y-59158617D01*
X155401464Y-59112862D01*
X155454510Y-59101666D01*
X158128973Y-59134777D01*
X158128975Y-59134775D01*
X158107095Y-57273003D01*
X158125990Y-57205737D01*
X158178253Y-57159365D01*
X158229629Y-57147555D01*
X161073338Y-57114136D01*
X161140604Y-57133031D01*
G37*
G36*
X162043039Y-47552101D02*
G01*
X162088794Y-47604905D01*
X162100000Y-47656416D01*
X162100000Y-51408416D01*
X162080315Y-51475455D01*
X162027511Y-51521210D01*
X161976000Y-51532416D01*
X161500000Y-51532416D01*
X161500000Y-55008416D01*
X161480315Y-55075455D01*
X161427511Y-55121210D01*
X161376000Y-55132416D01*
X160099927Y-55132416D01*
X160074935Y-55157408D01*
X160013612Y-55190893D01*
X159987254Y-55193727D01*
X159774000Y-55193727D01*
X159706961Y-55174042D01*
X159661206Y-55121238D01*
X159650000Y-55069727D01*
X159650000Y-53925993D01*
X159669685Y-53858954D01*
X159722489Y-53813199D01*
X159774097Y-53801993D01*
X159899999Y-53802090D01*
X159900000Y-53802090D01*
X159900000Y-51532416D01*
X159024000Y-51532416D01*
X158956961Y-51512731D01*
X158911206Y-51459927D01*
X158900000Y-51408416D01*
X158900000Y-47656416D01*
X158919685Y-47589377D01*
X158972489Y-47543622D01*
X159024000Y-47532416D01*
X161976000Y-47532416D01*
X162043039Y-47552101D01*
G37*
G36*
X139943039Y-47419685D02*
G01*
X139988794Y-47472489D01*
X140000000Y-47524000D01*
X140000000Y-51276000D01*
X139980315Y-51343039D01*
X139927511Y-51388794D01*
X139876000Y-51400000D01*
X139400000Y-51400000D01*
X139393997Y-54878750D01*
X139374197Y-54945755D01*
X139321314Y-54991419D01*
X139269783Y-55002536D01*
X137923786Y-55000213D01*
X137856781Y-54980413D01*
X137811117Y-54927530D01*
X137800000Y-54876213D01*
X137800000Y-51400000D01*
X136924000Y-51400000D01*
X136856961Y-51380315D01*
X136811206Y-51327511D01*
X136800000Y-51276000D01*
X136800000Y-47524000D01*
X136819685Y-47456961D01*
X136872489Y-47411206D01*
X136924000Y-47400000D01*
X139876000Y-47400000D01*
X139943039Y-47419685D01*
G37*
G36*
X137277774Y-53813923D02*
G01*
X137344788Y-53833693D01*
X137390475Y-53886556D01*
X137401615Y-53938082D01*
X137400159Y-55076159D01*
X137380389Y-55143173D01*
X137327526Y-55188860D01*
X137276159Y-55200000D01*
X126524000Y-55200000D01*
X126456961Y-55180315D01*
X126411206Y-55127511D01*
X126400000Y-55076000D01*
X126400000Y-53924158D01*
X126419685Y-53857119D01*
X126472489Y-53811364D01*
X126524159Y-53800158D01*
X137277774Y-53813923D01*
G37*
G36*
X139210758Y-57033419D02*
G01*
X139257561Y-57085296D01*
X139269821Y-57138860D01*
X139289334Y-69476993D01*
X139269755Y-69544063D01*
X139217024Y-69589902D01*
X139165504Y-69601189D01*
X136324170Y-69605091D01*
X136257104Y-69585498D01*
X136211276Y-69532757D01*
X136200000Y-69481091D01*
X136200000Y-65400000D01*
X133524000Y-65400000D01*
X133456961Y-65380315D01*
X133411206Y-65327511D01*
X133400000Y-65276000D01*
X133400000Y-63924299D01*
X133419685Y-63857260D01*
X133472489Y-63811505D01*
X133524299Y-63800299D01*
X136192753Y-63806729D01*
X136200000Y-60799871D01*
X133524006Y-60799994D01*
X133456965Y-60780313D01*
X133411208Y-60727511D01*
X133400000Y-60675994D01*
X133400000Y-59125544D01*
X133419685Y-59058505D01*
X133472489Y-59012750D01*
X133525535Y-59001554D01*
X136199998Y-59034665D01*
X136200000Y-59034663D01*
X136178123Y-57173211D01*
X136197018Y-57105945D01*
X136249281Y-57059573D01*
X136300975Y-57047759D01*
X138537529Y-57027215D01*
X139143338Y-57015081D01*
X139210758Y-57033419D01*
G37*
M02*
