%TF.GenerationSoftware,KiCad,Pcbnew,10.0.1*%
%TF.CreationDate,2026-05-25T09:19:08+02:00*%
%TF.ProjectId,swr_meter,7377725f-6d65-4746-9572-2e6b69636164,rev?*%
%TF.SameCoordinates,Original*%
%TF.FileFunction,Copper,L4,Bot*%
%TF.FilePolarity,Positive*%
%FSLAX46Y46*%
G04 Gerber Fmt 4.6, Leading zero omitted, Abs format (unit mm)*
G04 Created by KiCad (PCBNEW 10.0.1) date 2026-05-25 09:19:08*
%MOMM*%
%LPD*%
G01*
G04 APERTURE LIST*
G04 Aperture macros list*
%AMRoundRect*
0 Rectangle with rounded corners*
0 $1 Rounding radius*
0 $2 $3 $4 $5 $6 $7 $8 $9 X,Y pos of 4 corners*
0 Add a 4 corners polygon primitive as box body*
4,1,4,$2,$3,$4,$5,$6,$7,$8,$9,$2,$3,0*
0 Add four circle primitives for the rounded corners*
1,1,$1+$1,$2,$3*
1,1,$1+$1,$4,$5*
1,1,$1+$1,$6,$7*
1,1,$1+$1,$8,$9*
0 Add four rect primitives between the rounded corners*
20,1,$1+$1,$2,$3,$4,$5,0*
20,1,$1+$1,$4,$5,$6,$7,0*
20,1,$1+$1,$6,$7,$8,$9,0*
20,1,$1+$1,$8,$9,$2,$3,0*%
G04 Aperture macros list end*
%TA.AperFunction,ComponentPad*%
%ADD10C,1.998980*%
%TD*%
%TA.AperFunction,ComponentPad*%
%ADD11C,2.499360*%
%TD*%
%TA.AperFunction,ComponentPad*%
%ADD12C,3.600000*%
%TD*%
%TA.AperFunction,ConnectorPad*%
%ADD13C,5.500000*%
%TD*%
%TA.AperFunction,ComponentPad*%
%ADD14C,1.500000*%
%TD*%
%TA.AperFunction,ComponentPad*%
%ADD15C,1.600000*%
%TD*%
%TA.AperFunction,ComponentPad*%
%ADD16RoundRect,0.250000X0.620000X0.845000X-0.620000X0.845000X-0.620000X-0.845000X0.620000X-0.845000X0*%
%TD*%
%TA.AperFunction,ComponentPad*%
%ADD17O,1.740000X2.190000*%
%TD*%
%TA.AperFunction,SMDPad,CuDef*%
%ADD18R,1.500000X4.000000*%
%TD*%
%TA.AperFunction,ComponentPad*%
%ADD19RoundRect,0.760000X-1.140000X1.140000X-1.140000X-1.140000X1.140000X-1.140000X1.140000X1.140000X0*%
%TD*%
%TA.AperFunction,ComponentPad*%
%ADD20C,4.000000*%
%TD*%
%TA.AperFunction,ComponentPad*%
%ADD21RoundRect,0.250000X-0.620000X-0.845000X0.620000X-0.845000X0.620000X0.845000X-0.620000X0.845000X0*%
%TD*%
%TA.AperFunction,ComponentPad*%
%ADD22RoundRect,0.250000X-0.600000X0.600000X-0.600000X-0.600000X0.600000X-0.600000X0.600000X0.600000X0*%
%TD*%
%TA.AperFunction,ComponentPad*%
%ADD23C,1.700000*%
%TD*%
%TA.AperFunction,SMDPad,CuDef*%
%ADD24RoundRect,0.237500X0.300000X0.237500X-0.300000X0.237500X-0.300000X-0.237500X0.300000X-0.237500X0*%
%TD*%
%TA.AperFunction,ComponentPad*%
%ADD25RoundRect,0.250001X0.499999X-0.499999X0.499999X0.499999X-0.499999X0.499999X-0.499999X-0.499999X0*%
%TD*%
%TA.AperFunction,ViaPad*%
%ADD26C,0.600000*%
%TD*%
%TA.AperFunction,Conductor*%
%ADD27C,1.000000*%
%TD*%
%TA.AperFunction,Conductor*%
%ADD28C,0.400000*%
%TD*%
G04 APERTURE END LIST*
D10*
%TO.P,X3,1,In_1*%
%TO.N,Net-(U8-RF2)*%
X127424245Y-54497677D03*
D11*
%TO.P,X3,2,Ext_2*%
%TO.N,GND*%
X129964245Y-57037677D03*
X129964245Y-51957677D03*
X124884245Y-57037677D03*
X124884245Y-51957677D03*
%TD*%
D12*
%TO.P,H203,1,1_1*%
%TO.N,GND*%
X117500000Y-52500000D03*
D13*
X117500000Y-52500000D03*
%TD*%
D14*
%TO.P,LS1,1,+_1*%
%TO.N,+3.3V*%
X156603570Y-93016821D03*
%TO.P,LS1,2,-_2*%
%TO.N,PiezoAlarm*%
X156603570Y-85416821D03*
%TD*%
D12*
%TO.P,H202,1,1_1*%
%TO.N,GND*%
X172500000Y-111802405D03*
D13*
X172500000Y-111802405D03*
%TD*%
D15*
%TO.P,U5,1,GND_1*%
%TO.N,GND*%
X115300000Y-104000000D03*
%TO.P,U5,2,0_RX1_CRX2_CS1_2*%
%TO.N,/UIO0*%
X117840000Y-104000000D03*
%TO.P,U5,3,1_TX1_CTX2_MISO1_3*%
%TO.N,/UIO1*%
X120380000Y-104000000D03*
%TO.P,U5,4,2_OUT2_4*%
%TO.N,unconnected-(U5-2_OUT2-Pad4)*%
X122920000Y-104000000D03*
%TO.P,U5,5,3_LRCLK2_5*%
%TO.N,unconnected-(U5-3_LRCLK2-Pad5)*%
X125460000Y-104000000D03*
%TO.P,U5,6,4_BCLK2_6*%
%TO.N,SWR-Alarm*%
X128000000Y-104000000D03*
%TO.P,U5,7,5_IN2_7*%
%TO.N,/UIO3*%
X130540000Y-104000000D03*
%TO.P,U5,8,6_OUT1D_8*%
%TO.N,/UIO4*%
X133080000Y-104000000D03*
%TO.P,U5,9,7_RX2_OUT1A_9*%
%TO.N,/UIO5*%
X135620000Y-104000000D03*
%TO.P,U5,10,8_TX2_IN1_10*%
%TO.N,RA8875-33*%
X138160000Y-104000000D03*
%TO.P,U5,11,9_OUT1C_11*%
%TO.N,/UIO6*%
X140700000Y-104000000D03*
%TO.P,U5,12,10_CS_MQSR_12*%
%TO.N,RA8875-5*%
X143240000Y-104000000D03*
%TO.P,U5,13,11_MOSI_CTX1_13*%
%TO.N,RA8875-7*%
X145780000Y-104000000D03*
%TO.P,U5,14,12_MISO_MQSL_14*%
%TO.N,RA8875-6*%
X148320000Y-104000000D03*
%TO.P,U5,20,13_SCK_CRX1_LED_20*%
%TO.N,RA8875-8*%
X148320000Y-88760000D03*
%TO.P,U5,21,14_A0_TX3_SPDIF_OUT_21*%
%TO.N,PiezoAlarm*%
X145780000Y-88760000D03*
%TO.P,U5,22,15_A1_RX3_SPDIF_IN_22*%
%TO.N,InputSelect*%
X143240000Y-88760000D03*
%TO.P,U5,23,16_A2_RX4_SCL1_23*%
%TO.N,RA8875-35*%
X140700000Y-88760000D03*
%TO.P,U5,24,17_A3_TX4_SDA1_24*%
%TO.N,RA8875-34*%
X138160000Y-88760000D03*
%TO.P,U5,25,18_A4_SDA0_25*%
%TO.N,Net-(U4-SDA)*%
X135620000Y-88760000D03*
%TO.P,U5,26,19_A5_SCL0_26*%
%TO.N,Net-(U4-SCL)*%
X133080000Y-88760000D03*
%TO.P,U5,27,20_A6_TX5_LRCLK1_27*%
%TO.N,unconnected-(U5-20_A6_TX5_LRCLK1-Pad27)*%
X130540000Y-88760000D03*
%TO.P,U5,28,21_A7_RX5_BCLK1_28*%
%TO.N,unconnected-(U5-21_A7_RX5_BCLK1-Pad28)*%
X128000000Y-88760000D03*
%TO.P,U5,29,22_A8_CTX1_29*%
%TO.N,unconnected-(U5-22_A8_CTX1-Pad29)*%
X125460000Y-88760000D03*
%TO.P,U5,30,23_A9_CRX1_MCLK1_30*%
%TO.N,unconnected-(U5-23_A9_CRX1_MCLK1-Pad30)*%
X122920000Y-88760000D03*
%TO.P,U5,31,3V3_31*%
%TO.N,+3.3V*%
X120380000Y-88760000D03*
%TO.P,U5,32,GND_32*%
%TO.N,GND*%
X117840000Y-88760000D03*
%TO.P,U5,33,VIN_33*%
%TO.N,+5V*%
X115300000Y-88760000D03*
%TD*%
D10*
%TO.P,X2,1,In_1*%
%TO.N,Net-(U7-RF2)*%
X149900000Y-54500000D03*
D11*
%TO.P,X2,2,Ext_2*%
%TO.N,GND*%
X152440000Y-57040000D03*
X152440000Y-51960000D03*
X147360000Y-57040000D03*
X147360000Y-51960000D03*
%TD*%
D16*
%TO.P,J1,1,Pin_1_1*%
%TO.N,Net-(J1-Pin_1)*%
X126000000Y-72500000D03*
D17*
%TO.P,J1,2,Pin_2_2*%
%TO.N,GND*%
X123460000Y-72500000D03*
%TD*%
D12*
%TO.P,H204,1,1_1*%
%TO.N,GND*%
X172500000Y-52500000D03*
D13*
X172500000Y-52500000D03*
%TD*%
D18*
%TO.P,X1,2,Ext_2*%
%TO.N,GND*%
X157960000Y-49500000D03*
X163040000Y-49500000D03*
%TD*%
D16*
%TO.P,J2,1,Pin_1_1*%
%TO.N,Net-(J2-Pin_1)*%
X148500000Y-72500000D03*
D17*
%TO.P,J2,2,Pin_2_2*%
%TO.N,GND*%
X145960000Y-72500000D03*
%TD*%
D12*
%TO.P,H201,1,1_1*%
%TO.N,GND*%
X117500724Y-111900000D03*
D13*
X117500724Y-111900000D03*
%TD*%
D19*
%TO.P,J3,1,Pin_1_1*%
%TO.N,GND*%
X174300000Y-72600000D03*
D20*
%TO.P,J3,2,Pin_2_2*%
%TO.N,Net-(J3-Pin_2)*%
X174300000Y-77600000D03*
%TD*%
D18*
%TO.P,X4,2,Ext_2*%
%TO.N,GND*%
X135920000Y-49500000D03*
X141000000Y-49500000D03*
%TD*%
D21*
%TO.P,J5,1,Pin_1_1*%
%TO.N,/UIO0*%
X125269371Y-111000000D03*
D17*
%TO.P,J5,2,Pin_2_2*%
%TO.N,/UIO1*%
X127809371Y-111000000D03*
%TO.P,J5,3,Pin_3_3*%
%TO.N,SWR-Alarm*%
X130349371Y-111000000D03*
%TO.P,J5,4,Pin_4_4*%
%TO.N,/UIO3*%
X132889371Y-111000000D03*
%TO.P,J5,5,Pin_5_5*%
%TO.N,/UIO4*%
X135429371Y-111000000D03*
%TO.P,J5,6,Pin_6_6*%
%TO.N,GND*%
X137969371Y-111000000D03*
%TO.P,J5,7,Pin_7_7*%
%TO.N,/UIO5*%
X140509371Y-111000000D03*
%TO.P,J5,8,Pin_8_8*%
%TO.N,/UIO6*%
X143049371Y-111000000D03*
%TO.P,J5,9,Pin_9_9*%
%TO.N,GND*%
X145589371Y-111000000D03*
%TD*%
D22*
%TO.P,J4,1,Pin_1_1*%
%TO.N,RA8875-35*%
X168160000Y-101000000D03*
D23*
%TO.P,J4,2,Pin_2_2*%
%TO.N,RA8875-34*%
X168160000Y-103540000D03*
%TO.P,J4,3,Pin_3_3*%
%TO.N,RA8875-33*%
X165620000Y-101000000D03*
%TO.P,J4,4,Pin_4_4*%
%TO.N,RA8875-7*%
X165620000Y-103540000D03*
%TO.P,J4,5,Pin_5_5*%
%TO.N,unconnected-(J4-Pin_5-Pad5)*%
X163080000Y-101000000D03*
%TO.P,J4,6,Pin_6_6*%
%TO.N,RA8875-5*%
X163080000Y-103540000D03*
%TO.P,J4,7,Pin_7_7*%
%TO.N,RA8875-6*%
X160540000Y-101000000D03*
%TO.P,J4,8,Pin_8_8*%
%TO.N,RA8875-8*%
X160540000Y-103540000D03*
%TO.P,J4,9,Pin_9_9*%
%TO.N,GND*%
X158000000Y-101000000D03*
%TO.P,J4,10,Pin_10_10*%
%TO.N,+5V*%
X158000000Y-103540000D03*
%TD*%
D24*
%TO.P,C28,1*%
%TO.N,Net-(U7-CTRL)*%
X152600000Y-60400000D03*
%TO.P,C28,2*%
%TO.N,GND*%
X150875000Y-60400000D03*
%TD*%
D25*
%TO.P,U201,1,Vin_1*%
%TO.N,Net-(J3-Pin_2)*%
X173615000Y-92317500D03*
D14*
%TO.P,U201,2,GND_2*%
%TO.N,GND*%
X171075000Y-92317500D03*
%TO.P,U201,3,Vout_3*%
%TO.N,+5V*%
X168535000Y-92317500D03*
%TD*%
D24*
%TO.P,C29,1*%
%TO.N,Net-(U7-CTRL)*%
X130760106Y-59748227D03*
%TO.P,C29,2*%
%TO.N,GND*%
X129035104Y-59748227D03*
%TD*%
D26*
%TO.N,GND*%
X131800000Y-99000000D03*
X132600000Y-53400000D03*
X139800000Y-66900000D03*
X154800000Y-55600000D03*
X136500000Y-53400000D03*
X176500000Y-86000000D03*
X176500000Y-93500000D03*
X139800000Y-65600000D03*
X122800000Y-99000000D03*
X157400000Y-53400000D03*
X131600000Y-84800000D03*
X133300000Y-66200000D03*
X157600000Y-61600000D03*
X114400000Y-93400000D03*
X162000000Y-68200000D03*
X162000000Y-63000000D03*
X130000000Y-55600000D03*
X145000000Y-94400000D03*
X155300000Y-66200000D03*
X132600000Y-84800000D03*
X152000000Y-115500000D03*
X176500000Y-61000000D03*
X153500000Y-53400000D03*
X176500000Y-96000000D03*
X154500000Y-115500000D03*
X132000000Y-63400000D03*
X157600000Y-68900000D03*
X176500000Y-51000000D03*
X122000000Y-48500000D03*
X140200000Y-54600000D03*
X164500000Y-115500000D03*
X114500000Y-56000000D03*
X122800000Y-86200000D03*
X146400000Y-94400000D03*
X132600000Y-55600000D03*
X131800000Y-86200000D03*
X176500000Y-111000000D03*
X169500000Y-115500000D03*
X129000000Y-71500000D03*
X162000000Y-59100000D03*
X139800000Y-61700000D03*
X167000000Y-115500000D03*
X134500000Y-115500000D03*
X114500000Y-83500000D03*
X114500000Y-51000000D03*
X135600000Y-58400000D03*
X162200000Y-52000000D03*
X135200000Y-55600000D03*
X130800000Y-90800000D03*
X114500000Y-68500000D03*
X152000000Y-48500000D03*
X139500000Y-115500000D03*
X157000000Y-115500000D03*
X162200000Y-54600000D03*
X152200000Y-55600000D03*
X130800000Y-99000000D03*
X135600000Y-61700000D03*
X143600000Y-94400000D03*
X162000000Y-61700000D03*
X117000000Y-115500000D03*
X132000000Y-66200000D03*
X128800000Y-99000000D03*
X151000000Y-69500000D03*
X154800000Y-53400000D03*
X129800000Y-86200000D03*
X164500000Y-69500000D03*
X151000000Y-70500000D03*
X114500000Y-71000000D03*
X159500000Y-115500000D03*
X149500000Y-115500000D03*
X176500000Y-71000000D03*
X157600000Y-62900000D03*
X155600000Y-58400000D03*
X132000000Y-61200000D03*
X127800000Y-99000000D03*
X174500000Y-115500000D03*
X151000000Y-71500000D03*
X128800000Y-86200000D03*
X133400000Y-58400000D03*
X144500000Y-115500000D03*
X154000000Y-66200000D03*
X114500000Y-96000000D03*
X176500000Y-98500000D03*
X163500000Y-68500000D03*
X153500000Y-55600000D03*
X156600000Y-61200000D03*
X162000000Y-64300000D03*
X135200000Y-53400000D03*
X142000000Y-48500000D03*
X176500000Y-53500000D03*
X114600000Y-80900000D03*
X156600000Y-63400000D03*
X126800000Y-86200000D03*
X133900000Y-53400000D03*
X126800000Y-99000000D03*
X172000000Y-115500000D03*
X129000000Y-68500000D03*
X114500000Y-48500000D03*
X176500000Y-88500000D03*
X123800000Y-86200000D03*
X114500000Y-115500000D03*
X134593242Y-61387378D03*
X114500000Y-53500000D03*
X157600000Y-66300000D03*
X176500000Y-63500000D03*
X131300000Y-53400000D03*
X147000000Y-48500000D03*
X157600000Y-67600000D03*
X169500000Y-48500000D03*
X130000000Y-53400000D03*
X133600000Y-84800000D03*
X135600000Y-66900000D03*
X125800000Y-90800000D03*
X125800000Y-86200000D03*
X140200000Y-53300000D03*
X140200000Y-64600000D03*
X176500000Y-73500000D03*
X129000000Y-69500000D03*
X139800000Y-63000000D03*
X124500000Y-48500000D03*
X123800000Y-99000000D03*
X129000000Y-70500000D03*
X119500000Y-48500000D03*
X129800000Y-90800000D03*
X156600000Y-58400000D03*
X176500000Y-66000000D03*
X114500000Y-106000000D03*
X122800000Y-90800000D03*
X133300000Y-61200000D03*
X176500000Y-58500000D03*
X149500000Y-48500000D03*
X162000000Y-60400000D03*
X114500000Y-101000000D03*
X176500000Y-48500000D03*
X140200000Y-52000000D03*
X129800000Y-99000000D03*
X133900000Y-55600000D03*
X156100000Y-55600000D03*
X127000000Y-115500000D03*
X121800000Y-90800000D03*
X132000000Y-115500000D03*
X119500000Y-115500000D03*
X130800000Y-86200000D03*
X114500000Y-58500000D03*
X114500000Y-76000000D03*
X152200000Y-53400000D03*
X157800000Y-58400000D03*
X162000000Y-65600000D03*
X126800000Y-90800000D03*
X136600000Y-84800000D03*
X162000000Y-66900000D03*
X127800000Y-90800000D03*
X132000000Y-48500000D03*
X155300000Y-61200000D03*
X123800000Y-90800000D03*
X176500000Y-113500000D03*
X114500000Y-98500000D03*
X172000000Y-48500000D03*
X176500000Y-56000000D03*
X134600000Y-63400000D03*
X128800000Y-90800000D03*
X114500000Y-73500000D03*
X133300000Y-63400000D03*
X131300000Y-55600000D03*
X162000000Y-57800000D03*
X134500000Y-48500000D03*
X154500000Y-48500000D03*
X138600000Y-84800000D03*
X129500000Y-115500000D03*
X176500000Y-81000000D03*
X114500000Y-66000000D03*
X117000000Y-48500000D03*
X154000000Y-63400000D03*
X156600000Y-66200000D03*
X124800000Y-90800000D03*
X122000000Y-115500000D03*
X176500000Y-91000000D03*
X144500000Y-48500000D03*
X141500000Y-68500000D03*
X114500000Y-63500000D03*
X154000000Y-61200000D03*
X135600000Y-57400000D03*
X135600000Y-68200000D03*
X176500000Y-103500000D03*
X139800000Y-68200000D03*
X114400000Y-90900000D03*
X174500000Y-48500000D03*
X156100000Y-53400000D03*
X127000000Y-48500000D03*
X158600000Y-52000000D03*
X134600000Y-84800000D03*
X135600000Y-84800000D03*
X114500000Y-61000000D03*
X137000000Y-115500000D03*
X176500000Y-106000000D03*
X176500000Y-101000000D03*
X124500000Y-115500000D03*
X155300000Y-63400000D03*
X114500000Y-108500000D03*
X147000000Y-115500000D03*
X142000000Y-115500000D03*
X124800000Y-86200000D03*
X158600000Y-53300000D03*
X129500000Y-48500000D03*
X124800000Y-99000000D03*
X135600000Y-63000000D03*
X139800000Y-60400000D03*
X167000000Y-48500000D03*
X134600000Y-66200000D03*
X139800000Y-57800000D03*
X157800000Y-57400000D03*
X134600000Y-58400000D03*
X114600000Y-78400000D03*
X162000000Y-115500000D03*
X176500000Y-68500000D03*
X142500000Y-69500000D03*
X164500000Y-48500000D03*
X162200000Y-53300000D03*
X176500000Y-83500000D03*
X137600000Y-84800000D03*
X125800000Y-99000000D03*
X136400000Y-52000000D03*
X176500000Y-108500000D03*
X127800000Y-86200000D03*
X151000000Y-68500000D03*
X135600000Y-66000000D03*
X139800000Y-59100000D03*
X157400000Y-55600000D03*
%TO.N,+3.3V*%
X144000000Y-60000000D03*
X144000000Y-59000000D03*
X166000000Y-59000000D03*
X166000000Y-58000000D03*
X144000000Y-58000000D03*
X166000000Y-60000000D03*
%TO.N,Net-(U7-CTRL)*%
X134400000Y-57000000D03*
X147400000Y-86000000D03*
X155400000Y-56800000D03*
X148400000Y-86000000D03*
X156800000Y-56800000D03*
X132900000Y-57000000D03*
X146600000Y-86000000D03*
%TO.N,+5V*%
X141950000Y-72750000D03*
X164000000Y-74400000D03*
X142000000Y-74200000D03*
X164000000Y-73400000D03*
X163950000Y-72350000D03*
X140200000Y-82800000D03*
X139317766Y-82800001D03*
X142000000Y-75400000D03*
X138317765Y-82800002D03*
%TD*%
%TO.N,+3.3V*%
D27*
X166000000Y-59000000D02*
X166000000Y-58000000D01*
X144000000Y-60000000D02*
X144000000Y-59000000D01*
X166000000Y-60000000D02*
X166000000Y-59000000D01*
X144000000Y-59000000D02*
X144000000Y-58000000D01*
%TO.N,Net-(U7-CTRL)*%
X130800000Y-76000000D02*
X130800000Y-59100000D01*
X152600000Y-59600000D02*
X155400000Y-56800000D01*
X138600000Y-78000000D02*
X132800000Y-78000000D01*
X155400000Y-56800000D02*
X156000000Y-56800000D01*
X146600000Y-86000000D02*
X138600000Y-78000000D01*
X156000000Y-56800000D02*
X156800000Y-56800000D01*
X132900000Y-57000000D02*
X134400000Y-57000000D01*
X152600000Y-81800000D02*
X152600000Y-59600000D01*
X130800000Y-59100000D02*
X132900000Y-57000000D01*
X132800000Y-78000000D02*
X130800000Y-76000000D01*
X148400000Y-86000000D02*
X152600000Y-81800000D01*
X148400000Y-86000000D02*
X146600000Y-86000000D01*
%TO.N,+5V*%
X164000000Y-72400000D02*
X163950000Y-72350000D01*
X164000000Y-73400000D02*
X164000000Y-72400000D01*
D28*
X139317767Y-82800000D02*
X139317766Y-82800001D01*
D27*
X164000000Y-74400000D02*
X164000000Y-73400000D01*
X142000000Y-72800000D02*
X141950000Y-72750000D01*
D28*
X138317766Y-82800001D02*
X138317765Y-82800002D01*
X140200000Y-82800000D02*
X139317767Y-82800000D01*
X139317766Y-82800001D02*
X138317766Y-82800001D01*
D27*
X142000000Y-75400000D02*
X142000000Y-74200000D01*
X142000000Y-74200000D02*
X142000000Y-72800000D01*
%TO.N,RA8875-33*%
X138160000Y-99440000D02*
X140600000Y-97000000D01*
X164400000Y-97000000D02*
X165620000Y-98220000D01*
X140600000Y-97000000D02*
X164400000Y-97000000D01*
X138160000Y-104000000D02*
X138160000Y-99440000D01*
X165620000Y-98220000D02*
X165620000Y-101000000D01*
%TO.N,RA8875-6*%
X148320000Y-101280000D02*
X151000000Y-98600000D01*
X151000000Y-98600000D02*
X159800000Y-98600000D01*
X148320000Y-104000000D02*
X148320000Y-101280000D01*
X159800000Y-98600000D02*
X160600000Y-99400000D01*
X160600000Y-99400000D02*
X160540000Y-99460000D01*
X160600000Y-100940000D02*
X160540000Y-101000000D01*
X160540000Y-99460000D02*
X160540000Y-101000000D01*
%TO.N,RA8875-35*%
X168160000Y-101000000D02*
X168160000Y-97760000D01*
X143000000Y-95600000D02*
X140700000Y-93300000D01*
X140700000Y-93300000D02*
X140700000Y-88760000D01*
X166000000Y-95600000D02*
X143000000Y-95600000D01*
X168160000Y-97760000D02*
X166000000Y-95600000D01*
%TD*%
%TA.AperFunction,Conductor*%
%TO.N,GND*%
G36*
X177442539Y-47520185D02*
G01*
X177488294Y-47572989D01*
X177499500Y-47624500D01*
X177499500Y-116375500D01*
X177479815Y-116442539D01*
X177427011Y-116488294D01*
X177375500Y-116499500D01*
X113624500Y-116499500D01*
X113557461Y-116479815D01*
X113511706Y-116427011D01*
X113500500Y-116375500D01*
X113500500Y-110100730D01*
X124198871Y-110100730D01*
X124198871Y-111899269D01*
X124201724Y-111929699D01*
X124201724Y-111929701D01*
X124246577Y-112057880D01*
X124246578Y-112057882D01*
X124327221Y-112167150D01*
X124436489Y-112247793D01*
X124479216Y-112262744D01*
X124564670Y-112292646D01*
X124595101Y-112295500D01*
X124595105Y-112295500D01*
X125943641Y-112295500D01*
X125974070Y-112292646D01*
X125974072Y-112292646D01*
X126038161Y-112270219D01*
X126102253Y-112247793D01*
X126211521Y-112167150D01*
X126292164Y-112057882D01*
X126314590Y-111993790D01*
X126337017Y-111929701D01*
X126337017Y-111929699D01*
X126339871Y-111899269D01*
X126339871Y-110669560D01*
X126738871Y-110669560D01*
X126738871Y-111330439D01*
X126780007Y-111537245D01*
X126780009Y-111537253D01*
X126860704Y-111732069D01*
X126860709Y-111732078D01*
X126977858Y-111907403D01*
X126977861Y-111907407D01*
X127126963Y-112056509D01*
X127126967Y-112056512D01*
X127302292Y-112173661D01*
X127302298Y-112173664D01*
X127302299Y-112173665D01*
X127497118Y-112254362D01*
X127689588Y-112292646D01*
X127703931Y-112295499D01*
X127703935Y-112295500D01*
X127703936Y-112295500D01*
X127914807Y-112295500D01*
X127914808Y-112295499D01*
X128121624Y-112254362D01*
X128316443Y-112173665D01*
X128491775Y-112056512D01*
X128640883Y-111907404D01*
X128758036Y-111732072D01*
X128838733Y-111537253D01*
X128879871Y-111330435D01*
X128879871Y-110669565D01*
X128879870Y-110669560D01*
X129278871Y-110669560D01*
X129278871Y-111330439D01*
X129320007Y-111537245D01*
X129320009Y-111537253D01*
X129400704Y-111732069D01*
X129400709Y-111732078D01*
X129517858Y-111907403D01*
X129517861Y-111907407D01*
X129666963Y-112056509D01*
X129666967Y-112056512D01*
X129842292Y-112173661D01*
X129842298Y-112173664D01*
X129842299Y-112173665D01*
X130037118Y-112254362D01*
X130229588Y-112292646D01*
X130243931Y-112295499D01*
X130243935Y-112295500D01*
X130243936Y-112295500D01*
X130454807Y-112295500D01*
X130454808Y-112295499D01*
X130661624Y-112254362D01*
X130856443Y-112173665D01*
X131031775Y-112056512D01*
X131180883Y-111907404D01*
X131298036Y-111732072D01*
X131378733Y-111537253D01*
X131419871Y-111330435D01*
X131419871Y-110669565D01*
X131419870Y-110669560D01*
X131818871Y-110669560D01*
X131818871Y-111330439D01*
X131860007Y-111537245D01*
X131860009Y-111537253D01*
X131940704Y-111732069D01*
X131940709Y-111732078D01*
X132057858Y-111907403D01*
X132057861Y-111907407D01*
X132206963Y-112056509D01*
X132206967Y-112056512D01*
X132382292Y-112173661D01*
X132382298Y-112173664D01*
X132382299Y-112173665D01*
X132577118Y-112254362D01*
X132769588Y-112292646D01*
X132783931Y-112295499D01*
X132783935Y-112295500D01*
X132783936Y-112295500D01*
X132994807Y-112295500D01*
X132994808Y-112295499D01*
X133201624Y-112254362D01*
X133396443Y-112173665D01*
X133571775Y-112056512D01*
X133720883Y-111907404D01*
X133838036Y-111732072D01*
X133918733Y-111537253D01*
X133959871Y-111330435D01*
X133959871Y-110669565D01*
X133959870Y-110669560D01*
X134358871Y-110669560D01*
X134358871Y-111330439D01*
X134400007Y-111537245D01*
X134400009Y-111537253D01*
X134480704Y-111732069D01*
X134480709Y-111732078D01*
X134597858Y-111907403D01*
X134597861Y-111907407D01*
X134746963Y-112056509D01*
X134746967Y-112056512D01*
X134922292Y-112173661D01*
X134922298Y-112173664D01*
X134922299Y-112173665D01*
X135117118Y-112254362D01*
X135309588Y-112292646D01*
X135323931Y-112295499D01*
X135323935Y-112295500D01*
X135323936Y-112295500D01*
X135534807Y-112295500D01*
X135534808Y-112295499D01*
X135741624Y-112254362D01*
X135936443Y-112173665D01*
X136111775Y-112056512D01*
X136260883Y-111907404D01*
X136378036Y-111732072D01*
X136458733Y-111537253D01*
X136499871Y-111330435D01*
X136499871Y-110669565D01*
X136499870Y-110669560D01*
X139438871Y-110669560D01*
X139438871Y-111330439D01*
X139480007Y-111537245D01*
X139480009Y-111537253D01*
X139560704Y-111732069D01*
X139560709Y-111732078D01*
X139677858Y-111907403D01*
X139677861Y-111907407D01*
X139826963Y-112056509D01*
X139826967Y-112056512D01*
X140002292Y-112173661D01*
X140002298Y-112173664D01*
X140002299Y-112173665D01*
X140197118Y-112254362D01*
X140389588Y-112292646D01*
X140403931Y-112295499D01*
X140403935Y-112295500D01*
X140403936Y-112295500D01*
X140614807Y-112295500D01*
X140614808Y-112295499D01*
X140821624Y-112254362D01*
X141016443Y-112173665D01*
X141191775Y-112056512D01*
X141340883Y-111907404D01*
X141458036Y-111732072D01*
X141538733Y-111537253D01*
X141579871Y-111330435D01*
X141579871Y-110669565D01*
X141579870Y-110669560D01*
X141978871Y-110669560D01*
X141978871Y-111330439D01*
X142020007Y-111537245D01*
X142020009Y-111537253D01*
X142100704Y-111732069D01*
X142100709Y-111732078D01*
X142217858Y-111907403D01*
X142217861Y-111907407D01*
X142366963Y-112056509D01*
X142366967Y-112056512D01*
X142542292Y-112173661D01*
X142542298Y-112173664D01*
X142542299Y-112173665D01*
X142737118Y-112254362D01*
X142929588Y-112292646D01*
X142943931Y-112295499D01*
X142943935Y-112295500D01*
X142943936Y-112295500D01*
X143154807Y-112295500D01*
X143154808Y-112295499D01*
X143361624Y-112254362D01*
X143556443Y-112173665D01*
X143731775Y-112056512D01*
X143880883Y-111907404D01*
X143998036Y-111732072D01*
X144078733Y-111537253D01*
X144119871Y-111330435D01*
X144119871Y-110669565D01*
X144078733Y-110462747D01*
X143998036Y-110267928D01*
X143998035Y-110267927D01*
X143998032Y-110267921D01*
X143880883Y-110092596D01*
X143880880Y-110092592D01*
X143731778Y-109943490D01*
X143731774Y-109943487D01*
X143556449Y-109826338D01*
X143556440Y-109826333D01*
X143361624Y-109745638D01*
X143361616Y-109745636D01*
X143154810Y-109704500D01*
X143154806Y-109704500D01*
X142943936Y-109704500D01*
X142943931Y-109704500D01*
X142737125Y-109745636D01*
X142737117Y-109745638D01*
X142542301Y-109826333D01*
X142542292Y-109826338D01*
X142366967Y-109943487D01*
X142366963Y-109943490D01*
X142217861Y-110092592D01*
X142217858Y-110092596D01*
X142100709Y-110267921D01*
X142100704Y-110267930D01*
X142020009Y-110462746D01*
X142020007Y-110462754D01*
X141978871Y-110669560D01*
X141579870Y-110669560D01*
X141538733Y-110462747D01*
X141458036Y-110267928D01*
X141458035Y-110267927D01*
X141458032Y-110267921D01*
X141340883Y-110092596D01*
X141340880Y-110092592D01*
X141191778Y-109943490D01*
X141191774Y-109943487D01*
X141016449Y-109826338D01*
X141016440Y-109826333D01*
X140821624Y-109745638D01*
X140821616Y-109745636D01*
X140614810Y-109704500D01*
X140614806Y-109704500D01*
X140403936Y-109704500D01*
X140403931Y-109704500D01*
X140197125Y-109745636D01*
X140197117Y-109745638D01*
X140002301Y-109826333D01*
X140002292Y-109826338D01*
X139826967Y-109943487D01*
X139826963Y-109943490D01*
X139677861Y-110092592D01*
X139677858Y-110092596D01*
X139560709Y-110267921D01*
X139560704Y-110267930D01*
X139480009Y-110462746D01*
X139480007Y-110462754D01*
X139438871Y-110669560D01*
X136499870Y-110669560D01*
X136458733Y-110462747D01*
X136378036Y-110267928D01*
X136378035Y-110267927D01*
X136378032Y-110267921D01*
X136260883Y-110092596D01*
X136260880Y-110092592D01*
X136111778Y-109943490D01*
X136111774Y-109943487D01*
X135936449Y-109826338D01*
X135936440Y-109826333D01*
X135741624Y-109745638D01*
X135741616Y-109745636D01*
X135534810Y-109704500D01*
X135534806Y-109704500D01*
X135323936Y-109704500D01*
X135323931Y-109704500D01*
X135117125Y-109745636D01*
X135117117Y-109745638D01*
X134922301Y-109826333D01*
X134922292Y-109826338D01*
X134746967Y-109943487D01*
X134746963Y-109943490D01*
X134597861Y-110092592D01*
X134597858Y-110092596D01*
X134480709Y-110267921D01*
X134480704Y-110267930D01*
X134400009Y-110462746D01*
X134400007Y-110462754D01*
X134358871Y-110669560D01*
X133959870Y-110669560D01*
X133918733Y-110462747D01*
X133838036Y-110267928D01*
X133838035Y-110267927D01*
X133838032Y-110267921D01*
X133720883Y-110092596D01*
X133720880Y-110092592D01*
X133571778Y-109943490D01*
X133571774Y-109943487D01*
X133396449Y-109826338D01*
X133396440Y-109826333D01*
X133201624Y-109745638D01*
X133201616Y-109745636D01*
X132994810Y-109704500D01*
X132994806Y-109704500D01*
X132783936Y-109704500D01*
X132783931Y-109704500D01*
X132577125Y-109745636D01*
X132577117Y-109745638D01*
X132382301Y-109826333D01*
X132382292Y-109826338D01*
X132206967Y-109943487D01*
X132206963Y-109943490D01*
X132057861Y-110092592D01*
X132057858Y-110092596D01*
X131940709Y-110267921D01*
X131940704Y-110267930D01*
X131860009Y-110462746D01*
X131860007Y-110462754D01*
X131818871Y-110669560D01*
X131419870Y-110669560D01*
X131378733Y-110462747D01*
X131298036Y-110267928D01*
X131298035Y-110267927D01*
X131298032Y-110267921D01*
X131180883Y-110092596D01*
X131180880Y-110092592D01*
X131031778Y-109943490D01*
X131031774Y-109943487D01*
X130856449Y-109826338D01*
X130856440Y-109826333D01*
X130661624Y-109745638D01*
X130661616Y-109745636D01*
X130454810Y-109704500D01*
X130454806Y-109704500D01*
X130243936Y-109704500D01*
X130243931Y-109704500D01*
X130037125Y-109745636D01*
X130037117Y-109745638D01*
X129842301Y-109826333D01*
X129842292Y-109826338D01*
X129666967Y-109943487D01*
X129666963Y-109943490D01*
X129517861Y-110092592D01*
X129517858Y-110092596D01*
X129400709Y-110267921D01*
X129400704Y-110267930D01*
X129320009Y-110462746D01*
X129320007Y-110462754D01*
X129278871Y-110669560D01*
X128879870Y-110669560D01*
X128838733Y-110462747D01*
X128758036Y-110267928D01*
X128758035Y-110267927D01*
X128758032Y-110267921D01*
X128640883Y-110092596D01*
X128640880Y-110092592D01*
X128491778Y-109943490D01*
X128491774Y-109943487D01*
X128316449Y-109826338D01*
X128316440Y-109826333D01*
X128121624Y-109745638D01*
X128121616Y-109745636D01*
X127914810Y-109704500D01*
X127914806Y-109704500D01*
X127703936Y-109704500D01*
X127703931Y-109704500D01*
X127497125Y-109745636D01*
X127497117Y-109745638D01*
X127302301Y-109826333D01*
X127302292Y-109826338D01*
X127126967Y-109943487D01*
X127126963Y-109943490D01*
X126977861Y-110092592D01*
X126977858Y-110092596D01*
X126860709Y-110267921D01*
X126860704Y-110267930D01*
X126780009Y-110462746D01*
X126780007Y-110462754D01*
X126738871Y-110669560D01*
X126339871Y-110669560D01*
X126339871Y-110100730D01*
X126337017Y-110070300D01*
X126337017Y-110070298D01*
X126292164Y-109942119D01*
X126292163Y-109942117D01*
X126211521Y-109832850D01*
X126102253Y-109752207D01*
X126102251Y-109752206D01*
X125974071Y-109707353D01*
X125943641Y-109704500D01*
X125943637Y-109704500D01*
X124595105Y-109704500D01*
X124595101Y-109704500D01*
X124564671Y-109707353D01*
X124564669Y-109707353D01*
X124436490Y-109752206D01*
X124436488Y-109752207D01*
X124327221Y-109832850D01*
X124246578Y-109942117D01*
X124246577Y-109942119D01*
X124201724Y-110070298D01*
X124201724Y-110070300D01*
X124198871Y-110100730D01*
X113500500Y-110100730D01*
X113500500Y-104098543D01*
X116839499Y-104098543D01*
X116877947Y-104291829D01*
X116877950Y-104291839D01*
X116953364Y-104473907D01*
X116953371Y-104473920D01*
X117062860Y-104637781D01*
X117062863Y-104637785D01*
X117202214Y-104777136D01*
X117202218Y-104777139D01*
X117366079Y-104886628D01*
X117366092Y-104886635D01*
X117548160Y-104962049D01*
X117548165Y-104962051D01*
X117548169Y-104962051D01*
X117548170Y-104962052D01*
X117741456Y-105000500D01*
X117741459Y-105000500D01*
X117938543Y-105000500D01*
X118068582Y-104974632D01*
X118131835Y-104962051D01*
X118313914Y-104886632D01*
X118477782Y-104777139D01*
X118617139Y-104637782D01*
X118726632Y-104473914D01*
X118727864Y-104470941D01*
X118775483Y-104355977D01*
X118802051Y-104291835D01*
X118840500Y-104098543D01*
X119379499Y-104098543D01*
X119417947Y-104291829D01*
X119417950Y-104291839D01*
X119493364Y-104473907D01*
X119493371Y-104473920D01*
X119602860Y-104637781D01*
X119602863Y-104637785D01*
X119742214Y-104777136D01*
X119742218Y-104777139D01*
X119906079Y-104886628D01*
X119906092Y-104886635D01*
X120088160Y-104962049D01*
X120088165Y-104962051D01*
X120088169Y-104962051D01*
X120088170Y-104962052D01*
X120281456Y-105000500D01*
X120281459Y-105000500D01*
X120478543Y-105000500D01*
X120608582Y-104974632D01*
X120671835Y-104962051D01*
X120853914Y-104886632D01*
X121017782Y-104777139D01*
X121157139Y-104637782D01*
X121266632Y-104473914D01*
X121267864Y-104470941D01*
X121315483Y-104355977D01*
X121342051Y-104291835D01*
X121380500Y-104098543D01*
X121919499Y-104098543D01*
X121957947Y-104291829D01*
X121957950Y-104291839D01*
X122033364Y-104473907D01*
X122033371Y-104473920D01*
X122142860Y-104637781D01*
X122142863Y-104637785D01*
X122282214Y-104777136D01*
X122282218Y-104777139D01*
X122446079Y-104886628D01*
X122446092Y-104886635D01*
X122628160Y-104962049D01*
X122628165Y-104962051D01*
X122628169Y-104962051D01*
X122628170Y-104962052D01*
X122821456Y-105000500D01*
X122821459Y-105000500D01*
X123018543Y-105000500D01*
X123148582Y-104974632D01*
X123211835Y-104962051D01*
X123393914Y-104886632D01*
X123557782Y-104777139D01*
X123697139Y-104637782D01*
X123806632Y-104473914D01*
X123807864Y-104470941D01*
X123855483Y-104355977D01*
X123882051Y-104291835D01*
X123920500Y-104098543D01*
X124459499Y-104098543D01*
X124497947Y-104291829D01*
X124497950Y-104291839D01*
X124573364Y-104473907D01*
X124573371Y-104473920D01*
X124682860Y-104637781D01*
X124682863Y-104637785D01*
X124822214Y-104777136D01*
X124822218Y-104777139D01*
X124986079Y-104886628D01*
X124986092Y-104886635D01*
X125168160Y-104962049D01*
X125168165Y-104962051D01*
X125168169Y-104962051D01*
X125168170Y-104962052D01*
X125361456Y-105000500D01*
X125361459Y-105000500D01*
X125558543Y-105000500D01*
X125688582Y-104974632D01*
X125751835Y-104962051D01*
X125933914Y-104886632D01*
X126097782Y-104777139D01*
X126237139Y-104637782D01*
X126346632Y-104473914D01*
X126347864Y-104470941D01*
X126395483Y-104355977D01*
X126422051Y-104291835D01*
X126460500Y-104098543D01*
X126999499Y-104098543D01*
X127037947Y-104291829D01*
X127037950Y-104291839D01*
X127113364Y-104473907D01*
X127113371Y-104473920D01*
X127222860Y-104637781D01*
X127222863Y-104637785D01*
X127362214Y-104777136D01*
X127362218Y-104777139D01*
X127526079Y-104886628D01*
X127526092Y-104886635D01*
X127708160Y-104962049D01*
X127708165Y-104962051D01*
X127708169Y-104962051D01*
X127708170Y-104962052D01*
X127901456Y-105000500D01*
X127901459Y-105000500D01*
X128098543Y-105000500D01*
X128228582Y-104974632D01*
X128291835Y-104962051D01*
X128473914Y-104886632D01*
X128637782Y-104777139D01*
X128777139Y-104637782D01*
X128886632Y-104473914D01*
X128887864Y-104470941D01*
X128935483Y-104355977D01*
X128962051Y-104291835D01*
X129000500Y-104098543D01*
X129539499Y-104098543D01*
X129577947Y-104291829D01*
X129577950Y-104291839D01*
X129653364Y-104473907D01*
X129653371Y-104473920D01*
X129762860Y-104637781D01*
X129762863Y-104637785D01*
X129902214Y-104777136D01*
X129902218Y-104777139D01*
X130066079Y-104886628D01*
X130066092Y-104886635D01*
X130248160Y-104962049D01*
X130248165Y-104962051D01*
X130248169Y-104962051D01*
X130248170Y-104962052D01*
X130441456Y-105000500D01*
X130441459Y-105000500D01*
X130638543Y-105000500D01*
X130768582Y-104974632D01*
X130831835Y-104962051D01*
X131013914Y-104886632D01*
X131177782Y-104777139D01*
X131317139Y-104637782D01*
X131426632Y-104473914D01*
X131427864Y-104470941D01*
X131475483Y-104355977D01*
X131502051Y-104291835D01*
X131540500Y-104098543D01*
X132079499Y-104098543D01*
X132117947Y-104291829D01*
X132117950Y-104291839D01*
X132193364Y-104473907D01*
X132193371Y-104473920D01*
X132302860Y-104637781D01*
X132302863Y-104637785D01*
X132442214Y-104777136D01*
X132442218Y-104777139D01*
X132606079Y-104886628D01*
X132606092Y-104886635D01*
X132788160Y-104962049D01*
X132788165Y-104962051D01*
X132788169Y-104962051D01*
X132788170Y-104962052D01*
X132981456Y-105000500D01*
X132981459Y-105000500D01*
X133178543Y-105000500D01*
X133308582Y-104974632D01*
X133371835Y-104962051D01*
X133553914Y-104886632D01*
X133717782Y-104777139D01*
X133857139Y-104637782D01*
X133966632Y-104473914D01*
X133967864Y-104470941D01*
X134015483Y-104355977D01*
X134042051Y-104291835D01*
X134080500Y-104098543D01*
X134619499Y-104098543D01*
X134657947Y-104291829D01*
X134657950Y-104291839D01*
X134733364Y-104473907D01*
X134733371Y-104473920D01*
X134842860Y-104637781D01*
X134842863Y-104637785D01*
X134982214Y-104777136D01*
X134982218Y-104777139D01*
X135146079Y-104886628D01*
X135146092Y-104886635D01*
X135328160Y-104962049D01*
X135328165Y-104962051D01*
X135328169Y-104962051D01*
X135328170Y-104962052D01*
X135521456Y-105000500D01*
X135521459Y-105000500D01*
X135718543Y-105000500D01*
X135848582Y-104974632D01*
X135911835Y-104962051D01*
X136093914Y-104886632D01*
X136257782Y-104777139D01*
X136397139Y-104637782D01*
X136506632Y-104473914D01*
X136507864Y-104470941D01*
X136555483Y-104355977D01*
X136582051Y-104291835D01*
X136620500Y-104098543D01*
X137159499Y-104098543D01*
X137197947Y-104291829D01*
X137197950Y-104291839D01*
X137273364Y-104473907D01*
X137273371Y-104473920D01*
X137382860Y-104637781D01*
X137382863Y-104637785D01*
X137522214Y-104777136D01*
X137522218Y-104777139D01*
X137686079Y-104886628D01*
X137686092Y-104886635D01*
X137868160Y-104962049D01*
X137868165Y-104962051D01*
X137868169Y-104962051D01*
X137868170Y-104962052D01*
X138061456Y-105000500D01*
X138061459Y-105000500D01*
X138258543Y-105000500D01*
X138388582Y-104974632D01*
X138451835Y-104962051D01*
X138633914Y-104886632D01*
X138797782Y-104777139D01*
X138937139Y-104637782D01*
X139046632Y-104473914D01*
X139047864Y-104470941D01*
X139095483Y-104355977D01*
X139122051Y-104291835D01*
X139160500Y-104098543D01*
X139699499Y-104098543D01*
X139737947Y-104291829D01*
X139737950Y-104291839D01*
X139813364Y-104473907D01*
X139813371Y-104473920D01*
X139922860Y-104637781D01*
X139922863Y-104637785D01*
X140062214Y-104777136D01*
X140062218Y-104777139D01*
X140226079Y-104886628D01*
X140226092Y-104886635D01*
X140408160Y-104962049D01*
X140408165Y-104962051D01*
X140408169Y-104962051D01*
X140408170Y-104962052D01*
X140601456Y-105000500D01*
X140601459Y-105000500D01*
X140798543Y-105000500D01*
X140928582Y-104974632D01*
X140991835Y-104962051D01*
X141173914Y-104886632D01*
X141337782Y-104777139D01*
X141477139Y-104637782D01*
X141586632Y-104473914D01*
X141587864Y-104470941D01*
X141635483Y-104355977D01*
X141662051Y-104291835D01*
X141700500Y-104098543D01*
X142239499Y-104098543D01*
X142277947Y-104291829D01*
X142277950Y-104291839D01*
X142353364Y-104473907D01*
X142353371Y-104473920D01*
X142462860Y-104637781D01*
X142462863Y-104637785D01*
X142602214Y-104777136D01*
X142602218Y-104777139D01*
X142766079Y-104886628D01*
X142766092Y-104886635D01*
X142948160Y-104962049D01*
X142948165Y-104962051D01*
X142948169Y-104962051D01*
X142948170Y-104962052D01*
X143141456Y-105000500D01*
X143141459Y-105000500D01*
X143338543Y-105000500D01*
X143468582Y-104974632D01*
X143531835Y-104962051D01*
X143713914Y-104886632D01*
X143877782Y-104777139D01*
X144017139Y-104637782D01*
X144126632Y-104473914D01*
X144127864Y-104470941D01*
X144175483Y-104355977D01*
X144202051Y-104291835D01*
X144240500Y-104098543D01*
X144779499Y-104098543D01*
X144817947Y-104291829D01*
X144817950Y-104291839D01*
X144893364Y-104473907D01*
X144893371Y-104473920D01*
X145002860Y-104637781D01*
X145002863Y-104637785D01*
X145142214Y-104777136D01*
X145142218Y-104777139D01*
X145306079Y-104886628D01*
X145306092Y-104886635D01*
X145488160Y-104962049D01*
X145488165Y-104962051D01*
X145488169Y-104962051D01*
X145488170Y-104962052D01*
X145681456Y-105000500D01*
X145681459Y-105000500D01*
X145878543Y-105000500D01*
X146008582Y-104974632D01*
X146071835Y-104962051D01*
X146253914Y-104886632D01*
X146417782Y-104777139D01*
X146557139Y-104637782D01*
X146666632Y-104473914D01*
X146667864Y-104470941D01*
X146715483Y-104355977D01*
X146742051Y-104291835D01*
X146780500Y-104098541D01*
X146780500Y-103901459D01*
X146780500Y-103901456D01*
X146742052Y-103708170D01*
X146742051Y-103708169D01*
X146742051Y-103708165D01*
X146715252Y-103643465D01*
X146666635Y-103526092D01*
X146666628Y-103526079D01*
X146557139Y-103362218D01*
X146557136Y-103362214D01*
X146417785Y-103222863D01*
X146417781Y-103222860D01*
X146253920Y-103113371D01*
X146253907Y-103113364D01*
X146071839Y-103037950D01*
X146071829Y-103037947D01*
X145878543Y-102999500D01*
X145878541Y-102999500D01*
X145681459Y-102999500D01*
X145681457Y-102999500D01*
X145488170Y-103037947D01*
X145488160Y-103037950D01*
X145306092Y-103113364D01*
X145306079Y-103113371D01*
X145142218Y-103222860D01*
X145142214Y-103222863D01*
X145002863Y-103362214D01*
X145002860Y-103362218D01*
X144893371Y-103526079D01*
X144893364Y-103526092D01*
X144817950Y-103708160D01*
X144817947Y-103708170D01*
X144779500Y-103901456D01*
X144779500Y-103901459D01*
X144779500Y-104098541D01*
X144779500Y-104098543D01*
X144779499Y-104098543D01*
X144240500Y-104098543D01*
X144240500Y-104098541D01*
X144240500Y-103901459D01*
X144240500Y-103901456D01*
X144202052Y-103708170D01*
X144202051Y-103708169D01*
X144202051Y-103708165D01*
X144175252Y-103643465D01*
X144126635Y-103526092D01*
X144126628Y-103526079D01*
X144017139Y-103362218D01*
X144017136Y-103362214D01*
X143877785Y-103222863D01*
X143877781Y-103222860D01*
X143713920Y-103113371D01*
X143713907Y-103113364D01*
X143531839Y-103037950D01*
X143531829Y-103037947D01*
X143338543Y-102999500D01*
X143338541Y-102999500D01*
X143141459Y-102999500D01*
X143141457Y-102999500D01*
X142948170Y-103037947D01*
X142948160Y-103037950D01*
X142766092Y-103113364D01*
X142766079Y-103113371D01*
X142602218Y-103222860D01*
X142602214Y-103222863D01*
X142462863Y-103362214D01*
X142462860Y-103362218D01*
X142353371Y-103526079D01*
X142353364Y-103526092D01*
X142277950Y-103708160D01*
X142277947Y-103708170D01*
X142239500Y-103901456D01*
X142239500Y-103901459D01*
X142239500Y-104098541D01*
X142239500Y-104098543D01*
X142239499Y-104098543D01*
X141700500Y-104098543D01*
X141700500Y-104098541D01*
X141700500Y-103901459D01*
X141700500Y-103901456D01*
X141662052Y-103708170D01*
X141662051Y-103708169D01*
X141662051Y-103708165D01*
X141635252Y-103643465D01*
X141586635Y-103526092D01*
X141586628Y-103526079D01*
X141477139Y-103362218D01*
X141477136Y-103362214D01*
X141337785Y-103222863D01*
X141337781Y-103222860D01*
X141173920Y-103113371D01*
X141173907Y-103113364D01*
X140991839Y-103037950D01*
X140991829Y-103037947D01*
X140798543Y-102999500D01*
X140798541Y-102999500D01*
X140601459Y-102999500D01*
X140601457Y-102999500D01*
X140408170Y-103037947D01*
X140408160Y-103037950D01*
X140226092Y-103113364D01*
X140226079Y-103113371D01*
X140062218Y-103222860D01*
X140062214Y-103222863D01*
X139922863Y-103362214D01*
X139922860Y-103362218D01*
X139813371Y-103526079D01*
X139813364Y-103526092D01*
X139737950Y-103708160D01*
X139737947Y-103708170D01*
X139699500Y-103901456D01*
X139699500Y-103901459D01*
X139699500Y-104098541D01*
X139699500Y-104098543D01*
X139699499Y-104098543D01*
X139160500Y-104098543D01*
X139160500Y-104098541D01*
X139160500Y-103901459D01*
X139160500Y-103901456D01*
X139122052Y-103708170D01*
X139122051Y-103708169D01*
X139122051Y-103708165D01*
X139095252Y-103643465D01*
X139046635Y-103526092D01*
X139046628Y-103526079D01*
X138937139Y-103362218D01*
X138937136Y-103362214D01*
X138896819Y-103321897D01*
X138863334Y-103260574D01*
X138860500Y-103234216D01*
X138860500Y-99781519D01*
X138880185Y-99714480D01*
X138896819Y-99693838D01*
X140853838Y-97736819D01*
X140915161Y-97703334D01*
X140941519Y-97700500D01*
X150717700Y-97700500D01*
X150723827Y-97702299D01*
X150730103Y-97701122D01*
X150756943Y-97712023D01*
X150784739Y-97720185D01*
X150788920Y-97725010D01*
X150794838Y-97727414D01*
X150811525Y-97751098D01*
X150830494Y-97772989D01*
X150831402Y-97779309D01*
X150835081Y-97784530D01*
X150836314Y-97813471D01*
X150840438Y-97842147D01*
X150837785Y-97847956D01*
X150838057Y-97854336D01*
X150823448Y-97879348D01*
X150811413Y-97905703D01*
X150805232Y-97910538D01*
X150802820Y-97914669D01*
X150786182Y-97925442D01*
X150773969Y-97934998D01*
X150769643Y-97937200D01*
X150742866Y-97948292D01*
X150668189Y-97979225D01*
X150613643Y-98015672D01*
X150607554Y-98019740D01*
X150607545Y-98019745D01*
X150553461Y-98055883D01*
X150553453Y-98055889D01*
X147775888Y-100833453D01*
X147775887Y-100833454D01*
X147699222Y-100948192D01*
X147646421Y-101075667D01*
X147646418Y-101075679D01*
X147620830Y-101204320D01*
X147620829Y-101204327D01*
X147619501Y-101211001D01*
X147619500Y-101211011D01*
X147619500Y-103234216D01*
X147599815Y-103301255D01*
X147583181Y-103321897D01*
X147542863Y-103362214D01*
X147542860Y-103362218D01*
X147433371Y-103526079D01*
X147433364Y-103526092D01*
X147357950Y-103708160D01*
X147357947Y-103708170D01*
X147319500Y-103901456D01*
X147319500Y-103901459D01*
X147319500Y-104098541D01*
X147319500Y-104098543D01*
X147319499Y-104098543D01*
X147357947Y-104291829D01*
X147357950Y-104291839D01*
X147433364Y-104473907D01*
X147433371Y-104473920D01*
X147542860Y-104637781D01*
X147542863Y-104637785D01*
X147682214Y-104777136D01*
X147682218Y-104777139D01*
X147846079Y-104886628D01*
X147846092Y-104886635D01*
X148028160Y-104962049D01*
X148028165Y-104962051D01*
X148028169Y-104962051D01*
X148028170Y-104962052D01*
X148221456Y-105000500D01*
X148221459Y-105000500D01*
X148418543Y-105000500D01*
X148548582Y-104974632D01*
X148611835Y-104962051D01*
X148793914Y-104886632D01*
X148957782Y-104777139D01*
X149097139Y-104637782D01*
X149206632Y-104473914D01*
X149207864Y-104470941D01*
X149255483Y-104355977D01*
X149282051Y-104291835D01*
X149320500Y-104098541D01*
X149320500Y-103901459D01*
X149320500Y-103901456D01*
X149282052Y-103708170D01*
X149282051Y-103708169D01*
X149282051Y-103708165D01*
X149255252Y-103643465D01*
X149206635Y-103526092D01*
X149206629Y-103526081D01*
X149190650Y-103502166D01*
X149190642Y-103502156D01*
X149146792Y-103436530D01*
X156949500Y-103436530D01*
X156949500Y-103643469D01*
X156989868Y-103846412D01*
X156989870Y-103846420D01*
X157069058Y-104037596D01*
X157184024Y-104209657D01*
X157330342Y-104355975D01*
X157330345Y-104355977D01*
X157502402Y-104470941D01*
X157693580Y-104550130D01*
X157896530Y-104590499D01*
X157896534Y-104590500D01*
X157896535Y-104590500D01*
X158103466Y-104590500D01*
X158103467Y-104590499D01*
X158306420Y-104550130D01*
X158497598Y-104470941D01*
X158669655Y-104355977D01*
X158815977Y-104209655D01*
X158930941Y-104037598D01*
X159010130Y-103846420D01*
X159050500Y-103643465D01*
X159050500Y-103436535D01*
X159050499Y-103436530D01*
X159489500Y-103436530D01*
X159489500Y-103643469D01*
X159529868Y-103846412D01*
X159529870Y-103846420D01*
X159609058Y-104037596D01*
X159724024Y-104209657D01*
X159870342Y-104355975D01*
X159870345Y-104355977D01*
X160042402Y-104470941D01*
X160233580Y-104550130D01*
X160436530Y-104590499D01*
X160436534Y-104590500D01*
X160436535Y-104590500D01*
X160643466Y-104590500D01*
X160643467Y-104590499D01*
X160846420Y-104550130D01*
X161037598Y-104470941D01*
X161209655Y-104355977D01*
X161355977Y-104209655D01*
X161470941Y-104037598D01*
X161550130Y-103846420D01*
X161590500Y-103643465D01*
X161590500Y-103436535D01*
X161590499Y-103436530D01*
X162029500Y-103436530D01*
X162029500Y-103643469D01*
X162069868Y-103846412D01*
X162069870Y-103846420D01*
X162149058Y-104037596D01*
X162264024Y-104209657D01*
X162410342Y-104355975D01*
X162410345Y-104355977D01*
X162582402Y-104470941D01*
X162773580Y-104550130D01*
X162976530Y-104590499D01*
X162976534Y-104590500D01*
X162976535Y-104590500D01*
X163183466Y-104590500D01*
X163183467Y-104590499D01*
X163386420Y-104550130D01*
X163577598Y-104470941D01*
X163749655Y-104355977D01*
X163895977Y-104209655D01*
X164010941Y-104037598D01*
X164090130Y-103846420D01*
X164130500Y-103643465D01*
X164130500Y-103436535D01*
X164130499Y-103436530D01*
X164569500Y-103436530D01*
X164569500Y-103643469D01*
X164609868Y-103846412D01*
X164609870Y-103846420D01*
X164689058Y-104037596D01*
X164804024Y-104209657D01*
X164950342Y-104355975D01*
X164950345Y-104355977D01*
X165122402Y-104470941D01*
X165313580Y-104550130D01*
X165516530Y-104590499D01*
X165516534Y-104590500D01*
X165516535Y-104590500D01*
X165723466Y-104590500D01*
X165723467Y-104590499D01*
X165926420Y-104550130D01*
X166117598Y-104470941D01*
X166289655Y-104355977D01*
X166435977Y-104209655D01*
X166550941Y-104037598D01*
X166630130Y-103846420D01*
X166670500Y-103643465D01*
X166670500Y-103436535D01*
X166670499Y-103436530D01*
X167109500Y-103436530D01*
X167109500Y-103643469D01*
X167149868Y-103846412D01*
X167149870Y-103846420D01*
X167229058Y-104037596D01*
X167344024Y-104209657D01*
X167490342Y-104355975D01*
X167490345Y-104355977D01*
X167662402Y-104470941D01*
X167853580Y-104550130D01*
X168056530Y-104590499D01*
X168056534Y-104590500D01*
X168056535Y-104590500D01*
X168263466Y-104590500D01*
X168263467Y-104590499D01*
X168466420Y-104550130D01*
X168657598Y-104470941D01*
X168829655Y-104355977D01*
X168975977Y-104209655D01*
X169090941Y-104037598D01*
X169170130Y-103846420D01*
X169210500Y-103643465D01*
X169210500Y-103436535D01*
X169170130Y-103233580D01*
X169090941Y-103042402D01*
X168975977Y-102870345D01*
X168975975Y-102870342D01*
X168829657Y-102724024D01*
X168743626Y-102666541D01*
X168657598Y-102609059D01*
X168466420Y-102529870D01*
X168466412Y-102529868D01*
X168263469Y-102489500D01*
X168263465Y-102489500D01*
X168056535Y-102489500D01*
X168056530Y-102489500D01*
X167853587Y-102529868D01*
X167853579Y-102529870D01*
X167662403Y-102609058D01*
X167490342Y-102724024D01*
X167344024Y-102870342D01*
X167229058Y-103042403D01*
X167149870Y-103233579D01*
X167149868Y-103233587D01*
X167109500Y-103436530D01*
X166670499Y-103436530D01*
X166630130Y-103233580D01*
X166550941Y-103042402D01*
X166435977Y-102870345D01*
X166435975Y-102870342D01*
X166289657Y-102724024D01*
X166203626Y-102666541D01*
X166117598Y-102609059D01*
X165926420Y-102529870D01*
X165926412Y-102529868D01*
X165723469Y-102489500D01*
X165723465Y-102489500D01*
X165516535Y-102489500D01*
X165516530Y-102489500D01*
X165313587Y-102529868D01*
X165313579Y-102529870D01*
X165122403Y-102609058D01*
X164950342Y-102724024D01*
X164804024Y-102870342D01*
X164689058Y-103042403D01*
X164609870Y-103233579D01*
X164609868Y-103233587D01*
X164569500Y-103436530D01*
X164130499Y-103436530D01*
X164090130Y-103233580D01*
X164010941Y-103042402D01*
X163895977Y-102870345D01*
X163895975Y-102870342D01*
X163749657Y-102724024D01*
X163663626Y-102666541D01*
X163577598Y-102609059D01*
X163386420Y-102529870D01*
X163386412Y-102529868D01*
X163183469Y-102489500D01*
X163183465Y-102489500D01*
X162976535Y-102489500D01*
X162976530Y-102489500D01*
X162773587Y-102529868D01*
X162773579Y-102529870D01*
X162582403Y-102609058D01*
X162410342Y-102724024D01*
X162264024Y-102870342D01*
X162149058Y-103042403D01*
X162069870Y-103233579D01*
X162069868Y-103233587D01*
X162029500Y-103436530D01*
X161590499Y-103436530D01*
X161550130Y-103233580D01*
X161470941Y-103042402D01*
X161355977Y-102870345D01*
X161355975Y-102870342D01*
X161209657Y-102724024D01*
X161123626Y-102666541D01*
X161037598Y-102609059D01*
X160846420Y-102529870D01*
X160846412Y-102529868D01*
X160643469Y-102489500D01*
X160643465Y-102489500D01*
X160436535Y-102489500D01*
X160436530Y-102489500D01*
X160233587Y-102529868D01*
X160233579Y-102529870D01*
X160042403Y-102609058D01*
X159870342Y-102724024D01*
X159724024Y-102870342D01*
X159609058Y-103042403D01*
X159529870Y-103233579D01*
X159529868Y-103233587D01*
X159489500Y-103436530D01*
X159050499Y-103436530D01*
X159010130Y-103233580D01*
X158930941Y-103042402D01*
X158815977Y-102870345D01*
X158815975Y-102870342D01*
X158669657Y-102724024D01*
X158583626Y-102666541D01*
X158497598Y-102609059D01*
X158306420Y-102529870D01*
X158306412Y-102529868D01*
X158103469Y-102489500D01*
X158103465Y-102489500D01*
X157896535Y-102489500D01*
X157896530Y-102489500D01*
X157693587Y-102529868D01*
X157693579Y-102529870D01*
X157502403Y-102609058D01*
X157330342Y-102724024D01*
X157184024Y-102870342D01*
X157069058Y-103042403D01*
X156989870Y-103233579D01*
X156989868Y-103233587D01*
X156949500Y-103436530D01*
X149146792Y-103436530D01*
X149097139Y-103362218D01*
X149050617Y-103315696D01*
X149045346Y-103308677D01*
X149036041Y-103283846D01*
X149023334Y-103260574D01*
X149021729Y-103245650D01*
X149020830Y-103243250D01*
X149021258Y-103241267D01*
X149020500Y-103234216D01*
X149020500Y-101621518D01*
X149040185Y-101554479D01*
X149056819Y-101533837D01*
X151253837Y-99336819D01*
X151315160Y-99303334D01*
X151341518Y-99300500D01*
X159458481Y-99300500D01*
X159525520Y-99320185D01*
X159546162Y-99336819D01*
X159803181Y-99593838D01*
X159836666Y-99655161D01*
X159839500Y-99681519D01*
X159839500Y-100163505D01*
X159819815Y-100230544D01*
X159803181Y-100251186D01*
X159724025Y-100330341D01*
X159724024Y-100330342D01*
X159609058Y-100502403D01*
X159529870Y-100693579D01*
X159529868Y-100693587D01*
X159489500Y-100896530D01*
X159489500Y-101103469D01*
X159510890Y-101211001D01*
X159529870Y-101306420D01*
X159609059Y-101497598D01*
X159657540Y-101570156D01*
X159724024Y-101669657D01*
X159870342Y-101815975D01*
X159870345Y-101815977D01*
X160042402Y-101930941D01*
X160233580Y-102010130D01*
X160422187Y-102047646D01*
X160436530Y-102050499D01*
X160436534Y-102050500D01*
X160436535Y-102050500D01*
X160643466Y-102050500D01*
X160643467Y-102050499D01*
X160846420Y-102010130D01*
X161037598Y-101930941D01*
X161209655Y-101815977D01*
X161355977Y-101669655D01*
X161470941Y-101497598D01*
X161550130Y-101306420D01*
X161590500Y-101103465D01*
X161590500Y-100896535D01*
X161590499Y-100896530D01*
X162029500Y-100896530D01*
X162029500Y-101103469D01*
X162050890Y-101211001D01*
X162069870Y-101306420D01*
X162149059Y-101497598D01*
X162197540Y-101570156D01*
X162264024Y-101669657D01*
X162410342Y-101815975D01*
X162410345Y-101815977D01*
X162582402Y-101930941D01*
X162773580Y-102010130D01*
X162962187Y-102047646D01*
X162976530Y-102050499D01*
X162976534Y-102050500D01*
X162976535Y-102050500D01*
X163183466Y-102050500D01*
X163183467Y-102050499D01*
X163386420Y-102010130D01*
X163577598Y-101930941D01*
X163749655Y-101815977D01*
X163895977Y-101669655D01*
X164010941Y-101497598D01*
X164090130Y-101306420D01*
X164130500Y-101103465D01*
X164130500Y-100896535D01*
X164090130Y-100693580D01*
X164010941Y-100502402D01*
X163895977Y-100330345D01*
X163895975Y-100330342D01*
X163749657Y-100184024D01*
X163663626Y-100126541D01*
X163577598Y-100069059D01*
X163386420Y-99989870D01*
X163386412Y-99989868D01*
X163183469Y-99949500D01*
X163183465Y-99949500D01*
X162976535Y-99949500D01*
X162976530Y-99949500D01*
X162773587Y-99989868D01*
X162773579Y-99989870D01*
X162582403Y-100069058D01*
X162410342Y-100184024D01*
X162264024Y-100330342D01*
X162149058Y-100502403D01*
X162069870Y-100693579D01*
X162069868Y-100693587D01*
X162029500Y-100896530D01*
X161590499Y-100896530D01*
X161550130Y-100693580D01*
X161470941Y-100502402D01*
X161355977Y-100330345D01*
X161355975Y-100330342D01*
X161276819Y-100251186D01*
X161243334Y-100189863D01*
X161240500Y-100163505D01*
X161240500Y-99708855D01*
X161249939Y-99661402D01*
X161262881Y-99630157D01*
X161273580Y-99604328D01*
X161300500Y-99468994D01*
X161300500Y-99331006D01*
X161300500Y-99331003D01*
X161273581Y-99195676D01*
X161273580Y-99195675D01*
X161273580Y-99195671D01*
X161220775Y-99068189D01*
X161144114Y-98953457D01*
X161046543Y-98855886D01*
X160664495Y-98473838D01*
X160246546Y-98055888D01*
X160246545Y-98055887D01*
X160131807Y-97979222D01*
X160034847Y-97939061D01*
X159980443Y-97895220D01*
X159958378Y-97828926D01*
X159975657Y-97761227D01*
X160026794Y-97713616D01*
X160082299Y-97700500D01*
X164058481Y-97700500D01*
X164125520Y-97720185D01*
X164146162Y-97736819D01*
X164883181Y-98473838D01*
X164916666Y-98535161D01*
X164919500Y-98561519D01*
X164919500Y-100163505D01*
X164899815Y-100230544D01*
X164883181Y-100251186D01*
X164804025Y-100330341D01*
X164804024Y-100330342D01*
X164689058Y-100502403D01*
X164609870Y-100693579D01*
X164609868Y-100693587D01*
X164569500Y-100896530D01*
X164569500Y-101103469D01*
X164590890Y-101211001D01*
X164609870Y-101306420D01*
X164689059Y-101497598D01*
X164737540Y-101570156D01*
X164804024Y-101669657D01*
X164950342Y-101815975D01*
X164950345Y-101815977D01*
X165122402Y-101930941D01*
X165313580Y-102010130D01*
X165502187Y-102047646D01*
X165516530Y-102050499D01*
X165516534Y-102050500D01*
X165516535Y-102050500D01*
X165723466Y-102050500D01*
X165723467Y-102050499D01*
X165926420Y-102010130D01*
X166117598Y-101930941D01*
X166289655Y-101815977D01*
X166435977Y-101669655D01*
X166550941Y-101497598D01*
X166630130Y-101306420D01*
X166670500Y-101103465D01*
X166670500Y-100896535D01*
X166630130Y-100693580D01*
X166550941Y-100502402D01*
X166435977Y-100330345D01*
X166435975Y-100330342D01*
X166356819Y-100251186D01*
X166323334Y-100189863D01*
X166320500Y-100163505D01*
X166320500Y-98151004D01*
X166293580Y-98015672D01*
X166293578Y-98015667D01*
X166240778Y-97888195D01*
X166240774Y-97888188D01*
X166201222Y-97828994D01*
X166201222Y-97828993D01*
X166164115Y-97773458D01*
X166164109Y-97773451D01*
X164902839Y-96512181D01*
X164869354Y-96450858D01*
X164874338Y-96381166D01*
X164916210Y-96325233D01*
X164981674Y-96300816D01*
X164990520Y-96300500D01*
X165658481Y-96300500D01*
X165725520Y-96320185D01*
X165746162Y-96336819D01*
X167423181Y-98013838D01*
X167456666Y-98075161D01*
X167459500Y-98101519D01*
X167459500Y-99869900D01*
X167439815Y-99936939D01*
X167387011Y-99982694D01*
X167376456Y-99986940D01*
X167347118Y-99997207D01*
X167237850Y-100077850D01*
X167157207Y-100187117D01*
X167157206Y-100187119D01*
X167112353Y-100315298D01*
X167112353Y-100315300D01*
X167109500Y-100345730D01*
X167109500Y-101654269D01*
X167112353Y-101684699D01*
X167112353Y-101684701D01*
X167157206Y-101812880D01*
X167157207Y-101812882D01*
X167237850Y-101922150D01*
X167347118Y-102002793D01*
X167368089Y-102010131D01*
X167475299Y-102047646D01*
X167505730Y-102050500D01*
X167505734Y-102050500D01*
X168814270Y-102050500D01*
X168844699Y-102047646D01*
X168844701Y-102047646D01*
X168908790Y-102025219D01*
X168972882Y-102002793D01*
X169082150Y-101922150D01*
X169162793Y-101812882D01*
X169185219Y-101748790D01*
X169207646Y-101684701D01*
X169207646Y-101684699D01*
X169210500Y-101654269D01*
X169210500Y-100345730D01*
X169207646Y-100315300D01*
X169207646Y-100315298D01*
X169172503Y-100214868D01*
X169162793Y-100187118D01*
X169082150Y-100077850D01*
X168972882Y-99997207D01*
X168943543Y-99986940D01*
X168886769Y-99946219D01*
X168861022Y-99881266D01*
X168860500Y-99869900D01*
X168860500Y-97691004D01*
X168833581Y-97555677D01*
X168833580Y-97555676D01*
X168833580Y-97555672D01*
X168780775Y-97428189D01*
X168734819Y-97359412D01*
X168734817Y-97359409D01*
X168704116Y-97313459D01*
X168704114Y-97313457D01*
X166446546Y-95055888D01*
X166446545Y-95055887D01*
X166331807Y-94979222D01*
X166204332Y-94926421D01*
X166204322Y-94926418D01*
X166068996Y-94899500D01*
X166068994Y-94899500D01*
X166068993Y-94899500D01*
X143341519Y-94899500D01*
X143274480Y-94879815D01*
X143253838Y-94863181D01*
X141436819Y-93046162D01*
X141422115Y-93019234D01*
X141405523Y-92993416D01*
X141404631Y-92987215D01*
X141403334Y-92984839D01*
X141400500Y-92958481D01*
X141400500Y-92923200D01*
X155653070Y-92923200D01*
X155653070Y-93110441D01*
X155689595Y-93294064D01*
X155689597Y-93294072D01*
X155761246Y-93467049D01*
X155761251Y-93467058D01*
X155865267Y-93622728D01*
X155865270Y-93622732D01*
X155997658Y-93755120D01*
X155997662Y-93755123D01*
X156153332Y-93859139D01*
X156153338Y-93859142D01*
X156153339Y-93859143D01*
X156326319Y-93930794D01*
X156509949Y-93967320D01*
X156509953Y-93967321D01*
X156509954Y-93967321D01*
X156697187Y-93967321D01*
X156697188Y-93967320D01*
X156880821Y-93930794D01*
X157053801Y-93859143D01*
X157209478Y-93755123D01*
X157341872Y-93622729D01*
X157445892Y-93467052D01*
X157517543Y-93294072D01*
X157554070Y-93110437D01*
X157554070Y-92923205D01*
X157517543Y-92739570D01*
X157445892Y-92566590D01*
X157445891Y-92566589D01*
X157445888Y-92566583D01*
X157341872Y-92410913D01*
X157341869Y-92410909D01*
X157209481Y-92278521D01*
X157209477Y-92278518D01*
X157127704Y-92223879D01*
X167584500Y-92223879D01*
X167584500Y-92411120D01*
X167621025Y-92594743D01*
X167621027Y-92594751D01*
X167692676Y-92767728D01*
X167692681Y-92767737D01*
X167796697Y-92923407D01*
X167796700Y-92923411D01*
X167929088Y-93055799D01*
X167929092Y-93055802D01*
X168084762Y-93159818D01*
X168084768Y-93159821D01*
X168084769Y-93159822D01*
X168257749Y-93231473D01*
X168427031Y-93265145D01*
X168441379Y-93267999D01*
X168441383Y-93268000D01*
X168441384Y-93268000D01*
X168628617Y-93268000D01*
X168628618Y-93267999D01*
X168812251Y-93231473D01*
X168985231Y-93159822D01*
X169140908Y-93055802D01*
X169273302Y-92923408D01*
X169377322Y-92767731D01*
X169448973Y-92594751D01*
X169485500Y-92411116D01*
X169485500Y-92223884D01*
X169448973Y-92040249D01*
X169377322Y-91867269D01*
X169377321Y-91867267D01*
X169377315Y-91867257D01*
X169351905Y-91829228D01*
X169351904Y-91829227D01*
X169307806Y-91763231D01*
X172664500Y-91763231D01*
X172664500Y-92871758D01*
X172667354Y-92902198D01*
X172667354Y-92902199D01*
X172712206Y-93030381D01*
X172712207Y-93030382D01*
X172792850Y-93139650D01*
X172902118Y-93220293D01*
X173030302Y-93265146D01*
X173030301Y-93265146D01*
X173034271Y-93265518D01*
X173060735Y-93268000D01*
X174169264Y-93267999D01*
X174199698Y-93265146D01*
X174327882Y-93220293D01*
X174437150Y-93139650D01*
X174517793Y-93030382D01*
X174562646Y-92902198D01*
X174565500Y-92871765D01*
X174565499Y-91763236D01*
X174562646Y-91732802D01*
X174517793Y-91604618D01*
X174437150Y-91495350D01*
X174327882Y-91414707D01*
X174327881Y-91414706D01*
X174199695Y-91369853D01*
X174199698Y-91369853D01*
X174169268Y-91367000D01*
X173060741Y-91367000D01*
X173030301Y-91369854D01*
X173030300Y-91369854D01*
X172902118Y-91414706D01*
X172792850Y-91495350D01*
X172712206Y-91604618D01*
X172667353Y-91732802D01*
X172664500Y-91763231D01*
X169307806Y-91763231D01*
X169273302Y-91711592D01*
X169273299Y-91711588D01*
X169140911Y-91579200D01*
X169140907Y-91579197D01*
X168985237Y-91475181D01*
X168985228Y-91475176D01*
X168812251Y-91403527D01*
X168812243Y-91403525D01*
X168628620Y-91367000D01*
X168628616Y-91367000D01*
X168441384Y-91367000D01*
X168441379Y-91367000D01*
X168257756Y-91403525D01*
X168257748Y-91403527D01*
X168084771Y-91475176D01*
X168084762Y-91475181D01*
X167929092Y-91579197D01*
X167929088Y-91579200D01*
X167796700Y-91711588D01*
X167796697Y-91711592D01*
X167692681Y-91867262D01*
X167692676Y-91867271D01*
X167621027Y-92040248D01*
X167621025Y-92040256D01*
X167584500Y-92223879D01*
X157127704Y-92223879D01*
X157053807Y-92174502D01*
X157053798Y-92174497D01*
X156880821Y-92102848D01*
X156880813Y-92102846D01*
X156697190Y-92066321D01*
X156697186Y-92066321D01*
X156509954Y-92066321D01*
X156509949Y-92066321D01*
X156326326Y-92102846D01*
X156326318Y-92102848D01*
X156153341Y-92174497D01*
X156153332Y-92174502D01*
X155997662Y-92278518D01*
X155997658Y-92278521D01*
X155865270Y-92410909D01*
X155865267Y-92410913D01*
X155761251Y-92566583D01*
X155761246Y-92566592D01*
X155689597Y-92739569D01*
X155689595Y-92739577D01*
X155653070Y-92923200D01*
X141400500Y-92923200D01*
X141400500Y-89525783D01*
X141420185Y-89458744D01*
X141436820Y-89438101D01*
X141477136Y-89397785D01*
X141477139Y-89397782D01*
X141586632Y-89233914D01*
X141662051Y-89051835D01*
X141700500Y-88858543D01*
X142239499Y-88858543D01*
X142277947Y-89051829D01*
X142277950Y-89051839D01*
X142353364Y-89233907D01*
X142353371Y-89233920D01*
X142462860Y-89397781D01*
X142462863Y-89397785D01*
X142602214Y-89537136D01*
X142602218Y-89537139D01*
X142766079Y-89646628D01*
X142766092Y-89646635D01*
X142948160Y-89722049D01*
X142948165Y-89722051D01*
X142948169Y-89722051D01*
X142948170Y-89722052D01*
X143141456Y-89760500D01*
X143141459Y-89760500D01*
X143338543Y-89760500D01*
X143468582Y-89734632D01*
X143531835Y-89722051D01*
X143713914Y-89646632D01*
X143877782Y-89537139D01*
X144017139Y-89397782D01*
X144126632Y-89233914D01*
X144202051Y-89051835D01*
X144240500Y-88858543D01*
X144779499Y-88858543D01*
X144817947Y-89051829D01*
X144817950Y-89051839D01*
X144893364Y-89233907D01*
X144893371Y-89233920D01*
X145002860Y-89397781D01*
X145002863Y-89397785D01*
X145142214Y-89537136D01*
X145142218Y-89537139D01*
X145306079Y-89646628D01*
X145306092Y-89646635D01*
X145488160Y-89722049D01*
X145488165Y-89722051D01*
X145488169Y-89722051D01*
X145488170Y-89722052D01*
X145681456Y-89760500D01*
X145681459Y-89760500D01*
X145878543Y-89760500D01*
X146008582Y-89734632D01*
X146071835Y-89722051D01*
X146253914Y-89646632D01*
X146417782Y-89537139D01*
X146557139Y-89397782D01*
X146666632Y-89233914D01*
X146742051Y-89051835D01*
X146780500Y-88858543D01*
X147319499Y-88858543D01*
X147357947Y-89051829D01*
X147357950Y-89051839D01*
X147433364Y-89233907D01*
X147433371Y-89233920D01*
X147542860Y-89397781D01*
X147542863Y-89397785D01*
X147682214Y-89537136D01*
X147682218Y-89537139D01*
X147846079Y-89646628D01*
X147846092Y-89646635D01*
X148028160Y-89722049D01*
X148028165Y-89722051D01*
X148028169Y-89722051D01*
X148028170Y-89722052D01*
X148221456Y-89760500D01*
X148221459Y-89760500D01*
X148418543Y-89760500D01*
X148548582Y-89734632D01*
X148611835Y-89722051D01*
X148793914Y-89646632D01*
X148957782Y-89537139D01*
X149097139Y-89397782D01*
X149206632Y-89233914D01*
X149282051Y-89051835D01*
X149320500Y-88858541D01*
X149320500Y-88661459D01*
X149320500Y-88661456D01*
X149282052Y-88468170D01*
X149282051Y-88468169D01*
X149282051Y-88468165D01*
X149282049Y-88468160D01*
X149206635Y-88286092D01*
X149206628Y-88286079D01*
X149097139Y-88122218D01*
X149097136Y-88122214D01*
X148957785Y-87982863D01*
X148957781Y-87982860D01*
X148793920Y-87873371D01*
X148793907Y-87873364D01*
X148611839Y-87797950D01*
X148611829Y-87797947D01*
X148418543Y-87759500D01*
X148418541Y-87759500D01*
X148221459Y-87759500D01*
X148221457Y-87759500D01*
X148028170Y-87797947D01*
X148028160Y-87797950D01*
X147846092Y-87873364D01*
X147846079Y-87873371D01*
X147682218Y-87982860D01*
X147682214Y-87982863D01*
X147542863Y-88122214D01*
X147542860Y-88122218D01*
X147433371Y-88286079D01*
X147433364Y-88286092D01*
X147357950Y-88468160D01*
X147357947Y-88468170D01*
X147319500Y-88661456D01*
X147319500Y-88661459D01*
X147319500Y-88858541D01*
X147319500Y-88858543D01*
X147319499Y-88858543D01*
X146780500Y-88858543D01*
X146780500Y-88858541D01*
X146780500Y-88661459D01*
X146780500Y-88661456D01*
X146742052Y-88468170D01*
X146742051Y-88468169D01*
X146742051Y-88468165D01*
X146742049Y-88468160D01*
X146666635Y-88286092D01*
X146666628Y-88286079D01*
X146557139Y-88122218D01*
X146557136Y-88122214D01*
X146417785Y-87982863D01*
X146417781Y-87982860D01*
X146253920Y-87873371D01*
X146253907Y-87873364D01*
X146071839Y-87797950D01*
X146071829Y-87797947D01*
X145878543Y-87759500D01*
X145878541Y-87759500D01*
X145681459Y-87759500D01*
X145681457Y-87759500D01*
X145488170Y-87797947D01*
X145488160Y-87797950D01*
X145306092Y-87873364D01*
X145306079Y-87873371D01*
X145142218Y-87982860D01*
X145142214Y-87982863D01*
X145002863Y-88122214D01*
X145002860Y-88122218D01*
X144893371Y-88286079D01*
X144893364Y-88286092D01*
X144817950Y-88468160D01*
X144817947Y-88468170D01*
X144779500Y-88661456D01*
X144779500Y-88661459D01*
X144779500Y-88858541D01*
X144779500Y-88858543D01*
X144779499Y-88858543D01*
X144240500Y-88858543D01*
X144240500Y-88858541D01*
X144240500Y-88661459D01*
X144240500Y-88661456D01*
X144202052Y-88468170D01*
X144202051Y-88468169D01*
X144202051Y-88468165D01*
X144202049Y-88468160D01*
X144126635Y-88286092D01*
X144126628Y-88286079D01*
X144017139Y-88122218D01*
X144017136Y-88122214D01*
X143877785Y-87982863D01*
X143877781Y-87982860D01*
X143713920Y-87873371D01*
X143713907Y-87873364D01*
X143531839Y-87797950D01*
X143531829Y-87797947D01*
X143338543Y-87759500D01*
X143338541Y-87759500D01*
X143141459Y-87759500D01*
X143141457Y-87759500D01*
X142948170Y-87797947D01*
X142948160Y-87797950D01*
X142766092Y-87873364D01*
X142766079Y-87873371D01*
X142602218Y-87982860D01*
X142602214Y-87982863D01*
X142462863Y-88122214D01*
X142462860Y-88122218D01*
X142353371Y-88286079D01*
X142353364Y-88286092D01*
X142277950Y-88468160D01*
X142277947Y-88468170D01*
X142239500Y-88661456D01*
X142239500Y-88661459D01*
X142239500Y-88858541D01*
X142239500Y-88858543D01*
X142239499Y-88858543D01*
X141700500Y-88858543D01*
X141700500Y-88858541D01*
X141700500Y-88661459D01*
X141700500Y-88661456D01*
X141662052Y-88468170D01*
X141662051Y-88468169D01*
X141662051Y-88468165D01*
X141662049Y-88468160D01*
X141586635Y-88286092D01*
X141586628Y-88286079D01*
X141477139Y-88122218D01*
X141477136Y-88122214D01*
X141337785Y-87982863D01*
X141337781Y-87982860D01*
X141173920Y-87873371D01*
X141173907Y-87873364D01*
X140991839Y-87797950D01*
X140991829Y-87797947D01*
X140798543Y-87759500D01*
X140798541Y-87759500D01*
X140601459Y-87759500D01*
X140601457Y-87759500D01*
X140408170Y-87797947D01*
X140408160Y-87797950D01*
X140226092Y-87873364D01*
X140226079Y-87873371D01*
X140062218Y-87982860D01*
X140062214Y-87982863D01*
X139922863Y-88122214D01*
X139922860Y-88122218D01*
X139813371Y-88286079D01*
X139813364Y-88286092D01*
X139737950Y-88468160D01*
X139737947Y-88468170D01*
X139699500Y-88661456D01*
X139699500Y-88661459D01*
X139699500Y-88858541D01*
X139699500Y-88858543D01*
X139699499Y-88858543D01*
X139737947Y-89051829D01*
X139737950Y-89051839D01*
X139813364Y-89233907D01*
X139813371Y-89233920D01*
X139922860Y-89397781D01*
X139922863Y-89397785D01*
X139963180Y-89438101D01*
X139996666Y-89499424D01*
X139999500Y-89525783D01*
X139999500Y-93231006D01*
X139999500Y-93368994D01*
X139999500Y-93368996D01*
X139999499Y-93368996D01*
X140026418Y-93504322D01*
X140026421Y-93504332D01*
X140079222Y-93631807D01*
X140155887Y-93746545D01*
X142497161Y-96087819D01*
X142530646Y-96149142D01*
X142525662Y-96218834D01*
X142483790Y-96274767D01*
X142418326Y-96299184D01*
X142409480Y-96299500D01*
X140531004Y-96299500D01*
X140395677Y-96326418D01*
X140395667Y-96326421D01*
X140268192Y-96379222D01*
X140153454Y-96455887D01*
X137615887Y-98993454D01*
X137590863Y-99030905D01*
X137565952Y-99068189D01*
X137539225Y-99108189D01*
X137539222Y-99108194D01*
X137486421Y-99235667D01*
X137486418Y-99235677D01*
X137459500Y-99371004D01*
X137459500Y-103234216D01*
X137439815Y-103301255D01*
X137423181Y-103321897D01*
X137382863Y-103362214D01*
X137382860Y-103362218D01*
X137273371Y-103526079D01*
X137273364Y-103526092D01*
X137197950Y-103708160D01*
X137197947Y-103708170D01*
X137159500Y-103901456D01*
X137159500Y-103901459D01*
X137159500Y-104098541D01*
X137159500Y-104098543D01*
X137159499Y-104098543D01*
X136620500Y-104098543D01*
X136620500Y-104098541D01*
X136620500Y-103901459D01*
X136620500Y-103901456D01*
X136582052Y-103708170D01*
X136582051Y-103708169D01*
X136582051Y-103708165D01*
X136555252Y-103643465D01*
X136506635Y-103526092D01*
X136506628Y-103526079D01*
X136397139Y-103362218D01*
X136397136Y-103362214D01*
X136257785Y-103222863D01*
X136257781Y-103222860D01*
X136093920Y-103113371D01*
X136093907Y-103113364D01*
X135911839Y-103037950D01*
X135911829Y-103037947D01*
X135718543Y-102999500D01*
X135718541Y-102999500D01*
X135521459Y-102999500D01*
X135521457Y-102999500D01*
X135328170Y-103037947D01*
X135328160Y-103037950D01*
X135146092Y-103113364D01*
X135146079Y-103113371D01*
X134982218Y-103222860D01*
X134982214Y-103222863D01*
X134842863Y-103362214D01*
X134842860Y-103362218D01*
X134733371Y-103526079D01*
X134733364Y-103526092D01*
X134657950Y-103708160D01*
X134657947Y-103708170D01*
X134619500Y-103901456D01*
X134619500Y-103901459D01*
X134619500Y-104098541D01*
X134619500Y-104098543D01*
X134619499Y-104098543D01*
X134080500Y-104098543D01*
X134080500Y-104098541D01*
X134080500Y-103901459D01*
X134080500Y-103901456D01*
X134042052Y-103708170D01*
X134042051Y-103708169D01*
X134042051Y-103708165D01*
X134015252Y-103643465D01*
X133966635Y-103526092D01*
X133966628Y-103526079D01*
X133857139Y-103362218D01*
X133857136Y-103362214D01*
X133717785Y-103222863D01*
X133717781Y-103222860D01*
X133553920Y-103113371D01*
X133553907Y-103113364D01*
X133371839Y-103037950D01*
X133371829Y-103037947D01*
X133178543Y-102999500D01*
X133178541Y-102999500D01*
X132981459Y-102999500D01*
X132981457Y-102999500D01*
X132788170Y-103037947D01*
X132788160Y-103037950D01*
X132606092Y-103113364D01*
X132606079Y-103113371D01*
X132442218Y-103222860D01*
X132442214Y-103222863D01*
X132302863Y-103362214D01*
X132302860Y-103362218D01*
X132193371Y-103526079D01*
X132193364Y-103526092D01*
X132117950Y-103708160D01*
X132117947Y-103708170D01*
X132079500Y-103901456D01*
X132079500Y-103901459D01*
X132079500Y-104098541D01*
X132079500Y-104098543D01*
X132079499Y-104098543D01*
X131540500Y-104098543D01*
X131540500Y-104098541D01*
X131540500Y-103901459D01*
X131540500Y-103901456D01*
X131502052Y-103708170D01*
X131502051Y-103708169D01*
X131502051Y-103708165D01*
X131475252Y-103643465D01*
X131426635Y-103526092D01*
X131426628Y-103526079D01*
X131317139Y-103362218D01*
X131317136Y-103362214D01*
X131177785Y-103222863D01*
X131177781Y-103222860D01*
X131013920Y-103113371D01*
X131013907Y-103113364D01*
X130831839Y-103037950D01*
X130831829Y-103037947D01*
X130638543Y-102999500D01*
X130638541Y-102999500D01*
X130441459Y-102999500D01*
X130441457Y-102999500D01*
X130248170Y-103037947D01*
X130248160Y-103037950D01*
X130066092Y-103113364D01*
X130066079Y-103113371D01*
X129902218Y-103222860D01*
X129902214Y-103222863D01*
X129762863Y-103362214D01*
X129762860Y-103362218D01*
X129653371Y-103526079D01*
X129653364Y-103526092D01*
X129577950Y-103708160D01*
X129577947Y-103708170D01*
X129539500Y-103901456D01*
X129539500Y-103901459D01*
X129539500Y-104098541D01*
X129539500Y-104098543D01*
X129539499Y-104098543D01*
X129000500Y-104098543D01*
X129000500Y-104098541D01*
X129000500Y-103901459D01*
X129000500Y-103901456D01*
X128962052Y-103708170D01*
X128962051Y-103708169D01*
X128962051Y-103708165D01*
X128935252Y-103643465D01*
X128886635Y-103526092D01*
X128886628Y-103526079D01*
X128777139Y-103362218D01*
X128777136Y-103362214D01*
X128637785Y-103222863D01*
X128637781Y-103222860D01*
X128473920Y-103113371D01*
X128473907Y-103113364D01*
X128291839Y-103037950D01*
X128291829Y-103037947D01*
X128098543Y-102999500D01*
X128098541Y-102999500D01*
X127901459Y-102999500D01*
X127901457Y-102999500D01*
X127708170Y-103037947D01*
X127708160Y-103037950D01*
X127526092Y-103113364D01*
X127526079Y-103113371D01*
X127362218Y-103222860D01*
X127362214Y-103222863D01*
X127222863Y-103362214D01*
X127222860Y-103362218D01*
X127113371Y-103526079D01*
X127113364Y-103526092D01*
X127037950Y-103708160D01*
X127037947Y-103708170D01*
X126999500Y-103901456D01*
X126999500Y-103901459D01*
X126999500Y-104098541D01*
X126999500Y-104098543D01*
X126999499Y-104098543D01*
X126460500Y-104098543D01*
X126460500Y-104098541D01*
X126460500Y-103901459D01*
X126460500Y-103901456D01*
X126422052Y-103708170D01*
X126422051Y-103708169D01*
X126422051Y-103708165D01*
X126395252Y-103643465D01*
X126346635Y-103526092D01*
X126346628Y-103526079D01*
X126237139Y-103362218D01*
X126237136Y-103362214D01*
X126097785Y-103222863D01*
X126097781Y-103222860D01*
X125933920Y-103113371D01*
X125933907Y-103113364D01*
X125751839Y-103037950D01*
X125751829Y-103037947D01*
X125558543Y-102999500D01*
X125558541Y-102999500D01*
X125361459Y-102999500D01*
X125361457Y-102999500D01*
X125168170Y-103037947D01*
X125168160Y-103037950D01*
X124986092Y-103113364D01*
X124986079Y-103113371D01*
X124822218Y-103222860D01*
X124822214Y-103222863D01*
X124682863Y-103362214D01*
X124682860Y-103362218D01*
X124573371Y-103526079D01*
X124573364Y-103526092D01*
X124497950Y-103708160D01*
X124497947Y-103708170D01*
X124459500Y-103901456D01*
X124459500Y-103901459D01*
X124459500Y-104098541D01*
X124459500Y-104098543D01*
X124459499Y-104098543D01*
X123920500Y-104098543D01*
X123920500Y-104098541D01*
X123920500Y-103901459D01*
X123920500Y-103901456D01*
X123882052Y-103708170D01*
X123882051Y-103708169D01*
X123882051Y-103708165D01*
X123855252Y-103643465D01*
X123806635Y-103526092D01*
X123806628Y-103526079D01*
X123697139Y-103362218D01*
X123697136Y-103362214D01*
X123557785Y-103222863D01*
X123557781Y-103222860D01*
X123393920Y-103113371D01*
X123393907Y-103113364D01*
X123211839Y-103037950D01*
X123211829Y-103037947D01*
X123018543Y-102999500D01*
X123018541Y-102999500D01*
X122821459Y-102999500D01*
X122821457Y-102999500D01*
X122628170Y-103037947D01*
X122628160Y-103037950D01*
X122446092Y-103113364D01*
X122446079Y-103113371D01*
X122282218Y-103222860D01*
X122282214Y-103222863D01*
X122142863Y-103362214D01*
X122142860Y-103362218D01*
X122033371Y-103526079D01*
X122033364Y-103526092D01*
X121957950Y-103708160D01*
X121957947Y-103708170D01*
X121919500Y-103901456D01*
X121919500Y-103901459D01*
X121919500Y-104098541D01*
X121919500Y-104098543D01*
X121919499Y-104098543D01*
X121380500Y-104098543D01*
X121380500Y-104098541D01*
X121380500Y-103901459D01*
X121380500Y-103901456D01*
X121342052Y-103708170D01*
X121342051Y-103708169D01*
X121342051Y-103708165D01*
X121315252Y-103643465D01*
X121266635Y-103526092D01*
X121266628Y-103526079D01*
X121157139Y-103362218D01*
X121157136Y-103362214D01*
X121017785Y-103222863D01*
X121017781Y-103222860D01*
X120853920Y-103113371D01*
X120853907Y-103113364D01*
X120671839Y-103037950D01*
X120671829Y-103037947D01*
X120478543Y-102999500D01*
X120478541Y-102999500D01*
X120281459Y-102999500D01*
X120281457Y-102999500D01*
X120088170Y-103037947D01*
X120088160Y-103037950D01*
X119906092Y-103113364D01*
X119906079Y-103113371D01*
X119742218Y-103222860D01*
X119742214Y-103222863D01*
X119602863Y-103362214D01*
X119602860Y-103362218D01*
X119493371Y-103526079D01*
X119493364Y-103526092D01*
X119417950Y-103708160D01*
X119417947Y-103708170D01*
X119379500Y-103901456D01*
X119379500Y-103901459D01*
X119379500Y-104098541D01*
X119379500Y-104098543D01*
X119379499Y-104098543D01*
X118840500Y-104098543D01*
X118840500Y-104098541D01*
X118840500Y-103901459D01*
X118840500Y-103901456D01*
X118802052Y-103708170D01*
X118802051Y-103708169D01*
X118802051Y-103708165D01*
X118775252Y-103643465D01*
X118726635Y-103526092D01*
X118726628Y-103526079D01*
X118617139Y-103362218D01*
X118617136Y-103362214D01*
X118477785Y-103222863D01*
X118477781Y-103222860D01*
X118313920Y-103113371D01*
X118313907Y-103113364D01*
X118131839Y-103037950D01*
X118131829Y-103037947D01*
X117938543Y-102999500D01*
X117938541Y-102999500D01*
X117741459Y-102999500D01*
X117741457Y-102999500D01*
X117548170Y-103037947D01*
X117548160Y-103037950D01*
X117366092Y-103113364D01*
X117366079Y-103113371D01*
X117202218Y-103222860D01*
X117202214Y-103222863D01*
X117062863Y-103362214D01*
X117062860Y-103362218D01*
X116953371Y-103526079D01*
X116953364Y-103526092D01*
X116877950Y-103708160D01*
X116877947Y-103708170D01*
X116839500Y-103901456D01*
X116839500Y-103901459D01*
X116839500Y-104098541D01*
X116839500Y-104098543D01*
X116839499Y-104098543D01*
X113500500Y-104098543D01*
X113500500Y-88858543D01*
X114299499Y-88858543D01*
X114337947Y-89051829D01*
X114337950Y-89051839D01*
X114413364Y-89233907D01*
X114413371Y-89233920D01*
X114522860Y-89397781D01*
X114522863Y-89397785D01*
X114662214Y-89537136D01*
X114662218Y-89537139D01*
X114826079Y-89646628D01*
X114826092Y-89646635D01*
X115008160Y-89722049D01*
X115008165Y-89722051D01*
X115008169Y-89722051D01*
X115008170Y-89722052D01*
X115201456Y-89760500D01*
X115201459Y-89760500D01*
X115398543Y-89760500D01*
X115528582Y-89734632D01*
X115591835Y-89722051D01*
X115773914Y-89646632D01*
X115937782Y-89537139D01*
X116077139Y-89397782D01*
X116186632Y-89233914D01*
X116262051Y-89051835D01*
X116300500Y-88858543D01*
X119379499Y-88858543D01*
X119417947Y-89051829D01*
X119417950Y-89051839D01*
X119493364Y-89233907D01*
X119493371Y-89233920D01*
X119602860Y-89397781D01*
X119602863Y-89397785D01*
X119742214Y-89537136D01*
X119742218Y-89537139D01*
X119906079Y-89646628D01*
X119906092Y-89646635D01*
X120088160Y-89722049D01*
X120088165Y-89722051D01*
X120088169Y-89722051D01*
X120088170Y-89722052D01*
X120281456Y-89760500D01*
X120281459Y-89760500D01*
X120478543Y-89760500D01*
X120608582Y-89734632D01*
X120671835Y-89722051D01*
X120853914Y-89646632D01*
X121017782Y-89537139D01*
X121157139Y-89397782D01*
X121266632Y-89233914D01*
X121342051Y-89051835D01*
X121380500Y-88858543D01*
X121919499Y-88858543D01*
X121957947Y-89051829D01*
X121957950Y-89051839D01*
X122033364Y-89233907D01*
X122033371Y-89233920D01*
X122142860Y-89397781D01*
X122142863Y-89397785D01*
X122282214Y-89537136D01*
X122282218Y-89537139D01*
X122446079Y-89646628D01*
X122446092Y-89646635D01*
X122628160Y-89722049D01*
X122628165Y-89722051D01*
X122628169Y-89722051D01*
X122628170Y-89722052D01*
X122821456Y-89760500D01*
X122821459Y-89760500D01*
X123018543Y-89760500D01*
X123148582Y-89734632D01*
X123211835Y-89722051D01*
X123393914Y-89646632D01*
X123557782Y-89537139D01*
X123697139Y-89397782D01*
X123806632Y-89233914D01*
X123882051Y-89051835D01*
X123920500Y-88858543D01*
X124459499Y-88858543D01*
X124497947Y-89051829D01*
X124497950Y-89051839D01*
X124573364Y-89233907D01*
X124573371Y-89233920D01*
X124682860Y-89397781D01*
X124682863Y-89397785D01*
X124822214Y-89537136D01*
X124822218Y-89537139D01*
X124986079Y-89646628D01*
X124986092Y-89646635D01*
X125168160Y-89722049D01*
X125168165Y-89722051D01*
X125168169Y-89722051D01*
X125168170Y-89722052D01*
X125361456Y-89760500D01*
X125361459Y-89760500D01*
X125558543Y-89760500D01*
X125688582Y-89734632D01*
X125751835Y-89722051D01*
X125933914Y-89646632D01*
X126097782Y-89537139D01*
X126237139Y-89397782D01*
X126346632Y-89233914D01*
X126422051Y-89051835D01*
X126460500Y-88858543D01*
X126999499Y-88858543D01*
X127037947Y-89051829D01*
X127037950Y-89051839D01*
X127113364Y-89233907D01*
X127113371Y-89233920D01*
X127222860Y-89397781D01*
X127222863Y-89397785D01*
X127362214Y-89537136D01*
X127362218Y-89537139D01*
X127526079Y-89646628D01*
X127526092Y-89646635D01*
X127708160Y-89722049D01*
X127708165Y-89722051D01*
X127708169Y-89722051D01*
X127708170Y-89722052D01*
X127901456Y-89760500D01*
X127901459Y-89760500D01*
X128098543Y-89760500D01*
X128228582Y-89734632D01*
X128291835Y-89722051D01*
X128473914Y-89646632D01*
X128637782Y-89537139D01*
X128777139Y-89397782D01*
X128886632Y-89233914D01*
X128962051Y-89051835D01*
X129000500Y-88858543D01*
X129539499Y-88858543D01*
X129577947Y-89051829D01*
X129577950Y-89051839D01*
X129653364Y-89233907D01*
X129653371Y-89233920D01*
X129762860Y-89397781D01*
X129762863Y-89397785D01*
X129902214Y-89537136D01*
X129902218Y-89537139D01*
X130066079Y-89646628D01*
X130066092Y-89646635D01*
X130248160Y-89722049D01*
X130248165Y-89722051D01*
X130248169Y-89722051D01*
X130248170Y-89722052D01*
X130441456Y-89760500D01*
X130441459Y-89760500D01*
X130638543Y-89760500D01*
X130768582Y-89734632D01*
X130831835Y-89722051D01*
X131013914Y-89646632D01*
X131177782Y-89537139D01*
X131317139Y-89397782D01*
X131426632Y-89233914D01*
X131502051Y-89051835D01*
X131540500Y-88858543D01*
X132079499Y-88858543D01*
X132117947Y-89051829D01*
X132117950Y-89051839D01*
X132193364Y-89233907D01*
X132193371Y-89233920D01*
X132302860Y-89397781D01*
X132302863Y-89397785D01*
X132442214Y-89537136D01*
X132442218Y-89537139D01*
X132606079Y-89646628D01*
X132606092Y-89646635D01*
X132788160Y-89722049D01*
X132788165Y-89722051D01*
X132788169Y-89722051D01*
X132788170Y-89722052D01*
X132981456Y-89760500D01*
X132981459Y-89760500D01*
X133178543Y-89760500D01*
X133308582Y-89734632D01*
X133371835Y-89722051D01*
X133553914Y-89646632D01*
X133717782Y-89537139D01*
X133857139Y-89397782D01*
X133966632Y-89233914D01*
X134042051Y-89051835D01*
X134080500Y-88858543D01*
X134619499Y-88858543D01*
X134657947Y-89051829D01*
X134657950Y-89051839D01*
X134733364Y-89233907D01*
X134733371Y-89233920D01*
X134842860Y-89397781D01*
X134842863Y-89397785D01*
X134982214Y-89537136D01*
X134982218Y-89537139D01*
X135146079Y-89646628D01*
X135146092Y-89646635D01*
X135328160Y-89722049D01*
X135328165Y-89722051D01*
X135328169Y-89722051D01*
X135328170Y-89722052D01*
X135521456Y-89760500D01*
X135521459Y-89760500D01*
X135718543Y-89760500D01*
X135848582Y-89734632D01*
X135911835Y-89722051D01*
X136093914Y-89646632D01*
X136257782Y-89537139D01*
X136397139Y-89397782D01*
X136506632Y-89233914D01*
X136582051Y-89051835D01*
X136620500Y-88858543D01*
X137159499Y-88858543D01*
X137197947Y-89051829D01*
X137197950Y-89051839D01*
X137273364Y-89233907D01*
X137273371Y-89233920D01*
X137382860Y-89397781D01*
X137382863Y-89397785D01*
X137522214Y-89537136D01*
X137522218Y-89537139D01*
X137686079Y-89646628D01*
X137686092Y-89646635D01*
X137868160Y-89722049D01*
X137868165Y-89722051D01*
X137868169Y-89722051D01*
X137868170Y-89722052D01*
X138061456Y-89760500D01*
X138061459Y-89760500D01*
X138258543Y-89760500D01*
X138388582Y-89734632D01*
X138451835Y-89722051D01*
X138633914Y-89646632D01*
X138797782Y-89537139D01*
X138937139Y-89397782D01*
X139046632Y-89233914D01*
X139122051Y-89051835D01*
X139160500Y-88858541D01*
X139160500Y-88661459D01*
X139160500Y-88661456D01*
X139122052Y-88468170D01*
X139122051Y-88468169D01*
X139122051Y-88468165D01*
X139122049Y-88468160D01*
X139046635Y-88286092D01*
X139046628Y-88286079D01*
X138937139Y-88122218D01*
X138937136Y-88122214D01*
X138797785Y-87982863D01*
X138797781Y-87982860D01*
X138633920Y-87873371D01*
X138633907Y-87873364D01*
X138451839Y-87797950D01*
X138451829Y-87797947D01*
X138258543Y-87759500D01*
X138258541Y-87759500D01*
X138061459Y-87759500D01*
X138061457Y-87759500D01*
X137868170Y-87797947D01*
X137868160Y-87797950D01*
X137686092Y-87873364D01*
X137686079Y-87873371D01*
X137522218Y-87982860D01*
X137522214Y-87982863D01*
X137382863Y-88122214D01*
X137382860Y-88122218D01*
X137273371Y-88286079D01*
X137273364Y-88286092D01*
X137197950Y-88468160D01*
X137197947Y-88468170D01*
X137159500Y-88661456D01*
X137159500Y-88661459D01*
X137159500Y-88858541D01*
X137159500Y-88858543D01*
X137159499Y-88858543D01*
X136620500Y-88858543D01*
X136620500Y-88858541D01*
X136620500Y-88661459D01*
X136620500Y-88661456D01*
X136582052Y-88468170D01*
X136582051Y-88468169D01*
X136582051Y-88468165D01*
X136582049Y-88468160D01*
X136506635Y-88286092D01*
X136506628Y-88286079D01*
X136397139Y-88122218D01*
X136397136Y-88122214D01*
X136257785Y-87982863D01*
X136257781Y-87982860D01*
X136093920Y-87873371D01*
X136093907Y-87873364D01*
X135911839Y-87797950D01*
X135911829Y-87797947D01*
X135718543Y-87759500D01*
X135718541Y-87759500D01*
X135521459Y-87759500D01*
X135521457Y-87759500D01*
X135328170Y-87797947D01*
X135328160Y-87797950D01*
X135146092Y-87873364D01*
X135146079Y-87873371D01*
X134982218Y-87982860D01*
X134982214Y-87982863D01*
X134842863Y-88122214D01*
X134842860Y-88122218D01*
X134733371Y-88286079D01*
X134733364Y-88286092D01*
X134657950Y-88468160D01*
X134657947Y-88468170D01*
X134619500Y-88661456D01*
X134619500Y-88661459D01*
X134619500Y-88858541D01*
X134619500Y-88858543D01*
X134619499Y-88858543D01*
X134080500Y-88858543D01*
X134080500Y-88858541D01*
X134080500Y-88661459D01*
X134080500Y-88661456D01*
X134042052Y-88468170D01*
X134042051Y-88468169D01*
X134042051Y-88468165D01*
X134042049Y-88468160D01*
X133966635Y-88286092D01*
X133966628Y-88286079D01*
X133857139Y-88122218D01*
X133857136Y-88122214D01*
X133717785Y-87982863D01*
X133717781Y-87982860D01*
X133553920Y-87873371D01*
X133553907Y-87873364D01*
X133371839Y-87797950D01*
X133371829Y-87797947D01*
X133178543Y-87759500D01*
X133178541Y-87759500D01*
X132981459Y-87759500D01*
X132981457Y-87759500D01*
X132788170Y-87797947D01*
X132788160Y-87797950D01*
X132606092Y-87873364D01*
X132606079Y-87873371D01*
X132442218Y-87982860D01*
X132442214Y-87982863D01*
X132302863Y-88122214D01*
X132302860Y-88122218D01*
X132193371Y-88286079D01*
X132193364Y-88286092D01*
X132117950Y-88468160D01*
X132117947Y-88468170D01*
X132079500Y-88661456D01*
X132079500Y-88661459D01*
X132079500Y-88858541D01*
X132079500Y-88858543D01*
X132079499Y-88858543D01*
X131540500Y-88858543D01*
X131540500Y-88858541D01*
X131540500Y-88661459D01*
X131540500Y-88661456D01*
X131502052Y-88468170D01*
X131502051Y-88468169D01*
X131502051Y-88468165D01*
X131502049Y-88468160D01*
X131426635Y-88286092D01*
X131426628Y-88286079D01*
X131317139Y-88122218D01*
X131317136Y-88122214D01*
X131177785Y-87982863D01*
X131177781Y-87982860D01*
X131013920Y-87873371D01*
X131013907Y-87873364D01*
X130831839Y-87797950D01*
X130831829Y-87797947D01*
X130638543Y-87759500D01*
X130638541Y-87759500D01*
X130441459Y-87759500D01*
X130441457Y-87759500D01*
X130248170Y-87797947D01*
X130248160Y-87797950D01*
X130066092Y-87873364D01*
X130066079Y-87873371D01*
X129902218Y-87982860D01*
X129902214Y-87982863D01*
X129762863Y-88122214D01*
X129762860Y-88122218D01*
X129653371Y-88286079D01*
X129653364Y-88286092D01*
X129577950Y-88468160D01*
X129577947Y-88468170D01*
X129539500Y-88661456D01*
X129539500Y-88661459D01*
X129539500Y-88858541D01*
X129539500Y-88858543D01*
X129539499Y-88858543D01*
X129000500Y-88858543D01*
X129000500Y-88858541D01*
X129000500Y-88661459D01*
X129000500Y-88661456D01*
X128962052Y-88468170D01*
X128962051Y-88468169D01*
X128962051Y-88468165D01*
X128962049Y-88468160D01*
X128886635Y-88286092D01*
X128886628Y-88286079D01*
X128777139Y-88122218D01*
X128777136Y-88122214D01*
X128637785Y-87982863D01*
X128637781Y-87982860D01*
X128473920Y-87873371D01*
X128473907Y-87873364D01*
X128291839Y-87797950D01*
X128291829Y-87797947D01*
X128098543Y-87759500D01*
X128098541Y-87759500D01*
X127901459Y-87759500D01*
X127901457Y-87759500D01*
X127708170Y-87797947D01*
X127708160Y-87797950D01*
X127526092Y-87873364D01*
X127526079Y-87873371D01*
X127362218Y-87982860D01*
X127362214Y-87982863D01*
X127222863Y-88122214D01*
X127222860Y-88122218D01*
X127113371Y-88286079D01*
X127113364Y-88286092D01*
X127037950Y-88468160D01*
X127037947Y-88468170D01*
X126999500Y-88661456D01*
X126999500Y-88661459D01*
X126999500Y-88858541D01*
X126999500Y-88858543D01*
X126999499Y-88858543D01*
X126460500Y-88858543D01*
X126460500Y-88858541D01*
X126460500Y-88661459D01*
X126460500Y-88661456D01*
X126422052Y-88468170D01*
X126422051Y-88468169D01*
X126422051Y-88468165D01*
X126422049Y-88468160D01*
X126346635Y-88286092D01*
X126346628Y-88286079D01*
X126237139Y-88122218D01*
X126237136Y-88122214D01*
X126097785Y-87982863D01*
X126097781Y-87982860D01*
X125933920Y-87873371D01*
X125933907Y-87873364D01*
X125751839Y-87797950D01*
X125751829Y-87797947D01*
X125558543Y-87759500D01*
X125558541Y-87759500D01*
X125361459Y-87759500D01*
X125361457Y-87759500D01*
X125168170Y-87797947D01*
X125168160Y-87797950D01*
X124986092Y-87873364D01*
X124986079Y-87873371D01*
X124822218Y-87982860D01*
X124822214Y-87982863D01*
X124682863Y-88122214D01*
X124682860Y-88122218D01*
X124573371Y-88286079D01*
X124573364Y-88286092D01*
X124497950Y-88468160D01*
X124497947Y-88468170D01*
X124459500Y-88661456D01*
X124459500Y-88661459D01*
X124459500Y-88858541D01*
X124459500Y-88858543D01*
X124459499Y-88858543D01*
X123920500Y-88858543D01*
X123920500Y-88858541D01*
X123920500Y-88661459D01*
X123920500Y-88661456D01*
X123882052Y-88468170D01*
X123882051Y-88468169D01*
X123882051Y-88468165D01*
X123882049Y-88468160D01*
X123806635Y-88286092D01*
X123806628Y-88286079D01*
X123697139Y-88122218D01*
X123697136Y-88122214D01*
X123557785Y-87982863D01*
X123557781Y-87982860D01*
X123393920Y-87873371D01*
X123393907Y-87873364D01*
X123211839Y-87797950D01*
X123211829Y-87797947D01*
X123018543Y-87759500D01*
X123018541Y-87759500D01*
X122821459Y-87759500D01*
X122821457Y-87759500D01*
X122628170Y-87797947D01*
X122628160Y-87797950D01*
X122446092Y-87873364D01*
X122446079Y-87873371D01*
X122282218Y-87982860D01*
X122282214Y-87982863D01*
X122142863Y-88122214D01*
X122142860Y-88122218D01*
X122033371Y-88286079D01*
X122033364Y-88286092D01*
X121957950Y-88468160D01*
X121957947Y-88468170D01*
X121919500Y-88661456D01*
X121919500Y-88661459D01*
X121919500Y-88858541D01*
X121919500Y-88858543D01*
X121919499Y-88858543D01*
X121380500Y-88858543D01*
X121380500Y-88858541D01*
X121380500Y-88661459D01*
X121380500Y-88661456D01*
X121342052Y-88468170D01*
X121342051Y-88468169D01*
X121342051Y-88468165D01*
X121342049Y-88468160D01*
X121266635Y-88286092D01*
X121266628Y-88286079D01*
X121157139Y-88122218D01*
X121157136Y-88122214D01*
X121017785Y-87982863D01*
X121017781Y-87982860D01*
X120853920Y-87873371D01*
X120853907Y-87873364D01*
X120671839Y-87797950D01*
X120671829Y-87797947D01*
X120478543Y-87759500D01*
X120478541Y-87759500D01*
X120281459Y-87759500D01*
X120281457Y-87759500D01*
X120088170Y-87797947D01*
X120088160Y-87797950D01*
X119906092Y-87873364D01*
X119906079Y-87873371D01*
X119742218Y-87982860D01*
X119742214Y-87982863D01*
X119602863Y-88122214D01*
X119602860Y-88122218D01*
X119493371Y-88286079D01*
X119493364Y-88286092D01*
X119417950Y-88468160D01*
X119417947Y-88468170D01*
X119379500Y-88661456D01*
X119379500Y-88661459D01*
X119379500Y-88858541D01*
X119379500Y-88858543D01*
X119379499Y-88858543D01*
X116300500Y-88858543D01*
X116300500Y-88858541D01*
X116300500Y-88661459D01*
X116300500Y-88661456D01*
X116262052Y-88468170D01*
X116262051Y-88468169D01*
X116262051Y-88468165D01*
X116262049Y-88468160D01*
X116186635Y-88286092D01*
X116186628Y-88286079D01*
X116077139Y-88122218D01*
X116077136Y-88122214D01*
X115937785Y-87982863D01*
X115937781Y-87982860D01*
X115773920Y-87873371D01*
X115773907Y-87873364D01*
X115591839Y-87797950D01*
X115591829Y-87797947D01*
X115398543Y-87759500D01*
X115398541Y-87759500D01*
X115201459Y-87759500D01*
X115201457Y-87759500D01*
X115008170Y-87797947D01*
X115008160Y-87797950D01*
X114826092Y-87873364D01*
X114826079Y-87873371D01*
X114662218Y-87982860D01*
X114662214Y-87982863D01*
X114522863Y-88122214D01*
X114522860Y-88122218D01*
X114413371Y-88286079D01*
X114413364Y-88286092D01*
X114337950Y-88468160D01*
X114337947Y-88468170D01*
X114299500Y-88661456D01*
X114299500Y-88661459D01*
X114299500Y-88858541D01*
X114299500Y-88858543D01*
X114299499Y-88858543D01*
X113500500Y-88858543D01*
X113500500Y-82734110D01*
X137817265Y-82734110D01*
X137817265Y-82865893D01*
X137851373Y-82993189D01*
X137884319Y-83050252D01*
X137917265Y-83107316D01*
X138010451Y-83200502D01*
X138109286Y-83257565D01*
X138124575Y-83266392D01*
X138124579Y-83266394D01*
X138251873Y-83300502D01*
X138251875Y-83300502D01*
X138383655Y-83300502D01*
X138383657Y-83300502D01*
X138510951Y-83266394D01*
X138510954Y-83266392D01*
X138510958Y-83266390D01*
X138543461Y-83247623D01*
X138596307Y-83217114D01*
X138658307Y-83200501D01*
X138977226Y-83200501D01*
X139039226Y-83217114D01*
X139124580Y-83266393D01*
X139251874Y-83300501D01*
X139251876Y-83300501D01*
X139383656Y-83300501D01*
X139383658Y-83300501D01*
X139510952Y-83266393D01*
X139510955Y-83266391D01*
X139596308Y-83217113D01*
X139611796Y-83212962D01*
X139623373Y-83205523D01*
X139658308Y-83200500D01*
X139859460Y-83200500D01*
X139921460Y-83217113D01*
X140006814Y-83266392D01*
X140134108Y-83300500D01*
X140134110Y-83300500D01*
X140265890Y-83300500D01*
X140265892Y-83300500D01*
X140393186Y-83266392D01*
X140507314Y-83200500D01*
X140600500Y-83107314D01*
X140666392Y-82993186D01*
X140700500Y-82865892D01*
X140700500Y-82734108D01*
X140666392Y-82606814D01*
X140600500Y-82492686D01*
X140507314Y-82399500D01*
X140450250Y-82366554D01*
X140393187Y-82333608D01*
X140329539Y-82316554D01*
X140265892Y-82299500D01*
X140134108Y-82299500D01*
X140006814Y-82333608D01*
X140006813Y-82333608D01*
X140006811Y-82333609D01*
X140006810Y-82333609D01*
X139921460Y-82382887D01*
X139905971Y-82387037D01*
X139894395Y-82394477D01*
X139859460Y-82399500D01*
X139658304Y-82399500D01*
X139596304Y-82382887D01*
X139564935Y-82364776D01*
X139510953Y-82333609D01*
X139447305Y-82316555D01*
X139383658Y-82299501D01*
X139251874Y-82299501D01*
X139124580Y-82333609D01*
X139124579Y-82333609D01*
X139124577Y-82333610D01*
X139124576Y-82333610D01*
X139039226Y-82382888D01*
X138977226Y-82399501D01*
X138658303Y-82399501D01*
X138596303Y-82382888D01*
X138564934Y-82364777D01*
X138510952Y-82333610D01*
X138447304Y-82316556D01*
X138383657Y-82299502D01*
X138251873Y-82299502D01*
X138124577Y-82333610D01*
X138010451Y-82399502D01*
X138010448Y-82399504D01*
X137917267Y-82492685D01*
X137917265Y-82492688D01*
X137851373Y-82606814D01*
X137817265Y-82734110D01*
X113500500Y-82734110D01*
X113500500Y-71600730D01*
X124929500Y-71600730D01*
X124929500Y-73399269D01*
X124932353Y-73429699D01*
X124932353Y-73429701D01*
X124977206Y-73557880D01*
X124977207Y-73557882D01*
X125057850Y-73667150D01*
X125167118Y-73747793D01*
X125209845Y-73762744D01*
X125295299Y-73792646D01*
X125325730Y-73795500D01*
X125325734Y-73795500D01*
X126674270Y-73795500D01*
X126704699Y-73792646D01*
X126704701Y-73792646D01*
X126768790Y-73770219D01*
X126832882Y-73747793D01*
X126942150Y-73667150D01*
X127022793Y-73557882D01*
X127045219Y-73493790D01*
X127067646Y-73429701D01*
X127067646Y-73429699D01*
X127070500Y-73399269D01*
X127070500Y-71600730D01*
X127067646Y-71570300D01*
X127067646Y-71570298D01*
X127022793Y-71442119D01*
X127022792Y-71442117D01*
X126942150Y-71332850D01*
X126832882Y-71252207D01*
X126832880Y-71252206D01*
X126704700Y-71207353D01*
X126674270Y-71204500D01*
X126674266Y-71204500D01*
X125325734Y-71204500D01*
X125325730Y-71204500D01*
X125295300Y-71207353D01*
X125295298Y-71207353D01*
X125167119Y-71252206D01*
X125167117Y-71252207D01*
X125057850Y-71332850D01*
X124977207Y-71442117D01*
X124977206Y-71442119D01*
X124932353Y-71570298D01*
X124932353Y-71570300D01*
X124929500Y-71600730D01*
X113500500Y-71600730D01*
X113500500Y-59457971D01*
X130022106Y-59457971D01*
X130022106Y-59475035D01*
X130022106Y-60038487D01*
X130024880Y-60068076D01*
X130039461Y-60109744D01*
X130068490Y-60192702D01*
X130075270Y-60201888D01*
X130099241Y-60267516D01*
X130099500Y-60275522D01*
X130099500Y-75931006D01*
X130099500Y-76068994D01*
X130099500Y-76068996D01*
X130099499Y-76068996D01*
X130126418Y-76204322D01*
X130126421Y-76204332D01*
X130179222Y-76331807D01*
X130255887Y-76446545D01*
X132353454Y-78544112D01*
X132400198Y-78575345D01*
X132468192Y-78620777D01*
X132595667Y-78673578D01*
X132595672Y-78673580D01*
X132595676Y-78673580D01*
X132595677Y-78673581D01*
X132731004Y-78700500D01*
X132731007Y-78700500D01*
X138258481Y-78700500D01*
X138325520Y-78720185D01*
X138346162Y-78736819D01*
X146055886Y-86446542D01*
X146153455Y-86544111D01*
X146153459Y-86544115D01*
X146268182Y-86620771D01*
X146268186Y-86620773D01*
X146268189Y-86620775D01*
X146342866Y-86651707D01*
X146395671Y-86673580D01*
X146422591Y-86678934D01*
X146519630Y-86698237D01*
X146531006Y-86700500D01*
X146531007Y-86700500D01*
X148468996Y-86700500D01*
X148577412Y-86678934D01*
X148604328Y-86673580D01*
X148668069Y-86647177D01*
X148731807Y-86620777D01*
X148731808Y-86620776D01*
X148731811Y-86620775D01*
X148846543Y-86544114D01*
X149367929Y-86022728D01*
X150067458Y-85323200D01*
X155653070Y-85323200D01*
X155653070Y-85510441D01*
X155689595Y-85694064D01*
X155689597Y-85694072D01*
X155761246Y-85867049D01*
X155761251Y-85867058D01*
X155865267Y-86022728D01*
X155865270Y-86022732D01*
X155997658Y-86155120D01*
X155997662Y-86155123D01*
X156153332Y-86259139D01*
X156153338Y-86259142D01*
X156153339Y-86259143D01*
X156326319Y-86330794D01*
X156509949Y-86367320D01*
X156509953Y-86367321D01*
X156509954Y-86367321D01*
X156697187Y-86367321D01*
X156697188Y-86367320D01*
X156880821Y-86330794D01*
X157053801Y-86259143D01*
X157209478Y-86155123D01*
X157341872Y-86022729D01*
X157445892Y-85867052D01*
X157517543Y-85694072D01*
X157554070Y-85510437D01*
X157554070Y-85323205D01*
X157517543Y-85139570D01*
X157445892Y-84966590D01*
X157445891Y-84966589D01*
X157445888Y-84966583D01*
X157341872Y-84810913D01*
X157341869Y-84810909D01*
X157209481Y-84678521D01*
X157209477Y-84678518D01*
X157053807Y-84574502D01*
X157053798Y-84574497D01*
X156880821Y-84502848D01*
X156880813Y-84502846D01*
X156697190Y-84466321D01*
X156697186Y-84466321D01*
X156509954Y-84466321D01*
X156509949Y-84466321D01*
X156326326Y-84502846D01*
X156326318Y-84502848D01*
X156153341Y-84574497D01*
X156153332Y-84574502D01*
X155997662Y-84678518D01*
X155997658Y-84678521D01*
X155865270Y-84810909D01*
X155865267Y-84810913D01*
X155761251Y-84966583D01*
X155761246Y-84966592D01*
X155689597Y-85139569D01*
X155689595Y-85139577D01*
X155653070Y-85323200D01*
X150067458Y-85323200D01*
X150161226Y-85229432D01*
X153144111Y-82246546D01*
X153144112Y-82246545D01*
X153144114Y-82246543D01*
X153220775Y-82131811D01*
X153273580Y-82004328D01*
X153300500Y-81868994D01*
X153300500Y-81731006D01*
X153300500Y-77455778D01*
X172099500Y-77455778D01*
X172099500Y-77744221D01*
X172099501Y-77744238D01*
X172137149Y-78030206D01*
X172137150Y-78030211D01*
X172137151Y-78030217D01*
X172137152Y-78030219D01*
X172211809Y-78308844D01*
X172211814Y-78308860D01*
X172322191Y-78575336D01*
X172322196Y-78575346D01*
X172466420Y-78825148D01*
X172466431Y-78825164D01*
X172642024Y-79054002D01*
X172642030Y-79054009D01*
X172845990Y-79257969D01*
X172845996Y-79257974D01*
X173074844Y-79433575D01*
X173074851Y-79433579D01*
X173324647Y-79577800D01*
X173324663Y-79577808D01*
X173591139Y-79688185D01*
X173591145Y-79688186D01*
X173591155Y-79688191D01*
X173869783Y-79762849D01*
X174155772Y-79800500D01*
X174155779Y-79800500D01*
X174444221Y-79800500D01*
X174444228Y-79800500D01*
X174730217Y-79762849D01*
X175008845Y-79688191D01*
X175008857Y-79688185D01*
X175008860Y-79688185D01*
X175275336Y-79577808D01*
X175275339Y-79577806D01*
X175275345Y-79577804D01*
X175525156Y-79433575D01*
X175754004Y-79257974D01*
X175957974Y-79054004D01*
X176133575Y-78825156D01*
X176251575Y-78620775D01*
X176277804Y-78575346D01*
X176277808Y-78575336D01*
X176388185Y-78308860D01*
X176388185Y-78308857D01*
X176388191Y-78308845D01*
X176462849Y-78030217D01*
X176500500Y-77744228D01*
X176500500Y-77455772D01*
X176462849Y-77169783D01*
X176388191Y-76891155D01*
X176388186Y-76891145D01*
X176388185Y-76891139D01*
X176277808Y-76624663D01*
X176277800Y-76624647D01*
X176133579Y-76374851D01*
X176133575Y-76374844D01*
X175957974Y-76145996D01*
X175957969Y-76145990D01*
X175754009Y-75942030D01*
X175754002Y-75942024D01*
X175525164Y-75766431D01*
X175525162Y-75766429D01*
X175525156Y-75766425D01*
X175525151Y-75766422D01*
X175525148Y-75766420D01*
X175275352Y-75622199D01*
X175275336Y-75622191D01*
X175008860Y-75511814D01*
X175008848Y-75511810D01*
X175008845Y-75511809D01*
X174730217Y-75437151D01*
X174730211Y-75437150D01*
X174730206Y-75437149D01*
X174444238Y-75399501D01*
X174444233Y-75399500D01*
X174444228Y-75399500D01*
X174155772Y-75399500D01*
X174155766Y-75399500D01*
X174155761Y-75399501D01*
X173869793Y-75437149D01*
X173869786Y-75437150D01*
X173869783Y-75437151D01*
X173591155Y-75511809D01*
X173591139Y-75511814D01*
X173324663Y-75622191D01*
X173324647Y-75622199D01*
X173074851Y-75766420D01*
X173074835Y-75766431D01*
X172845997Y-75942024D01*
X172845990Y-75942030D01*
X172642030Y-76145990D01*
X172642024Y-76145997D01*
X172466431Y-76374835D01*
X172466420Y-76374851D01*
X172322199Y-76624647D01*
X172322191Y-76624663D01*
X172211814Y-76891139D01*
X172211809Y-76891155D01*
X172137152Y-77169780D01*
X172137149Y-77169793D01*
X172099501Y-77455761D01*
X172099500Y-77455778D01*
X153300500Y-77455778D01*
X153300500Y-72418996D01*
X163249499Y-72418996D01*
X163276418Y-72554322D01*
X163276420Y-72554328D01*
X163290061Y-72587260D01*
X163299500Y-72634713D01*
X163299500Y-73331007D01*
X163299500Y-74468993D01*
X163299500Y-74468995D01*
X163299499Y-74468995D01*
X163326418Y-74604322D01*
X163326421Y-74604332D01*
X163379221Y-74731804D01*
X163379228Y-74731817D01*
X163455885Y-74846541D01*
X163455888Y-74846545D01*
X163553454Y-74944111D01*
X163553458Y-74944114D01*
X163668182Y-75020771D01*
X163668195Y-75020778D01*
X163795667Y-75073578D01*
X163795672Y-75073580D01*
X163795676Y-75073580D01*
X163795677Y-75073581D01*
X163931004Y-75100500D01*
X163931007Y-75100500D01*
X164068995Y-75100500D01*
X164160041Y-75082389D01*
X164204328Y-75073580D01*
X164331811Y-75020775D01*
X164446542Y-74944114D01*
X164544114Y-74846542D01*
X164620775Y-74731811D01*
X164673580Y-74604328D01*
X164700500Y-74468993D01*
X164700500Y-73331007D01*
X164700500Y-72331007D01*
X164700500Y-72331004D01*
X164673581Y-72195677D01*
X164673580Y-72195676D01*
X164673580Y-72195672D01*
X164673578Y-72195667D01*
X164620777Y-72068193D01*
X164620773Y-72068186D01*
X164608290Y-72049505D01*
X164608288Y-72049500D01*
X164608288Y-72049501D01*
X164544112Y-71953454D01*
X164396545Y-71805887D01*
X164281807Y-71729222D01*
X164154332Y-71676421D01*
X164154322Y-71676418D01*
X164018996Y-71649500D01*
X164018994Y-71649500D01*
X163881006Y-71649500D01*
X163881004Y-71649500D01*
X163745677Y-71676418D01*
X163745667Y-71676421D01*
X163618192Y-71729222D01*
X163503454Y-71805887D01*
X163405887Y-71903454D01*
X163329222Y-72018192D01*
X163276421Y-72145667D01*
X163276418Y-72145677D01*
X163249500Y-72281003D01*
X163249500Y-72281006D01*
X163249500Y-72418994D01*
X163249500Y-72418996D01*
X163249499Y-72418996D01*
X153300500Y-72418996D01*
X153300500Y-60840154D01*
X153307459Y-60799198D01*
X153335225Y-60719848D01*
X153338000Y-60690260D01*
X153338000Y-60109739D01*
X153335225Y-60080155D01*
X153335225Y-60080151D01*
X153331321Y-60068995D01*
X165299499Y-60068995D01*
X165326418Y-60204322D01*
X165326421Y-60204332D01*
X165379221Y-60331804D01*
X165379228Y-60331817D01*
X165455885Y-60446541D01*
X165455888Y-60446545D01*
X165553454Y-60544111D01*
X165553458Y-60544114D01*
X165668182Y-60620771D01*
X165668195Y-60620778D01*
X165795667Y-60673578D01*
X165795672Y-60673580D01*
X165795676Y-60673580D01*
X165795677Y-60673581D01*
X165931004Y-60700500D01*
X165931007Y-60700500D01*
X166068995Y-60700500D01*
X166160041Y-60682389D01*
X166204328Y-60673580D01*
X166331811Y-60620775D01*
X166446542Y-60544114D01*
X166544114Y-60446542D01*
X166620775Y-60331811D01*
X166673580Y-60204328D01*
X166700500Y-60068993D01*
X166700500Y-58931007D01*
X166700500Y-57931007D01*
X166700500Y-57931004D01*
X166673581Y-57795677D01*
X166673580Y-57795676D01*
X166673580Y-57795672D01*
X166673578Y-57795667D01*
X166620778Y-57668195D01*
X166620771Y-57668182D01*
X166544114Y-57553458D01*
X166544111Y-57553454D01*
X166446545Y-57455888D01*
X166446541Y-57455885D01*
X166331817Y-57379228D01*
X166331804Y-57379221D01*
X166204332Y-57326421D01*
X166204322Y-57326418D01*
X166068995Y-57299500D01*
X166068993Y-57299500D01*
X165931007Y-57299500D01*
X165931005Y-57299500D01*
X165795677Y-57326418D01*
X165795667Y-57326421D01*
X165668195Y-57379221D01*
X165668182Y-57379228D01*
X165553458Y-57455885D01*
X165553454Y-57455888D01*
X165455888Y-57553454D01*
X165455885Y-57553458D01*
X165379228Y-57668182D01*
X165379221Y-57668195D01*
X165326421Y-57795667D01*
X165326418Y-57795677D01*
X165299500Y-57931004D01*
X165299500Y-57931007D01*
X165299500Y-58931007D01*
X165299500Y-60068993D01*
X165299500Y-60068995D01*
X165299499Y-60068995D01*
X153331321Y-60068995D01*
X153307458Y-60000800D01*
X153306764Y-59996711D01*
X153305523Y-59994780D01*
X153300500Y-59959845D01*
X153300500Y-59941519D01*
X153320185Y-59874480D01*
X153336819Y-59853838D01*
X155653838Y-57536819D01*
X155715161Y-57503334D01*
X155741519Y-57500500D01*
X156868995Y-57500500D01*
X156960041Y-57482389D01*
X157004328Y-57473580D01*
X157131811Y-57420775D01*
X157246542Y-57344114D01*
X157344114Y-57246542D01*
X157420775Y-57131811D01*
X157473580Y-57004328D01*
X157500500Y-56868993D01*
X157500500Y-56731007D01*
X157500500Y-56731004D01*
X157473581Y-56595677D01*
X157473580Y-56595676D01*
X157473580Y-56595672D01*
X157473578Y-56595667D01*
X157420778Y-56468195D01*
X157420771Y-56468182D01*
X157344114Y-56353458D01*
X157344111Y-56353454D01*
X157246545Y-56255888D01*
X157246541Y-56255885D01*
X157131817Y-56179228D01*
X157131804Y-56179221D01*
X157004332Y-56126421D01*
X157004322Y-56126418D01*
X156868995Y-56099500D01*
X156868993Y-56099500D01*
X156068993Y-56099500D01*
X155468994Y-56099500D01*
X155331006Y-56099500D01*
X155331004Y-56099500D01*
X155195677Y-56126418D01*
X155195667Y-56126421D01*
X155068192Y-56179222D01*
X154953454Y-56255887D01*
X152055885Y-59153456D01*
X151994108Y-59245914D01*
X151979230Y-59268180D01*
X151979223Y-59268192D01*
X151926420Y-59395671D01*
X151926418Y-59395677D01*
X151899500Y-59531004D01*
X151899500Y-59959845D01*
X151892541Y-60000801D01*
X151864776Y-60080146D01*
X151864774Y-60080155D01*
X151862000Y-60109739D01*
X151862000Y-60690260D01*
X151864774Y-60719848D01*
X151892541Y-60799198D01*
X151899500Y-60840154D01*
X151899500Y-81458481D01*
X151879815Y-81525520D01*
X151863181Y-81546162D01*
X148146162Y-85263181D01*
X148084839Y-85296666D01*
X148058481Y-85299500D01*
X146941518Y-85299500D01*
X146874479Y-85279815D01*
X146853837Y-85263181D01*
X139046546Y-77455888D01*
X139046545Y-77455887D01*
X138931807Y-77379222D01*
X138804332Y-77326421D01*
X138804322Y-77326418D01*
X138668996Y-77299500D01*
X138668994Y-77299500D01*
X138668993Y-77299500D01*
X133141519Y-77299500D01*
X133074480Y-77279815D01*
X133053838Y-77263181D01*
X131536819Y-75746162D01*
X131503334Y-75684839D01*
X131500500Y-75658481D01*
X131500500Y-72818996D01*
X141249499Y-72818996D01*
X141276418Y-72954322D01*
X141276420Y-72954328D01*
X141290061Y-72987260D01*
X141299500Y-73034713D01*
X141299500Y-74131007D01*
X141299500Y-75468993D01*
X141299500Y-75468995D01*
X141299499Y-75468995D01*
X141326418Y-75604322D01*
X141326421Y-75604332D01*
X141379221Y-75731804D01*
X141379228Y-75731817D01*
X141455885Y-75846541D01*
X141455888Y-75846545D01*
X141553454Y-75944111D01*
X141553458Y-75944114D01*
X141668182Y-76020771D01*
X141668195Y-76020778D01*
X141784600Y-76068994D01*
X141795672Y-76073580D01*
X141795676Y-76073580D01*
X141795677Y-76073581D01*
X141931004Y-76100500D01*
X141931007Y-76100500D01*
X142068995Y-76100500D01*
X142160041Y-76082389D01*
X142204328Y-76073580D01*
X142331811Y-76020775D01*
X142446542Y-75944114D01*
X142544114Y-75846542D01*
X142620775Y-75731811D01*
X142673580Y-75604328D01*
X142682389Y-75560041D01*
X142700500Y-75468995D01*
X142700500Y-72731007D01*
X142698948Y-72723207D01*
X142698947Y-72723200D01*
X142686264Y-72659439D01*
X142673580Y-72595672D01*
X142656455Y-72554328D01*
X142620777Y-72468192D01*
X142544112Y-72353454D01*
X142396545Y-72205887D01*
X142281807Y-72129222D01*
X142154332Y-72076421D01*
X142154322Y-72076418D01*
X142018996Y-72049500D01*
X142018994Y-72049500D01*
X141881006Y-72049500D01*
X141881004Y-72049500D01*
X141745677Y-72076418D01*
X141745667Y-72076421D01*
X141618192Y-72129222D01*
X141503454Y-72205887D01*
X141405887Y-72303454D01*
X141329222Y-72418192D01*
X141276421Y-72545667D01*
X141276418Y-72545677D01*
X141249500Y-72681003D01*
X141249500Y-72681006D01*
X141249500Y-72818994D01*
X141249500Y-72818996D01*
X141249499Y-72818996D01*
X131500500Y-72818996D01*
X131500500Y-71600730D01*
X147429500Y-71600730D01*
X147429500Y-73399269D01*
X147432353Y-73429699D01*
X147432353Y-73429701D01*
X147477206Y-73557880D01*
X147477207Y-73557882D01*
X147557850Y-73667150D01*
X147667118Y-73747793D01*
X147709845Y-73762744D01*
X147795299Y-73792646D01*
X147825730Y-73795500D01*
X147825734Y-73795500D01*
X149174270Y-73795500D01*
X149204699Y-73792646D01*
X149204701Y-73792646D01*
X149268790Y-73770219D01*
X149332882Y-73747793D01*
X149442150Y-73667150D01*
X149522793Y-73557882D01*
X149545219Y-73493790D01*
X149567646Y-73429701D01*
X149567646Y-73429699D01*
X149570500Y-73399269D01*
X149570500Y-71600730D01*
X149567646Y-71570300D01*
X149567646Y-71570298D01*
X149522793Y-71442119D01*
X149522792Y-71442117D01*
X149442150Y-71332850D01*
X149332882Y-71252207D01*
X149332880Y-71252206D01*
X149204700Y-71207353D01*
X149174270Y-71204500D01*
X149174266Y-71204500D01*
X147825734Y-71204500D01*
X147825730Y-71204500D01*
X147795300Y-71207353D01*
X147795298Y-71207353D01*
X147667119Y-71252206D01*
X147667117Y-71252207D01*
X147557850Y-71332850D01*
X147477207Y-71442117D01*
X147477206Y-71442119D01*
X147432353Y-71570298D01*
X147432353Y-71570300D01*
X147429500Y-71600730D01*
X131500500Y-71600730D01*
X131500500Y-60068995D01*
X143299499Y-60068995D01*
X143326418Y-60204322D01*
X143326421Y-60204332D01*
X143379221Y-60331804D01*
X143379228Y-60331817D01*
X143455885Y-60446541D01*
X143455888Y-60446545D01*
X143553454Y-60544111D01*
X143553458Y-60544114D01*
X143668182Y-60620771D01*
X143668195Y-60620778D01*
X143795667Y-60673578D01*
X143795672Y-60673580D01*
X143795676Y-60673580D01*
X143795677Y-60673581D01*
X143931004Y-60700500D01*
X143931007Y-60700500D01*
X144068995Y-60700500D01*
X144160041Y-60682389D01*
X144204328Y-60673580D01*
X144331811Y-60620775D01*
X144446542Y-60544114D01*
X144544114Y-60446542D01*
X144620775Y-60331811D01*
X144673580Y-60204328D01*
X144700500Y-60068993D01*
X144700500Y-58931007D01*
X144700500Y-57931007D01*
X144700500Y-57931004D01*
X144673581Y-57795677D01*
X144673580Y-57795676D01*
X144673580Y-57795672D01*
X144673578Y-57795667D01*
X144620778Y-57668195D01*
X144620771Y-57668182D01*
X144544114Y-57553458D01*
X144544111Y-57553454D01*
X144446545Y-57455888D01*
X144446541Y-57455885D01*
X144331817Y-57379228D01*
X144331804Y-57379221D01*
X144204332Y-57326421D01*
X144204322Y-57326418D01*
X144068995Y-57299500D01*
X144068993Y-57299500D01*
X143931007Y-57299500D01*
X143931005Y-57299500D01*
X143795677Y-57326418D01*
X143795667Y-57326421D01*
X143668195Y-57379221D01*
X143668182Y-57379228D01*
X143553458Y-57455885D01*
X143553454Y-57455888D01*
X143455888Y-57553454D01*
X143455885Y-57553458D01*
X143379228Y-57668182D01*
X143379221Y-57668195D01*
X143326421Y-57795667D01*
X143326418Y-57795677D01*
X143299500Y-57931004D01*
X143299500Y-57931007D01*
X143299500Y-58931007D01*
X143299500Y-60068993D01*
X143299500Y-60068995D01*
X143299499Y-60068995D01*
X131500500Y-60068995D01*
X131500500Y-59441518D01*
X131520185Y-59374479D01*
X131536819Y-59353837D01*
X133153837Y-57736819D01*
X133215160Y-57703334D01*
X133241518Y-57700500D01*
X134468995Y-57700500D01*
X134560041Y-57682389D01*
X134604328Y-57673580D01*
X134731811Y-57620775D01*
X134846542Y-57544114D01*
X134944114Y-57446542D01*
X135020775Y-57331811D01*
X135073580Y-57204328D01*
X135082389Y-57160041D01*
X135100500Y-57068995D01*
X135100500Y-56931004D01*
X135073581Y-56795677D01*
X135073580Y-56795676D01*
X135073580Y-56795672D01*
X135046794Y-56731004D01*
X135020778Y-56668195D01*
X135020771Y-56668182D01*
X134944114Y-56553458D01*
X134944111Y-56553454D01*
X134846545Y-56455888D01*
X134846541Y-56455885D01*
X134731817Y-56379228D01*
X134731804Y-56379221D01*
X134604332Y-56326421D01*
X134604322Y-56326418D01*
X134468995Y-56299500D01*
X134468993Y-56299500D01*
X132831007Y-56299500D01*
X132831003Y-56299500D01*
X132722590Y-56321065D01*
X132722589Y-56321065D01*
X132709131Y-56323742D01*
X132695673Y-56326419D01*
X132669268Y-56337356D01*
X132642866Y-56348292D01*
X132642864Y-56348293D01*
X132642863Y-56348292D01*
X132568196Y-56379221D01*
X132568181Y-56379229D01*
X132537845Y-56399500D01*
X132453457Y-56455886D01*
X132453453Y-56455889D01*
X130255888Y-58653453D01*
X130255887Y-58653454D01*
X130179223Y-58768192D01*
X130126421Y-58895668D01*
X130126418Y-58895680D01*
X130118774Y-58934109D01*
X130118774Y-58934110D01*
X130099500Y-59031004D01*
X130099500Y-59220931D01*
X130098890Y-59223006D01*
X130099430Y-59225101D01*
X130093235Y-59259848D01*
X130087023Y-59278639D01*
X130068490Y-59303752D01*
X130024881Y-59428378D01*
X130022106Y-59457971D01*
X113500500Y-59457971D01*
X113500500Y-54411181D01*
X126325195Y-54411181D01*
X126325195Y-54584172D01*
X126352258Y-54755039D01*
X126352258Y-54755042D01*
X126405714Y-54919563D01*
X126484253Y-55073703D01*
X126585937Y-55213660D01*
X126708262Y-55335985D01*
X126848218Y-55437668D01*
X127002358Y-55516207D01*
X127155816Y-55566067D01*
X127166884Y-55569664D01*
X127337748Y-55596727D01*
X127337749Y-55596727D01*
X127510741Y-55596727D01*
X127510742Y-55596727D01*
X127681606Y-55569664D01*
X127681609Y-55569663D01*
X127681610Y-55569663D01*
X127846131Y-55516207D01*
X127846131Y-55516206D01*
X127846134Y-55516206D01*
X128000272Y-55437668D01*
X128140228Y-55335985D01*
X128262553Y-55213660D01*
X128364236Y-55073704D01*
X128442774Y-54919566D01*
X128495477Y-54757362D01*
X128496231Y-54755042D01*
X128496231Y-54755041D01*
X128496232Y-54755038D01*
X128523295Y-54584174D01*
X128523295Y-54413504D01*
X148800950Y-54413504D01*
X148800950Y-54586495D01*
X148828013Y-54757362D01*
X148828013Y-54757365D01*
X148881469Y-54921886D01*
X148960008Y-55076026D01*
X149061692Y-55215983D01*
X149184016Y-55338307D01*
X149323973Y-55439991D01*
X149478113Y-55518530D01*
X149631571Y-55568390D01*
X149642639Y-55571987D01*
X149813503Y-55599050D01*
X149813504Y-55599050D01*
X149986496Y-55599050D01*
X149986497Y-55599050D01*
X150157361Y-55571987D01*
X150157364Y-55571986D01*
X150157365Y-55571986D01*
X150321886Y-55518530D01*
X150321886Y-55518529D01*
X150321889Y-55518529D01*
X150476027Y-55439991D01*
X150615983Y-55338308D01*
X150738308Y-55215983D01*
X150839991Y-55076027D01*
X150918529Y-54921889D01*
X150971987Y-54757361D01*
X150999050Y-54586497D01*
X150999050Y-54413503D01*
X150971987Y-54242639D01*
X150971986Y-54242635D01*
X150971986Y-54242634D01*
X150918530Y-54078113D01*
X150839991Y-53923973D01*
X150738307Y-53784016D01*
X150615983Y-53661692D01*
X150476026Y-53560008D01*
X150321886Y-53481469D01*
X150157363Y-53428013D01*
X150043451Y-53409971D01*
X149986497Y-53400950D01*
X149813503Y-53400950D01*
X149756548Y-53409971D01*
X149642637Y-53428013D01*
X149642634Y-53428013D01*
X149478113Y-53481469D01*
X149323973Y-53560008D01*
X149184016Y-53661692D01*
X149061692Y-53784016D01*
X148960008Y-53923973D01*
X148881469Y-54078113D01*
X148828013Y-54242634D01*
X148828013Y-54242637D01*
X148800950Y-54413504D01*
X128523295Y-54413504D01*
X128523295Y-54411180D01*
X128496232Y-54240316D01*
X128496231Y-54240312D01*
X128496231Y-54240311D01*
X128442775Y-54075790D01*
X128364236Y-53921650D01*
X128262553Y-53781694D01*
X128140228Y-53659369D01*
X128000271Y-53557685D01*
X127846131Y-53479146D01*
X127681608Y-53425690D01*
X127525408Y-53400950D01*
X127510742Y-53398627D01*
X127337748Y-53398627D01*
X127323082Y-53400950D01*
X127166882Y-53425690D01*
X127166879Y-53425690D01*
X127002358Y-53479146D01*
X126848218Y-53557685D01*
X126708261Y-53659369D01*
X126585937Y-53781693D01*
X126484253Y-53921650D01*
X126405714Y-54075790D01*
X126352258Y-54240311D01*
X126352258Y-54240314D01*
X126325195Y-54411181D01*
X113500500Y-54411181D01*
X113500500Y-47624500D01*
X113520185Y-47557461D01*
X113572989Y-47511706D01*
X113624500Y-47500500D01*
X177375500Y-47500500D01*
X177442539Y-47520185D01*
G37*
%TD.AperFunction*%
%TD*%
M02*
