M48
; DRILL file KiCad 10.0.1 date 2026-05-26T09:06:01
; FORMAT={-:-/ absolute / metric / decimal}
; #@! TF.CreationDate,2026-05-26T09:06:01+02:00
; #@! TF.GenerationSoftware,Kicad,Pcbnew,10.0.1
; #@! TF.FileFunction,Plated,1,4,PTH
FMAT,2
METRIC
; #@! TA.AperFunction,Plated,PTH,ViaDrill
T1C0.300
; #@! TA.AperFunction,Plated,PTH,ComponentDrill
T2C1.000
; #@! TA.AperFunction,Plated,PTH,ComponentDrill
T3C1.100
; #@! TA.AperFunction,Plated,PTH,ComponentDrill
T4C1.190
; #@! TA.AperFunction,Plated,PTH,ComponentDrill
T5C1.300
; #@! TA.AperFunction,Plated,PTH,ComponentDrill
T6C2.700
; #@! TA.AperFunction,Plated,PTH,ComponentDrill
T7C3.200
%
G90
G05
T1
X114.4Y-90.9
X114.4Y-93.4
X114.5Y-48.5
X114.5Y-51.0
X114.5Y-53.5
X114.5Y-56.0
X114.5Y-58.5
X114.5Y-61.0
X114.5Y-63.5
X114.5Y-66.0
X114.5Y-68.5
X114.5Y-71.0
X114.5Y-73.5
X114.5Y-76.0
X114.5Y-83.5
X114.5Y-96.0
X114.5Y-98.5
X114.5Y-101.0
X114.5Y-106.0
X114.5Y-108.5
X114.5Y-115.5
X114.6Y-78.4
X114.6Y-80.9
X117.0Y-48.5
X117.0Y-115.5
X119.5Y-48.5
X119.5Y-115.5
X121.8Y-90.8
X122.0Y-48.5
X122.0Y-115.5
X122.8Y-86.2
X122.8Y-90.8
X122.8Y-99.0
X123.8Y-86.2
X123.8Y-90.8
X123.8Y-99.0
X124.5Y-48.5
X124.5Y-115.5
X124.8Y-86.2
X124.8Y-90.8
X124.8Y-99.0
X125.8Y-86.2
X125.8Y-90.8
X125.8Y-99.0
X126.8Y-86.2
X126.8Y-90.8
X126.8Y-99.0
X127.0Y-48.5
X127.0Y-115.5
X127.8Y-86.2
X127.8Y-90.8
X127.8Y-99.0
X128.8Y-86.2
X128.8Y-90.8
X128.8Y-99.0
X129.0Y-68.5
X129.0Y-69.5
X129.0Y-70.5
X129.0Y-71.5
X129.5Y-48.5
X129.5Y-115.5
X129.8Y-86.2
X129.8Y-90.8
X129.8Y-99.0
X130.0Y-53.4
X130.0Y-55.6
X130.8Y-86.2
X130.8Y-90.8
X130.8Y-99.0
X131.3Y-53.4
X131.3Y-55.6
X131.6Y-84.8
X131.8Y-86.2
X131.8Y-99.0
X132.0Y-48.5
X132.0Y-61.2
X132.0Y-63.4
X132.0Y-66.2
X132.0Y-115.5
X132.6Y-53.4
X132.6Y-55.6
X132.6Y-84.8
X132.9Y-57.0
X133.3Y-61.2
X133.3Y-63.4
X133.3Y-66.2
X133.4Y-58.4
X133.6Y-84.8
X133.9Y-53.4
X133.9Y-55.6
X134.4Y-57.0
X134.5Y-48.5
X134.5Y-115.5
X134.593Y-61.387
X134.6Y-58.4
X134.6Y-63.4
X134.6Y-66.2
X134.6Y-84.8
X135.2Y-53.4
X135.2Y-55.6
X135.6Y-57.4
X135.6Y-58.4
X135.6Y-61.7
X135.6Y-63.0
X135.6Y-66.0
X135.6Y-66.9
X135.6Y-68.2
X135.6Y-84.8
X136.4Y-52.0
X136.5Y-53.4
X136.6Y-84.8
X137.0Y-115.5
X137.6Y-84.8
X138.318Y-82.8
X138.6Y-84.8
X139.318Y-82.8
X139.5Y-115.5
X139.8Y-57.8
X139.8Y-59.1
X139.8Y-60.4
X139.8Y-61.7
X139.8Y-63.0
X139.8Y-65.6
X139.8Y-66.9
X139.8Y-68.2
X140.2Y-52.0
X140.2Y-53.3
X140.2Y-54.6
X140.2Y-64.6
X140.2Y-82.8
X141.5Y-68.5
X141.95Y-72.75
X142.0Y-48.5
X142.0Y-74.2
X142.0Y-75.4
X142.0Y-115.5
X142.5Y-69.5
X143.6Y-94.4
X144.0Y-58.0
X144.0Y-59.0
X144.0Y-60.0
X144.5Y-48.5
X144.5Y-115.5
X145.0Y-94.4
X146.4Y-94.4
X146.6Y-86.0
X147.0Y-48.5
X147.0Y-115.5
X147.4Y-86.0
X148.4Y-86.0
X149.5Y-48.5
X149.5Y-115.5
X151.0Y-68.5
X151.0Y-69.5
X151.0Y-70.5
X151.0Y-71.5
X152.0Y-48.5
X152.0Y-115.5
X152.2Y-53.4
X152.2Y-55.6
X153.5Y-53.4
X153.5Y-55.6
X154.0Y-61.2
X154.0Y-63.4
X154.0Y-66.2
X154.5Y-48.5
X154.5Y-115.5
X154.8Y-53.4
X154.8Y-55.6
X155.3Y-61.2
X155.3Y-63.4
X155.3Y-66.2
X155.4Y-56.8
X155.6Y-58.4
X156.1Y-53.4
X156.1Y-55.6
X156.6Y-58.4
X156.6Y-61.2
X156.6Y-63.4
X156.6Y-66.2
X156.8Y-56.8
X157.0Y-115.5
X157.4Y-53.4
X157.4Y-55.6
X157.6Y-61.6
X157.6Y-62.9
X157.6Y-66.3
X157.6Y-67.6
X157.6Y-68.9
X157.8Y-57.4
X157.8Y-58.4
X158.6Y-52.0
X158.6Y-53.3
X159.5Y-115.5
X162.0Y-57.8
X162.0Y-59.1
X162.0Y-60.4
X162.0Y-61.7
X162.0Y-63.0
X162.0Y-64.3
X162.0Y-65.6
X162.0Y-66.9
X162.0Y-68.2
X162.0Y-115.5
X162.2Y-52.0
X162.2Y-53.3
X162.2Y-54.6
X163.5Y-68.5
X163.95Y-72.35
X164.0Y-73.4
X164.0Y-74.4
X164.5Y-48.5
X164.5Y-69.5
X164.5Y-115.5
X166.0Y-58.0
X166.0Y-59.0
X166.0Y-60.0
X167.0Y-48.5
X167.0Y-115.5
X169.5Y-48.5
X169.5Y-115.5
X172.0Y-48.5
X172.0Y-115.5
X174.5Y-48.5
X174.5Y-115.5
X176.5Y-48.5
X176.5Y-51.0
X176.5Y-53.5
X176.5Y-56.0
X176.5Y-58.5
X176.5Y-61.0
X176.5Y-63.5
X176.5Y-66.0
X176.5Y-68.5
X176.5Y-71.0
X176.5Y-81.0
X176.5Y-83.5
X176.5Y-86.0
X176.5Y-88.5
X176.5Y-91.0
X176.5Y-93.5
X176.5Y-96.0
X176.5Y-98.5
X176.5Y-101.0
X176.5Y-103.5
X176.5Y-106.0
X176.5Y-108.5
X176.5Y-111.0
X176.5Y-113.5
T2
X156.604Y-85.417
X156.604Y-93.017
X158.0Y-101.0
X158.0Y-103.54
X160.54Y-101.0
X160.54Y-103.54
X163.08Y-101.0
X163.08Y-103.54
X165.62Y-101.0
X165.62Y-103.54
X168.16Y-101.0
X168.16Y-103.54
X168.448Y-90.67
X170.988Y-90.67
X173.528Y-90.67
T3
X115.3Y-88.76
X115.3Y-104.0
X117.84Y-88.76
X117.84Y-104.0
X120.38Y-88.76
X120.38Y-104.0
X122.92Y-88.76
X122.92Y-104.0
X125.46Y-88.76
X125.46Y-104.0
X128.0Y-88.76
X128.0Y-104.0
X130.54Y-88.76
X130.54Y-104.0
X133.08Y-88.76
X133.08Y-104.0
X135.62Y-88.76
X135.62Y-104.0
X138.16Y-88.76
X138.16Y-104.0
X140.7Y-88.76
X140.7Y-104.0
X143.24Y-88.76
X143.24Y-104.0
X145.78Y-88.76
X145.78Y-104.0
X148.32Y-88.76
X148.32Y-104.0
T4
X123.46Y-72.5
X125.269Y-111.0
X126.0Y-72.5
X127.809Y-111.0
X130.349Y-111.0
X132.889Y-111.0
X135.429Y-111.0
X137.969Y-111.0
X140.509Y-111.0
X143.049Y-111.0
X145.589Y-111.0
X145.96Y-72.5
X148.5Y-72.5
T5
X124.884Y-51.958
X124.884Y-57.038
X127.424Y-54.498
X129.964Y-51.958
X129.964Y-57.038
X147.36Y-51.96
X147.36Y-57.04
X149.9Y-54.5
X152.44Y-51.96
X152.44Y-57.04
T6
X174.2Y-69.0
X174.2Y-74.0
T7
X117.5Y-52.5
X117.501Y-111.9
X172.5Y-52.5
X172.5Y-111.802
M30
