%TF.GenerationSoftware,KiCad,Pcbnew,10.0.1*%
%TF.CreationDate,2026-05-25T09:19:08+02:00*%
%TF.ProjectId,swr_meter,7377725f-6d65-4746-9572-2e6b69636164,rev?*%
%TF.SameCoordinates,Original*%
%TF.FileFunction,Copper,L2,Inr*%
%TF.FilePolarity,Positive*%
%FSLAX46Y46*%
G04 Gerber Fmt 4.6, Leading zero omitted, Abs format (unit mm)*
G04 Created by KiCad (PCBNEW 10.0.1) date 2026-05-25 09:19:08*
%MOMM*%
%LPD*%
G01*
G04 APERTURE LIST*
G04 Aperture macros list*
%AMRoundRect*
0 Rectangle with rounded corners*
0 $1 Rounding radius*
0 $2 $3 $4 $5 $6 $7 $8 $9 X,Y pos of 4 corners*
0 Add a 4 corners polygon primitive as box body*
4,1,4,$2,$3,$4,$5,$6,$7,$8,$9,$2,$3,0*
0 Add four circle primitives for the rounded corners*
1,1,$1+$1,$2,$3*
1,1,$1+$1,$4,$5*
1,1,$1+$1,$6,$7*
1,1,$1+$1,$8,$9*
0 Add four rect primitives between the rounded corners*
20,1,$1+$1,$2,$3,$4,$5,0*
20,1,$1+$1,$4,$5,$6,$7,0*
20,1,$1+$1,$6,$7,$8,$9,0*
20,1,$1+$1,$8,$9,$2,$3,0*%
G04 Aperture macros list end*
%TA.AperFunction,ComponentPad*%
%ADD10C,1.998980*%
%TD*%
%TA.AperFunction,ComponentPad*%
%ADD11C,2.499360*%
%TD*%
%TA.AperFunction,ComponentPad*%
%ADD12C,3.600000*%
%TD*%
%TA.AperFunction,ComponentPad*%
%ADD13C,1.500000*%
%TD*%
%TA.AperFunction,ComponentPad*%
%ADD14C,1.600000*%
%TD*%
%TA.AperFunction,ComponentPad*%
%ADD15RoundRect,0.250000X0.620000X0.845000X-0.620000X0.845000X-0.620000X-0.845000X0.620000X-0.845000X0*%
%TD*%
%TA.AperFunction,ComponentPad*%
%ADD16O,1.740000X2.190000*%
%TD*%
%TA.AperFunction,ComponentPad*%
%ADD17RoundRect,0.760000X-1.140000X1.140000X-1.140000X-1.140000X1.140000X-1.140000X1.140000X1.140000X0*%
%TD*%
%TA.AperFunction,ComponentPad*%
%ADD18C,4.000000*%
%TD*%
%TA.AperFunction,ComponentPad*%
%ADD19RoundRect,0.250000X-0.620000X-0.845000X0.620000X-0.845000X0.620000X0.845000X-0.620000X0.845000X0*%
%TD*%
%TA.AperFunction,ComponentPad*%
%ADD20RoundRect,0.250000X-0.600000X0.600000X-0.600000X-0.600000X0.600000X-0.600000X0.600000X0.600000X0*%
%TD*%
%TA.AperFunction,ComponentPad*%
%ADD21C,1.700000*%
%TD*%
%TA.AperFunction,ComponentPad*%
%ADD22RoundRect,0.250001X0.499999X-0.499999X0.499999X0.499999X-0.499999X0.499999X-0.499999X-0.499999X0*%
%TD*%
%TA.AperFunction,ViaPad*%
%ADD23C,0.600000*%
%TD*%
%TA.AperFunction,Conductor*%
%ADD24C,1.200000*%
%TD*%
%TA.AperFunction,Conductor*%
%ADD25C,1.000000*%
%TD*%
G04 APERTURE END LIST*
D10*
%TO.N,Net-(U8-RF2)*%
%TO.C,X3*%
X127424245Y-54497677D03*
D11*
%TO.N,GND*%
X129964245Y-57037677D03*
X129964245Y-51957677D03*
X124884245Y-57037677D03*
X124884245Y-51957677D03*
%TD*%
D12*
%TO.N,GND*%
%TO.C,H203*%
X117500000Y-52500000D03*
%TD*%
D13*
%TO.N,+3.3V*%
%TO.C,LS1*%
X156603570Y-93016821D03*
%TO.N,PiezoAlarm*%
X156603570Y-85416821D03*
%TD*%
D12*
%TO.N,GND*%
%TO.C,H202*%
X172500000Y-111802405D03*
%TD*%
D14*
%TO.N,GND*%
%TO.C,U5*%
X115300000Y-104000000D03*
%TO.N,/UIO0*%
X117840000Y-104000000D03*
%TO.N,/UIO1*%
X120380000Y-104000000D03*
%TO.N,unconnected-(U5-2_OUT2-Pad4)*%
X122920000Y-104000000D03*
%TO.N,unconnected-(U5-3_LRCLK2-Pad5)*%
X125460000Y-104000000D03*
%TO.N,SWR-Alarm*%
X128000000Y-104000000D03*
%TO.N,/UIO3*%
X130540000Y-104000000D03*
%TO.N,/UIO4*%
X133080000Y-104000000D03*
%TO.N,/UIO5*%
X135620000Y-104000000D03*
%TO.N,RA8875-33*%
X138160000Y-104000000D03*
%TO.N,/UIO6*%
X140700000Y-104000000D03*
%TO.N,RA8875-5*%
X143240000Y-104000000D03*
%TO.N,RA8875-7*%
X145780000Y-104000000D03*
%TO.N,RA8875-6*%
X148320000Y-104000000D03*
%TO.N,RA8875-8*%
X148320000Y-88760000D03*
%TO.N,PiezoAlarm*%
X145780000Y-88760000D03*
%TO.N,InputSelect*%
X143240000Y-88760000D03*
%TO.N,RA8875-35*%
X140700000Y-88760000D03*
%TO.N,RA8875-34*%
X138160000Y-88760000D03*
%TO.N,Net-(U4-SDA)*%
X135620000Y-88760000D03*
%TO.N,Net-(U4-SCL)*%
X133080000Y-88760000D03*
%TO.N,unconnected-(U5-20_A6_TX5_LRCLK1-Pad27)*%
X130540000Y-88760000D03*
%TO.N,unconnected-(U5-21_A7_RX5_BCLK1-Pad28)*%
X128000000Y-88760000D03*
%TO.N,unconnected-(U5-22_A8_CTX1-Pad29)*%
X125460000Y-88760000D03*
%TO.N,unconnected-(U5-23_A9_CRX1_MCLK1-Pad30)*%
X122920000Y-88760000D03*
%TO.N,+3.3V*%
X120380000Y-88760000D03*
%TO.N,GND*%
X117840000Y-88760000D03*
%TO.N,+5V*%
X115300000Y-88760000D03*
%TD*%
D10*
%TO.N,Net-(U7-RF2)*%
%TO.C,X2*%
X149900000Y-54500000D03*
D11*
%TO.N,GND*%
X152440000Y-57040000D03*
X152440000Y-51960000D03*
X147360000Y-57040000D03*
X147360000Y-51960000D03*
%TD*%
D15*
%TO.N,Net-(J1-Pin_1)*%
%TO.C,J1*%
X126000000Y-72500000D03*
D16*
%TO.N,GND*%
X123460000Y-72500000D03*
%TD*%
D12*
%TO.N,GND*%
%TO.C,H204*%
X172500000Y-52500000D03*
%TD*%
D15*
%TO.N,Net-(J2-Pin_1)*%
%TO.C,J2*%
X148500000Y-72500000D03*
D16*
%TO.N,GND*%
X145960000Y-72500000D03*
%TD*%
D12*
%TO.N,GND*%
%TO.C,H201*%
X117500724Y-111900000D03*
%TD*%
D17*
%TO.N,GND*%
%TO.C,J3*%
X174300000Y-72600000D03*
D18*
%TO.N,Net-(J3-Pin_2)*%
X174300000Y-77600000D03*
%TD*%
D19*
%TO.N,/UIO0*%
%TO.C,J5*%
X125269371Y-111000000D03*
D16*
%TO.N,/UIO1*%
X127809371Y-111000000D03*
%TO.N,SWR-Alarm*%
X130349371Y-111000000D03*
%TO.N,/UIO3*%
X132889371Y-111000000D03*
%TO.N,/UIO4*%
X135429371Y-111000000D03*
%TO.N,GND*%
X137969371Y-111000000D03*
%TO.N,/UIO5*%
X140509371Y-111000000D03*
%TO.N,/UIO6*%
X143049371Y-111000000D03*
%TO.N,GND*%
X145589371Y-111000000D03*
%TD*%
D20*
%TO.N,RA8875-35*%
%TO.C,J4*%
X168160000Y-101000000D03*
D21*
%TO.N,RA8875-34*%
X168160000Y-103540000D03*
%TO.N,RA8875-33*%
X165620000Y-101000000D03*
%TO.N,RA8875-7*%
X165620000Y-103540000D03*
%TO.N,unconnected-(J4-Pin_5-Pad5)*%
X163080000Y-101000000D03*
%TO.N,RA8875-5*%
X163080000Y-103540000D03*
%TO.N,RA8875-6*%
X160540000Y-101000000D03*
%TO.N,RA8875-8*%
X160540000Y-103540000D03*
%TO.N,GND*%
X158000000Y-101000000D03*
%TO.N,+5V*%
X158000000Y-103540000D03*
%TD*%
D22*
%TO.N,Net-(J3-Pin_2)*%
%TO.C,U201*%
X173615000Y-92317500D03*
D13*
%TO.N,GND*%
X171075000Y-92317500D03*
%TO.N,+5V*%
X168535000Y-92317500D03*
%TD*%
D23*
%TO.N,GND*%
X131800000Y-99000000D03*
X132600000Y-53400000D03*
X139800000Y-66900000D03*
X154800000Y-55600000D03*
X136500000Y-53400000D03*
X176500000Y-86000000D03*
X176500000Y-93500000D03*
X139800000Y-65600000D03*
X122800000Y-99000000D03*
X157400000Y-53400000D03*
X131600000Y-84800000D03*
X133300000Y-66200000D03*
X157600000Y-61600000D03*
X114400000Y-93400000D03*
X162000000Y-68200000D03*
X162000000Y-63000000D03*
X130000000Y-55600000D03*
X145000000Y-94400000D03*
X155300000Y-66200000D03*
X132600000Y-84800000D03*
X152000000Y-115500000D03*
X176500000Y-61000000D03*
X153500000Y-53400000D03*
X176500000Y-96000000D03*
X154500000Y-115500000D03*
X132000000Y-63400000D03*
X157600000Y-68900000D03*
X176500000Y-51000000D03*
X122000000Y-48500000D03*
X140200000Y-54600000D03*
X164500000Y-115500000D03*
X114500000Y-56000000D03*
X122800000Y-86200000D03*
X146400000Y-94400000D03*
X132600000Y-55600000D03*
X131800000Y-86200000D03*
X176500000Y-111000000D03*
X169500000Y-115500000D03*
X129000000Y-71500000D03*
X162000000Y-59100000D03*
X139800000Y-61700000D03*
X167000000Y-115500000D03*
X134500000Y-115500000D03*
X114500000Y-83500000D03*
X114500000Y-51000000D03*
X135600000Y-58400000D03*
X162200000Y-52000000D03*
X135200000Y-55600000D03*
X130800000Y-90800000D03*
X114500000Y-68500000D03*
X152000000Y-48500000D03*
X139500000Y-115500000D03*
X157000000Y-115500000D03*
X162200000Y-54600000D03*
X152200000Y-55600000D03*
X130800000Y-99000000D03*
X135600000Y-61700000D03*
X143600000Y-94400000D03*
X162000000Y-61700000D03*
X117000000Y-115500000D03*
X132000000Y-66200000D03*
X128800000Y-99000000D03*
X151000000Y-69500000D03*
X154800000Y-53400000D03*
X129800000Y-86200000D03*
X164500000Y-69500000D03*
X151000000Y-70500000D03*
X114500000Y-71000000D03*
X159500000Y-115500000D03*
X149500000Y-115500000D03*
X176500000Y-71000000D03*
X157600000Y-62900000D03*
X155600000Y-58400000D03*
X132000000Y-61200000D03*
X127800000Y-99000000D03*
X174500000Y-115500000D03*
X151000000Y-71500000D03*
X128800000Y-86200000D03*
X133400000Y-58400000D03*
X144500000Y-115500000D03*
X154000000Y-66200000D03*
X114500000Y-96000000D03*
X176500000Y-98500000D03*
X163500000Y-68500000D03*
X153500000Y-55600000D03*
X156600000Y-61200000D03*
X162000000Y-64300000D03*
X135200000Y-53400000D03*
X142000000Y-48500000D03*
X176500000Y-53500000D03*
X114600000Y-80900000D03*
X156600000Y-63400000D03*
X126800000Y-86200000D03*
X133900000Y-53400000D03*
X126800000Y-99000000D03*
X172000000Y-115500000D03*
X129000000Y-68500000D03*
X114500000Y-48500000D03*
X176500000Y-88500000D03*
X123800000Y-86200000D03*
X114500000Y-115500000D03*
X134593242Y-61387378D03*
X114500000Y-53500000D03*
X157600000Y-66300000D03*
X176500000Y-63500000D03*
X131300000Y-53400000D03*
X147000000Y-48500000D03*
X157600000Y-67600000D03*
X169500000Y-48500000D03*
X130000000Y-53400000D03*
X133600000Y-84800000D03*
X135600000Y-66900000D03*
X125800000Y-90800000D03*
X125800000Y-86200000D03*
X140200000Y-53300000D03*
X140200000Y-64600000D03*
X176500000Y-73500000D03*
X129000000Y-69500000D03*
X139800000Y-63000000D03*
X124500000Y-48500000D03*
X123800000Y-99000000D03*
X129000000Y-70500000D03*
X119500000Y-48500000D03*
X129800000Y-90800000D03*
X156600000Y-58400000D03*
X176500000Y-66000000D03*
X114500000Y-106000000D03*
X122800000Y-90800000D03*
X133300000Y-61200000D03*
X176500000Y-58500000D03*
X149500000Y-48500000D03*
X162000000Y-60400000D03*
X114500000Y-101000000D03*
X176500000Y-48500000D03*
X140200000Y-52000000D03*
X129800000Y-99000000D03*
X133900000Y-55600000D03*
X156100000Y-55600000D03*
X127000000Y-115500000D03*
X121800000Y-90800000D03*
X132000000Y-115500000D03*
X119500000Y-115500000D03*
X130800000Y-86200000D03*
X114500000Y-58500000D03*
X114500000Y-76000000D03*
X152200000Y-53400000D03*
X157800000Y-58400000D03*
X162000000Y-65600000D03*
X126800000Y-90800000D03*
X136600000Y-84800000D03*
X162000000Y-66900000D03*
X127800000Y-90800000D03*
X132000000Y-48500000D03*
X155300000Y-61200000D03*
X123800000Y-90800000D03*
X176500000Y-113500000D03*
X114500000Y-98500000D03*
X172000000Y-48500000D03*
X176500000Y-56000000D03*
X134600000Y-63400000D03*
X128800000Y-90800000D03*
X114500000Y-73500000D03*
X133300000Y-63400000D03*
X131300000Y-55600000D03*
X162000000Y-57800000D03*
X134500000Y-48500000D03*
X154500000Y-48500000D03*
X138600000Y-84800000D03*
X129500000Y-115500000D03*
X176500000Y-81000000D03*
X114500000Y-66000000D03*
X117000000Y-48500000D03*
X154000000Y-63400000D03*
X156600000Y-66200000D03*
X124800000Y-90800000D03*
X122000000Y-115500000D03*
X176500000Y-91000000D03*
X144500000Y-48500000D03*
X141500000Y-68500000D03*
X114500000Y-63500000D03*
X154000000Y-61200000D03*
X135600000Y-57400000D03*
X135600000Y-68200000D03*
X176500000Y-103500000D03*
X139800000Y-68200000D03*
X114400000Y-90900000D03*
X174500000Y-48500000D03*
X156100000Y-53400000D03*
X127000000Y-48500000D03*
X158600000Y-52000000D03*
X134600000Y-84800000D03*
X135600000Y-84800000D03*
X114500000Y-61000000D03*
X137000000Y-115500000D03*
X176500000Y-106000000D03*
X176500000Y-101000000D03*
X124500000Y-115500000D03*
X155300000Y-63400000D03*
X114500000Y-108500000D03*
X147000000Y-115500000D03*
X142000000Y-115500000D03*
X124800000Y-86200000D03*
X158600000Y-53300000D03*
X129500000Y-48500000D03*
X124800000Y-99000000D03*
X135600000Y-63000000D03*
X139800000Y-60400000D03*
X167000000Y-48500000D03*
X134600000Y-66200000D03*
X139800000Y-57800000D03*
X157800000Y-57400000D03*
X134600000Y-58400000D03*
X114600000Y-78400000D03*
X162000000Y-115500000D03*
X176500000Y-68500000D03*
X142500000Y-69500000D03*
X164500000Y-48500000D03*
X162200000Y-53300000D03*
X176500000Y-83500000D03*
X137600000Y-84800000D03*
X125800000Y-99000000D03*
X136400000Y-52000000D03*
X176500000Y-108500000D03*
X127800000Y-86200000D03*
X151000000Y-68500000D03*
X135600000Y-66000000D03*
X139800000Y-59100000D03*
X157400000Y-55600000D03*
%TO.N,+3.3V*%
X144000000Y-60000000D03*
X144000000Y-59000000D03*
X166000000Y-59000000D03*
X166000000Y-58000000D03*
X144000000Y-58000000D03*
X166000000Y-60000000D03*
%TO.N,Net-(U7-CTRL)*%
X134400000Y-57000000D03*
X147400000Y-86000000D03*
X155400000Y-56800000D03*
X148400000Y-86000000D03*
X156800000Y-56800000D03*
X132900000Y-57000000D03*
X146600000Y-86000000D03*
%TO.N,+5V*%
X141950000Y-72750000D03*
X164000000Y-74400000D03*
X142000000Y-74200000D03*
X164000000Y-73400000D03*
X163950000Y-72350000D03*
X140200000Y-82800000D03*
X139317766Y-82800001D03*
X142000000Y-75400000D03*
X138317765Y-82800002D03*
%TD*%
%TO.N,+3.3V*%
D24*
X144000000Y-75000000D02*
X144000000Y-58000000D01*
X156603570Y-93016821D02*
X159983179Y-93016821D01*
X151000000Y-93016821D02*
X156603570Y-93016821D01*
X159983179Y-93016821D02*
X166000000Y-87000000D01*
X120380000Y-92309288D02*
X120380000Y-88760000D01*
X121087533Y-93016821D02*
X151000000Y-93016821D01*
X121087533Y-93016821D02*
X120380000Y-92309288D01*
X166000000Y-87000000D02*
X166000000Y-58000000D01*
X151000000Y-93016821D02*
X151000000Y-82000000D01*
X151000000Y-82000000D02*
X144000000Y-75000000D01*
%TO.N,RA8875-7*%
D25*
X145780000Y-105180000D02*
X148400000Y-107800000D01*
X148400000Y-107800000D02*
X163800000Y-107800000D01*
X163800000Y-107800000D02*
X165620000Y-105980000D01*
X165620000Y-105980000D02*
X165620000Y-103540000D01*
X145780000Y-104000000D02*
X145780000Y-105180000D01*
%TD*%
%TA.AperFunction,Conductor*%
%TO.N,GND*%
G36*
X177442539Y-47520185D02*
G01*
X177488294Y-47572989D01*
X177499500Y-47624500D01*
X177499500Y-116375500D01*
X177479815Y-116442539D01*
X177427011Y-116488294D01*
X177375500Y-116499500D01*
X113624500Y-116499500D01*
X113557461Y-116479815D01*
X113511706Y-116427011D01*
X113500500Y-116375500D01*
X113500500Y-110100730D01*
X124198871Y-110100730D01*
X124198871Y-111899269D01*
X124201724Y-111929699D01*
X124201724Y-111929701D01*
X124246577Y-112057880D01*
X124246578Y-112057882D01*
X124327221Y-112167150D01*
X124436489Y-112247793D01*
X124479216Y-112262744D01*
X124564670Y-112292646D01*
X124595101Y-112295500D01*
X124595105Y-112295500D01*
X125943641Y-112295500D01*
X125974070Y-112292646D01*
X125974072Y-112292646D01*
X126038161Y-112270219D01*
X126102253Y-112247793D01*
X126211521Y-112167150D01*
X126292164Y-112057882D01*
X126314590Y-111993790D01*
X126337017Y-111929701D01*
X126337017Y-111929699D01*
X126339871Y-111899269D01*
X126339871Y-110669560D01*
X126738871Y-110669560D01*
X126738871Y-111330439D01*
X126780007Y-111537245D01*
X126780009Y-111537253D01*
X126860704Y-111732069D01*
X126860709Y-111732078D01*
X126977858Y-111907403D01*
X126977861Y-111907407D01*
X127126963Y-112056509D01*
X127126967Y-112056512D01*
X127302292Y-112173661D01*
X127302298Y-112173664D01*
X127302299Y-112173665D01*
X127497118Y-112254362D01*
X127689588Y-112292646D01*
X127703931Y-112295499D01*
X127703935Y-112295500D01*
X127703936Y-112295500D01*
X127914807Y-112295500D01*
X127914808Y-112295499D01*
X128121624Y-112254362D01*
X128316443Y-112173665D01*
X128491775Y-112056512D01*
X128640883Y-111907404D01*
X128758036Y-111732072D01*
X128838733Y-111537253D01*
X128879871Y-111330435D01*
X128879871Y-110669565D01*
X128879870Y-110669560D01*
X129278871Y-110669560D01*
X129278871Y-111330439D01*
X129320007Y-111537245D01*
X129320009Y-111537253D01*
X129400704Y-111732069D01*
X129400709Y-111732078D01*
X129517858Y-111907403D01*
X129517861Y-111907407D01*
X129666963Y-112056509D01*
X129666967Y-112056512D01*
X129842292Y-112173661D01*
X129842298Y-112173664D01*
X129842299Y-112173665D01*
X130037118Y-112254362D01*
X130229588Y-112292646D01*
X130243931Y-112295499D01*
X130243935Y-112295500D01*
X130243936Y-112295500D01*
X130454807Y-112295500D01*
X130454808Y-112295499D01*
X130661624Y-112254362D01*
X130856443Y-112173665D01*
X131031775Y-112056512D01*
X131180883Y-111907404D01*
X131298036Y-111732072D01*
X131378733Y-111537253D01*
X131419871Y-111330435D01*
X131419871Y-110669565D01*
X131419870Y-110669560D01*
X131818871Y-110669560D01*
X131818871Y-111330439D01*
X131860007Y-111537245D01*
X131860009Y-111537253D01*
X131940704Y-111732069D01*
X131940709Y-111732078D01*
X132057858Y-111907403D01*
X132057861Y-111907407D01*
X132206963Y-112056509D01*
X132206967Y-112056512D01*
X132382292Y-112173661D01*
X132382298Y-112173664D01*
X132382299Y-112173665D01*
X132577118Y-112254362D01*
X132769588Y-112292646D01*
X132783931Y-112295499D01*
X132783935Y-112295500D01*
X132783936Y-112295500D01*
X132994807Y-112295500D01*
X132994808Y-112295499D01*
X133201624Y-112254362D01*
X133396443Y-112173665D01*
X133571775Y-112056512D01*
X133720883Y-111907404D01*
X133838036Y-111732072D01*
X133918733Y-111537253D01*
X133959871Y-111330435D01*
X133959871Y-110669565D01*
X133959870Y-110669560D01*
X134358871Y-110669560D01*
X134358871Y-111330439D01*
X134400007Y-111537245D01*
X134400009Y-111537253D01*
X134480704Y-111732069D01*
X134480709Y-111732078D01*
X134597858Y-111907403D01*
X134597861Y-111907407D01*
X134746963Y-112056509D01*
X134746967Y-112056512D01*
X134922292Y-112173661D01*
X134922298Y-112173664D01*
X134922299Y-112173665D01*
X135117118Y-112254362D01*
X135309588Y-112292646D01*
X135323931Y-112295499D01*
X135323935Y-112295500D01*
X135323936Y-112295500D01*
X135534807Y-112295500D01*
X135534808Y-112295499D01*
X135741624Y-112254362D01*
X135936443Y-112173665D01*
X136111775Y-112056512D01*
X136260883Y-111907404D01*
X136378036Y-111732072D01*
X136458733Y-111537253D01*
X136499871Y-111330435D01*
X136499871Y-110669565D01*
X136499870Y-110669560D01*
X139438871Y-110669560D01*
X139438871Y-111330439D01*
X139480007Y-111537245D01*
X139480009Y-111537253D01*
X139560704Y-111732069D01*
X139560709Y-111732078D01*
X139677858Y-111907403D01*
X139677861Y-111907407D01*
X139826963Y-112056509D01*
X139826967Y-112056512D01*
X140002292Y-112173661D01*
X140002298Y-112173664D01*
X140002299Y-112173665D01*
X140197118Y-112254362D01*
X140389588Y-112292646D01*
X140403931Y-112295499D01*
X140403935Y-112295500D01*
X140403936Y-112295500D01*
X140614807Y-112295500D01*
X140614808Y-112295499D01*
X140821624Y-112254362D01*
X141016443Y-112173665D01*
X141191775Y-112056512D01*
X141340883Y-111907404D01*
X141458036Y-111732072D01*
X141538733Y-111537253D01*
X141579871Y-111330435D01*
X141579871Y-110669565D01*
X141579870Y-110669560D01*
X141978871Y-110669560D01*
X141978871Y-111330439D01*
X142020007Y-111537245D01*
X142020009Y-111537253D01*
X142100704Y-111732069D01*
X142100709Y-111732078D01*
X142217858Y-111907403D01*
X142217861Y-111907407D01*
X142366963Y-112056509D01*
X142366967Y-112056512D01*
X142542292Y-112173661D01*
X142542298Y-112173664D01*
X142542299Y-112173665D01*
X142737118Y-112254362D01*
X142929588Y-112292646D01*
X142943931Y-112295499D01*
X142943935Y-112295500D01*
X142943936Y-112295500D01*
X143154807Y-112295500D01*
X143154808Y-112295499D01*
X143361624Y-112254362D01*
X143556443Y-112173665D01*
X143731775Y-112056512D01*
X143880883Y-111907404D01*
X143998036Y-111732072D01*
X144078733Y-111537253D01*
X144119871Y-111330435D01*
X144119871Y-110669565D01*
X144078733Y-110462747D01*
X143998036Y-110267928D01*
X143998035Y-110267927D01*
X143998032Y-110267921D01*
X143880883Y-110092596D01*
X143880880Y-110092592D01*
X143731778Y-109943490D01*
X143731774Y-109943487D01*
X143556449Y-109826338D01*
X143556440Y-109826333D01*
X143361624Y-109745638D01*
X143361616Y-109745636D01*
X143154810Y-109704500D01*
X143154806Y-109704500D01*
X142943936Y-109704500D01*
X142943931Y-109704500D01*
X142737125Y-109745636D01*
X142737117Y-109745638D01*
X142542301Y-109826333D01*
X142542292Y-109826338D01*
X142366967Y-109943487D01*
X142366963Y-109943490D01*
X142217861Y-110092592D01*
X142217858Y-110092596D01*
X142100709Y-110267921D01*
X142100704Y-110267930D01*
X142020009Y-110462746D01*
X142020007Y-110462754D01*
X141978871Y-110669560D01*
X141579870Y-110669560D01*
X141538733Y-110462747D01*
X141458036Y-110267928D01*
X141458035Y-110267927D01*
X141458032Y-110267921D01*
X141340883Y-110092596D01*
X141340880Y-110092592D01*
X141191778Y-109943490D01*
X141191774Y-109943487D01*
X141016449Y-109826338D01*
X141016440Y-109826333D01*
X140821624Y-109745638D01*
X140821616Y-109745636D01*
X140614810Y-109704500D01*
X140614806Y-109704500D01*
X140403936Y-109704500D01*
X140403931Y-109704500D01*
X140197125Y-109745636D01*
X140197117Y-109745638D01*
X140002301Y-109826333D01*
X140002292Y-109826338D01*
X139826967Y-109943487D01*
X139826963Y-109943490D01*
X139677861Y-110092592D01*
X139677858Y-110092596D01*
X139560709Y-110267921D01*
X139560704Y-110267930D01*
X139480009Y-110462746D01*
X139480007Y-110462754D01*
X139438871Y-110669560D01*
X136499870Y-110669560D01*
X136458733Y-110462747D01*
X136378036Y-110267928D01*
X136378035Y-110267927D01*
X136378032Y-110267921D01*
X136260883Y-110092596D01*
X136260880Y-110092592D01*
X136111778Y-109943490D01*
X136111774Y-109943487D01*
X135936449Y-109826338D01*
X135936440Y-109826333D01*
X135741624Y-109745638D01*
X135741616Y-109745636D01*
X135534810Y-109704500D01*
X135534806Y-109704500D01*
X135323936Y-109704500D01*
X135323931Y-109704500D01*
X135117125Y-109745636D01*
X135117117Y-109745638D01*
X134922301Y-109826333D01*
X134922292Y-109826338D01*
X134746967Y-109943487D01*
X134746963Y-109943490D01*
X134597861Y-110092592D01*
X134597858Y-110092596D01*
X134480709Y-110267921D01*
X134480704Y-110267930D01*
X134400009Y-110462746D01*
X134400007Y-110462754D01*
X134358871Y-110669560D01*
X133959870Y-110669560D01*
X133918733Y-110462747D01*
X133838036Y-110267928D01*
X133838035Y-110267927D01*
X133838032Y-110267921D01*
X133720883Y-110092596D01*
X133720880Y-110092592D01*
X133571778Y-109943490D01*
X133571774Y-109943487D01*
X133396449Y-109826338D01*
X133396440Y-109826333D01*
X133201624Y-109745638D01*
X133201616Y-109745636D01*
X132994810Y-109704500D01*
X132994806Y-109704500D01*
X132783936Y-109704500D01*
X132783931Y-109704500D01*
X132577125Y-109745636D01*
X132577117Y-109745638D01*
X132382301Y-109826333D01*
X132382292Y-109826338D01*
X132206967Y-109943487D01*
X132206963Y-109943490D01*
X132057861Y-110092592D01*
X132057858Y-110092596D01*
X131940709Y-110267921D01*
X131940704Y-110267930D01*
X131860009Y-110462746D01*
X131860007Y-110462754D01*
X131818871Y-110669560D01*
X131419870Y-110669560D01*
X131378733Y-110462747D01*
X131298036Y-110267928D01*
X131298035Y-110267927D01*
X131298032Y-110267921D01*
X131180883Y-110092596D01*
X131180880Y-110092592D01*
X131031778Y-109943490D01*
X131031774Y-109943487D01*
X130856449Y-109826338D01*
X130856440Y-109826333D01*
X130661624Y-109745638D01*
X130661616Y-109745636D01*
X130454810Y-109704500D01*
X130454806Y-109704500D01*
X130243936Y-109704500D01*
X130243931Y-109704500D01*
X130037125Y-109745636D01*
X130037117Y-109745638D01*
X129842301Y-109826333D01*
X129842292Y-109826338D01*
X129666967Y-109943487D01*
X129666963Y-109943490D01*
X129517861Y-110092592D01*
X129517858Y-110092596D01*
X129400709Y-110267921D01*
X129400704Y-110267930D01*
X129320009Y-110462746D01*
X129320007Y-110462754D01*
X129278871Y-110669560D01*
X128879870Y-110669560D01*
X128838733Y-110462747D01*
X128758036Y-110267928D01*
X128758035Y-110267927D01*
X128758032Y-110267921D01*
X128640883Y-110092596D01*
X128640880Y-110092592D01*
X128491778Y-109943490D01*
X128491774Y-109943487D01*
X128316449Y-109826338D01*
X128316440Y-109826333D01*
X128121624Y-109745638D01*
X128121616Y-109745636D01*
X127914810Y-109704500D01*
X127914806Y-109704500D01*
X127703936Y-109704500D01*
X127703931Y-109704500D01*
X127497125Y-109745636D01*
X127497117Y-109745638D01*
X127302301Y-109826333D01*
X127302292Y-109826338D01*
X127126967Y-109943487D01*
X127126963Y-109943490D01*
X126977861Y-110092592D01*
X126977858Y-110092596D01*
X126860709Y-110267921D01*
X126860704Y-110267930D01*
X126780009Y-110462746D01*
X126780007Y-110462754D01*
X126738871Y-110669560D01*
X126339871Y-110669560D01*
X126339871Y-110100730D01*
X126337017Y-110070300D01*
X126337017Y-110070298D01*
X126292164Y-109942119D01*
X126292163Y-109942117D01*
X126211521Y-109832850D01*
X126102253Y-109752207D01*
X126102251Y-109752206D01*
X125974071Y-109707353D01*
X125943641Y-109704500D01*
X125943637Y-109704500D01*
X124595105Y-109704500D01*
X124595101Y-109704500D01*
X124564671Y-109707353D01*
X124564669Y-109707353D01*
X124436490Y-109752206D01*
X124436488Y-109752207D01*
X124327221Y-109832850D01*
X124246578Y-109942117D01*
X124246577Y-109942119D01*
X124201724Y-110070298D01*
X124201724Y-110070300D01*
X124198871Y-110100730D01*
X113500500Y-110100730D01*
X113500500Y-104098543D01*
X116839499Y-104098543D01*
X116877947Y-104291829D01*
X116877950Y-104291839D01*
X116953364Y-104473907D01*
X116953371Y-104473920D01*
X117062860Y-104637781D01*
X117062863Y-104637785D01*
X117202214Y-104777136D01*
X117202218Y-104777139D01*
X117366079Y-104886628D01*
X117366092Y-104886635D01*
X117548160Y-104962049D01*
X117548165Y-104962051D01*
X117548169Y-104962051D01*
X117548170Y-104962052D01*
X117741456Y-105000500D01*
X117741459Y-105000500D01*
X117938543Y-105000500D01*
X118068582Y-104974632D01*
X118131835Y-104962051D01*
X118313914Y-104886632D01*
X118477782Y-104777139D01*
X118617139Y-104637782D01*
X118726632Y-104473914D01*
X118727864Y-104470941D01*
X118775483Y-104355977D01*
X118802051Y-104291835D01*
X118840500Y-104098543D01*
X119379499Y-104098543D01*
X119417947Y-104291829D01*
X119417950Y-104291839D01*
X119493364Y-104473907D01*
X119493371Y-104473920D01*
X119602860Y-104637781D01*
X119602863Y-104637785D01*
X119742214Y-104777136D01*
X119742218Y-104777139D01*
X119906079Y-104886628D01*
X119906092Y-104886635D01*
X120088160Y-104962049D01*
X120088165Y-104962051D01*
X120088169Y-104962051D01*
X120088170Y-104962052D01*
X120281456Y-105000500D01*
X120281459Y-105000500D01*
X120478543Y-105000500D01*
X120608582Y-104974632D01*
X120671835Y-104962051D01*
X120853914Y-104886632D01*
X121017782Y-104777139D01*
X121157139Y-104637782D01*
X121266632Y-104473914D01*
X121267864Y-104470941D01*
X121315483Y-104355977D01*
X121342051Y-104291835D01*
X121380500Y-104098543D01*
X121919499Y-104098543D01*
X121957947Y-104291829D01*
X121957950Y-104291839D01*
X122033364Y-104473907D01*
X122033371Y-104473920D01*
X122142860Y-104637781D01*
X122142863Y-104637785D01*
X122282214Y-104777136D01*
X122282218Y-104777139D01*
X122446079Y-104886628D01*
X122446092Y-104886635D01*
X122628160Y-104962049D01*
X122628165Y-104962051D01*
X122628169Y-104962051D01*
X122628170Y-104962052D01*
X122821456Y-105000500D01*
X122821459Y-105000500D01*
X123018543Y-105000500D01*
X123148582Y-104974632D01*
X123211835Y-104962051D01*
X123393914Y-104886632D01*
X123557782Y-104777139D01*
X123697139Y-104637782D01*
X123806632Y-104473914D01*
X123807864Y-104470941D01*
X123855483Y-104355977D01*
X123882051Y-104291835D01*
X123920500Y-104098543D01*
X124459499Y-104098543D01*
X124497947Y-104291829D01*
X124497950Y-104291839D01*
X124573364Y-104473907D01*
X124573371Y-104473920D01*
X124682860Y-104637781D01*
X124682863Y-104637785D01*
X124822214Y-104777136D01*
X124822218Y-104777139D01*
X124986079Y-104886628D01*
X124986092Y-104886635D01*
X125168160Y-104962049D01*
X125168165Y-104962051D01*
X125168169Y-104962051D01*
X125168170Y-104962052D01*
X125361456Y-105000500D01*
X125361459Y-105000500D01*
X125558543Y-105000500D01*
X125688582Y-104974632D01*
X125751835Y-104962051D01*
X125933914Y-104886632D01*
X126097782Y-104777139D01*
X126237139Y-104637782D01*
X126346632Y-104473914D01*
X126347864Y-104470941D01*
X126395483Y-104355977D01*
X126422051Y-104291835D01*
X126460500Y-104098543D01*
X126999499Y-104098543D01*
X127037947Y-104291829D01*
X127037950Y-104291839D01*
X127113364Y-104473907D01*
X127113371Y-104473920D01*
X127222860Y-104637781D01*
X127222863Y-104637785D01*
X127362214Y-104777136D01*
X127362218Y-104777139D01*
X127526079Y-104886628D01*
X127526092Y-104886635D01*
X127708160Y-104962049D01*
X127708165Y-104962051D01*
X127708169Y-104962051D01*
X127708170Y-104962052D01*
X127901456Y-105000500D01*
X127901459Y-105000500D01*
X128098543Y-105000500D01*
X128228582Y-104974632D01*
X128291835Y-104962051D01*
X128473914Y-104886632D01*
X128637782Y-104777139D01*
X128777139Y-104637782D01*
X128886632Y-104473914D01*
X128887864Y-104470941D01*
X128935483Y-104355977D01*
X128962051Y-104291835D01*
X129000500Y-104098543D01*
X129539499Y-104098543D01*
X129577947Y-104291829D01*
X129577950Y-104291839D01*
X129653364Y-104473907D01*
X129653371Y-104473920D01*
X129762860Y-104637781D01*
X129762863Y-104637785D01*
X129902214Y-104777136D01*
X129902218Y-104777139D01*
X130066079Y-104886628D01*
X130066092Y-104886635D01*
X130248160Y-104962049D01*
X130248165Y-104962051D01*
X130248169Y-104962051D01*
X130248170Y-104962052D01*
X130441456Y-105000500D01*
X130441459Y-105000500D01*
X130638543Y-105000500D01*
X130768582Y-104974632D01*
X130831835Y-104962051D01*
X131013914Y-104886632D01*
X131177782Y-104777139D01*
X131317139Y-104637782D01*
X131426632Y-104473914D01*
X131427864Y-104470941D01*
X131475483Y-104355977D01*
X131502051Y-104291835D01*
X131540500Y-104098543D01*
X132079499Y-104098543D01*
X132117947Y-104291829D01*
X132117950Y-104291839D01*
X132193364Y-104473907D01*
X132193371Y-104473920D01*
X132302860Y-104637781D01*
X132302863Y-104637785D01*
X132442214Y-104777136D01*
X132442218Y-104777139D01*
X132606079Y-104886628D01*
X132606092Y-104886635D01*
X132788160Y-104962049D01*
X132788165Y-104962051D01*
X132788169Y-104962051D01*
X132788170Y-104962052D01*
X132981456Y-105000500D01*
X132981459Y-105000500D01*
X133178543Y-105000500D01*
X133308582Y-104974632D01*
X133371835Y-104962051D01*
X133553914Y-104886632D01*
X133717782Y-104777139D01*
X133857139Y-104637782D01*
X133966632Y-104473914D01*
X133967864Y-104470941D01*
X134015483Y-104355977D01*
X134042051Y-104291835D01*
X134080500Y-104098543D01*
X134619499Y-104098543D01*
X134657947Y-104291829D01*
X134657950Y-104291839D01*
X134733364Y-104473907D01*
X134733371Y-104473920D01*
X134842860Y-104637781D01*
X134842863Y-104637785D01*
X134982214Y-104777136D01*
X134982218Y-104777139D01*
X135146079Y-104886628D01*
X135146092Y-104886635D01*
X135328160Y-104962049D01*
X135328165Y-104962051D01*
X135328169Y-104962051D01*
X135328170Y-104962052D01*
X135521456Y-105000500D01*
X135521459Y-105000500D01*
X135718543Y-105000500D01*
X135848582Y-104974632D01*
X135911835Y-104962051D01*
X136093914Y-104886632D01*
X136257782Y-104777139D01*
X136397139Y-104637782D01*
X136506632Y-104473914D01*
X136507864Y-104470941D01*
X136555483Y-104355977D01*
X136582051Y-104291835D01*
X136620500Y-104098543D01*
X137159499Y-104098543D01*
X137197947Y-104291829D01*
X137197950Y-104291839D01*
X137273364Y-104473907D01*
X137273371Y-104473920D01*
X137382860Y-104637781D01*
X137382863Y-104637785D01*
X137522214Y-104777136D01*
X137522218Y-104777139D01*
X137686079Y-104886628D01*
X137686092Y-104886635D01*
X137868160Y-104962049D01*
X137868165Y-104962051D01*
X137868169Y-104962051D01*
X137868170Y-104962052D01*
X138061456Y-105000500D01*
X138061459Y-105000500D01*
X138258543Y-105000500D01*
X138388582Y-104974632D01*
X138451835Y-104962051D01*
X138633914Y-104886632D01*
X138797782Y-104777139D01*
X138937139Y-104637782D01*
X139046632Y-104473914D01*
X139047864Y-104470941D01*
X139095483Y-104355977D01*
X139122051Y-104291835D01*
X139160500Y-104098543D01*
X139699499Y-104098543D01*
X139737947Y-104291829D01*
X139737950Y-104291839D01*
X139813364Y-104473907D01*
X139813371Y-104473920D01*
X139922860Y-104637781D01*
X139922863Y-104637785D01*
X140062214Y-104777136D01*
X140062218Y-104777139D01*
X140226079Y-104886628D01*
X140226092Y-104886635D01*
X140408160Y-104962049D01*
X140408165Y-104962051D01*
X140408169Y-104962051D01*
X140408170Y-104962052D01*
X140601456Y-105000500D01*
X140601459Y-105000500D01*
X140798543Y-105000500D01*
X140928582Y-104974632D01*
X140991835Y-104962051D01*
X141173914Y-104886632D01*
X141337782Y-104777139D01*
X141477139Y-104637782D01*
X141586632Y-104473914D01*
X141587864Y-104470941D01*
X141635483Y-104355977D01*
X141662051Y-104291835D01*
X141700500Y-104098543D01*
X142239499Y-104098543D01*
X142277947Y-104291829D01*
X142277950Y-104291839D01*
X142353364Y-104473907D01*
X142353371Y-104473920D01*
X142462860Y-104637781D01*
X142462863Y-104637785D01*
X142602214Y-104777136D01*
X142602218Y-104777139D01*
X142766079Y-104886628D01*
X142766092Y-104886635D01*
X142948160Y-104962049D01*
X142948165Y-104962051D01*
X142948169Y-104962051D01*
X142948170Y-104962052D01*
X143141456Y-105000500D01*
X143141459Y-105000500D01*
X143338543Y-105000500D01*
X143468582Y-104974632D01*
X143531835Y-104962051D01*
X143713914Y-104886632D01*
X143877782Y-104777139D01*
X144017139Y-104637782D01*
X144126632Y-104473914D01*
X144127864Y-104470941D01*
X144175483Y-104355977D01*
X144202051Y-104291835D01*
X144240500Y-104098543D01*
X144779499Y-104098543D01*
X144817947Y-104291829D01*
X144817950Y-104291839D01*
X144893364Y-104473907D01*
X144893371Y-104473920D01*
X145002860Y-104637781D01*
X145002863Y-104637785D01*
X145043180Y-104678101D01*
X145076666Y-104739424D01*
X145079500Y-104765783D01*
X145079500Y-105111006D01*
X145079500Y-105248994D01*
X145079500Y-105248996D01*
X145079499Y-105248996D01*
X145106418Y-105384322D01*
X145106421Y-105384332D01*
X145159222Y-105511807D01*
X145235887Y-105626545D01*
X147953454Y-108344112D01*
X148068192Y-108420777D01*
X148195667Y-108473578D01*
X148195672Y-108473580D01*
X148195676Y-108473580D01*
X148195677Y-108473581D01*
X148331004Y-108500500D01*
X148331007Y-108500500D01*
X163868996Y-108500500D01*
X163960040Y-108482389D01*
X164004328Y-108473580D01*
X164068069Y-108447177D01*
X164131807Y-108420777D01*
X164131808Y-108420776D01*
X164131811Y-108420775D01*
X164246543Y-108344114D01*
X166164114Y-106426543D01*
X166240775Y-106311811D01*
X166293580Y-106184328D01*
X166320500Y-106048994D01*
X166320500Y-105911006D01*
X166320500Y-104376494D01*
X166340185Y-104309455D01*
X166356814Y-104288817D01*
X166435977Y-104209655D01*
X166550941Y-104037598D01*
X166630130Y-103846420D01*
X166670500Y-103643465D01*
X166670500Y-103436535D01*
X166670499Y-103436530D01*
X167109500Y-103436530D01*
X167109500Y-103643469D01*
X167149868Y-103846412D01*
X167149870Y-103846420D01*
X167229058Y-104037596D01*
X167344024Y-104209657D01*
X167490342Y-104355975D01*
X167490345Y-104355977D01*
X167662402Y-104470941D01*
X167853580Y-104550130D01*
X168056530Y-104590499D01*
X168056534Y-104590500D01*
X168056535Y-104590500D01*
X168263466Y-104590500D01*
X168263467Y-104590499D01*
X168466420Y-104550130D01*
X168657598Y-104470941D01*
X168829655Y-104355977D01*
X168975977Y-104209655D01*
X169090941Y-104037598D01*
X169170130Y-103846420D01*
X169210500Y-103643465D01*
X169210500Y-103436535D01*
X169170130Y-103233580D01*
X169090941Y-103042402D01*
X168975977Y-102870345D01*
X168975975Y-102870342D01*
X168829657Y-102724024D01*
X168743626Y-102666541D01*
X168657598Y-102609059D01*
X168466420Y-102529870D01*
X168466412Y-102529868D01*
X168263469Y-102489500D01*
X168263465Y-102489500D01*
X168056535Y-102489500D01*
X168056530Y-102489500D01*
X167853587Y-102529868D01*
X167853579Y-102529870D01*
X167662403Y-102609058D01*
X167490342Y-102724024D01*
X167344024Y-102870342D01*
X167229058Y-103042403D01*
X167149870Y-103233579D01*
X167149868Y-103233587D01*
X167109500Y-103436530D01*
X166670499Y-103436530D01*
X166630130Y-103233580D01*
X166550941Y-103042402D01*
X166435977Y-102870345D01*
X166435975Y-102870342D01*
X166289657Y-102724024D01*
X166203626Y-102666541D01*
X166117598Y-102609059D01*
X165926420Y-102529870D01*
X165926412Y-102529868D01*
X165723469Y-102489500D01*
X165723465Y-102489500D01*
X165516535Y-102489500D01*
X165516530Y-102489500D01*
X165313587Y-102529868D01*
X165313579Y-102529870D01*
X165122403Y-102609058D01*
X164950342Y-102724024D01*
X164804024Y-102870342D01*
X164689058Y-103042403D01*
X164609870Y-103233579D01*
X164609868Y-103233587D01*
X164569500Y-103436530D01*
X164569500Y-103643469D01*
X164609868Y-103846412D01*
X164609870Y-103846420D01*
X164689059Y-104037598D01*
X164804023Y-104209655D01*
X164883182Y-104288814D01*
X164916666Y-104350135D01*
X164919500Y-104376494D01*
X164919500Y-105638481D01*
X164899815Y-105705520D01*
X164883181Y-105726162D01*
X163546162Y-107063181D01*
X163484839Y-107096666D01*
X163458481Y-107099500D01*
X148741519Y-107099500D01*
X148674480Y-107079815D01*
X148653838Y-107063181D01*
X146516819Y-104926162D01*
X146502115Y-104899234D01*
X146485523Y-104873416D01*
X146484631Y-104867215D01*
X146483334Y-104864839D01*
X146480500Y-104838481D01*
X146480500Y-104765783D01*
X146500185Y-104698744D01*
X146516820Y-104678101D01*
X146557136Y-104637785D01*
X146557139Y-104637782D01*
X146666632Y-104473914D01*
X146667864Y-104470941D01*
X146715483Y-104355977D01*
X146742051Y-104291835D01*
X146780500Y-104098543D01*
X147319499Y-104098543D01*
X147357947Y-104291829D01*
X147357950Y-104291839D01*
X147433364Y-104473907D01*
X147433371Y-104473920D01*
X147542860Y-104637781D01*
X147542863Y-104637785D01*
X147682214Y-104777136D01*
X147682218Y-104777139D01*
X147846079Y-104886628D01*
X147846092Y-104886635D01*
X148028160Y-104962049D01*
X148028165Y-104962051D01*
X148028169Y-104962051D01*
X148028170Y-104962052D01*
X148221456Y-105000500D01*
X148221459Y-105000500D01*
X148418543Y-105000500D01*
X148548582Y-104974632D01*
X148611835Y-104962051D01*
X148793914Y-104886632D01*
X148957782Y-104777139D01*
X149097139Y-104637782D01*
X149206632Y-104473914D01*
X149207864Y-104470941D01*
X149255483Y-104355977D01*
X149282051Y-104291835D01*
X149320500Y-104098541D01*
X149320500Y-103901459D01*
X149320500Y-103901456D01*
X149282052Y-103708170D01*
X149282051Y-103708169D01*
X149282051Y-103708165D01*
X149255252Y-103643465D01*
X149206635Y-103526092D01*
X149206629Y-103526081D01*
X149188757Y-103499333D01*
X149188756Y-103499332D01*
X149146793Y-103436530D01*
X156949500Y-103436530D01*
X156949500Y-103643469D01*
X156989868Y-103846412D01*
X156989870Y-103846420D01*
X157069058Y-104037596D01*
X157184024Y-104209657D01*
X157330342Y-104355975D01*
X157330345Y-104355977D01*
X157502402Y-104470941D01*
X157693580Y-104550130D01*
X157896530Y-104590499D01*
X157896534Y-104590500D01*
X157896535Y-104590500D01*
X158103466Y-104590500D01*
X158103467Y-104590499D01*
X158306420Y-104550130D01*
X158497598Y-104470941D01*
X158669655Y-104355977D01*
X158815977Y-104209655D01*
X158930941Y-104037598D01*
X159010130Y-103846420D01*
X159050500Y-103643465D01*
X159050500Y-103436535D01*
X159050499Y-103436530D01*
X159489500Y-103436530D01*
X159489500Y-103643469D01*
X159529868Y-103846412D01*
X159529870Y-103846420D01*
X159609058Y-104037596D01*
X159724024Y-104209657D01*
X159870342Y-104355975D01*
X159870345Y-104355977D01*
X160042402Y-104470941D01*
X160233580Y-104550130D01*
X160436530Y-104590499D01*
X160436534Y-104590500D01*
X160436535Y-104590500D01*
X160643466Y-104590500D01*
X160643467Y-104590499D01*
X160846420Y-104550130D01*
X161037598Y-104470941D01*
X161209655Y-104355977D01*
X161355977Y-104209655D01*
X161470941Y-104037598D01*
X161550130Y-103846420D01*
X161590500Y-103643465D01*
X161590500Y-103436535D01*
X161590499Y-103436530D01*
X162029500Y-103436530D01*
X162029500Y-103643469D01*
X162069868Y-103846412D01*
X162069870Y-103846420D01*
X162149058Y-104037596D01*
X162264024Y-104209657D01*
X162410342Y-104355975D01*
X162410345Y-104355977D01*
X162582402Y-104470941D01*
X162773580Y-104550130D01*
X162976530Y-104590499D01*
X162976534Y-104590500D01*
X162976535Y-104590500D01*
X163183466Y-104590500D01*
X163183467Y-104590499D01*
X163386420Y-104550130D01*
X163577598Y-104470941D01*
X163749655Y-104355977D01*
X163895977Y-104209655D01*
X164010941Y-104037598D01*
X164090130Y-103846420D01*
X164130500Y-103643465D01*
X164130500Y-103436535D01*
X164090130Y-103233580D01*
X164010941Y-103042402D01*
X163895977Y-102870345D01*
X163895975Y-102870342D01*
X163749657Y-102724024D01*
X163663626Y-102666541D01*
X163577598Y-102609059D01*
X163386420Y-102529870D01*
X163386412Y-102529868D01*
X163183469Y-102489500D01*
X163183465Y-102489500D01*
X162976535Y-102489500D01*
X162976530Y-102489500D01*
X162773587Y-102529868D01*
X162773579Y-102529870D01*
X162582403Y-102609058D01*
X162410342Y-102724024D01*
X162264024Y-102870342D01*
X162149058Y-103042403D01*
X162069870Y-103233579D01*
X162069868Y-103233587D01*
X162029500Y-103436530D01*
X161590499Y-103436530D01*
X161550130Y-103233580D01*
X161470941Y-103042402D01*
X161355977Y-102870345D01*
X161355975Y-102870342D01*
X161209657Y-102724024D01*
X161123626Y-102666541D01*
X161037598Y-102609059D01*
X160846420Y-102529870D01*
X160846412Y-102529868D01*
X160643469Y-102489500D01*
X160643465Y-102489500D01*
X160436535Y-102489500D01*
X160436530Y-102489500D01*
X160233587Y-102529868D01*
X160233579Y-102529870D01*
X160042403Y-102609058D01*
X159870342Y-102724024D01*
X159724024Y-102870342D01*
X159609058Y-103042403D01*
X159529870Y-103233579D01*
X159529868Y-103233587D01*
X159489500Y-103436530D01*
X159050499Y-103436530D01*
X159010130Y-103233580D01*
X158930941Y-103042402D01*
X158815977Y-102870345D01*
X158815975Y-102870342D01*
X158669657Y-102724024D01*
X158583626Y-102666541D01*
X158497598Y-102609059D01*
X158306420Y-102529870D01*
X158306412Y-102529868D01*
X158103469Y-102489500D01*
X158103465Y-102489500D01*
X157896535Y-102489500D01*
X157896530Y-102489500D01*
X157693587Y-102529868D01*
X157693579Y-102529870D01*
X157502403Y-102609058D01*
X157330342Y-102724024D01*
X157184024Y-102870342D01*
X157069058Y-103042403D01*
X156989870Y-103233579D01*
X156989868Y-103233587D01*
X156949500Y-103436530D01*
X149146793Y-103436530D01*
X149097139Y-103362218D01*
X149097136Y-103362214D01*
X148957785Y-103222863D01*
X148957781Y-103222860D01*
X148793920Y-103113371D01*
X148793907Y-103113364D01*
X148611839Y-103037950D01*
X148611829Y-103037947D01*
X148418543Y-102999500D01*
X148418541Y-102999500D01*
X148221459Y-102999500D01*
X148221457Y-102999500D01*
X148028170Y-103037947D01*
X148028160Y-103037950D01*
X147846092Y-103113364D01*
X147846079Y-103113371D01*
X147682218Y-103222860D01*
X147682214Y-103222863D01*
X147542863Y-103362214D01*
X147542860Y-103362218D01*
X147433371Y-103526079D01*
X147433364Y-103526092D01*
X147357950Y-103708160D01*
X147357947Y-103708170D01*
X147319500Y-103901456D01*
X147319500Y-103901459D01*
X147319500Y-104098541D01*
X147319500Y-104098543D01*
X147319499Y-104098543D01*
X146780500Y-104098543D01*
X146780500Y-104098541D01*
X146780500Y-103901459D01*
X146780500Y-103901456D01*
X146742052Y-103708170D01*
X146742051Y-103708169D01*
X146742051Y-103708165D01*
X146715252Y-103643465D01*
X146666635Y-103526092D01*
X146666628Y-103526079D01*
X146557139Y-103362218D01*
X146557136Y-103362214D01*
X146417785Y-103222863D01*
X146417781Y-103222860D01*
X146253920Y-103113371D01*
X146253907Y-103113364D01*
X146071839Y-103037950D01*
X146071829Y-103037947D01*
X145878543Y-102999500D01*
X145878541Y-102999500D01*
X145681459Y-102999500D01*
X145681457Y-102999500D01*
X145488170Y-103037947D01*
X145488160Y-103037950D01*
X145306092Y-103113364D01*
X145306079Y-103113371D01*
X145142218Y-103222860D01*
X145142214Y-103222863D01*
X145002863Y-103362214D01*
X145002860Y-103362218D01*
X144893371Y-103526079D01*
X144893364Y-103526092D01*
X144817950Y-103708160D01*
X144817947Y-103708170D01*
X144779500Y-103901456D01*
X144779500Y-103901459D01*
X144779500Y-104098541D01*
X144779500Y-104098543D01*
X144779499Y-104098543D01*
X144240500Y-104098543D01*
X144240500Y-104098541D01*
X144240500Y-103901459D01*
X144240500Y-103901456D01*
X144202052Y-103708170D01*
X144202051Y-103708169D01*
X144202051Y-103708165D01*
X144175252Y-103643465D01*
X144126635Y-103526092D01*
X144126628Y-103526079D01*
X144017139Y-103362218D01*
X144017136Y-103362214D01*
X143877785Y-103222863D01*
X143877781Y-103222860D01*
X143713920Y-103113371D01*
X143713907Y-103113364D01*
X143531839Y-103037950D01*
X143531829Y-103037947D01*
X143338543Y-102999500D01*
X143338541Y-102999500D01*
X143141459Y-102999500D01*
X143141457Y-102999500D01*
X142948170Y-103037947D01*
X142948160Y-103037950D01*
X142766092Y-103113364D01*
X142766079Y-103113371D01*
X142602218Y-103222860D01*
X142602214Y-103222863D01*
X142462863Y-103362214D01*
X142462860Y-103362218D01*
X142353371Y-103526079D01*
X142353364Y-103526092D01*
X142277950Y-103708160D01*
X142277947Y-103708170D01*
X142239500Y-103901456D01*
X142239500Y-103901459D01*
X142239500Y-104098541D01*
X142239500Y-104098543D01*
X142239499Y-104098543D01*
X141700500Y-104098543D01*
X141700500Y-104098541D01*
X141700500Y-103901459D01*
X141700500Y-103901456D01*
X141662052Y-103708170D01*
X141662051Y-103708169D01*
X141662051Y-103708165D01*
X141635252Y-103643465D01*
X141586635Y-103526092D01*
X141586628Y-103526079D01*
X141477139Y-103362218D01*
X141477136Y-103362214D01*
X141337785Y-103222863D01*
X141337781Y-103222860D01*
X141173920Y-103113371D01*
X141173907Y-103113364D01*
X140991839Y-103037950D01*
X140991829Y-103037947D01*
X140798543Y-102999500D01*
X140798541Y-102999500D01*
X140601459Y-102999500D01*
X140601457Y-102999500D01*
X140408170Y-103037947D01*
X140408160Y-103037950D01*
X140226092Y-103113364D01*
X140226079Y-103113371D01*
X140062218Y-103222860D01*
X140062214Y-103222863D01*
X139922863Y-103362214D01*
X139922860Y-103362218D01*
X139813371Y-103526079D01*
X139813364Y-103526092D01*
X139737950Y-103708160D01*
X139737947Y-103708170D01*
X139699500Y-103901456D01*
X139699500Y-103901459D01*
X139699500Y-104098541D01*
X139699500Y-104098543D01*
X139699499Y-104098543D01*
X139160500Y-104098543D01*
X139160500Y-104098541D01*
X139160500Y-103901459D01*
X139160500Y-103901456D01*
X139122052Y-103708170D01*
X139122051Y-103708169D01*
X139122051Y-103708165D01*
X139095252Y-103643465D01*
X139046635Y-103526092D01*
X139046628Y-103526079D01*
X138937139Y-103362218D01*
X138937136Y-103362214D01*
X138797785Y-103222863D01*
X138797781Y-103222860D01*
X138633920Y-103113371D01*
X138633907Y-103113364D01*
X138451839Y-103037950D01*
X138451829Y-103037947D01*
X138258543Y-102999500D01*
X138258541Y-102999500D01*
X138061459Y-102999500D01*
X138061457Y-102999500D01*
X137868170Y-103037947D01*
X137868160Y-103037950D01*
X137686092Y-103113364D01*
X137686079Y-103113371D01*
X137522218Y-103222860D01*
X137522214Y-103222863D01*
X137382863Y-103362214D01*
X137382860Y-103362218D01*
X137273371Y-103526079D01*
X137273364Y-103526092D01*
X137197950Y-103708160D01*
X137197947Y-103708170D01*
X137159500Y-103901456D01*
X137159500Y-103901459D01*
X137159500Y-104098541D01*
X137159500Y-104098543D01*
X137159499Y-104098543D01*
X136620500Y-104098543D01*
X136620500Y-104098541D01*
X136620500Y-103901459D01*
X136620500Y-103901456D01*
X136582052Y-103708170D01*
X136582051Y-103708169D01*
X136582051Y-103708165D01*
X136555252Y-103643465D01*
X136506635Y-103526092D01*
X136506628Y-103526079D01*
X136397139Y-103362218D01*
X136397136Y-103362214D01*
X136257785Y-103222863D01*
X136257781Y-103222860D01*
X136093920Y-103113371D01*
X136093907Y-103113364D01*
X135911839Y-103037950D01*
X135911829Y-103037947D01*
X135718543Y-102999500D01*
X135718541Y-102999500D01*
X135521459Y-102999500D01*
X135521457Y-102999500D01*
X135328170Y-103037947D01*
X135328160Y-103037950D01*
X135146092Y-103113364D01*
X135146079Y-103113371D01*
X134982218Y-103222860D01*
X134982214Y-103222863D01*
X134842863Y-103362214D01*
X134842860Y-103362218D01*
X134733371Y-103526079D01*
X134733364Y-103526092D01*
X134657950Y-103708160D01*
X134657947Y-103708170D01*
X134619500Y-103901456D01*
X134619500Y-103901459D01*
X134619500Y-104098541D01*
X134619500Y-104098543D01*
X134619499Y-104098543D01*
X134080500Y-104098543D01*
X134080500Y-104098541D01*
X134080500Y-103901459D01*
X134080500Y-103901456D01*
X134042052Y-103708170D01*
X134042051Y-103708169D01*
X134042051Y-103708165D01*
X134015252Y-103643465D01*
X133966635Y-103526092D01*
X133966628Y-103526079D01*
X133857139Y-103362218D01*
X133857136Y-103362214D01*
X133717785Y-103222863D01*
X133717781Y-103222860D01*
X133553920Y-103113371D01*
X133553907Y-103113364D01*
X133371839Y-103037950D01*
X133371829Y-103037947D01*
X133178543Y-102999500D01*
X133178541Y-102999500D01*
X132981459Y-102999500D01*
X132981457Y-102999500D01*
X132788170Y-103037947D01*
X132788160Y-103037950D01*
X132606092Y-103113364D01*
X132606079Y-103113371D01*
X132442218Y-103222860D01*
X132442214Y-103222863D01*
X132302863Y-103362214D01*
X132302860Y-103362218D01*
X132193371Y-103526079D01*
X132193364Y-103526092D01*
X132117950Y-103708160D01*
X132117947Y-103708170D01*
X132079500Y-103901456D01*
X132079500Y-103901459D01*
X132079500Y-104098541D01*
X132079500Y-104098543D01*
X132079499Y-104098543D01*
X131540500Y-104098543D01*
X131540500Y-104098541D01*
X131540500Y-103901459D01*
X131540500Y-103901456D01*
X131502052Y-103708170D01*
X131502051Y-103708169D01*
X131502051Y-103708165D01*
X131475252Y-103643465D01*
X131426635Y-103526092D01*
X131426628Y-103526079D01*
X131317139Y-103362218D01*
X131317136Y-103362214D01*
X131177785Y-103222863D01*
X131177781Y-103222860D01*
X131013920Y-103113371D01*
X131013907Y-103113364D01*
X130831839Y-103037950D01*
X130831829Y-103037947D01*
X130638543Y-102999500D01*
X130638541Y-102999500D01*
X130441459Y-102999500D01*
X130441457Y-102999500D01*
X130248170Y-103037947D01*
X130248160Y-103037950D01*
X130066092Y-103113364D01*
X130066079Y-103113371D01*
X129902218Y-103222860D01*
X129902214Y-103222863D01*
X129762863Y-103362214D01*
X129762860Y-103362218D01*
X129653371Y-103526079D01*
X129653364Y-103526092D01*
X129577950Y-103708160D01*
X129577947Y-103708170D01*
X129539500Y-103901456D01*
X129539500Y-103901459D01*
X129539500Y-104098541D01*
X129539500Y-104098543D01*
X129539499Y-104098543D01*
X129000500Y-104098543D01*
X129000500Y-104098541D01*
X129000500Y-103901459D01*
X129000500Y-103901456D01*
X128962052Y-103708170D01*
X128962051Y-103708169D01*
X128962051Y-103708165D01*
X128935252Y-103643465D01*
X128886635Y-103526092D01*
X128886628Y-103526079D01*
X128777139Y-103362218D01*
X128777136Y-103362214D01*
X128637785Y-103222863D01*
X128637781Y-103222860D01*
X128473920Y-103113371D01*
X128473907Y-103113364D01*
X128291839Y-103037950D01*
X128291829Y-103037947D01*
X128098543Y-102999500D01*
X128098541Y-102999500D01*
X127901459Y-102999500D01*
X127901457Y-102999500D01*
X127708170Y-103037947D01*
X127708160Y-103037950D01*
X127526092Y-103113364D01*
X127526079Y-103113371D01*
X127362218Y-103222860D01*
X127362214Y-103222863D01*
X127222863Y-103362214D01*
X127222860Y-103362218D01*
X127113371Y-103526079D01*
X127113364Y-103526092D01*
X127037950Y-103708160D01*
X127037947Y-103708170D01*
X126999500Y-103901456D01*
X126999500Y-103901459D01*
X126999500Y-104098541D01*
X126999500Y-104098543D01*
X126999499Y-104098543D01*
X126460500Y-104098543D01*
X126460500Y-104098541D01*
X126460500Y-103901459D01*
X126460500Y-103901456D01*
X126422052Y-103708170D01*
X126422051Y-103708169D01*
X126422051Y-103708165D01*
X126395252Y-103643465D01*
X126346635Y-103526092D01*
X126346628Y-103526079D01*
X126237139Y-103362218D01*
X126237136Y-103362214D01*
X126097785Y-103222863D01*
X126097781Y-103222860D01*
X125933920Y-103113371D01*
X125933907Y-103113364D01*
X125751839Y-103037950D01*
X125751829Y-103037947D01*
X125558543Y-102999500D01*
X125558541Y-102999500D01*
X125361459Y-102999500D01*
X125361457Y-102999500D01*
X125168170Y-103037947D01*
X125168160Y-103037950D01*
X124986092Y-103113364D01*
X124986079Y-103113371D01*
X124822218Y-103222860D01*
X124822214Y-103222863D01*
X124682863Y-103362214D01*
X124682860Y-103362218D01*
X124573371Y-103526079D01*
X124573364Y-103526092D01*
X124497950Y-103708160D01*
X124497947Y-103708170D01*
X124459500Y-103901456D01*
X124459500Y-103901459D01*
X124459500Y-104098541D01*
X124459500Y-104098543D01*
X124459499Y-104098543D01*
X123920500Y-104098543D01*
X123920500Y-104098541D01*
X123920500Y-103901459D01*
X123920500Y-103901456D01*
X123882052Y-103708170D01*
X123882051Y-103708169D01*
X123882051Y-103708165D01*
X123855252Y-103643465D01*
X123806635Y-103526092D01*
X123806628Y-103526079D01*
X123697139Y-103362218D01*
X123697136Y-103362214D01*
X123557785Y-103222863D01*
X123557781Y-103222860D01*
X123393920Y-103113371D01*
X123393907Y-103113364D01*
X123211839Y-103037950D01*
X123211829Y-103037947D01*
X123018543Y-102999500D01*
X123018541Y-102999500D01*
X122821459Y-102999500D01*
X122821457Y-102999500D01*
X122628170Y-103037947D01*
X122628160Y-103037950D01*
X122446092Y-103113364D01*
X122446079Y-103113371D01*
X122282218Y-103222860D01*
X122282214Y-103222863D01*
X122142863Y-103362214D01*
X122142860Y-103362218D01*
X122033371Y-103526079D01*
X122033364Y-103526092D01*
X121957950Y-103708160D01*
X121957947Y-103708170D01*
X121919500Y-103901456D01*
X121919500Y-103901459D01*
X121919500Y-104098541D01*
X121919500Y-104098543D01*
X121919499Y-104098543D01*
X121380500Y-104098543D01*
X121380500Y-104098541D01*
X121380500Y-103901459D01*
X121380500Y-103901456D01*
X121342052Y-103708170D01*
X121342051Y-103708169D01*
X121342051Y-103708165D01*
X121315252Y-103643465D01*
X121266635Y-103526092D01*
X121266628Y-103526079D01*
X121157139Y-103362218D01*
X121157136Y-103362214D01*
X121017785Y-103222863D01*
X121017781Y-103222860D01*
X120853920Y-103113371D01*
X120853907Y-103113364D01*
X120671839Y-103037950D01*
X120671829Y-103037947D01*
X120478543Y-102999500D01*
X120478541Y-102999500D01*
X120281459Y-102999500D01*
X120281457Y-102999500D01*
X120088170Y-103037947D01*
X120088160Y-103037950D01*
X119906092Y-103113364D01*
X119906079Y-103113371D01*
X119742218Y-103222860D01*
X119742214Y-103222863D01*
X119602863Y-103362214D01*
X119602860Y-103362218D01*
X119493371Y-103526079D01*
X119493364Y-103526092D01*
X119417950Y-103708160D01*
X119417947Y-103708170D01*
X119379500Y-103901456D01*
X119379500Y-103901459D01*
X119379500Y-104098541D01*
X119379500Y-104098543D01*
X119379499Y-104098543D01*
X118840500Y-104098543D01*
X118840500Y-104098541D01*
X118840500Y-103901459D01*
X118840500Y-103901456D01*
X118802052Y-103708170D01*
X118802051Y-103708169D01*
X118802051Y-103708165D01*
X118775252Y-103643465D01*
X118726635Y-103526092D01*
X118726628Y-103526079D01*
X118617139Y-103362218D01*
X118617136Y-103362214D01*
X118477785Y-103222863D01*
X118477781Y-103222860D01*
X118313920Y-103113371D01*
X118313907Y-103113364D01*
X118131839Y-103037950D01*
X118131829Y-103037947D01*
X117938543Y-102999500D01*
X117938541Y-102999500D01*
X117741459Y-102999500D01*
X117741457Y-102999500D01*
X117548170Y-103037947D01*
X117548160Y-103037950D01*
X117366092Y-103113364D01*
X117366079Y-103113371D01*
X117202218Y-103222860D01*
X117202214Y-103222863D01*
X117062863Y-103362214D01*
X117062860Y-103362218D01*
X116953371Y-103526079D01*
X116953364Y-103526092D01*
X116877950Y-103708160D01*
X116877947Y-103708170D01*
X116839500Y-103901456D01*
X116839500Y-103901459D01*
X116839500Y-104098541D01*
X116839500Y-104098543D01*
X116839499Y-104098543D01*
X113500500Y-104098543D01*
X113500500Y-100896530D01*
X159489500Y-100896530D01*
X159489500Y-101103469D01*
X159529868Y-101306412D01*
X159529870Y-101306420D01*
X159609058Y-101497596D01*
X159724024Y-101669657D01*
X159870342Y-101815975D01*
X159870345Y-101815977D01*
X160042402Y-101930941D01*
X160233580Y-102010130D01*
X160422187Y-102047646D01*
X160436530Y-102050499D01*
X160436534Y-102050500D01*
X160436535Y-102050500D01*
X160643466Y-102050500D01*
X160643467Y-102050499D01*
X160846420Y-102010130D01*
X161037598Y-101930941D01*
X161209655Y-101815977D01*
X161355977Y-101669655D01*
X161470941Y-101497598D01*
X161550130Y-101306420D01*
X161590500Y-101103465D01*
X161590500Y-100896535D01*
X161590499Y-100896530D01*
X162029500Y-100896530D01*
X162029500Y-101103469D01*
X162069868Y-101306412D01*
X162069870Y-101306420D01*
X162149058Y-101497596D01*
X162264024Y-101669657D01*
X162410342Y-101815975D01*
X162410345Y-101815977D01*
X162582402Y-101930941D01*
X162773580Y-102010130D01*
X162962187Y-102047646D01*
X162976530Y-102050499D01*
X162976534Y-102050500D01*
X162976535Y-102050500D01*
X163183466Y-102050500D01*
X163183467Y-102050499D01*
X163386420Y-102010130D01*
X163577598Y-101930941D01*
X163749655Y-101815977D01*
X163895977Y-101669655D01*
X164010941Y-101497598D01*
X164090130Y-101306420D01*
X164130500Y-101103465D01*
X164130500Y-100896535D01*
X164130499Y-100896530D01*
X164569500Y-100896530D01*
X164569500Y-101103469D01*
X164609868Y-101306412D01*
X164609870Y-101306420D01*
X164689058Y-101497596D01*
X164804024Y-101669657D01*
X164950342Y-101815975D01*
X164950345Y-101815977D01*
X165122402Y-101930941D01*
X165313580Y-102010130D01*
X165502187Y-102047646D01*
X165516530Y-102050499D01*
X165516534Y-102050500D01*
X165516535Y-102050500D01*
X165723466Y-102050500D01*
X165723467Y-102050499D01*
X165926420Y-102010130D01*
X166117598Y-101930941D01*
X166289655Y-101815977D01*
X166435977Y-101669655D01*
X166550941Y-101497598D01*
X166630130Y-101306420D01*
X166670500Y-101103465D01*
X166670500Y-100896535D01*
X166630130Y-100693580D01*
X166550941Y-100502402D01*
X166490353Y-100411725D01*
X166490352Y-100411722D01*
X166446257Y-100345730D01*
X167109500Y-100345730D01*
X167109500Y-101654269D01*
X167112353Y-101684699D01*
X167112353Y-101684701D01*
X167157206Y-101812880D01*
X167157207Y-101812882D01*
X167237850Y-101922150D01*
X167347118Y-102002793D01*
X167368089Y-102010131D01*
X167475299Y-102047646D01*
X167505730Y-102050500D01*
X167505734Y-102050500D01*
X168814270Y-102050500D01*
X168844699Y-102047646D01*
X168844701Y-102047646D01*
X168908790Y-102025219D01*
X168972882Y-102002793D01*
X169082150Y-101922150D01*
X169162793Y-101812882D01*
X169185219Y-101748790D01*
X169207646Y-101684701D01*
X169207646Y-101684699D01*
X169210500Y-101654269D01*
X169210500Y-100345730D01*
X169207646Y-100315300D01*
X169207646Y-100315298D01*
X169162793Y-100187119D01*
X169162792Y-100187117D01*
X169082150Y-100077850D01*
X168972882Y-99997207D01*
X168972880Y-99997206D01*
X168844700Y-99952353D01*
X168814270Y-99949500D01*
X168814266Y-99949500D01*
X167505734Y-99949500D01*
X167505730Y-99949500D01*
X167475300Y-99952353D01*
X167475298Y-99952353D01*
X167347119Y-99997206D01*
X167347117Y-99997207D01*
X167237850Y-100077850D01*
X167157207Y-100187117D01*
X167157206Y-100187119D01*
X167112353Y-100315298D01*
X167112353Y-100315300D01*
X167109500Y-100345730D01*
X166446257Y-100345730D01*
X166435980Y-100330349D01*
X166435974Y-100330341D01*
X166289657Y-100184024D01*
X166203626Y-100126541D01*
X166117598Y-100069059D01*
X165926420Y-99989870D01*
X165926412Y-99989868D01*
X165723469Y-99949500D01*
X165723465Y-99949500D01*
X165516535Y-99949500D01*
X165516530Y-99949500D01*
X165313587Y-99989868D01*
X165313579Y-99989870D01*
X165122403Y-100069058D01*
X164950342Y-100184024D01*
X164804024Y-100330342D01*
X164689058Y-100502403D01*
X164609870Y-100693579D01*
X164609868Y-100693587D01*
X164569500Y-100896530D01*
X164130499Y-100896530D01*
X164090130Y-100693580D01*
X164010941Y-100502402D01*
X163895977Y-100330345D01*
X163895975Y-100330342D01*
X163749657Y-100184024D01*
X163663626Y-100126541D01*
X163577598Y-100069059D01*
X163386420Y-99989870D01*
X163386412Y-99989868D01*
X163183469Y-99949500D01*
X163183465Y-99949500D01*
X162976535Y-99949500D01*
X162976530Y-99949500D01*
X162773587Y-99989868D01*
X162773579Y-99989870D01*
X162582403Y-100069058D01*
X162410342Y-100184024D01*
X162264024Y-100330342D01*
X162149058Y-100502403D01*
X162069870Y-100693579D01*
X162069868Y-100693587D01*
X162029500Y-100896530D01*
X161590499Y-100896530D01*
X161550130Y-100693580D01*
X161470941Y-100502402D01*
X161355977Y-100330345D01*
X161355975Y-100330342D01*
X161209657Y-100184024D01*
X161123626Y-100126541D01*
X161037598Y-100069059D01*
X160846420Y-99989870D01*
X160846412Y-99989868D01*
X160643469Y-99949500D01*
X160643465Y-99949500D01*
X160436535Y-99949500D01*
X160436530Y-99949500D01*
X160233587Y-99989868D01*
X160233579Y-99989870D01*
X160042403Y-100069058D01*
X159870342Y-100184024D01*
X159724024Y-100330342D01*
X159609058Y-100502403D01*
X159529870Y-100693579D01*
X159529868Y-100693587D01*
X159489500Y-100896530D01*
X113500500Y-100896530D01*
X113500500Y-88858543D01*
X114299499Y-88858543D01*
X114337947Y-89051829D01*
X114337950Y-89051839D01*
X114413364Y-89233907D01*
X114413371Y-89233920D01*
X114522860Y-89397781D01*
X114522863Y-89397785D01*
X114662214Y-89537136D01*
X114662218Y-89537139D01*
X114826079Y-89646628D01*
X114826092Y-89646635D01*
X115008160Y-89722049D01*
X115008165Y-89722051D01*
X115008169Y-89722051D01*
X115008170Y-89722052D01*
X115201456Y-89760500D01*
X115201459Y-89760500D01*
X115398543Y-89760500D01*
X115528582Y-89734632D01*
X115591835Y-89722051D01*
X115773914Y-89646632D01*
X115937782Y-89537139D01*
X116077139Y-89397782D01*
X116186632Y-89233914D01*
X116262051Y-89051835D01*
X116300500Y-88858543D01*
X119379499Y-88858543D01*
X119417947Y-89051829D01*
X119417950Y-89051839D01*
X119493364Y-89233907D01*
X119493371Y-89233919D01*
X119558602Y-89331543D01*
X119579480Y-89398220D01*
X119579500Y-89400434D01*
X119579500Y-92388134D01*
X119610261Y-92542777D01*
X119610264Y-92542789D01*
X119670602Y-92688460D01*
X119670609Y-92688473D01*
X119758210Y-92819576D01*
X119758213Y-92819580D01*
X120577240Y-93638607D01*
X120577244Y-93638610D01*
X120708347Y-93726211D01*
X120708351Y-93726213D01*
X120708354Y-93726215D01*
X120854036Y-93786559D01*
X121008686Y-93817320D01*
X121008690Y-93817321D01*
X121008691Y-93817321D01*
X121166376Y-93817321D01*
X150921158Y-93817321D01*
X151078842Y-93817321D01*
X156053133Y-93817321D01*
X156120172Y-93837006D01*
X156122025Y-93838220D01*
X156153330Y-93859138D01*
X156153338Y-93859142D01*
X156153339Y-93859143D01*
X156326319Y-93930794D01*
X156509949Y-93967320D01*
X156509953Y-93967321D01*
X156509954Y-93967321D01*
X156697187Y-93967321D01*
X156697188Y-93967320D01*
X156880821Y-93930794D01*
X157053801Y-93859143D01*
X157053806Y-93859139D01*
X157053809Y-93859138D01*
X157085115Y-93838220D01*
X157151792Y-93817341D01*
X157154007Y-93817321D01*
X160062023Y-93817321D01*
X160062024Y-93817320D01*
X160216676Y-93786558D01*
X160362358Y-93726215D01*
X160493468Y-93638610D01*
X161229881Y-92902197D01*
X161908200Y-92223879D01*
X167584500Y-92223879D01*
X167584500Y-92411120D01*
X167621025Y-92594743D01*
X167621027Y-92594751D01*
X167692676Y-92767728D01*
X167692681Y-92767737D01*
X167796697Y-92923407D01*
X167796700Y-92923411D01*
X167929088Y-93055799D01*
X167929092Y-93055802D01*
X168084762Y-93159818D01*
X168084768Y-93159821D01*
X168084769Y-93159822D01*
X168257749Y-93231473D01*
X168427031Y-93265145D01*
X168441379Y-93267999D01*
X168441383Y-93268000D01*
X168441384Y-93268000D01*
X168628617Y-93268000D01*
X168628618Y-93267999D01*
X168812251Y-93231473D01*
X168985231Y-93159822D01*
X169140908Y-93055802D01*
X169273302Y-92923408D01*
X169377322Y-92767731D01*
X169448973Y-92594751D01*
X169485500Y-92411116D01*
X169485500Y-92223884D01*
X169448973Y-92040249D01*
X169377322Y-91867269D01*
X169377321Y-91867267D01*
X169377315Y-91867257D01*
X169351905Y-91829228D01*
X169351904Y-91829227D01*
X169307806Y-91763231D01*
X172664500Y-91763231D01*
X172664500Y-92871758D01*
X172667354Y-92902198D01*
X172667354Y-92902199D01*
X172712206Y-93030381D01*
X172712207Y-93030382D01*
X172792850Y-93139650D01*
X172902118Y-93220293D01*
X173030302Y-93265146D01*
X173030301Y-93265146D01*
X173034271Y-93265518D01*
X173060735Y-93268000D01*
X174169264Y-93267999D01*
X174199698Y-93265146D01*
X174327882Y-93220293D01*
X174437150Y-93139650D01*
X174517793Y-93030382D01*
X174562646Y-92902198D01*
X174565500Y-92871765D01*
X174565499Y-91763236D01*
X174562646Y-91732802D01*
X174517793Y-91604618D01*
X174437150Y-91495350D01*
X174327882Y-91414707D01*
X174327881Y-91414706D01*
X174199695Y-91369853D01*
X174199698Y-91369853D01*
X174169268Y-91367000D01*
X173060741Y-91367000D01*
X173030301Y-91369854D01*
X173030300Y-91369854D01*
X172902118Y-91414706D01*
X172792850Y-91495350D01*
X172712206Y-91604618D01*
X172667353Y-91732802D01*
X172664500Y-91763231D01*
X169307806Y-91763231D01*
X169273302Y-91711592D01*
X169273299Y-91711588D01*
X169140911Y-91579200D01*
X169140907Y-91579197D01*
X168985237Y-91475181D01*
X168985228Y-91475176D01*
X168812251Y-91403527D01*
X168812243Y-91403525D01*
X168628620Y-91367000D01*
X168628616Y-91367000D01*
X168441384Y-91367000D01*
X168441379Y-91367000D01*
X168257756Y-91403525D01*
X168257748Y-91403527D01*
X168084771Y-91475176D01*
X168084762Y-91475181D01*
X167929092Y-91579197D01*
X167929088Y-91579200D01*
X167796700Y-91711588D01*
X167796697Y-91711592D01*
X167692681Y-91867262D01*
X167692676Y-91867271D01*
X167621027Y-92040248D01*
X167621025Y-92040256D01*
X167584500Y-92223879D01*
X161908200Y-92223879D01*
X162001968Y-92130111D01*
X166621786Y-87510292D01*
X166621789Y-87510289D01*
X166709394Y-87379179D01*
X166769737Y-87233497D01*
X166800500Y-87078842D01*
X166800500Y-86921157D01*
X166800500Y-77455778D01*
X172099500Y-77455778D01*
X172099500Y-77744221D01*
X172099501Y-77744238D01*
X172137149Y-78030206D01*
X172137150Y-78030211D01*
X172137151Y-78030217D01*
X172137152Y-78030219D01*
X172211809Y-78308844D01*
X172211814Y-78308860D01*
X172322191Y-78575336D01*
X172322199Y-78575352D01*
X172466420Y-78825148D01*
X172466431Y-78825164D01*
X172642024Y-79054002D01*
X172642030Y-79054009D01*
X172845990Y-79257969D01*
X172845996Y-79257974D01*
X173074844Y-79433575D01*
X173074851Y-79433579D01*
X173324647Y-79577800D01*
X173324663Y-79577808D01*
X173591139Y-79688185D01*
X173591145Y-79688186D01*
X173591155Y-79688191D01*
X173869783Y-79762849D01*
X174155772Y-79800500D01*
X174155779Y-79800500D01*
X174444221Y-79800500D01*
X174444228Y-79800500D01*
X174730217Y-79762849D01*
X175008845Y-79688191D01*
X175008857Y-79688185D01*
X175008860Y-79688185D01*
X175275336Y-79577808D01*
X175275339Y-79577806D01*
X175275345Y-79577804D01*
X175525156Y-79433575D01*
X175754004Y-79257974D01*
X175957974Y-79054004D01*
X176133575Y-78825156D01*
X176277804Y-78575345D01*
X176388191Y-78308845D01*
X176462849Y-78030217D01*
X176500500Y-77744228D01*
X176500500Y-77455772D01*
X176462849Y-77169783D01*
X176388191Y-76891155D01*
X176388186Y-76891145D01*
X176388185Y-76891139D01*
X176277808Y-76624663D01*
X176277800Y-76624647D01*
X176133579Y-76374851D01*
X176133575Y-76374844D01*
X175957974Y-76145996D01*
X175957969Y-76145990D01*
X175754009Y-75942030D01*
X175754002Y-75942024D01*
X175525164Y-75766431D01*
X175525162Y-75766429D01*
X175525156Y-75766425D01*
X175525151Y-75766422D01*
X175525148Y-75766420D01*
X175275352Y-75622199D01*
X175275336Y-75622191D01*
X175008860Y-75511814D01*
X175008848Y-75511810D01*
X175008845Y-75511809D01*
X174730217Y-75437151D01*
X174730211Y-75437150D01*
X174730206Y-75437149D01*
X174444238Y-75399501D01*
X174444233Y-75399500D01*
X174444228Y-75399500D01*
X174155772Y-75399500D01*
X174155766Y-75399500D01*
X174155761Y-75399501D01*
X173869793Y-75437149D01*
X173869786Y-75437150D01*
X173869783Y-75437151D01*
X173762524Y-75465891D01*
X173591155Y-75511809D01*
X173591139Y-75511814D01*
X173324663Y-75622191D01*
X173324647Y-75622199D01*
X173074851Y-75766420D01*
X173074835Y-75766431D01*
X172845997Y-75942024D01*
X172845990Y-75942030D01*
X172642030Y-76145990D01*
X172642024Y-76145997D01*
X172466431Y-76374835D01*
X172466420Y-76374851D01*
X172322199Y-76624647D01*
X172322191Y-76624663D01*
X172211814Y-76891139D01*
X172211809Y-76891155D01*
X172137152Y-77169780D01*
X172137149Y-77169793D01*
X172099501Y-77455761D01*
X172099500Y-77455778D01*
X166800500Y-77455778D01*
X166800500Y-57921158D01*
X166800500Y-57921155D01*
X166800499Y-57921153D01*
X166769738Y-57766510D01*
X166769737Y-57766503D01*
X166769735Y-57766498D01*
X166709397Y-57620827D01*
X166709390Y-57620814D01*
X166621789Y-57489711D01*
X166621786Y-57489707D01*
X166510292Y-57378213D01*
X166510288Y-57378210D01*
X166379185Y-57290609D01*
X166379172Y-57290602D01*
X166233501Y-57230264D01*
X166233489Y-57230261D01*
X166078845Y-57199500D01*
X166078842Y-57199500D01*
X165921158Y-57199500D01*
X165921155Y-57199500D01*
X165766510Y-57230261D01*
X165766498Y-57230264D01*
X165620827Y-57290602D01*
X165620814Y-57290609D01*
X165489711Y-57378210D01*
X165489707Y-57378213D01*
X165378213Y-57489707D01*
X165378210Y-57489711D01*
X165290609Y-57620814D01*
X165290602Y-57620827D01*
X165230264Y-57766498D01*
X165230261Y-57766510D01*
X165199500Y-57921153D01*
X165199500Y-86617060D01*
X165179815Y-86684099D01*
X165163181Y-86704741D01*
X159687920Y-92180002D01*
X159626597Y-92213487D01*
X159600239Y-92216321D01*
X157154007Y-92216321D01*
X157086968Y-92196636D01*
X157085115Y-92195422D01*
X157053809Y-92174503D01*
X157053798Y-92174497D01*
X156880821Y-92102848D01*
X156880813Y-92102846D01*
X156697190Y-92066321D01*
X156697186Y-92066321D01*
X156509954Y-92066321D01*
X156509949Y-92066321D01*
X156326326Y-92102846D01*
X156326318Y-92102848D01*
X156153341Y-92174497D01*
X156153330Y-92174503D01*
X156122025Y-92195422D01*
X156055348Y-92216301D01*
X156053133Y-92216321D01*
X151924500Y-92216321D01*
X151857461Y-92196636D01*
X151811706Y-92143832D01*
X151800500Y-92092321D01*
X151800500Y-85323200D01*
X155653070Y-85323200D01*
X155653070Y-85510441D01*
X155689595Y-85694064D01*
X155689597Y-85694072D01*
X155761246Y-85867049D01*
X155761251Y-85867058D01*
X155865267Y-86022728D01*
X155865270Y-86022732D01*
X155997658Y-86155120D01*
X155997662Y-86155123D01*
X156153332Y-86259139D01*
X156153338Y-86259142D01*
X156153339Y-86259143D01*
X156326319Y-86330794D01*
X156483254Y-86362010D01*
X156509949Y-86367320D01*
X156509953Y-86367321D01*
X156509954Y-86367321D01*
X156697187Y-86367321D01*
X156697188Y-86367320D01*
X156880821Y-86330794D01*
X157053801Y-86259143D01*
X157209478Y-86155123D01*
X157341872Y-86022729D01*
X157445892Y-85867052D01*
X157517543Y-85694072D01*
X157554070Y-85510437D01*
X157554070Y-85323205D01*
X157517543Y-85139570D01*
X157445892Y-84966590D01*
X157445891Y-84966589D01*
X157445888Y-84966583D01*
X157341872Y-84810913D01*
X157341869Y-84810909D01*
X157209481Y-84678521D01*
X157209477Y-84678518D01*
X157053807Y-84574502D01*
X157053798Y-84574497D01*
X156880821Y-84502848D01*
X156880813Y-84502846D01*
X156697190Y-84466321D01*
X156697186Y-84466321D01*
X156509954Y-84466321D01*
X156509949Y-84466321D01*
X156326326Y-84502846D01*
X156326318Y-84502848D01*
X156153341Y-84574497D01*
X156153332Y-84574502D01*
X155997662Y-84678518D01*
X155997658Y-84678521D01*
X155865270Y-84810909D01*
X155865267Y-84810913D01*
X155761251Y-84966583D01*
X155761246Y-84966592D01*
X155689597Y-85139569D01*
X155689595Y-85139577D01*
X155653070Y-85323200D01*
X151800500Y-85323200D01*
X151800500Y-81921155D01*
X151800499Y-81921153D01*
X151769738Y-81766510D01*
X151769737Y-81766503D01*
X151769735Y-81766498D01*
X151709397Y-81620827D01*
X151709390Y-81620814D01*
X151621790Y-81489712D01*
X151621789Y-81489711D01*
X151510289Y-81378211D01*
X144836819Y-74704741D01*
X144803334Y-74643418D01*
X144800500Y-74617060D01*
X144800500Y-71600730D01*
X147429500Y-71600730D01*
X147429500Y-73399269D01*
X147432353Y-73429699D01*
X147432353Y-73429701D01*
X147477206Y-73557880D01*
X147477207Y-73557882D01*
X147557850Y-73667150D01*
X147667118Y-73747793D01*
X147709845Y-73762744D01*
X147795299Y-73792646D01*
X147825730Y-73795500D01*
X147825734Y-73795500D01*
X149174270Y-73795500D01*
X149204699Y-73792646D01*
X149204701Y-73792646D01*
X149268790Y-73770219D01*
X149332882Y-73747793D01*
X149442150Y-73667150D01*
X149522793Y-73557882D01*
X149554982Y-73465891D01*
X149567646Y-73429701D01*
X149567646Y-73429699D01*
X149570500Y-73399269D01*
X149570500Y-72284108D01*
X163449500Y-72284108D01*
X163449500Y-72415892D01*
X163466554Y-72479539D01*
X163483608Y-72543187D01*
X163491475Y-72556812D01*
X163549500Y-72657314D01*
X163642686Y-72750500D01*
X163642689Y-72750501D01*
X163642692Y-72750504D01*
X163697325Y-72782046D01*
X163745541Y-72832612D01*
X163758765Y-72901219D01*
X163732797Y-72966084D01*
X163697334Y-72996816D01*
X163692689Y-72999497D01*
X163692683Y-72999502D01*
X163599502Y-73092683D01*
X163599500Y-73092686D01*
X163533608Y-73206812D01*
X163499500Y-73334108D01*
X163499500Y-73465891D01*
X163533608Y-73593187D01*
X163566554Y-73650250D01*
X163599500Y-73707314D01*
X163599502Y-73707316D01*
X163692687Y-73800501D01*
X163694158Y-73801630D01*
X163695083Y-73802897D01*
X163698433Y-73806247D01*
X163697910Y-73806769D01*
X163735356Y-73858060D01*
X163739506Y-73927807D01*
X163705289Y-73988725D01*
X163694158Y-73998370D01*
X163692687Y-73999498D01*
X163599502Y-74092683D01*
X163599500Y-74092686D01*
X163533608Y-74206812D01*
X163517778Y-74265892D01*
X163499500Y-74334108D01*
X163499500Y-74465892D01*
X163516554Y-74529539D01*
X163533608Y-74593187D01*
X163566554Y-74650250D01*
X163599500Y-74707314D01*
X163692686Y-74800500D01*
X163806814Y-74866392D01*
X163934108Y-74900500D01*
X163934110Y-74900500D01*
X164065890Y-74900500D01*
X164065892Y-74900500D01*
X164193186Y-74866392D01*
X164307314Y-74800500D01*
X164400500Y-74707314D01*
X164466392Y-74593186D01*
X164500500Y-74465892D01*
X164500500Y-74334108D01*
X164466392Y-74206814D01*
X164400500Y-74092686D01*
X164307314Y-73999500D01*
X164307311Y-73999498D01*
X164305847Y-73998375D01*
X164304921Y-73997107D01*
X164301567Y-73993753D01*
X164302090Y-73993229D01*
X164264645Y-73941947D01*
X164260491Y-73872201D01*
X164294704Y-73811281D01*
X164305847Y-73801625D01*
X164307306Y-73800504D01*
X164307314Y-73800500D01*
X164400500Y-73707314D01*
X164466392Y-73593186D01*
X164500500Y-73465892D01*
X164500500Y-73334108D01*
X164466392Y-73206814D01*
X164400500Y-73092686D01*
X164307314Y-72999500D01*
X164252672Y-72967952D01*
X164204457Y-72917386D01*
X164191234Y-72848779D01*
X164217202Y-72783914D01*
X164252673Y-72753179D01*
X164257314Y-72750500D01*
X164350500Y-72657314D01*
X164416392Y-72543186D01*
X164450500Y-72415892D01*
X164450500Y-72284108D01*
X164416392Y-72156814D01*
X164350500Y-72042686D01*
X164257314Y-71949500D01*
X164200250Y-71916554D01*
X164143187Y-71883608D01*
X164079539Y-71866554D01*
X164015892Y-71849500D01*
X163884108Y-71849500D01*
X163756812Y-71883608D01*
X163642686Y-71949500D01*
X163642683Y-71949502D01*
X163549502Y-72042683D01*
X163549500Y-72042686D01*
X163483608Y-72156812D01*
X163458773Y-72249500D01*
X163449500Y-72284108D01*
X149570500Y-72284108D01*
X149570500Y-71600730D01*
X149567646Y-71570300D01*
X149567646Y-71570298D01*
X149522793Y-71442119D01*
X149522792Y-71442117D01*
X149442150Y-71332850D01*
X149332882Y-71252207D01*
X149332880Y-71252206D01*
X149204700Y-71207353D01*
X149174270Y-71204500D01*
X149174266Y-71204500D01*
X147825734Y-71204500D01*
X147825730Y-71204500D01*
X147795300Y-71207353D01*
X147795298Y-71207353D01*
X147667119Y-71252206D01*
X147667117Y-71252207D01*
X147557850Y-71332850D01*
X147477207Y-71442117D01*
X147477206Y-71442119D01*
X147432353Y-71570298D01*
X147432353Y-71570300D01*
X147429500Y-71600730D01*
X144800500Y-71600730D01*
X144800500Y-57921155D01*
X144800499Y-57921153D01*
X144769738Y-57766510D01*
X144769737Y-57766503D01*
X144769735Y-57766498D01*
X144709397Y-57620827D01*
X144709390Y-57620814D01*
X144621789Y-57489711D01*
X144621786Y-57489707D01*
X144510292Y-57378213D01*
X144510288Y-57378210D01*
X144379185Y-57290609D01*
X144379172Y-57290602D01*
X144233501Y-57230264D01*
X144233489Y-57230261D01*
X144078845Y-57199500D01*
X144078842Y-57199500D01*
X143921158Y-57199500D01*
X143921155Y-57199500D01*
X143766510Y-57230261D01*
X143766498Y-57230264D01*
X143620827Y-57290602D01*
X143620814Y-57290609D01*
X143489711Y-57378210D01*
X143489707Y-57378213D01*
X143378213Y-57489707D01*
X143378210Y-57489711D01*
X143290609Y-57620814D01*
X143290602Y-57620827D01*
X143230264Y-57766498D01*
X143230261Y-57766510D01*
X143199500Y-57921153D01*
X143199500Y-75078846D01*
X143230261Y-75233489D01*
X143230264Y-75233501D01*
X143290602Y-75379172D01*
X143290609Y-75379185D01*
X143378210Y-75510288D01*
X143378213Y-75510292D01*
X150163181Y-82295259D01*
X150196666Y-82356582D01*
X150199500Y-82382940D01*
X150199500Y-92092321D01*
X150179815Y-92159360D01*
X150127011Y-92205115D01*
X150075500Y-92216321D01*
X121470473Y-92216321D01*
X121441032Y-92207676D01*
X121411046Y-92201153D01*
X121406030Y-92197398D01*
X121403434Y-92196636D01*
X121382792Y-92180002D01*
X121216819Y-92014029D01*
X121183334Y-91952706D01*
X121180500Y-91926348D01*
X121180500Y-89400434D01*
X121200185Y-89333395D01*
X121201398Y-89331543D01*
X121266632Y-89233914D01*
X121342051Y-89051835D01*
X121380500Y-88858543D01*
X121919499Y-88858543D01*
X121957947Y-89051829D01*
X121957950Y-89051839D01*
X122033364Y-89233907D01*
X122033371Y-89233920D01*
X122142860Y-89397781D01*
X122142863Y-89397785D01*
X122282214Y-89537136D01*
X122282218Y-89537139D01*
X122446079Y-89646628D01*
X122446092Y-89646635D01*
X122628160Y-89722049D01*
X122628165Y-89722051D01*
X122628169Y-89722051D01*
X122628170Y-89722052D01*
X122821456Y-89760500D01*
X122821459Y-89760500D01*
X123018543Y-89760500D01*
X123148582Y-89734632D01*
X123211835Y-89722051D01*
X123393914Y-89646632D01*
X123557782Y-89537139D01*
X123697139Y-89397782D01*
X123806632Y-89233914D01*
X123882051Y-89051835D01*
X123920500Y-88858543D01*
X124459499Y-88858543D01*
X124497947Y-89051829D01*
X124497950Y-89051839D01*
X124573364Y-89233907D01*
X124573371Y-89233920D01*
X124682860Y-89397781D01*
X124682863Y-89397785D01*
X124822214Y-89537136D01*
X124822218Y-89537139D01*
X124986079Y-89646628D01*
X124986092Y-89646635D01*
X125168160Y-89722049D01*
X125168165Y-89722051D01*
X125168169Y-89722051D01*
X125168170Y-89722052D01*
X125361456Y-89760500D01*
X125361459Y-89760500D01*
X125558543Y-89760500D01*
X125688582Y-89734632D01*
X125751835Y-89722051D01*
X125933914Y-89646632D01*
X126097782Y-89537139D01*
X126237139Y-89397782D01*
X126346632Y-89233914D01*
X126422051Y-89051835D01*
X126460500Y-88858543D01*
X126999499Y-88858543D01*
X127037947Y-89051829D01*
X127037950Y-89051839D01*
X127113364Y-89233907D01*
X127113371Y-89233920D01*
X127222860Y-89397781D01*
X127222863Y-89397785D01*
X127362214Y-89537136D01*
X127362218Y-89537139D01*
X127526079Y-89646628D01*
X127526092Y-89646635D01*
X127708160Y-89722049D01*
X127708165Y-89722051D01*
X127708169Y-89722051D01*
X127708170Y-89722052D01*
X127901456Y-89760500D01*
X127901459Y-89760500D01*
X128098543Y-89760500D01*
X128228582Y-89734632D01*
X128291835Y-89722051D01*
X128473914Y-89646632D01*
X128637782Y-89537139D01*
X128777139Y-89397782D01*
X128886632Y-89233914D01*
X128962051Y-89051835D01*
X129000500Y-88858543D01*
X129539499Y-88858543D01*
X129577947Y-89051829D01*
X129577950Y-89051839D01*
X129653364Y-89233907D01*
X129653371Y-89233920D01*
X129762860Y-89397781D01*
X129762863Y-89397785D01*
X129902214Y-89537136D01*
X129902218Y-89537139D01*
X130066079Y-89646628D01*
X130066092Y-89646635D01*
X130248160Y-89722049D01*
X130248165Y-89722051D01*
X130248169Y-89722051D01*
X130248170Y-89722052D01*
X130441456Y-89760500D01*
X130441459Y-89760500D01*
X130638543Y-89760500D01*
X130768582Y-89734632D01*
X130831835Y-89722051D01*
X131013914Y-89646632D01*
X131177782Y-89537139D01*
X131317139Y-89397782D01*
X131426632Y-89233914D01*
X131502051Y-89051835D01*
X131540500Y-88858543D01*
X132079499Y-88858543D01*
X132117947Y-89051829D01*
X132117950Y-89051839D01*
X132193364Y-89233907D01*
X132193371Y-89233920D01*
X132302860Y-89397781D01*
X132302863Y-89397785D01*
X132442214Y-89537136D01*
X132442218Y-89537139D01*
X132606079Y-89646628D01*
X132606092Y-89646635D01*
X132788160Y-89722049D01*
X132788165Y-89722051D01*
X132788169Y-89722051D01*
X132788170Y-89722052D01*
X132981456Y-89760500D01*
X132981459Y-89760500D01*
X133178543Y-89760500D01*
X133308582Y-89734632D01*
X133371835Y-89722051D01*
X133553914Y-89646632D01*
X133717782Y-89537139D01*
X133857139Y-89397782D01*
X133966632Y-89233914D01*
X134042051Y-89051835D01*
X134080500Y-88858543D01*
X134619499Y-88858543D01*
X134657947Y-89051829D01*
X134657950Y-89051839D01*
X134733364Y-89233907D01*
X134733371Y-89233920D01*
X134842860Y-89397781D01*
X134842863Y-89397785D01*
X134982214Y-89537136D01*
X134982218Y-89537139D01*
X135146079Y-89646628D01*
X135146092Y-89646635D01*
X135328160Y-89722049D01*
X135328165Y-89722051D01*
X135328169Y-89722051D01*
X135328170Y-89722052D01*
X135521456Y-89760500D01*
X135521459Y-89760500D01*
X135718543Y-89760500D01*
X135848582Y-89734632D01*
X135911835Y-89722051D01*
X136093914Y-89646632D01*
X136257782Y-89537139D01*
X136397139Y-89397782D01*
X136506632Y-89233914D01*
X136582051Y-89051835D01*
X136620500Y-88858543D01*
X137159499Y-88858543D01*
X137197947Y-89051829D01*
X137197950Y-89051839D01*
X137273364Y-89233907D01*
X137273371Y-89233920D01*
X137382860Y-89397781D01*
X137382863Y-89397785D01*
X137522214Y-89537136D01*
X137522218Y-89537139D01*
X137686079Y-89646628D01*
X137686092Y-89646635D01*
X137868160Y-89722049D01*
X137868165Y-89722051D01*
X137868169Y-89722051D01*
X137868170Y-89722052D01*
X138061456Y-89760500D01*
X138061459Y-89760500D01*
X138258543Y-89760500D01*
X138388582Y-89734632D01*
X138451835Y-89722051D01*
X138633914Y-89646632D01*
X138797782Y-89537139D01*
X138937139Y-89397782D01*
X139046632Y-89233914D01*
X139122051Y-89051835D01*
X139160500Y-88858543D01*
X139699499Y-88858543D01*
X139737947Y-89051829D01*
X139737950Y-89051839D01*
X139813364Y-89233907D01*
X139813371Y-89233920D01*
X139922860Y-89397781D01*
X139922863Y-89397785D01*
X140062214Y-89537136D01*
X140062218Y-89537139D01*
X140226079Y-89646628D01*
X140226092Y-89646635D01*
X140408160Y-89722049D01*
X140408165Y-89722051D01*
X140408169Y-89722051D01*
X140408170Y-89722052D01*
X140601456Y-89760500D01*
X140601459Y-89760500D01*
X140798543Y-89760500D01*
X140928582Y-89734632D01*
X140991835Y-89722051D01*
X141173914Y-89646632D01*
X141337782Y-89537139D01*
X141477139Y-89397782D01*
X141586632Y-89233914D01*
X141662051Y-89051835D01*
X141700500Y-88858543D01*
X142239499Y-88858543D01*
X142277947Y-89051829D01*
X142277950Y-89051839D01*
X142353364Y-89233907D01*
X142353371Y-89233920D01*
X142462860Y-89397781D01*
X142462863Y-89397785D01*
X142602214Y-89537136D01*
X142602218Y-89537139D01*
X142766079Y-89646628D01*
X142766092Y-89646635D01*
X142948160Y-89722049D01*
X142948165Y-89722051D01*
X142948169Y-89722051D01*
X142948170Y-89722052D01*
X143141456Y-89760500D01*
X143141459Y-89760500D01*
X143338543Y-89760500D01*
X143468582Y-89734632D01*
X143531835Y-89722051D01*
X143713914Y-89646632D01*
X143877782Y-89537139D01*
X144017139Y-89397782D01*
X144126632Y-89233914D01*
X144202051Y-89051835D01*
X144240500Y-88858543D01*
X144779499Y-88858543D01*
X144817947Y-89051829D01*
X144817950Y-89051839D01*
X144893364Y-89233907D01*
X144893371Y-89233920D01*
X145002860Y-89397781D01*
X145002863Y-89397785D01*
X145142214Y-89537136D01*
X145142218Y-89537139D01*
X145306079Y-89646628D01*
X145306092Y-89646635D01*
X145488160Y-89722049D01*
X145488165Y-89722051D01*
X145488169Y-89722051D01*
X145488170Y-89722052D01*
X145681456Y-89760500D01*
X145681459Y-89760500D01*
X145878543Y-89760500D01*
X146008582Y-89734632D01*
X146071835Y-89722051D01*
X146253914Y-89646632D01*
X146417782Y-89537139D01*
X146557139Y-89397782D01*
X146666632Y-89233914D01*
X146742051Y-89051835D01*
X146780500Y-88858543D01*
X147319499Y-88858543D01*
X147357947Y-89051829D01*
X147357950Y-89051839D01*
X147433364Y-89233907D01*
X147433371Y-89233920D01*
X147542860Y-89397781D01*
X147542863Y-89397785D01*
X147682214Y-89537136D01*
X147682218Y-89537139D01*
X147846079Y-89646628D01*
X147846092Y-89646635D01*
X148028160Y-89722049D01*
X148028165Y-89722051D01*
X148028169Y-89722051D01*
X148028170Y-89722052D01*
X148221456Y-89760500D01*
X148221459Y-89760500D01*
X148418543Y-89760500D01*
X148548582Y-89734632D01*
X148611835Y-89722051D01*
X148793914Y-89646632D01*
X148957782Y-89537139D01*
X149097139Y-89397782D01*
X149206632Y-89233914D01*
X149282051Y-89051835D01*
X149320500Y-88858541D01*
X149320500Y-88661459D01*
X149320500Y-88661456D01*
X149282052Y-88468170D01*
X149282051Y-88468169D01*
X149282051Y-88468165D01*
X149282049Y-88468160D01*
X149206635Y-88286092D01*
X149206628Y-88286079D01*
X149097139Y-88122218D01*
X149097136Y-88122214D01*
X148957785Y-87982863D01*
X148957781Y-87982860D01*
X148793920Y-87873371D01*
X148793907Y-87873364D01*
X148611839Y-87797950D01*
X148611829Y-87797947D01*
X148418543Y-87759500D01*
X148418541Y-87759500D01*
X148221459Y-87759500D01*
X148221457Y-87759500D01*
X148028170Y-87797947D01*
X148028160Y-87797950D01*
X147846092Y-87873364D01*
X147846079Y-87873371D01*
X147682218Y-87982860D01*
X147682214Y-87982863D01*
X147542863Y-88122214D01*
X147542860Y-88122218D01*
X147433371Y-88286079D01*
X147433364Y-88286092D01*
X147357950Y-88468160D01*
X147357947Y-88468170D01*
X147319500Y-88661456D01*
X147319500Y-88661459D01*
X147319500Y-88858541D01*
X147319500Y-88858543D01*
X147319499Y-88858543D01*
X146780500Y-88858543D01*
X146780500Y-88858541D01*
X146780500Y-88661459D01*
X146780500Y-88661456D01*
X146742052Y-88468170D01*
X146742051Y-88468169D01*
X146742051Y-88468165D01*
X146742049Y-88468160D01*
X146666635Y-88286092D01*
X146666628Y-88286079D01*
X146557139Y-88122218D01*
X146557136Y-88122214D01*
X146417785Y-87982863D01*
X146417781Y-87982860D01*
X146253920Y-87873371D01*
X146253907Y-87873364D01*
X146071839Y-87797950D01*
X146071829Y-87797947D01*
X145878543Y-87759500D01*
X145878541Y-87759500D01*
X145681459Y-87759500D01*
X145681457Y-87759500D01*
X145488170Y-87797947D01*
X145488160Y-87797950D01*
X145306092Y-87873364D01*
X145306079Y-87873371D01*
X145142218Y-87982860D01*
X145142214Y-87982863D01*
X145002863Y-88122214D01*
X145002860Y-88122218D01*
X144893371Y-88286079D01*
X144893364Y-88286092D01*
X144817950Y-88468160D01*
X144817947Y-88468170D01*
X144779500Y-88661456D01*
X144779500Y-88661459D01*
X144779500Y-88858541D01*
X144779500Y-88858543D01*
X144779499Y-88858543D01*
X144240500Y-88858543D01*
X144240500Y-88858541D01*
X144240500Y-88661459D01*
X144240500Y-88661456D01*
X144202052Y-88468170D01*
X144202051Y-88468169D01*
X144202051Y-88468165D01*
X144202049Y-88468160D01*
X144126635Y-88286092D01*
X144126628Y-88286079D01*
X144017139Y-88122218D01*
X144017136Y-88122214D01*
X143877785Y-87982863D01*
X143877781Y-87982860D01*
X143713920Y-87873371D01*
X143713907Y-87873364D01*
X143531839Y-87797950D01*
X143531829Y-87797947D01*
X143338543Y-87759500D01*
X143338541Y-87759500D01*
X143141459Y-87759500D01*
X143141457Y-87759500D01*
X142948170Y-87797947D01*
X142948160Y-87797950D01*
X142766092Y-87873364D01*
X142766079Y-87873371D01*
X142602218Y-87982860D01*
X142602214Y-87982863D01*
X142462863Y-88122214D01*
X142462860Y-88122218D01*
X142353371Y-88286079D01*
X142353364Y-88286092D01*
X142277950Y-88468160D01*
X142277947Y-88468170D01*
X142239500Y-88661456D01*
X142239500Y-88661459D01*
X142239500Y-88858541D01*
X142239500Y-88858543D01*
X142239499Y-88858543D01*
X141700500Y-88858543D01*
X141700500Y-88858541D01*
X141700500Y-88661459D01*
X141700500Y-88661456D01*
X141662052Y-88468170D01*
X141662051Y-88468169D01*
X141662051Y-88468165D01*
X141662049Y-88468160D01*
X141586635Y-88286092D01*
X141586628Y-88286079D01*
X141477139Y-88122218D01*
X141477136Y-88122214D01*
X141337785Y-87982863D01*
X141337781Y-87982860D01*
X141173920Y-87873371D01*
X141173907Y-87873364D01*
X140991839Y-87797950D01*
X140991829Y-87797947D01*
X140798543Y-87759500D01*
X140798541Y-87759500D01*
X140601459Y-87759500D01*
X140601457Y-87759500D01*
X140408170Y-87797947D01*
X140408160Y-87797950D01*
X140226092Y-87873364D01*
X140226079Y-87873371D01*
X140062218Y-87982860D01*
X140062214Y-87982863D01*
X139922863Y-88122214D01*
X139922860Y-88122218D01*
X139813371Y-88286079D01*
X139813364Y-88286092D01*
X139737950Y-88468160D01*
X139737947Y-88468170D01*
X139699500Y-88661456D01*
X139699500Y-88661459D01*
X139699500Y-88858541D01*
X139699500Y-88858543D01*
X139699499Y-88858543D01*
X139160500Y-88858543D01*
X139160500Y-88858541D01*
X139160500Y-88661459D01*
X139160500Y-88661456D01*
X139122052Y-88468170D01*
X139122051Y-88468169D01*
X139122051Y-88468165D01*
X139122049Y-88468160D01*
X139046635Y-88286092D01*
X139046628Y-88286079D01*
X138937139Y-88122218D01*
X138937136Y-88122214D01*
X138797785Y-87982863D01*
X138797781Y-87982860D01*
X138633920Y-87873371D01*
X138633907Y-87873364D01*
X138451839Y-87797950D01*
X138451829Y-87797947D01*
X138258543Y-87759500D01*
X138258541Y-87759500D01*
X138061459Y-87759500D01*
X138061457Y-87759500D01*
X137868170Y-87797947D01*
X137868160Y-87797950D01*
X137686092Y-87873364D01*
X137686079Y-87873371D01*
X137522218Y-87982860D01*
X137522214Y-87982863D01*
X137382863Y-88122214D01*
X137382860Y-88122218D01*
X137273371Y-88286079D01*
X137273364Y-88286092D01*
X137197950Y-88468160D01*
X137197947Y-88468170D01*
X137159500Y-88661456D01*
X137159500Y-88661459D01*
X137159500Y-88858541D01*
X137159500Y-88858543D01*
X137159499Y-88858543D01*
X136620500Y-88858543D01*
X136620500Y-88858541D01*
X136620500Y-88661459D01*
X136620500Y-88661456D01*
X136582052Y-88468170D01*
X136582051Y-88468169D01*
X136582051Y-88468165D01*
X136582049Y-88468160D01*
X136506635Y-88286092D01*
X136506628Y-88286079D01*
X136397139Y-88122218D01*
X136397136Y-88122214D01*
X136257785Y-87982863D01*
X136257781Y-87982860D01*
X136093920Y-87873371D01*
X136093907Y-87873364D01*
X135911839Y-87797950D01*
X135911829Y-87797947D01*
X135718543Y-87759500D01*
X135718541Y-87759500D01*
X135521459Y-87759500D01*
X135521457Y-87759500D01*
X135328170Y-87797947D01*
X135328160Y-87797950D01*
X135146092Y-87873364D01*
X135146079Y-87873371D01*
X134982218Y-87982860D01*
X134982214Y-87982863D01*
X134842863Y-88122214D01*
X134842860Y-88122218D01*
X134733371Y-88286079D01*
X134733364Y-88286092D01*
X134657950Y-88468160D01*
X134657947Y-88468170D01*
X134619500Y-88661456D01*
X134619500Y-88661459D01*
X134619500Y-88858541D01*
X134619500Y-88858543D01*
X134619499Y-88858543D01*
X134080500Y-88858543D01*
X134080500Y-88858541D01*
X134080500Y-88661459D01*
X134080500Y-88661456D01*
X134042052Y-88468170D01*
X134042051Y-88468169D01*
X134042051Y-88468165D01*
X134042049Y-88468160D01*
X133966635Y-88286092D01*
X133966628Y-88286079D01*
X133857139Y-88122218D01*
X133857136Y-88122214D01*
X133717785Y-87982863D01*
X133717781Y-87982860D01*
X133553920Y-87873371D01*
X133553907Y-87873364D01*
X133371839Y-87797950D01*
X133371829Y-87797947D01*
X133178543Y-87759500D01*
X133178541Y-87759500D01*
X132981459Y-87759500D01*
X132981457Y-87759500D01*
X132788170Y-87797947D01*
X132788160Y-87797950D01*
X132606092Y-87873364D01*
X132606079Y-87873371D01*
X132442218Y-87982860D01*
X132442214Y-87982863D01*
X132302863Y-88122214D01*
X132302860Y-88122218D01*
X132193371Y-88286079D01*
X132193364Y-88286092D01*
X132117950Y-88468160D01*
X132117947Y-88468170D01*
X132079500Y-88661456D01*
X132079500Y-88661459D01*
X132079500Y-88858541D01*
X132079500Y-88858543D01*
X132079499Y-88858543D01*
X131540500Y-88858543D01*
X131540500Y-88858541D01*
X131540500Y-88661459D01*
X131540500Y-88661456D01*
X131502052Y-88468170D01*
X131502051Y-88468169D01*
X131502051Y-88468165D01*
X131502049Y-88468160D01*
X131426635Y-88286092D01*
X131426628Y-88286079D01*
X131317139Y-88122218D01*
X131317136Y-88122214D01*
X131177785Y-87982863D01*
X131177781Y-87982860D01*
X131013920Y-87873371D01*
X131013907Y-87873364D01*
X130831839Y-87797950D01*
X130831829Y-87797947D01*
X130638543Y-87759500D01*
X130638541Y-87759500D01*
X130441459Y-87759500D01*
X130441457Y-87759500D01*
X130248170Y-87797947D01*
X130248160Y-87797950D01*
X130066092Y-87873364D01*
X130066079Y-87873371D01*
X129902218Y-87982860D01*
X129902214Y-87982863D01*
X129762863Y-88122214D01*
X129762860Y-88122218D01*
X129653371Y-88286079D01*
X129653364Y-88286092D01*
X129577950Y-88468160D01*
X129577947Y-88468170D01*
X129539500Y-88661456D01*
X129539500Y-88661459D01*
X129539500Y-88858541D01*
X129539500Y-88858543D01*
X129539499Y-88858543D01*
X129000500Y-88858543D01*
X129000500Y-88858541D01*
X129000500Y-88661459D01*
X129000500Y-88661456D01*
X128962052Y-88468170D01*
X128962051Y-88468169D01*
X128962051Y-88468165D01*
X128962049Y-88468160D01*
X128886635Y-88286092D01*
X128886628Y-88286079D01*
X128777139Y-88122218D01*
X128777136Y-88122214D01*
X128637785Y-87982863D01*
X128637781Y-87982860D01*
X128473920Y-87873371D01*
X128473907Y-87873364D01*
X128291839Y-87797950D01*
X128291829Y-87797947D01*
X128098543Y-87759500D01*
X128098541Y-87759500D01*
X127901459Y-87759500D01*
X127901457Y-87759500D01*
X127708170Y-87797947D01*
X127708160Y-87797950D01*
X127526092Y-87873364D01*
X127526079Y-87873371D01*
X127362218Y-87982860D01*
X127362214Y-87982863D01*
X127222863Y-88122214D01*
X127222860Y-88122218D01*
X127113371Y-88286079D01*
X127113364Y-88286092D01*
X127037950Y-88468160D01*
X127037947Y-88468170D01*
X126999500Y-88661456D01*
X126999500Y-88661459D01*
X126999500Y-88858541D01*
X126999500Y-88858543D01*
X126999499Y-88858543D01*
X126460500Y-88858543D01*
X126460500Y-88858541D01*
X126460500Y-88661459D01*
X126460500Y-88661456D01*
X126422052Y-88468170D01*
X126422051Y-88468169D01*
X126422051Y-88468165D01*
X126422049Y-88468160D01*
X126346635Y-88286092D01*
X126346628Y-88286079D01*
X126237139Y-88122218D01*
X126237136Y-88122214D01*
X126097785Y-87982863D01*
X126097781Y-87982860D01*
X125933920Y-87873371D01*
X125933907Y-87873364D01*
X125751839Y-87797950D01*
X125751829Y-87797947D01*
X125558543Y-87759500D01*
X125558541Y-87759500D01*
X125361459Y-87759500D01*
X125361457Y-87759500D01*
X125168170Y-87797947D01*
X125168160Y-87797950D01*
X124986092Y-87873364D01*
X124986079Y-87873371D01*
X124822218Y-87982860D01*
X124822214Y-87982863D01*
X124682863Y-88122214D01*
X124682860Y-88122218D01*
X124573371Y-88286079D01*
X124573364Y-88286092D01*
X124497950Y-88468160D01*
X124497947Y-88468170D01*
X124459500Y-88661456D01*
X124459500Y-88661459D01*
X124459500Y-88858541D01*
X124459500Y-88858543D01*
X124459499Y-88858543D01*
X123920500Y-88858543D01*
X123920500Y-88858541D01*
X123920500Y-88661459D01*
X123920500Y-88661456D01*
X123882052Y-88468170D01*
X123882051Y-88468169D01*
X123882051Y-88468165D01*
X123882049Y-88468160D01*
X123806635Y-88286092D01*
X123806628Y-88286079D01*
X123697139Y-88122218D01*
X123697136Y-88122214D01*
X123557785Y-87982863D01*
X123557781Y-87982860D01*
X123393920Y-87873371D01*
X123393907Y-87873364D01*
X123211839Y-87797950D01*
X123211829Y-87797947D01*
X123018543Y-87759500D01*
X123018541Y-87759500D01*
X122821459Y-87759500D01*
X122821457Y-87759500D01*
X122628170Y-87797947D01*
X122628160Y-87797950D01*
X122446092Y-87873364D01*
X122446079Y-87873371D01*
X122282218Y-87982860D01*
X122282214Y-87982863D01*
X122142863Y-88122214D01*
X122142860Y-88122218D01*
X122033371Y-88286079D01*
X122033364Y-88286092D01*
X121957950Y-88468160D01*
X121957947Y-88468170D01*
X121919500Y-88661456D01*
X121919500Y-88661459D01*
X121919500Y-88858541D01*
X121919500Y-88858543D01*
X121919499Y-88858543D01*
X121380500Y-88858543D01*
X121380500Y-88858541D01*
X121380500Y-88661459D01*
X121380500Y-88661456D01*
X121342052Y-88468170D01*
X121342051Y-88468169D01*
X121342051Y-88468165D01*
X121342049Y-88468160D01*
X121266635Y-88286092D01*
X121266628Y-88286079D01*
X121157139Y-88122218D01*
X121157136Y-88122214D01*
X121017785Y-87982863D01*
X121017781Y-87982860D01*
X120853920Y-87873371D01*
X120853907Y-87873364D01*
X120671839Y-87797950D01*
X120671829Y-87797947D01*
X120478543Y-87759500D01*
X120478541Y-87759500D01*
X120281459Y-87759500D01*
X120281457Y-87759500D01*
X120088170Y-87797947D01*
X120088160Y-87797950D01*
X119906092Y-87873364D01*
X119906079Y-87873371D01*
X119742218Y-87982860D01*
X119742214Y-87982863D01*
X119602863Y-88122214D01*
X119602860Y-88122218D01*
X119493371Y-88286079D01*
X119493364Y-88286092D01*
X119417950Y-88468160D01*
X119417947Y-88468170D01*
X119379500Y-88661456D01*
X119379500Y-88661459D01*
X119379500Y-88858541D01*
X119379500Y-88858543D01*
X119379499Y-88858543D01*
X116300500Y-88858543D01*
X116300500Y-88858541D01*
X116300500Y-88661459D01*
X116300500Y-88661456D01*
X116262052Y-88468170D01*
X116262051Y-88468169D01*
X116262051Y-88468165D01*
X116262049Y-88468160D01*
X116186635Y-88286092D01*
X116186628Y-88286079D01*
X116077139Y-88122218D01*
X116077136Y-88122214D01*
X115937785Y-87982863D01*
X115937781Y-87982860D01*
X115773920Y-87873371D01*
X115773907Y-87873364D01*
X115591839Y-87797950D01*
X115591829Y-87797947D01*
X115398543Y-87759500D01*
X115398541Y-87759500D01*
X115201459Y-87759500D01*
X115201457Y-87759500D01*
X115008170Y-87797947D01*
X115008160Y-87797950D01*
X114826092Y-87873364D01*
X114826079Y-87873371D01*
X114662218Y-87982860D01*
X114662214Y-87982863D01*
X114522863Y-88122214D01*
X114522860Y-88122218D01*
X114413371Y-88286079D01*
X114413364Y-88286092D01*
X114337950Y-88468160D01*
X114337947Y-88468170D01*
X114299500Y-88661456D01*
X114299500Y-88661459D01*
X114299500Y-88858541D01*
X114299500Y-88858543D01*
X114299499Y-88858543D01*
X113500500Y-88858543D01*
X113500500Y-85934108D01*
X146099500Y-85934108D01*
X146099500Y-86065891D01*
X146133608Y-86193187D01*
X146166554Y-86250250D01*
X146199500Y-86307314D01*
X146292686Y-86400500D01*
X146406814Y-86466392D01*
X146534108Y-86500500D01*
X146534110Y-86500500D01*
X146665890Y-86500500D01*
X146665892Y-86500500D01*
X146793186Y-86466392D01*
X146907314Y-86400500D01*
X146912319Y-86395495D01*
X146973642Y-86362010D01*
X147043334Y-86366994D01*
X147087681Y-86395495D01*
X147092686Y-86400500D01*
X147206814Y-86466392D01*
X147334108Y-86500500D01*
X147334110Y-86500500D01*
X147465890Y-86500500D01*
X147465892Y-86500500D01*
X147593186Y-86466392D01*
X147707314Y-86400500D01*
X147800500Y-86307314D01*
X147800504Y-86307306D01*
X147801625Y-86305847D01*
X147802892Y-86304921D01*
X147806247Y-86301567D01*
X147806770Y-86302090D01*
X147858053Y-86264645D01*
X147927799Y-86260491D01*
X147988719Y-86294704D01*
X147998375Y-86305847D01*
X147999498Y-86307311D01*
X147999500Y-86307314D01*
X148092686Y-86400500D01*
X148206814Y-86466392D01*
X148334108Y-86500500D01*
X148334110Y-86500500D01*
X148465890Y-86500500D01*
X148465892Y-86500500D01*
X148593186Y-86466392D01*
X148707314Y-86400500D01*
X148800500Y-86307314D01*
X148866392Y-86193186D01*
X148900500Y-86065892D01*
X148900500Y-85934108D01*
X148866392Y-85806814D01*
X148800500Y-85692686D01*
X148707314Y-85599500D01*
X148650250Y-85566554D01*
X148593187Y-85533608D01*
X148529539Y-85516554D01*
X148465892Y-85499500D01*
X148334108Y-85499500D01*
X148206812Y-85533608D01*
X148092686Y-85599500D01*
X148092683Y-85599502D01*
X147999498Y-85692687D01*
X147998370Y-85694158D01*
X147997102Y-85695083D01*
X147993753Y-85698433D01*
X147993230Y-85697910D01*
X147941940Y-85735356D01*
X147872193Y-85739506D01*
X147811275Y-85705289D01*
X147801630Y-85694158D01*
X147800501Y-85692687D01*
X147707316Y-85599502D01*
X147707314Y-85599500D01*
X147650250Y-85566554D01*
X147593187Y-85533608D01*
X147529539Y-85516554D01*
X147465892Y-85499500D01*
X147334108Y-85499500D01*
X147206812Y-85533608D01*
X147092686Y-85599500D01*
X147092683Y-85599502D01*
X147087681Y-85604505D01*
X147026358Y-85637990D01*
X146956666Y-85633006D01*
X146912319Y-85604505D01*
X146907316Y-85599502D01*
X146907314Y-85599500D01*
X146850250Y-85566554D01*
X146793187Y-85533608D01*
X146729539Y-85516554D01*
X146665892Y-85499500D01*
X146534108Y-85499500D01*
X146406812Y-85533608D01*
X146292686Y-85599500D01*
X146292683Y-85599502D01*
X146199502Y-85692683D01*
X146199500Y-85692686D01*
X146133608Y-85806812D01*
X146099500Y-85934108D01*
X113500500Y-85934108D01*
X113500500Y-82734110D01*
X137817265Y-82734110D01*
X137817265Y-82865893D01*
X137851373Y-82993189D01*
X137884319Y-83050252D01*
X137917265Y-83107316D01*
X138010451Y-83200502D01*
X138109286Y-83257565D01*
X138124575Y-83266392D01*
X138124579Y-83266394D01*
X138251873Y-83300502D01*
X138251875Y-83300502D01*
X138383655Y-83300502D01*
X138383657Y-83300502D01*
X138510951Y-83266394D01*
X138625079Y-83200502D01*
X138718265Y-83107316D01*
X138718272Y-83107302D01*
X138719381Y-83105859D01*
X138720645Y-83104935D01*
X138724012Y-83101569D01*
X138724536Y-83102093D01*
X138775804Y-83064650D01*
X138845550Y-83060488D01*
X138906474Y-83094694D01*
X138916139Y-83105846D01*
X138917265Y-83107313D01*
X138917266Y-83107315D01*
X139010452Y-83200501D01*
X139109287Y-83257564D01*
X139124576Y-83266391D01*
X139124580Y-83266393D01*
X139251874Y-83300501D01*
X139251876Y-83300501D01*
X139383656Y-83300501D01*
X139383658Y-83300501D01*
X139510952Y-83266393D01*
X139625080Y-83200501D01*
X139671203Y-83154377D01*
X139732524Y-83120893D01*
X139802215Y-83125877D01*
X139846564Y-83154378D01*
X139892686Y-83200500D01*
X140006814Y-83266392D01*
X140134108Y-83300500D01*
X140134110Y-83300500D01*
X140265890Y-83300500D01*
X140265892Y-83300500D01*
X140393186Y-83266392D01*
X140507314Y-83200500D01*
X140600500Y-83107314D01*
X140666392Y-82993186D01*
X140700500Y-82865892D01*
X140700500Y-82734108D01*
X140666392Y-82606814D01*
X140600500Y-82492686D01*
X140507314Y-82399500D01*
X140432978Y-82356582D01*
X140393187Y-82333608D01*
X140329539Y-82316554D01*
X140265892Y-82299500D01*
X140134108Y-82299500D01*
X140006812Y-82333608D01*
X139892686Y-82399500D01*
X139892682Y-82399503D01*
X139846562Y-82445623D01*
X139785239Y-82479107D01*
X139715547Y-82474122D01*
X139671201Y-82445622D01*
X139625082Y-82399503D01*
X139625080Y-82399501D01*
X139568016Y-82366555D01*
X139510953Y-82333609D01*
X139447305Y-82316555D01*
X139383658Y-82299501D01*
X139251874Y-82299501D01*
X139124578Y-82333609D01*
X139010452Y-82399501D01*
X139010449Y-82399503D01*
X138917267Y-82492685D01*
X138916139Y-82494156D01*
X138914871Y-82495081D01*
X138911519Y-82498434D01*
X138910996Y-82497911D01*
X138859709Y-82535357D01*
X138789963Y-82539510D01*
X138729044Y-82505296D01*
X138719390Y-82494155D01*
X138718267Y-82492691D01*
X138718265Y-82492688D01*
X138625079Y-82399502D01*
X138550740Y-82356582D01*
X138510952Y-82333610D01*
X138447304Y-82316556D01*
X138383657Y-82299502D01*
X138251873Y-82299502D01*
X138124577Y-82333610D01*
X138010451Y-82399502D01*
X138010448Y-82399504D01*
X137917267Y-82492685D01*
X137917265Y-82492688D01*
X137851373Y-82606814D01*
X137817265Y-82734110D01*
X113500500Y-82734110D01*
X113500500Y-74134108D01*
X141499500Y-74134108D01*
X141499500Y-74265891D01*
X141533608Y-74393187D01*
X141566554Y-74450250D01*
X141599500Y-74507314D01*
X141692686Y-74600500D01*
X141806814Y-74666392D01*
X141858441Y-74680225D01*
X141918102Y-74716590D01*
X141948631Y-74779437D01*
X141940336Y-74848812D01*
X141895851Y-74902690D01*
X141858442Y-74919774D01*
X141840666Y-74924537D01*
X141806812Y-74933608D01*
X141692686Y-74999500D01*
X141692683Y-74999502D01*
X141599502Y-75092683D01*
X141599500Y-75092686D01*
X141533608Y-75206812D01*
X141499500Y-75334108D01*
X141499500Y-75465891D01*
X141533608Y-75593187D01*
X141566554Y-75650250D01*
X141599500Y-75707314D01*
X141692686Y-75800500D01*
X141806814Y-75866392D01*
X141934108Y-75900500D01*
X141934110Y-75900500D01*
X142065890Y-75900500D01*
X142065892Y-75900500D01*
X142193186Y-75866392D01*
X142307314Y-75800500D01*
X142400500Y-75707314D01*
X142466392Y-75593186D01*
X142500500Y-75465892D01*
X142500500Y-75334108D01*
X142466392Y-75206814D01*
X142400500Y-75092686D01*
X142307314Y-74999500D01*
X142250250Y-74966554D01*
X142193187Y-74933608D01*
X142176259Y-74929072D01*
X142141556Y-74919774D01*
X142081897Y-74883410D01*
X142051368Y-74820564D01*
X142059662Y-74751188D01*
X142104147Y-74697310D01*
X142141555Y-74680226D01*
X142193186Y-74666392D01*
X142307314Y-74600500D01*
X142400500Y-74507314D01*
X142466392Y-74393186D01*
X142500500Y-74265892D01*
X142500500Y-74134108D01*
X142466392Y-74006814D01*
X142400500Y-73892686D01*
X142307314Y-73799500D01*
X142250250Y-73766554D01*
X142193187Y-73733608D01*
X142129539Y-73716554D01*
X142065892Y-73699500D01*
X141934108Y-73699500D01*
X141806812Y-73733608D01*
X141692686Y-73799500D01*
X141692683Y-73799502D01*
X141599502Y-73892683D01*
X141599500Y-73892686D01*
X141533608Y-74006812D01*
X141499500Y-74134108D01*
X113500500Y-74134108D01*
X113500500Y-71600730D01*
X124929500Y-71600730D01*
X124929500Y-73399269D01*
X124932353Y-73429699D01*
X124932353Y-73429701D01*
X124977206Y-73557880D01*
X124977207Y-73557882D01*
X125057850Y-73667150D01*
X125167118Y-73747793D01*
X125209845Y-73762744D01*
X125295299Y-73792646D01*
X125325730Y-73795500D01*
X125325734Y-73795500D01*
X126674270Y-73795500D01*
X126704699Y-73792646D01*
X126704701Y-73792646D01*
X126768790Y-73770219D01*
X126832882Y-73747793D01*
X126942150Y-73667150D01*
X127022793Y-73557882D01*
X127054982Y-73465891D01*
X127067646Y-73429701D01*
X127067646Y-73429699D01*
X127070500Y-73399269D01*
X127070500Y-72684108D01*
X141449500Y-72684108D01*
X141449500Y-72815891D01*
X141483608Y-72943187D01*
X141496828Y-72966084D01*
X141549500Y-73057314D01*
X141642686Y-73150500D01*
X141756814Y-73216392D01*
X141884108Y-73250500D01*
X141884110Y-73250500D01*
X142015890Y-73250500D01*
X142015892Y-73250500D01*
X142143186Y-73216392D01*
X142257314Y-73150500D01*
X142350500Y-73057314D01*
X142416392Y-72943186D01*
X142450500Y-72815892D01*
X142450500Y-72684108D01*
X142416392Y-72556814D01*
X142350500Y-72442686D01*
X142257314Y-72349500D01*
X142200250Y-72316554D01*
X142143187Y-72283608D01*
X142079539Y-72266554D01*
X142015892Y-72249500D01*
X141884108Y-72249500D01*
X141756812Y-72283608D01*
X141642686Y-72349500D01*
X141642683Y-72349502D01*
X141549502Y-72442683D01*
X141549500Y-72442686D01*
X141483608Y-72556812D01*
X141449500Y-72684108D01*
X127070500Y-72684108D01*
X127070500Y-71600730D01*
X127067646Y-71570300D01*
X127067646Y-71570298D01*
X127022793Y-71442119D01*
X127022792Y-71442117D01*
X126942150Y-71332850D01*
X126832882Y-71252207D01*
X126832880Y-71252206D01*
X126704700Y-71207353D01*
X126674270Y-71204500D01*
X126674266Y-71204500D01*
X125325734Y-71204500D01*
X125325730Y-71204500D01*
X125295300Y-71207353D01*
X125295298Y-71207353D01*
X125167119Y-71252206D01*
X125167117Y-71252207D01*
X125057850Y-71332850D01*
X124977207Y-71442117D01*
X124977206Y-71442119D01*
X124932353Y-71570298D01*
X124932353Y-71570300D01*
X124929500Y-71600730D01*
X113500500Y-71600730D01*
X113500500Y-56934108D01*
X132399500Y-56934108D01*
X132399500Y-57065892D01*
X132416554Y-57129539D01*
X132433608Y-57193187D01*
X132455013Y-57230261D01*
X132499500Y-57307314D01*
X132592686Y-57400500D01*
X132706814Y-57466392D01*
X132834108Y-57500500D01*
X132834110Y-57500500D01*
X132965890Y-57500500D01*
X132965892Y-57500500D01*
X133093186Y-57466392D01*
X133207314Y-57400500D01*
X133300500Y-57307314D01*
X133366392Y-57193186D01*
X133400500Y-57065892D01*
X133400500Y-56934108D01*
X133899500Y-56934108D01*
X133899500Y-57065892D01*
X133916554Y-57129539D01*
X133933608Y-57193187D01*
X133955013Y-57230261D01*
X133999500Y-57307314D01*
X134092686Y-57400500D01*
X134206814Y-57466392D01*
X134334108Y-57500500D01*
X134334110Y-57500500D01*
X134465890Y-57500500D01*
X134465892Y-57500500D01*
X134593186Y-57466392D01*
X134707314Y-57400500D01*
X134800500Y-57307314D01*
X134866392Y-57193186D01*
X134900500Y-57065892D01*
X134900500Y-56934108D01*
X134866392Y-56806814D01*
X134866389Y-56806808D01*
X134855520Y-56787982D01*
X134855519Y-56787981D01*
X134824415Y-56734108D01*
X154899500Y-56734108D01*
X154899500Y-56865891D01*
X154933608Y-56993187D01*
X154966554Y-57050250D01*
X154999500Y-57107314D01*
X155092686Y-57200500D01*
X155206814Y-57266392D01*
X155334108Y-57300500D01*
X155334110Y-57300500D01*
X155465890Y-57300500D01*
X155465892Y-57300500D01*
X155593186Y-57266392D01*
X155707314Y-57200500D01*
X155800500Y-57107314D01*
X155866392Y-56993186D01*
X155900500Y-56865892D01*
X155900500Y-56734108D01*
X156299500Y-56734108D01*
X156299500Y-56865891D01*
X156333608Y-56993187D01*
X156366554Y-57050250D01*
X156399500Y-57107314D01*
X156492686Y-57200500D01*
X156606814Y-57266392D01*
X156734108Y-57300500D01*
X156734110Y-57300500D01*
X156865890Y-57300500D01*
X156865892Y-57300500D01*
X156993186Y-57266392D01*
X157107314Y-57200500D01*
X157200500Y-57107314D01*
X157266392Y-56993186D01*
X157300500Y-56865892D01*
X157300500Y-56734108D01*
X157266392Y-56606814D01*
X157200500Y-56492686D01*
X157107314Y-56399500D01*
X157050250Y-56366554D01*
X156993187Y-56333608D01*
X156929539Y-56316554D01*
X156865892Y-56299500D01*
X156734108Y-56299500D01*
X156606812Y-56333608D01*
X156492686Y-56399500D01*
X156492683Y-56399502D01*
X156399502Y-56492683D01*
X156399500Y-56492686D01*
X156333608Y-56606812D01*
X156299500Y-56734108D01*
X155900500Y-56734108D01*
X155866392Y-56606814D01*
X155800500Y-56492686D01*
X155707314Y-56399500D01*
X155650250Y-56366554D01*
X155593187Y-56333608D01*
X155529539Y-56316554D01*
X155465892Y-56299500D01*
X155334108Y-56299500D01*
X155206812Y-56333608D01*
X155092686Y-56399500D01*
X155092683Y-56399502D01*
X154999502Y-56492683D01*
X154999500Y-56492686D01*
X154933608Y-56606812D01*
X154899500Y-56734108D01*
X134824415Y-56734108D01*
X134800500Y-56692686D01*
X134707314Y-56599500D01*
X134650250Y-56566554D01*
X134593187Y-56533608D01*
X134529539Y-56516554D01*
X134465892Y-56499500D01*
X134334108Y-56499500D01*
X134206812Y-56533608D01*
X134092686Y-56599500D01*
X134092683Y-56599502D01*
X133999502Y-56692683D01*
X133999500Y-56692686D01*
X133933608Y-56806812D01*
X133917778Y-56865892D01*
X133899500Y-56934108D01*
X133400500Y-56934108D01*
X133366392Y-56806814D01*
X133300500Y-56692686D01*
X133207314Y-56599500D01*
X133150250Y-56566554D01*
X133093187Y-56533608D01*
X133029539Y-56516554D01*
X132965892Y-56499500D01*
X132834108Y-56499500D01*
X132706812Y-56533608D01*
X132592686Y-56599500D01*
X132592683Y-56599502D01*
X132499502Y-56692683D01*
X132499500Y-56692686D01*
X132433608Y-56806812D01*
X132417778Y-56865892D01*
X132399500Y-56934108D01*
X113500500Y-56934108D01*
X113500500Y-54411181D01*
X126325195Y-54411181D01*
X126325195Y-54584172D01*
X126352258Y-54755039D01*
X126352258Y-54755042D01*
X126405714Y-54919563D01*
X126484253Y-55073703D01*
X126585937Y-55213660D01*
X126708262Y-55335985D01*
X126848218Y-55437668D01*
X127002358Y-55516207D01*
X127155816Y-55566067D01*
X127166884Y-55569664D01*
X127337748Y-55596727D01*
X127337749Y-55596727D01*
X127510741Y-55596727D01*
X127510742Y-55596727D01*
X127681606Y-55569664D01*
X127681609Y-55569663D01*
X127681610Y-55569663D01*
X127846131Y-55516207D01*
X127846131Y-55516206D01*
X127846134Y-55516206D01*
X128000272Y-55437668D01*
X128140228Y-55335985D01*
X128262553Y-55213660D01*
X128364236Y-55073704D01*
X128442774Y-54919566D01*
X128495477Y-54757362D01*
X128496231Y-54755042D01*
X128496231Y-54755041D01*
X128496232Y-54755038D01*
X128523295Y-54584174D01*
X128523295Y-54413504D01*
X148800950Y-54413504D01*
X148800950Y-54586495D01*
X148828013Y-54757362D01*
X148828013Y-54757365D01*
X148881469Y-54921886D01*
X148960008Y-55076026D01*
X149061692Y-55215983D01*
X149184016Y-55338307D01*
X149323973Y-55439991D01*
X149478113Y-55518530D01*
X149631571Y-55568390D01*
X149642639Y-55571987D01*
X149813503Y-55599050D01*
X149813504Y-55599050D01*
X149986496Y-55599050D01*
X149986497Y-55599050D01*
X150157361Y-55571987D01*
X150157364Y-55571986D01*
X150157365Y-55571986D01*
X150321886Y-55518530D01*
X150321886Y-55518529D01*
X150321889Y-55518529D01*
X150476027Y-55439991D01*
X150615983Y-55338308D01*
X150738308Y-55215983D01*
X150839991Y-55076027D01*
X150918529Y-54921889D01*
X150971987Y-54757361D01*
X150999050Y-54586497D01*
X150999050Y-54413503D01*
X150971987Y-54242639D01*
X150971986Y-54242635D01*
X150971986Y-54242634D01*
X150918530Y-54078113D01*
X150839991Y-53923973D01*
X150738307Y-53784016D01*
X150615983Y-53661692D01*
X150476026Y-53560008D01*
X150321886Y-53481469D01*
X150157363Y-53428013D01*
X150043451Y-53409971D01*
X149986497Y-53400950D01*
X149813503Y-53400950D01*
X149756548Y-53409971D01*
X149642637Y-53428013D01*
X149642634Y-53428013D01*
X149478113Y-53481469D01*
X149323973Y-53560008D01*
X149184016Y-53661692D01*
X149061692Y-53784016D01*
X148960008Y-53923973D01*
X148881469Y-54078113D01*
X148828013Y-54242634D01*
X148828013Y-54242637D01*
X148800950Y-54413504D01*
X128523295Y-54413504D01*
X128523295Y-54411180D01*
X128496232Y-54240316D01*
X128496231Y-54240312D01*
X128496231Y-54240311D01*
X128442775Y-54075790D01*
X128364236Y-53921650D01*
X128262553Y-53781694D01*
X128140228Y-53659369D01*
X128000271Y-53557685D01*
X127846131Y-53479146D01*
X127681608Y-53425690D01*
X127525408Y-53400950D01*
X127510742Y-53398627D01*
X127337748Y-53398627D01*
X127323082Y-53400950D01*
X127166882Y-53425690D01*
X127166879Y-53425690D01*
X127002358Y-53479146D01*
X126848218Y-53557685D01*
X126708261Y-53659369D01*
X126585937Y-53781693D01*
X126484253Y-53921650D01*
X126405714Y-54075790D01*
X126352258Y-54240311D01*
X126352258Y-54240314D01*
X126325195Y-54411181D01*
X113500500Y-54411181D01*
X113500500Y-47624500D01*
X113520185Y-47557461D01*
X113572989Y-47511706D01*
X113624500Y-47500500D01*
X177375500Y-47500500D01*
X177442539Y-47520185D01*
G37*
%TD.AperFunction*%
%TD*%
M02*
