%TF.GenerationSoftware,KiCad,Pcbnew,10.0.1*%
%TF.CreationDate,2026-05-25T09:19:08+02:00*%
%TF.ProjectId,swr_meter,7377725f-6d65-4746-9572-2e6b69636164,rev?*%
%TF.SameCoordinates,Original*%
%TF.FileFunction,Copper,L1,Top*%
%TF.FilePolarity,Positive*%
%FSLAX46Y46*%
G04 Gerber Fmt 4.6, Leading zero omitted, Abs format (unit mm)*
G04 Created by KiCad (PCBNEW 10.0.1) date 2026-05-25 09:19:08*
%MOMM*%
%LPD*%
G01*
G04 APERTURE LIST*
G04 Aperture macros list*
%AMRoundRect*
0 Rectangle with rounded corners*
0 $1 Rounding radius*
0 $2 $3 $4 $5 $6 $7 $8 $9 X,Y pos of 4 corners*
0 Add a 4 corners polygon primitive as box body*
4,1,4,$2,$3,$4,$5,$6,$7,$8,$9,$2,$3,0*
0 Add four circle primitives for the rounded corners*
1,1,$1+$1,$2,$3*
1,1,$1+$1,$4,$5*
1,1,$1+$1,$6,$7*
1,1,$1+$1,$8,$9*
0 Add four rect primitives between the rounded corners*
20,1,$1+$1,$2,$3,$4,$5,0*
20,1,$1+$1,$4,$5,$6,$7,0*
20,1,$1+$1,$6,$7,$8,$9,0*
20,1,$1+$1,$8,$9,$2,$3,0*%
G04 Aperture macros list end*
%TA.AperFunction,ComponentPad*%
%ADD10C,1.998980*%
%TD*%
%TA.AperFunction,ComponentPad*%
%ADD11C,2.499360*%
%TD*%
%TA.AperFunction,SMDPad,CuDef*%
%ADD12RoundRect,0.237500X0.237500X-0.300000X0.237500X0.300000X-0.237500X0.300000X-0.237500X-0.300000X0*%
%TD*%
%TA.AperFunction,ComponentPad*%
%ADD13C,3.600000*%
%TD*%
%TA.AperFunction,ConnectorPad*%
%ADD14C,5.500000*%
%TD*%
%TA.AperFunction,SMDPad,CuDef*%
%ADD15RoundRect,0.237500X0.300000X0.237500X-0.300000X0.237500X-0.300000X-0.237500X0.300000X-0.237500X0*%
%TD*%
%TA.AperFunction,ComponentPad*%
%ADD16C,1.500000*%
%TD*%
%TA.AperFunction,SMDPad,CuDef*%
%ADD17RoundRect,0.237500X-0.250000X-0.237500X0.250000X-0.237500X0.250000X0.237500X-0.250000X0.237500X0*%
%TD*%
%TA.AperFunction,SMDPad,CuDef*%
%ADD18RoundRect,0.250000X0.350000X-0.275000X0.350000X0.275000X-0.350000X0.275000X-0.350000X-0.275000X0*%
%TD*%
%TA.AperFunction,SMDPad,CuDef*%
%ADD19RoundRect,0.237500X-0.237500X0.300000X-0.237500X-0.300000X0.237500X-0.300000X0.237500X0.300000X0*%
%TD*%
%TA.AperFunction,SMDPad,CuDef*%
%ADD20RoundRect,0.237500X0.250000X0.237500X-0.250000X0.237500X-0.250000X-0.237500X0.250000X-0.237500X0*%
%TD*%
%TA.AperFunction,SMDPad,CuDef*%
%ADD21R,1.525000X0.650000*%
%TD*%
%TA.AperFunction,SMDPad,CuDef*%
%ADD22RoundRect,0.250000X-0.475000X0.337500X-0.475000X-0.337500X0.475000X-0.337500X0.475000X0.337500X0*%
%TD*%
%TA.AperFunction,SMDPad,CuDef*%
%ADD23RoundRect,0.250000X-0.350000X-0.450000X0.350000X-0.450000X0.350000X0.450000X-0.350000X0.450000X0*%
%TD*%
%TA.AperFunction,SMDPad,CuDef*%
%ADD24RoundRect,0.250000X0.275000X0.350000X-0.275000X0.350000X-0.275000X-0.350000X0.275000X-0.350000X0*%
%TD*%
%TA.AperFunction,SMDPad,CuDef*%
%ADD25R,0.400000X1.050000*%
%TD*%
%TA.AperFunction,SMDPad,CuDef*%
%ADD26RoundRect,0.250000X0.475000X-0.337500X0.475000X0.337500X-0.475000X0.337500X-0.475000X-0.337500X0*%
%TD*%
%TA.AperFunction,SMDPad,CuDef*%
%ADD27RoundRect,0.250000X-0.337500X-0.475000X0.337500X-0.475000X0.337500X0.475000X-0.337500X0.475000X0*%
%TD*%
%TA.AperFunction,ComponentPad*%
%ADD28C,1.600000*%
%TD*%
%TA.AperFunction,ComponentPad*%
%ADD29RoundRect,0.250000X0.620000X0.845000X-0.620000X0.845000X-0.620000X-0.845000X0.620000X-0.845000X0*%
%TD*%
%TA.AperFunction,ComponentPad*%
%ADD30O,1.740000X2.190000*%
%TD*%
%TA.AperFunction,SMDPad,CuDef*%
%ADD31R,0.600000X1.100000*%
%TD*%
%TA.AperFunction,SMDPad,CuDef*%
%ADD32R,1.400000X4.000000*%
%TD*%
%TA.AperFunction,SMDPad,CuDef*%
%ADD33R,1.500000X4.000000*%
%TD*%
%TA.AperFunction,SMDPad,CuDef*%
%ADD34RoundRect,0.250000X-0.550000X1.050000X-0.550000X-1.050000X0.550000X-1.050000X0.550000X1.050000X0*%
%TD*%
%TA.AperFunction,SMDPad,CuDef*%
%ADD35RoundRect,0.237500X-0.237500X0.250000X-0.237500X-0.250000X0.237500X-0.250000X0.237500X0.250000X0*%
%TD*%
%TA.AperFunction,ComponentPad*%
%ADD36RoundRect,0.760000X-1.140000X1.140000X-1.140000X-1.140000X1.140000X-1.140000X1.140000X1.140000X0*%
%TD*%
%TA.AperFunction,ComponentPad*%
%ADD37C,4.000000*%
%TD*%
%TA.AperFunction,ComponentPad*%
%ADD38RoundRect,0.250000X-0.620000X-0.845000X0.620000X-0.845000X0.620000X0.845000X-0.620000X0.845000X0*%
%TD*%
%TA.AperFunction,SMDPad,CuDef*%
%ADD39R,1.200000X0.450000*%
%TD*%
%TA.AperFunction,ComponentPad*%
%ADD40RoundRect,0.250000X-0.600000X0.600000X-0.600000X-0.600000X0.600000X-0.600000X0.600000X0.600000X0*%
%TD*%
%TA.AperFunction,ComponentPad*%
%ADD41C,1.700000*%
%TD*%
%TA.AperFunction,ComponentPad*%
%ADD42RoundRect,0.250001X0.499999X-0.499999X0.499999X0.499999X-0.499999X0.499999X-0.499999X-0.499999X0*%
%TD*%
%TA.AperFunction,ViaPad*%
%ADD43C,0.600000*%
%TD*%
%TA.AperFunction,Conductor*%
%ADD44C,0.350000*%
%TD*%
%TA.AperFunction,Conductor*%
%ADD45C,1.400000*%
%TD*%
%TA.AperFunction,Conductor*%
%ADD46C,0.400000*%
%TD*%
%TA.AperFunction,Conductor*%
%ADD47C,1.000000*%
%TD*%
%TA.AperFunction,Conductor*%
%ADD48C,0.800000*%
%TD*%
%TA.AperFunction,Conductor*%
%ADD49C,0.440000*%
%TD*%
G04 APERTURE END LIST*
D10*
%TO.P,X3,1,In_1*%
%TO.N,Net-(U8-RF2)*%
X127424245Y-54497677D03*
D11*
%TO.P,X3,2,Ext_2*%
%TO.N,GND*%
X129964245Y-57037677D03*
X129964245Y-51957677D03*
X124884245Y-57037677D03*
X124884245Y-51957677D03*
%TD*%
D12*
%TO.P,C2,1*%
%TO.N,GND*%
X152400000Y-70462500D03*
%TO.P,C2,2*%
%TO.N,Net-(U1-INM)*%
X152400000Y-68737500D03*
%TD*%
D13*
%TO.P,H203,1,1_1*%
%TO.N,GND*%
X117500000Y-52500000D03*
D14*
X117500000Y-52500000D03*
%TD*%
D15*
%TO.P,C22,1*%
%TO.N,GND*%
X163462500Y-69600000D03*
%TO.P,C22,2*%
%TO.N,Net-(U1-ENB)*%
X161737500Y-69600000D03*
%TD*%
D16*
%TO.P,LS1,1,+_1*%
%TO.N,+3.3V*%
X156603570Y-93016821D03*
%TO.P,LS1,2,-_2*%
%TO.N,PiezoAlarm*%
X156603570Y-85416821D03*
%TD*%
D12*
%TO.P,C4,1*%
%TO.N,GND*%
X130400000Y-70462500D03*
%TO.P,C4,2*%
%TO.N,Net-(U2-INM)*%
X130400000Y-68737500D03*
%TD*%
D17*
%TO.P,R4,1*%
%TO.N,Net-(C1-Pad1)*%
X160287500Y-64750000D03*
%TO.P,R4,2*%
%TO.N,GND*%
X162112500Y-64750000D03*
%TD*%
D18*
%TO.P,FB1,1*%
%TO.N,+3.3V*%
X130059854Y-84192091D03*
%TO.P,FB1,2*%
%TO.N,Net-(U3-VIN)*%
X130059854Y-81892091D03*
%TD*%
D19*
%TO.P,C19,1*%
%TO.N,Net-(U7-RFC)*%
X160500000Y-61425000D03*
%TO.P,C19,2*%
%TO.N,Net-(C1-Pad1)*%
X160500000Y-63150000D03*
%TD*%
D20*
%TO.P,R7,1*%
%TO.N,Net-(U7-RFC)*%
X159612500Y-59887500D03*
%TO.P,R7,2*%
%TO.N,Net-(L2-Pad1)*%
X157787500Y-59887500D03*
%TD*%
%TO.P,R11,1*%
%TO.N,Net-(C1-Pad1)*%
X159225000Y-64750000D03*
%TO.P,R11,2*%
%TO.N,Net-(L4-Pad1)*%
X157400000Y-64750000D03*
%TD*%
D21*
%TO.P,U2,1,INM_1*%
%TO.N,Net-(U2-INM)*%
X132288000Y-68695000D03*
%TO.P,U2,2,COM_2*%
%TO.N,GND*%
X132288000Y-69965000D03*
%TO.P,U2,3,OFS_3*%
%TO.N,unconnected-(U2-OFS-Pad3)*%
X132288000Y-71235000D03*
%TO.P,U2,4,OUT_4*%
%TO.N,Net-(J1-Pin_1)*%
X132288000Y-72505000D03*
%TO.P,U2,5,INT_5*%
%TO.N,unconnected-(U2-INT-Pad5)*%
X137712000Y-72505000D03*
%TO.P,U2,6,ENB_6*%
%TO.N,Net-(U2-ENB)*%
X137712000Y-71235000D03*
%TO.P,U2,7,VPS_7*%
X137712000Y-69965000D03*
%TO.P,U2,8,INP_8*%
%TO.N,Net-(U2-INP)*%
X137712000Y-68695000D03*
%TD*%
D19*
%TO.P,C1,1*%
%TO.N,Net-(C1-Pad1)*%
X159800000Y-65737500D03*
%TO.P,C1,2*%
%TO.N,Net-(U1-INP)*%
X159800000Y-67462500D03*
%TD*%
D12*
%TO.P,C21,1*%
%TO.N,Net-(U8-~{CTRL_OR_VDD})*%
X140200000Y-56462500D03*
%TO.P,C21,2*%
%TO.N,GND*%
X140200000Y-54737500D03*
%TD*%
D22*
%TO.P,C12,1*%
%TO.N,Net-(U3-VIN)*%
X132059854Y-82004591D03*
%TO.P,C12,2*%
%TO.N,GND*%
X132059854Y-84079591D03*
%TD*%
D21*
%TO.P,U1,1,INM_1*%
%TO.N,Net-(U1-INM)*%
X154369242Y-68798868D03*
%TO.P,U1,2,COM_2*%
%TO.N,GND*%
X154369242Y-70068868D03*
%TO.P,U1,3,OFS_3*%
%TO.N,unconnected-(U1-OFS-Pad3)*%
X154369242Y-71338868D03*
%TO.P,U1,4,OUT_4*%
%TO.N,Net-(J2-Pin_1)*%
X154369242Y-72608868D03*
%TO.P,U1,5,INT_5*%
%TO.N,unconnected-(U1-INT-Pad5)*%
X159793242Y-72608868D03*
%TO.P,U1,6,ENB_6*%
%TO.N,Net-(U1-ENB)*%
X159793242Y-71338868D03*
%TO.P,U1,7,VPS_7*%
X159793242Y-70068868D03*
%TO.P,U1,8,INP_8*%
%TO.N,Net-(U1-INP)*%
X159793242Y-68798868D03*
%TD*%
D23*
%TO.P,R13,1*%
%TO.N,+3.3V*%
X119000000Y-95000000D03*
%TO.P,R13,2*%
%TO.N,Net-(U4-SCL)*%
X121000000Y-95000000D03*
%TD*%
D24*
%TO.P,L1,1*%
%TO.N,Net-(L1-Pad1)*%
X134385903Y-59984380D03*
%TO.P,L1,2*%
%TO.N,GND*%
X132085903Y-59984380D03*
%TD*%
D25*
%TO.P,U8,1,RF1_1*%
%TO.N,Net-(U8-RF1)*%
X138492886Y-54545662D03*
%TO.P,U8,2,GND_2*%
%TO.N,GND*%
X137842886Y-54545662D03*
%TO.P,U8,3,RF2_3*%
%TO.N,Net-(U8-RF2)*%
X137192886Y-54545662D03*
%TO.P,U8,4,CTRL_4*%
%TO.N,Net-(U7-CTRL)*%
X137192886Y-56445662D03*
%TO.P,U8,5,RFC_5*%
%TO.N,Net-(U8-RFC)*%
X137842886Y-56445662D03*
%TO.P,U8,6,~{CTRL_OR_VDD}_6*%
%TO.N,Net-(U8-~{CTRL_OR_VDD})*%
X138492886Y-56445662D03*
%TD*%
D24*
%TO.P,FB6,1*%
%TO.N,+3.3V*%
X143991427Y-56390326D03*
%TO.P,FB6,2*%
%TO.N,Net-(U8-~{CTRL_OR_VDD})*%
X141691427Y-56390326D03*
%TD*%
D15*
%TO.P,C23,1*%
%TO.N,GND*%
X141462500Y-69600000D03*
%TO.P,C23,2*%
%TO.N,Net-(U2-ENB)*%
X139737500Y-69600000D03*
%TD*%
D22*
%TO.P,C9,1*%
%TO.N,+5V*%
X136559854Y-82004591D03*
%TO.P,C9,2*%
%TO.N,GND*%
X136559854Y-84079591D03*
%TD*%
D24*
%TO.P,FB2,1*%
%TO.N,Net-(U7-CTRL)*%
X145350000Y-86000000D03*
%TO.P,FB2,2*%
%TO.N,InputSelect*%
X143050000Y-86000000D03*
%TD*%
D26*
%TO.P,C25,1*%
%TO.N,+5V*%
X166000000Y-90000000D03*
%TO.P,C25,2*%
%TO.N,GND*%
X166000000Y-87925000D03*
%TD*%
D20*
%TO.P,R8,1*%
%TO.N,Net-(U8-RFC)*%
X137549833Y-59984380D03*
%TO.P,R8,2*%
%TO.N,Net-(L1-Pad1)*%
X135724833Y-59984380D03*
%TD*%
D26*
%TO.P,C15,1*%
%TO.N,+5V*%
X167984529Y-89985480D03*
%TO.P,C15,2*%
%TO.N,GND*%
X167984529Y-87910480D03*
%TD*%
D20*
%TO.P,R12,1*%
%TO.N,Net-(C18-Pad2)*%
X137399746Y-64595937D03*
%TO.P,R12,2*%
%TO.N,Net-(L3-Pad1)*%
X135574746Y-64595937D03*
%TD*%
D24*
%TO.P,FB3,1*%
%TO.N,+5V*%
X141950000Y-71000000D03*
%TO.P,FB3,2*%
%TO.N,Net-(U2-ENB)*%
X139650000Y-71000000D03*
%TD*%
D13*
%TO.P,H202,1,1_1*%
%TO.N,GND*%
X172500000Y-111802405D03*
D14*
X172500000Y-111802405D03*
%TD*%
D12*
%TO.P,C5,1*%
%TO.N,GND*%
X152400000Y-74262500D03*
%TO.P,C5,2*%
%TO.N,Net-(J2-Pin_1)*%
X152400000Y-72537500D03*
%TD*%
D24*
%TO.P,L3,1*%
%TO.N,Net-(L3-Pad1)*%
X134385903Y-64686985D03*
%TO.P,L3,2*%
%TO.N,GND*%
X132085903Y-64686985D03*
%TD*%
D27*
%TO.P,C16,1*%
%TO.N,+5V*%
X115762500Y-86000000D03*
%TO.P,C16,2*%
%TO.N,GND*%
X117837500Y-86000000D03*
%TD*%
D28*
%TO.P,U5,1,GND_1*%
%TO.N,GND*%
X115300000Y-104000000D03*
%TO.P,U5,2,0_RX1_CRX2_CS1_2*%
%TO.N,/UIO0*%
X117840000Y-104000000D03*
%TO.P,U5,3,1_TX1_CTX2_MISO1_3*%
%TO.N,/UIO1*%
X120380000Y-104000000D03*
%TO.P,U5,4,2_OUT2_4*%
%TO.N,unconnected-(U5-2_OUT2-Pad4)*%
X122920000Y-104000000D03*
%TO.P,U5,5,3_LRCLK2_5*%
%TO.N,unconnected-(U5-3_LRCLK2-Pad5)*%
X125460000Y-104000000D03*
%TO.P,U5,6,4_BCLK2_6*%
%TO.N,SWR-Alarm*%
X128000000Y-104000000D03*
%TO.P,U5,7,5_IN2_7*%
%TO.N,/UIO3*%
X130540000Y-104000000D03*
%TO.P,U5,8,6_OUT1D_8*%
%TO.N,/UIO4*%
X133080000Y-104000000D03*
%TO.P,U5,9,7_RX2_OUT1A_9*%
%TO.N,/UIO5*%
X135620000Y-104000000D03*
%TO.P,U5,10,8_TX2_IN1_10*%
%TO.N,RA8875-33*%
X138160000Y-104000000D03*
%TO.P,U5,11,9_OUT1C_11*%
%TO.N,/UIO6*%
X140700000Y-104000000D03*
%TO.P,U5,12,10_CS_MQSR_12*%
%TO.N,RA8875-5*%
X143240000Y-104000000D03*
%TO.P,U5,13,11_MOSI_CTX1_13*%
%TO.N,RA8875-7*%
X145780000Y-104000000D03*
%TO.P,U5,14,12_MISO_MQSL_14*%
%TO.N,RA8875-6*%
X148320000Y-104000000D03*
%TO.P,U5,20,13_SCK_CRX1_LED_20*%
%TO.N,RA8875-8*%
X148320000Y-88760000D03*
%TO.P,U5,21,14_A0_TX3_SPDIF_OUT_21*%
%TO.N,PiezoAlarm*%
X145780000Y-88760000D03*
%TO.P,U5,22,15_A1_RX3_SPDIF_IN_22*%
%TO.N,InputSelect*%
X143240000Y-88760000D03*
%TO.P,U5,23,16_A2_RX4_SCL1_23*%
%TO.N,RA8875-35*%
X140700000Y-88760000D03*
%TO.P,U5,24,17_A3_TX4_SDA1_24*%
%TO.N,RA8875-34*%
X138160000Y-88760000D03*
%TO.P,U5,25,18_A4_SDA0_25*%
%TO.N,Net-(U4-SDA)*%
X135620000Y-88760000D03*
%TO.P,U5,26,19_A5_SCL0_26*%
%TO.N,Net-(U4-SCL)*%
X133080000Y-88760000D03*
%TO.P,U5,27,20_A6_TX5_LRCLK1_27*%
%TO.N,unconnected-(U5-20_A6_TX5_LRCLK1-Pad27)*%
X130540000Y-88760000D03*
%TO.P,U5,28,21_A7_RX5_BCLK1_28*%
%TO.N,unconnected-(U5-21_A7_RX5_BCLK1-Pad28)*%
X128000000Y-88760000D03*
%TO.P,U5,29,22_A8_CTX1_29*%
%TO.N,unconnected-(U5-22_A8_CTX1-Pad29)*%
X125460000Y-88760000D03*
%TO.P,U5,30,23_A9_CRX1_MCLK1_30*%
%TO.N,unconnected-(U5-23_A9_CRX1_MCLK1-Pad30)*%
X122920000Y-88760000D03*
%TO.P,U5,31,3V3_31*%
%TO.N,+3.3V*%
X120380000Y-88760000D03*
%TO.P,U5,32,GND_32*%
%TO.N,GND*%
X117840000Y-88760000D03*
%TO.P,U5,33,VIN_33*%
%TO.N,+5V*%
X115300000Y-88760000D03*
%TD*%
D10*
%TO.P,X2,1,In_1*%
%TO.N,Net-(U7-RF2)*%
X149900000Y-54500000D03*
D11*
%TO.P,X2,2,Ext_2*%
%TO.N,GND*%
X152440000Y-57040000D03*
X152440000Y-51960000D03*
X147360000Y-57040000D03*
X147360000Y-51960000D03*
%TD*%
D29*
%TO.P,J1,1,Pin_1_1*%
%TO.N,Net-(J1-Pin_1)*%
X126000000Y-72500000D03*
D30*
%TO.P,J1,2,Pin_2_2*%
%TO.N,GND*%
X123460000Y-72500000D03*
%TD*%
D13*
%TO.P,H204,1,1_1*%
%TO.N,GND*%
X172500000Y-52500000D03*
D14*
X172500000Y-52500000D03*
%TD*%
D23*
%TO.P,R14,1*%
%TO.N,+3.3V*%
X119000000Y-97000000D03*
%TO.P,R14,2*%
%TO.N,Net-(U4-SDA)*%
X121000000Y-97000000D03*
%TD*%
D25*
%TO.P,U7,1,RF1_1*%
%TO.N,Net-(U7-RF1)*%
X160489664Y-54500000D03*
%TO.P,U7,2,GND_2*%
%TO.N,GND*%
X159839664Y-54500000D03*
%TO.P,U7,3,RF2_3*%
%TO.N,Net-(U7-RF2)*%
X159189664Y-54500000D03*
%TO.P,U7,4,CTRL_4*%
%TO.N,Net-(U7-CTRL)*%
X159189664Y-56400000D03*
%TO.P,U7,5,RFC_5*%
%TO.N,Net-(U7-RFC)*%
X159839664Y-56400000D03*
%TO.P,U7,6,~{CTRL_OR_VDD}_6*%
%TO.N,Net-(U7-~{CTRL_OR_VDD})*%
X160489664Y-56400000D03*
%TD*%
D22*
%TO.P,C11,1*%
%TO.N,Net-(U3-VOUT)*%
X134559854Y-82004591D03*
%TO.P,C11,2*%
%TO.N,GND*%
X134559854Y-84079591D03*
%TD*%
D17*
%TO.P,R5,1*%
%TO.N,Net-(C18-Pad2)*%
X138284453Y-64614350D03*
%TO.P,R5,2*%
%TO.N,GND*%
X140109453Y-64614350D03*
%TD*%
D12*
%TO.P,C20,1*%
%TO.N,Net-(U7-~{CTRL_OR_VDD})*%
X162200000Y-56462500D03*
%TO.P,C20,2*%
%TO.N,GND*%
X162200000Y-54737500D03*
%TD*%
D31*
%TO.P,U3,1,VIN_1*%
%TO.N,Net-(U3-VIN)*%
X130109854Y-80142091D03*
%TO.P,U3,2,VOUT_2*%
%TO.N,Net-(U3-VOUT)*%
X132009854Y-80142091D03*
%TO.P,U3,3,GND_3*%
%TO.N,GND*%
X131059854Y-77942091D03*
%TD*%
D24*
%TO.P,L4,1*%
%TO.N,Net-(L4-Pad1)*%
X156133182Y-64781068D03*
%TO.P,L4,2*%
%TO.N,GND*%
X153833182Y-64781068D03*
%TD*%
D27*
%TO.P,C14,1*%
%TO.N,+3.3V*%
X118962500Y-93000000D03*
%TO.P,C14,2*%
%TO.N,GND*%
X121037500Y-93000000D03*
%TD*%
D24*
%TO.P,FB4,1*%
%TO.N,+5V*%
X163950000Y-71000000D03*
%TO.P,FB4,2*%
%TO.N,Net-(U1-ENB)*%
X161650000Y-71000000D03*
%TD*%
D26*
%TO.P,C26,1*%
%TO.N,GND*%
X143400000Y-92837500D03*
%TO.P,C26,2*%
%TO.N,InputSelect*%
X143400000Y-90762500D03*
%TD*%
D32*
%TO.P,X1,1,In_1*%
%TO.N,Net-(U7-RF1)*%
X160500000Y-49500000D03*
D33*
%TO.P,X1,2,Ext_2*%
%TO.N,GND*%
X157960000Y-49500000D03*
X163040000Y-49500000D03*
%TD*%
D19*
%TO.P,C18,1*%
%TO.N,Net-(U8-RFC)*%
X138393559Y-61484980D03*
%TO.P,C18,2*%
%TO.N,Net-(C18-Pad2)*%
X138393559Y-63209980D03*
%TD*%
D34*
%TO.P,C24,1*%
%TO.N,Net-(J3-Pin_2)*%
X174500000Y-82700000D03*
%TO.P,C24,2*%
%TO.N,GND*%
X174500000Y-86300000D03*
%TD*%
D27*
%TO.P,C13,1*%
%TO.N,+3.3V*%
X119000000Y-99037500D03*
%TO.P,C13,2*%
%TO.N,GND*%
X121075000Y-99037500D03*
%TD*%
D29*
%TO.P,J2,1,Pin_1_1*%
%TO.N,Net-(J2-Pin_1)*%
X148500000Y-72500000D03*
D30*
%TO.P,J2,2,Pin_2_2*%
%TO.N,GND*%
X145960000Y-72500000D03*
%TD*%
D13*
%TO.P,H201,1,1_1*%
%TO.N,GND*%
X117500724Y-111900000D03*
D14*
X117500724Y-111900000D03*
%TD*%
D35*
%TO.P,R9,1*%
%TO.N,Net-(U7-RFC)*%
X159100000Y-61375000D03*
%TO.P,R9,2*%
%TO.N,Net-(C1-Pad1)*%
X159100000Y-63200000D03*
%TD*%
D36*
%TO.P,J3,1,Pin_1_1*%
%TO.N,GND*%
X174300000Y-72600000D03*
D37*
%TO.P,J3,2,Pin_2_2*%
%TO.N,Net-(J3-Pin_2)*%
X174300000Y-77600000D03*
%TD*%
D19*
%TO.P,C3,1*%
%TO.N,Net-(C18-Pad2)*%
X137800000Y-65737500D03*
%TO.P,C3,2*%
%TO.N,Net-(U2-INP)*%
X137800000Y-67462500D03*
%TD*%
D32*
%TO.P,X4,1,In_1*%
%TO.N,Net-(U8-RF1)*%
X138460000Y-49500000D03*
D33*
%TO.P,X4,2,Ext_2*%
%TO.N,GND*%
X135920000Y-49500000D03*
X141000000Y-49500000D03*
%TD*%
D24*
%TO.P,L2,1*%
%TO.N,Net-(L2-Pad1)*%
X156450000Y-59887500D03*
%TO.P,L2,2*%
%TO.N,GND*%
X154150000Y-59887500D03*
%TD*%
%TO.P,FB5,1*%
%TO.N,+3.3V*%
X166150000Y-56400000D03*
%TO.P,FB5,2*%
%TO.N,Net-(U7-~{CTRL_OR_VDD})*%
X163850000Y-56400000D03*
%TD*%
D38*
%TO.P,J5,1,Pin_1_1*%
%TO.N,/UIO0*%
X125269371Y-111000000D03*
D30*
%TO.P,J5,2,Pin_2_2*%
%TO.N,/UIO1*%
X127809371Y-111000000D03*
%TO.P,J5,3,Pin_3_3*%
%TO.N,SWR-Alarm*%
X130349371Y-111000000D03*
%TO.P,J5,4,Pin_4_4*%
%TO.N,/UIO3*%
X132889371Y-111000000D03*
%TO.P,J5,5,Pin_5_5*%
%TO.N,/UIO4*%
X135429371Y-111000000D03*
%TO.P,J5,6,Pin_6_6*%
%TO.N,GND*%
X137969371Y-111000000D03*
%TO.P,J5,7,Pin_7_7*%
%TO.N,/UIO5*%
X140509371Y-111000000D03*
%TO.P,J5,8,Pin_8_8*%
%TO.N,/UIO6*%
X143049371Y-111000000D03*
%TO.P,J5,9,Pin_9_9*%
%TO.N,GND*%
X145589371Y-111000000D03*
%TD*%
D26*
%TO.P,C17,1*%
%TO.N,Net-(J3-Pin_2)*%
X169985879Y-89985480D03*
%TO.P,C17,2*%
%TO.N,GND*%
X169985879Y-87910480D03*
%TD*%
D39*
%TO.P,U4,1,SCL_1*%
%TO.N,Net-(U4-SCL)*%
X141042091Y-81370791D03*
%TO.P,U4,2,SDA_2*%
%TO.N,Net-(U4-SDA)*%
X141042091Y-80720791D03*
%TO.P,U4,3,VIN0_3*%
%TO.N,Net-(J1-Pin_1)*%
X141042091Y-80070791D03*
%TO.P,U4,4,VIN1_4*%
%TO.N,Net-(J2-Pin_1)*%
X141042091Y-79420791D03*
%TO.P,U4,5,VIN2_5*%
%TO.N,GND*%
X138542091Y-79420791D03*
%TO.P,U4,6,VIN3/VREF_6*%
%TO.N,Net-(U3-VOUT)*%
X138542091Y-80070791D03*
%TO.P,U4,7,GND_7*%
%TO.N,GND*%
X138542091Y-80720791D03*
%TO.P,U4,8,VDD_8*%
%TO.N,+5V*%
X138542091Y-81370791D03*
%TD*%
D26*
%TO.P,C10,1*%
%TO.N,Net-(U3-VOUT)*%
X136559854Y-78879591D03*
%TO.P,C10,2*%
%TO.N,GND*%
X136559854Y-76804591D03*
%TD*%
D35*
%TO.P,R10,1*%
%TO.N,Net-(U8-RFC)*%
X136999587Y-61480397D03*
%TO.P,R10,2*%
%TO.N,Net-(C18-Pad2)*%
X136999587Y-63305397D03*
%TD*%
D40*
%TO.P,J4,1,Pin_1_1*%
%TO.N,RA8875-35*%
X168160000Y-101000000D03*
D41*
%TO.P,J4,2,Pin_2_2*%
%TO.N,RA8875-34*%
X168160000Y-103540000D03*
%TO.P,J4,3,Pin_3_3*%
%TO.N,RA8875-33*%
X165620000Y-101000000D03*
%TO.P,J4,4,Pin_4_4*%
%TO.N,RA8875-7*%
X165620000Y-103540000D03*
%TO.P,J4,5,Pin_5_5*%
%TO.N,unconnected-(J4-Pin_5-Pad5)*%
X163080000Y-101000000D03*
%TO.P,J4,6,Pin_6_6*%
%TO.N,RA8875-5*%
X163080000Y-103540000D03*
%TO.P,J4,7,Pin_7_7*%
%TO.N,RA8875-6*%
X160540000Y-101000000D03*
%TO.P,J4,8,Pin_8_8*%
%TO.N,RA8875-8*%
X160540000Y-103540000D03*
%TO.P,J4,9,Pin_9_9*%
%TO.N,GND*%
X158000000Y-101000000D03*
%TO.P,J4,10,Pin_10_10*%
%TO.N,+5V*%
X158000000Y-103540000D03*
%TD*%
D12*
%TO.P,C6,1*%
%TO.N,GND*%
X130400000Y-74262500D03*
%TO.P,C6,2*%
%TO.N,Net-(J1-Pin_1)*%
X130400000Y-72537500D03*
%TD*%
D42*
%TO.P,U201,1,Vin_1*%
%TO.N,Net-(J3-Pin_2)*%
X173615000Y-92317500D03*
D16*
%TO.P,U201,2,GND_2*%
%TO.N,GND*%
X171075000Y-92317500D03*
%TO.P,U201,3,Vout_3*%
%TO.N,+5V*%
X168535000Y-92317500D03*
%TD*%
D43*
%TO.N,GND*%
X131800000Y-99000000D03*
X132600000Y-53400000D03*
X139800000Y-66900000D03*
X154800000Y-55600000D03*
X136500000Y-53400000D03*
X176500000Y-86000000D03*
X176500000Y-93500000D03*
X139800000Y-65600000D03*
X122800000Y-99000000D03*
X157400000Y-53400000D03*
X131600000Y-84800000D03*
X133300000Y-66200000D03*
X157600000Y-61600000D03*
X114400000Y-93400000D03*
X162000000Y-68200000D03*
X162000000Y-63000000D03*
X130000000Y-55600000D03*
X145000000Y-94400000D03*
X155300000Y-66200000D03*
X132600000Y-84800000D03*
X152000000Y-115500000D03*
X176500000Y-61000000D03*
X153500000Y-53400000D03*
X176500000Y-96000000D03*
X154500000Y-115500000D03*
X132000000Y-63400000D03*
X157600000Y-68900000D03*
X176500000Y-51000000D03*
X122000000Y-48500000D03*
X140200000Y-54600000D03*
X164500000Y-115500000D03*
X114500000Y-56000000D03*
X122800000Y-86200000D03*
X146400000Y-94400000D03*
X132600000Y-55600000D03*
X131800000Y-86200000D03*
X176500000Y-111000000D03*
X169500000Y-115500000D03*
X129000000Y-71500000D03*
X162000000Y-59100000D03*
X139800000Y-61700000D03*
X167000000Y-115500000D03*
X134500000Y-115500000D03*
X114500000Y-83500000D03*
X114500000Y-51000000D03*
X135600000Y-58400000D03*
X162200000Y-52000000D03*
X135200000Y-55600000D03*
X130800000Y-90800000D03*
X114500000Y-68500000D03*
X152000000Y-48500000D03*
X139500000Y-115500000D03*
X157000000Y-115500000D03*
X162200000Y-54600000D03*
X152200000Y-55600000D03*
X130800000Y-99000000D03*
X135600000Y-61700000D03*
X143600000Y-94400000D03*
X162000000Y-61700000D03*
X117000000Y-115500000D03*
X132000000Y-66200000D03*
X128800000Y-99000000D03*
X151000000Y-69500000D03*
X154800000Y-53400000D03*
X129800000Y-86200000D03*
X164500000Y-69500000D03*
X151000000Y-70500000D03*
X114500000Y-71000000D03*
X159500000Y-115500000D03*
X149500000Y-115500000D03*
X176500000Y-71000000D03*
X157600000Y-62900000D03*
X155600000Y-58400000D03*
X132000000Y-61200000D03*
X127800000Y-99000000D03*
X174500000Y-115500000D03*
X151000000Y-71500000D03*
X128800000Y-86200000D03*
X133400000Y-58400000D03*
X144500000Y-115500000D03*
X154000000Y-66200000D03*
X114500000Y-96000000D03*
X176500000Y-98500000D03*
X163500000Y-68500000D03*
X153500000Y-55600000D03*
X156600000Y-61200000D03*
X162000000Y-64300000D03*
X135200000Y-53400000D03*
X142000000Y-48500000D03*
X176500000Y-53500000D03*
X114600000Y-80900000D03*
X156600000Y-63400000D03*
X126800000Y-86200000D03*
X133900000Y-53400000D03*
X126800000Y-99000000D03*
X172000000Y-115500000D03*
X129000000Y-68500000D03*
X114500000Y-48500000D03*
X176500000Y-88500000D03*
X123800000Y-86200000D03*
X114500000Y-115500000D03*
X134593242Y-61387378D03*
X114500000Y-53500000D03*
X157600000Y-66300000D03*
X176500000Y-63500000D03*
X131300000Y-53400000D03*
X147000000Y-48500000D03*
X157600000Y-67600000D03*
X169500000Y-48500000D03*
X130000000Y-53400000D03*
X133600000Y-84800000D03*
X135600000Y-66900000D03*
X125800000Y-90800000D03*
X125800000Y-86200000D03*
X140200000Y-53300000D03*
X140200000Y-64600000D03*
X176500000Y-73500000D03*
X129000000Y-69500000D03*
X139800000Y-63000000D03*
X124500000Y-48500000D03*
X123800000Y-99000000D03*
X129000000Y-70500000D03*
X119500000Y-48500000D03*
X129800000Y-90800000D03*
X156600000Y-58400000D03*
X176500000Y-66000000D03*
X114500000Y-106000000D03*
X122800000Y-90800000D03*
X133300000Y-61200000D03*
X176500000Y-58500000D03*
X149500000Y-48500000D03*
X162000000Y-60400000D03*
X114500000Y-101000000D03*
X176500000Y-48500000D03*
X140200000Y-52000000D03*
X129800000Y-99000000D03*
X133900000Y-55600000D03*
X156100000Y-55600000D03*
X127000000Y-115500000D03*
X121800000Y-90800000D03*
X132000000Y-115500000D03*
X119500000Y-115500000D03*
X130800000Y-86200000D03*
X114500000Y-58500000D03*
X114500000Y-76000000D03*
X152200000Y-53400000D03*
X157800000Y-58400000D03*
X162000000Y-65600000D03*
X126800000Y-90800000D03*
X136600000Y-84800000D03*
X162000000Y-66900000D03*
X127800000Y-90800000D03*
X132000000Y-48500000D03*
X155300000Y-61200000D03*
X123800000Y-90800000D03*
X176500000Y-113500000D03*
X114500000Y-98500000D03*
X172000000Y-48500000D03*
X176500000Y-56000000D03*
X134600000Y-63400000D03*
X128800000Y-90800000D03*
X114500000Y-73500000D03*
X133300000Y-63400000D03*
X131300000Y-55600000D03*
X162000000Y-57800000D03*
X134500000Y-48500000D03*
X154500000Y-48500000D03*
X138600000Y-84800000D03*
X129500000Y-115500000D03*
X176500000Y-81000000D03*
X114500000Y-66000000D03*
X117000000Y-48500000D03*
X154000000Y-63400000D03*
X156600000Y-66200000D03*
X124800000Y-90800000D03*
X122000000Y-115500000D03*
X176500000Y-91000000D03*
X144500000Y-48500000D03*
X141500000Y-68500000D03*
X114500000Y-63500000D03*
X154000000Y-61200000D03*
X135600000Y-57400000D03*
X135600000Y-68200000D03*
X176500000Y-103500000D03*
X139800000Y-68200000D03*
X114400000Y-90900000D03*
X174500000Y-48500000D03*
X156100000Y-53400000D03*
X127000000Y-48500000D03*
X158600000Y-52000000D03*
X134600000Y-84800000D03*
X135600000Y-84800000D03*
X114500000Y-61000000D03*
X137000000Y-115500000D03*
X176500000Y-106000000D03*
X176500000Y-101000000D03*
X124500000Y-115500000D03*
X155300000Y-63400000D03*
X114500000Y-108500000D03*
X147000000Y-115500000D03*
X142000000Y-115500000D03*
X124800000Y-86200000D03*
X158600000Y-53300000D03*
X129500000Y-48500000D03*
X124800000Y-99000000D03*
X135600000Y-63000000D03*
X139800000Y-60400000D03*
X167000000Y-48500000D03*
X134600000Y-66200000D03*
X139800000Y-57800000D03*
X157800000Y-57400000D03*
X134600000Y-58400000D03*
X114600000Y-78400000D03*
X162000000Y-115500000D03*
X176500000Y-68500000D03*
X142500000Y-69500000D03*
X164500000Y-48500000D03*
X162200000Y-53300000D03*
X176500000Y-83500000D03*
X137600000Y-84800000D03*
X125800000Y-99000000D03*
X136400000Y-52000000D03*
X176500000Y-108500000D03*
X127800000Y-86200000D03*
X151000000Y-68500000D03*
X135600000Y-66000000D03*
X139800000Y-59100000D03*
X157400000Y-55600000D03*
%TO.N,+3.3V*%
X144000000Y-60000000D03*
X144000000Y-59000000D03*
X166000000Y-59000000D03*
X166000000Y-58000000D03*
X144000000Y-58000000D03*
X166000000Y-60000000D03*
%TO.N,Net-(U7-CTRL)*%
X134400000Y-57000000D03*
X147400000Y-86000000D03*
X155400000Y-56800000D03*
X148400000Y-86000000D03*
X156800000Y-56800000D03*
X132900000Y-57000000D03*
X146600000Y-86000000D03*
%TO.N,+5V*%
X141950000Y-72750000D03*
X164000000Y-74400000D03*
X142000000Y-74200000D03*
X164000000Y-73400000D03*
X163950000Y-72350000D03*
X140200000Y-82800000D03*
X139317766Y-82800001D03*
X142000000Y-75400000D03*
X138317765Y-82800002D03*
%TD*%
%TO.N,Net-(U8-RF2)*%
D44*
X137192886Y-54545662D02*
X127472230Y-54545662D01*
D45*
X127446568Y-54520000D02*
X127424245Y-54497677D01*
D44*
X127472230Y-54545662D02*
X127424245Y-54497677D01*
%TO.N,GND*%
D46*
X159410000Y-53300000D02*
X157960000Y-51850000D01*
X159500000Y-53300000D02*
X159410000Y-53300000D01*
X159839664Y-54500000D02*
X159839664Y-53639664D01*
X135920000Y-51910000D02*
X135920000Y-49500000D01*
X137792886Y-53782886D02*
X135920000Y-51910000D01*
X154369242Y-70068868D02*
X152793632Y-70068868D01*
X159839664Y-53639664D02*
X159500000Y-53300000D01*
X152793632Y-70068868D02*
X152400000Y-70462500D01*
X130897500Y-69965000D02*
X130400000Y-70462500D01*
X137842886Y-53972886D02*
X137792886Y-53922886D01*
X157960000Y-51850000D02*
X157960000Y-49500000D01*
X137842886Y-54545662D02*
X137842886Y-53972886D01*
X132288000Y-69965000D02*
X130897500Y-69965000D01*
X137792886Y-53922886D02*
X137792886Y-53782886D01*
%TO.N,Net-(U1-INM)*%
X154369242Y-68798868D02*
X152461368Y-68798868D01*
X152461368Y-68798868D02*
X152400000Y-68737500D01*
%TO.N,Net-(U1-ENB)*%
X161311132Y-71338868D02*
X161650000Y-71000000D01*
X159793242Y-71338868D02*
X161311132Y-71338868D01*
X161650000Y-71000000D02*
X161650000Y-69687500D01*
X159793242Y-70068868D02*
X161268632Y-70068868D01*
X161268632Y-70068868D02*
X161737500Y-69600000D01*
X161650000Y-69687500D02*
X161737500Y-69600000D01*
%TO.N,+3.3V*%
D47*
X119000000Y-97000000D02*
X119000000Y-95000000D01*
X119000000Y-93037500D02*
X118962500Y-93000000D01*
X143991427Y-56390326D02*
X143991427Y-57991427D01*
X166000000Y-58000000D02*
X166000000Y-59000000D01*
X143991427Y-57991427D02*
X144000000Y-58000000D01*
X143991427Y-58008573D02*
X143991427Y-58991427D01*
X119000000Y-99037500D02*
X119000000Y-97000000D01*
X144000000Y-58000000D02*
X143991427Y-58008573D01*
D48*
X120380000Y-86020000D02*
X120380000Y-88760000D01*
D47*
X143991427Y-58991427D02*
X144000000Y-59000000D01*
D48*
X122207909Y-84192091D02*
X130059854Y-84192091D01*
D47*
X166000000Y-59000000D02*
X166000000Y-60000000D01*
X166150000Y-56400000D02*
X166150000Y-57850000D01*
X166150000Y-57850000D02*
X166000000Y-58000000D01*
X120380000Y-90620000D02*
X120380000Y-88760000D01*
X118962500Y-92037500D02*
X120380000Y-90620000D01*
X118962500Y-93000000D02*
X118962500Y-92037500D01*
X144000000Y-59000000D02*
X144000000Y-60000000D01*
D48*
X122207909Y-84192091D02*
X120380000Y-86020000D01*
D47*
X119000000Y-95000000D02*
X119000000Y-93037500D01*
%TO.N,PiezoAlarm*%
X147000000Y-91800000D02*
X153000000Y-91800000D01*
X145780000Y-88760000D02*
X145780000Y-90580000D01*
X153000000Y-91800000D02*
X156603570Y-88196430D01*
X156603570Y-88196430D02*
X156603570Y-85416821D01*
X145780000Y-90580000D02*
X147000000Y-91800000D01*
%TO.N,Net-(U2-INM)*%
D46*
X130442500Y-68695000D02*
X130400000Y-68737500D01*
X132288000Y-68695000D02*
X130442500Y-68695000D01*
%TO.N,Net-(C1-Pad1)*%
X159225000Y-64750000D02*
X160287500Y-64750000D01*
X159100000Y-63200000D02*
X160450000Y-63200000D01*
X159800000Y-65737500D02*
X159800000Y-63000000D01*
X160450000Y-63200000D02*
X160500000Y-63150000D01*
%TO.N,Net-(U3-VIN)*%
D48*
X131947354Y-81892091D02*
X132059854Y-82004591D01*
D46*
X130109854Y-80142091D02*
X130109854Y-81842091D01*
X130109854Y-81842091D02*
X130059854Y-81892091D01*
D48*
X130059854Y-81892091D02*
X131947354Y-81892091D01*
%TO.N,Net-(U7-RFC)*%
D46*
X160450000Y-61375000D02*
X160500000Y-61425000D01*
X159839664Y-61560336D02*
X159800000Y-61600000D01*
X159100000Y-61375000D02*
X160450000Y-61375000D01*
X159839664Y-56400000D02*
X159839664Y-61560336D01*
%TO.N,Net-(L2-Pad1)*%
X157787500Y-59887500D02*
X156450000Y-59887500D01*
%TO.N,Net-(L4-Pad1)*%
X156164250Y-64750000D02*
X156133182Y-64781068D01*
X157400000Y-64750000D02*
X156164250Y-64750000D01*
%TO.N,Net-(U8-~{CTRL_OR_VDD})*%
X138492886Y-56445662D02*
X140183162Y-56445662D01*
X140200000Y-56462500D02*
X141619253Y-56462500D01*
X141619253Y-56462500D02*
X141691427Y-56390326D01*
X140183162Y-56445662D02*
X140200000Y-56462500D01*
%TO.N,Net-(J1-Pin_1)*%
X139600000Y-77600000D02*
X139600000Y-79800000D01*
X139600000Y-79800000D02*
X139870791Y-80070791D01*
X134505000Y-72505000D02*
X139600000Y-77600000D01*
X139870791Y-80070791D02*
X141042091Y-80070791D01*
X132288000Y-72505000D02*
X134505000Y-72505000D01*
X129925000Y-72500000D02*
X126000000Y-72500000D01*
X132288000Y-72505000D02*
X130432500Y-72505000D01*
X130400000Y-72537500D02*
X129962500Y-72537500D01*
X130432500Y-72505000D02*
X130400000Y-72537500D01*
X129962500Y-72537500D02*
X129925000Y-72500000D01*
%TO.N,Net-(U2-ENB)*%
X137712000Y-71235000D02*
X139415000Y-71235000D01*
X139737500Y-69600000D02*
X139737500Y-70912500D01*
X139737500Y-70912500D02*
X139650000Y-71000000D01*
X139415000Y-71235000D02*
X139650000Y-71000000D01*
X137712000Y-69965000D02*
X139372500Y-69965000D01*
X139372500Y-69965000D02*
X139737500Y-69600000D01*
D44*
X137800000Y-69807000D02*
X137712000Y-69895000D01*
%TO.N,Net-(U2-INP)*%
D46*
X137800000Y-68607000D02*
X137712000Y-68695000D01*
D49*
X137800000Y-67462500D02*
X137800000Y-68607000D01*
%TO.N,Net-(U1-INP)*%
D46*
X159800000Y-68792110D02*
X159793242Y-68798868D01*
X159800000Y-67462500D02*
X159800000Y-68792110D01*
%TO.N,Net-(J2-Pin_1)*%
X152400000Y-72537500D02*
X148537500Y-72537500D01*
X150579209Y-79420791D02*
X151000000Y-79000000D01*
X154369242Y-75569242D02*
X154369242Y-72608868D01*
X152471368Y-72608868D02*
X152400000Y-72537500D01*
X148537500Y-72537500D02*
X148500000Y-72500000D01*
X154369242Y-72608868D02*
X152471368Y-72608868D01*
X151000000Y-78938484D02*
X154369242Y-75569242D01*
X141042091Y-79420791D02*
X150579209Y-79420791D01*
X151000000Y-79000000D02*
X151000000Y-78938484D01*
%TO.N,Net-(U4-SCL)*%
X138800000Y-86000000D02*
X134500000Y-86000000D01*
D47*
X121000000Y-95000000D02*
X131000000Y-95000000D01*
D46*
X134500000Y-86000000D02*
X133080000Y-87420000D01*
X141042091Y-81370791D02*
X141042091Y-83757909D01*
D47*
X131000000Y-95000000D02*
X133080000Y-92920000D01*
D46*
X141042091Y-83757909D02*
X138800000Y-86000000D01*
D47*
X133080000Y-92920000D02*
X133080000Y-88760000D01*
D46*
X133080000Y-87420000D02*
X133080000Y-88760000D01*
%TO.N,Net-(L1-Pad1)*%
D49*
X135724833Y-59984380D02*
X134385903Y-59984380D01*
%TO.N,Net-(U8-RF1)*%
D44*
X138492886Y-54545662D02*
X138492886Y-49532886D01*
X138492886Y-49532886D02*
X138460000Y-49500000D01*
%TO.N,Net-(U7-CTRL)*%
D47*
X147400000Y-86000000D02*
X148400000Y-86000000D01*
D46*
X134954338Y-56445662D02*
X134400000Y-57000000D01*
X157000000Y-56600000D02*
X156800000Y-56800000D01*
X159189664Y-56400000D02*
X158989664Y-56600000D01*
X158989664Y-56600000D02*
X157000000Y-56600000D01*
X137192886Y-56445662D02*
X134954338Y-56445662D01*
D47*
X155400000Y-56800000D02*
X156800000Y-56800000D01*
X145350000Y-86000000D02*
X146600000Y-86000000D01*
X134400000Y-57000000D02*
X132900000Y-57000000D01*
X146600000Y-86000000D02*
X147400000Y-86000000D01*
%TO.N,Net-(U8-RFC)*%
D49*
X137800000Y-61484980D02*
X137004170Y-61484980D01*
D46*
X137842886Y-61442094D02*
X137800000Y-61484980D01*
X138393559Y-61484980D02*
X137800000Y-61484980D01*
X137004170Y-61484980D02*
X136999587Y-61480397D01*
D49*
X137842886Y-56445662D02*
X137842886Y-61442094D01*
%TO.N,+5V*%
D46*
X136559854Y-82004591D02*
X137522354Y-82004591D01*
X138542091Y-81370791D02*
X137193654Y-81370791D01*
X137193654Y-81370791D02*
X136559854Y-82004591D01*
D47*
X115762500Y-86000000D02*
X115762500Y-88297500D01*
D46*
X137522354Y-82004591D02*
X138317765Y-82800002D01*
D47*
X115762500Y-88297500D02*
X115300000Y-88760000D01*
X166000000Y-90000000D02*
X167970009Y-90000000D01*
X142000000Y-74200000D02*
X142000000Y-75400000D01*
X167984529Y-89985480D02*
X167984529Y-91767029D01*
X164000000Y-73400000D02*
X164000000Y-74400000D01*
D46*
X139317767Y-82800000D02*
X139317766Y-82800001D01*
D47*
X164000000Y-72400000D02*
X164000000Y-73400000D01*
D46*
X138317766Y-82800001D02*
X138317765Y-82800002D01*
X139317766Y-82800001D02*
X138317766Y-82800001D01*
D47*
X141950000Y-72750000D02*
X141950000Y-74150000D01*
X163950000Y-71000000D02*
X163950000Y-72350000D01*
X141950000Y-72750000D02*
X142000000Y-72800000D01*
X141950000Y-71000000D02*
X141950000Y-72750000D01*
D46*
X140200000Y-82800000D02*
X139317767Y-82800000D01*
D47*
X167970009Y-90000000D02*
X167984529Y-89985480D01*
X167984529Y-91767029D02*
X168535000Y-92317500D01*
X166014520Y-89985480D02*
X166000000Y-90000000D01*
X141950000Y-74150000D02*
X142000000Y-74200000D01*
D48*
X163950000Y-72350000D02*
X164000000Y-72400000D01*
%TO.N,InputSelect*%
D47*
X143400000Y-88920000D02*
X143240000Y-88760000D01*
X143400000Y-90762500D02*
X143400000Y-88920000D01*
X143050000Y-86000000D02*
X143050000Y-88570000D01*
X143050000Y-88570000D02*
X143240000Y-88760000D01*
%TO.N,Net-(U7-~{CTRL_OR_VDD})*%
D46*
X162200000Y-56462500D02*
X160552164Y-56462500D01*
X163787500Y-56462500D02*
X163850000Y-56400000D01*
X160552164Y-56462500D02*
X160489664Y-56400000D01*
X162200000Y-56462500D02*
X163787500Y-56462500D01*
%TO.N,Net-(C18-Pad2)*%
X137800000Y-63409980D02*
X137600000Y-63209980D01*
D49*
X137800000Y-65737500D02*
X137800000Y-63409980D01*
D46*
X137095004Y-63209980D02*
X136999587Y-63305397D01*
X137600000Y-63209980D02*
X137095004Y-63209980D01*
X138393559Y-63209980D02*
X137600000Y-63209980D01*
%TO.N,Net-(L3-Pad1)*%
X134476951Y-64595937D02*
X134385903Y-64686985D01*
D49*
X135574746Y-64595937D02*
X134476951Y-64595937D01*
%TO.N,/UIO0*%
D48*
X125269371Y-111000000D02*
X125269371Y-108869371D01*
X123900000Y-107500000D02*
X121340000Y-107500000D01*
X125269371Y-108869371D02*
X123900000Y-107500000D01*
X121340000Y-107500000D02*
X117840000Y-104000000D01*
%TO.N,/UIO1*%
X122380000Y-106000000D02*
X120380000Y-104000000D01*
X125000000Y-106000000D02*
X122380000Y-106000000D01*
X127809371Y-108809371D02*
X125000000Y-106000000D01*
X127809371Y-111000000D02*
X127809371Y-108809371D01*
%TO.N,SWR-Alarm*%
X130349371Y-108849371D02*
X128000000Y-106500000D01*
X130349371Y-111000000D02*
X130349371Y-108849371D01*
X128000000Y-106500000D02*
X128000000Y-104000000D01*
%TO.N,/UIO3*%
X130600000Y-107060000D02*
X130540000Y-107000000D01*
X132889371Y-111000000D02*
X132889371Y-109389371D01*
X130600000Y-107100000D02*
X130600000Y-107060000D01*
X132889371Y-109389371D02*
X130600000Y-107100000D01*
X130540000Y-107000000D02*
X130540000Y-104000000D01*
%TO.N,/UIO4*%
X133080000Y-107080000D02*
X133080000Y-104000000D01*
X135429371Y-109429371D02*
X133080000Y-107080000D01*
X135429371Y-111000000D02*
X135429371Y-109429371D01*
%TO.N,/UIO5*%
X140509371Y-111000000D02*
X140509371Y-109009371D01*
X136250000Y-107200000D02*
X135620000Y-106570000D01*
X135620000Y-106570000D02*
X135620000Y-104000000D01*
X140509371Y-109009371D02*
X138700000Y-107200000D01*
X138700000Y-107200000D02*
X136250000Y-107200000D01*
%TO.N,/UIO6*%
X143049371Y-109049371D02*
X140700000Y-106700000D01*
X140700000Y-106700000D02*
X140700000Y-104000000D01*
X143049371Y-111000000D02*
X143049371Y-109049371D01*
%TO.N,RA8875-35*%
D47*
X144400000Y-98200000D02*
X166600000Y-98200000D01*
X166600000Y-98200000D02*
X168160000Y-99760000D01*
X140700000Y-88760000D02*
X140700000Y-94500000D01*
X168160000Y-99760000D02*
X168160000Y-101000000D01*
X140700000Y-94500000D02*
X144400000Y-98200000D01*
%TO.N,RA8875-34*%
X155400000Y-107200000D02*
X166800000Y-107200000D01*
X138160000Y-88760000D02*
X138160000Y-95760000D01*
X149200000Y-101000000D02*
X155400000Y-107200000D01*
X143400000Y-101000000D02*
X149200000Y-101000000D01*
X168160000Y-105840000D02*
X168160000Y-103540000D01*
X138160000Y-95760000D02*
X143400000Y-101000000D01*
X166800000Y-107200000D02*
X168160000Y-105840000D01*
%TO.N,Net-(U4-SDA)*%
D46*
X135620000Y-87380000D02*
X135620000Y-88760000D01*
D47*
X135620000Y-94180000D02*
X135620000Y-88760000D01*
X121000000Y-97000000D02*
X132800000Y-97000000D01*
D46*
X139000000Y-86800000D02*
X136200000Y-86800000D01*
X142042091Y-83757909D02*
X139000000Y-86800000D01*
D47*
X132800000Y-97000000D02*
X135620000Y-94180000D01*
D46*
X141042091Y-80720791D02*
X142017091Y-80720791D01*
X136200000Y-86800000D02*
X135620000Y-87380000D01*
X142017091Y-80720791D02*
X142042091Y-80745791D01*
X142042091Y-80745791D02*
X142042091Y-83757909D01*
%TO.N,Net-(U7-RF2)*%
X159189664Y-54500000D02*
X149900000Y-54500000D01*
%TO.N,Net-(U7-RF1)*%
X160489664Y-54500000D02*
X160489664Y-49510336D01*
X160489664Y-49510336D02*
X160500000Y-49500000D01*
%TO.N,Net-(U3-VOUT)*%
X132009854Y-80142091D02*
X134159854Y-80142091D01*
X136759854Y-80070791D02*
X138542091Y-80070791D01*
X134559854Y-80542091D02*
X134559854Y-82004591D01*
X134231154Y-80070791D02*
X136759854Y-80070791D01*
X134159854Y-80142091D02*
X134559854Y-80542091D01*
X136559854Y-78879591D02*
X136559854Y-79870791D01*
X136559854Y-79870791D02*
X136759854Y-80070791D01*
X134159854Y-80142091D02*
X134231154Y-80070791D01*
%TO.N,Net-(J3-Pin_2)*%
D47*
X169985879Y-89985480D02*
X171282980Y-89985480D01*
X171282980Y-89985480D02*
X172000000Y-90702500D01*
X174500000Y-82700000D02*
X174500000Y-77800000D01*
X174500000Y-77800000D02*
X174300000Y-77600000D01*
X172000000Y-90702500D02*
X173615000Y-92317500D01*
X172000000Y-85200000D02*
X174500000Y-82700000D01*
X172000000Y-90702500D02*
X172000000Y-85200000D01*
%TD*%
%TA.AperFunction,Conductor*%
%TO.N,GND*%
G36*
X139501445Y-89303865D02*
G01*
X139540483Y-89348917D01*
X139587713Y-89441610D01*
X139675819Y-89562877D01*
X139699298Y-89628681D01*
X139699500Y-89635761D01*
X139699500Y-94598544D01*
X139718724Y-94695188D01*
X139737946Y-94791828D01*
X139737948Y-94791832D01*
X139737949Y-94791836D01*
X139748696Y-94817782D01*
X139760038Y-94845164D01*
X139813366Y-94973911D01*
X139813371Y-94973920D01*
X139922860Y-95137781D01*
X139922863Y-95137785D01*
X140066537Y-95281459D01*
X140066559Y-95281479D01*
X143619735Y-98834655D01*
X143619764Y-98834686D01*
X143762214Y-98977136D01*
X143762218Y-98977139D01*
X143926082Y-99086630D01*
X143926084Y-99086630D01*
X143926086Y-99086632D01*
X144045371Y-99136041D01*
X144108164Y-99162051D01*
X144204812Y-99181275D01*
X144269287Y-99194100D01*
X144301458Y-99200500D01*
X144301459Y-99200500D01*
X144301460Y-99200500D01*
X144498540Y-99200500D01*
X166134218Y-99200500D01*
X166201257Y-99220185D01*
X166221899Y-99236819D01*
X166878554Y-99893474D01*
X166890615Y-99915563D01*
X166906121Y-99935395D01*
X166907076Y-99945708D01*
X166912039Y-99954797D01*
X166910243Y-99979903D01*
X166912565Y-100004967D01*
X166907530Y-100017833D01*
X166907055Y-100024489D01*
X166900927Y-100038287D01*
X166898811Y-100042362D01*
X166875186Y-100080666D01*
X166868584Y-100100588D01*
X166864035Y-100109352D01*
X166846407Y-100127734D01*
X166831910Y-100148672D01*
X166822631Y-100152529D01*
X166815676Y-100159783D01*
X166790909Y-100165716D01*
X166767393Y-100175493D01*
X166757500Y-100173721D01*
X166747730Y-100176062D01*
X166723687Y-100167664D01*
X166698618Y-100163174D01*
X166690044Y-100155913D01*
X166681768Y-100153023D01*
X166672241Y-100140838D01*
X166653663Y-100125106D01*
X166650105Y-100120209D01*
X166499786Y-99969890D01*
X166327820Y-99844951D01*
X166138414Y-99748444D01*
X166138413Y-99748443D01*
X166138412Y-99748443D01*
X165936243Y-99682754D01*
X165936241Y-99682753D01*
X165936240Y-99682753D01*
X165774957Y-99657208D01*
X165726287Y-99649500D01*
X165513713Y-99649500D01*
X165465042Y-99657208D01*
X165303760Y-99682753D01*
X165101585Y-99748444D01*
X164912179Y-99844951D01*
X164740213Y-99969890D01*
X164589890Y-100120213D01*
X164464949Y-100292182D01*
X164460484Y-100300946D01*
X164412509Y-100351742D01*
X164344688Y-100368536D01*
X164278553Y-100345998D01*
X164239516Y-100300946D01*
X164235050Y-100292182D01*
X164110109Y-100120213D01*
X163959786Y-99969890D01*
X163787820Y-99844951D01*
X163598414Y-99748444D01*
X163598413Y-99748443D01*
X163598412Y-99748443D01*
X163396243Y-99682754D01*
X163396241Y-99682753D01*
X163396240Y-99682753D01*
X163234957Y-99657208D01*
X163186287Y-99649500D01*
X162973713Y-99649500D01*
X162925042Y-99657208D01*
X162763760Y-99682753D01*
X162561585Y-99748444D01*
X162372179Y-99844951D01*
X162200213Y-99969890D01*
X162049890Y-100120213D01*
X161924949Y-100292182D01*
X161920484Y-100300946D01*
X161872509Y-100351742D01*
X161804688Y-100368536D01*
X161738553Y-100345998D01*
X161699516Y-100300946D01*
X161695050Y-100292182D01*
X161570109Y-100120213D01*
X161419786Y-99969890D01*
X161247820Y-99844951D01*
X161058414Y-99748444D01*
X161058413Y-99748443D01*
X161058412Y-99748443D01*
X160856243Y-99682754D01*
X160856241Y-99682753D01*
X160856240Y-99682753D01*
X160694957Y-99657208D01*
X160646287Y-99649500D01*
X160433713Y-99649500D01*
X160385042Y-99657208D01*
X160223760Y-99682753D01*
X160021585Y-99748444D01*
X159832179Y-99844951D01*
X159660213Y-99969890D01*
X159509890Y-100120213D01*
X159384951Y-100292179D01*
X159288444Y-100481585D01*
X159222753Y-100683760D01*
X159189500Y-100893713D01*
X159189500Y-101106286D01*
X159222753Y-101316239D01*
X159288444Y-101518414D01*
X159384951Y-101707820D01*
X159509890Y-101879786D01*
X159660213Y-102030109D01*
X159832182Y-102155050D01*
X159840946Y-102159516D01*
X159891742Y-102207491D01*
X159908536Y-102275312D01*
X159885998Y-102341447D01*
X159840946Y-102380484D01*
X159832182Y-102384949D01*
X159660213Y-102509890D01*
X159509890Y-102660213D01*
X159384949Y-102832182D01*
X159380484Y-102840946D01*
X159332509Y-102891742D01*
X159264688Y-102908536D01*
X159198553Y-102885998D01*
X159159516Y-102840946D01*
X159155050Y-102832182D01*
X159030109Y-102660213D01*
X158879786Y-102509890D01*
X158707820Y-102384951D01*
X158518414Y-102288444D01*
X158518413Y-102288443D01*
X158518412Y-102288443D01*
X158316243Y-102222754D01*
X158316241Y-102222753D01*
X158316240Y-102222753D01*
X158154957Y-102197208D01*
X158106287Y-102189500D01*
X157893713Y-102189500D01*
X157845042Y-102197208D01*
X157683760Y-102222753D01*
X157481585Y-102288444D01*
X157292179Y-102384951D01*
X157120213Y-102509890D01*
X156969890Y-102660213D01*
X156844951Y-102832179D01*
X156748444Y-103021585D01*
X156682753Y-103223760D01*
X156667766Y-103318386D01*
X156649500Y-103433713D01*
X156649500Y-103646287D01*
X156682754Y-103856243D01*
X156696207Y-103897648D01*
X156748444Y-104058414D01*
X156844951Y-104247820D01*
X156969890Y-104419786D01*
X157120213Y-104570109D01*
X157292179Y-104695048D01*
X157292181Y-104695049D01*
X157292184Y-104695051D01*
X157481588Y-104791557D01*
X157683757Y-104857246D01*
X157893713Y-104890500D01*
X157893714Y-104890500D01*
X158106286Y-104890500D01*
X158106287Y-104890500D01*
X158316243Y-104857246D01*
X158518412Y-104791557D01*
X158707816Y-104695051D01*
X158729789Y-104679086D01*
X158879786Y-104570109D01*
X158879788Y-104570106D01*
X158879792Y-104570104D01*
X159030104Y-104419792D01*
X159030106Y-104419788D01*
X159030109Y-104419786D01*
X159155048Y-104247820D01*
X159155047Y-104247820D01*
X159155051Y-104247816D01*
X159159514Y-104239054D01*
X159207488Y-104188259D01*
X159275308Y-104171463D01*
X159341444Y-104193999D01*
X159380486Y-104239056D01*
X159384951Y-104247820D01*
X159509890Y-104419786D01*
X159660213Y-104570109D01*
X159832179Y-104695048D01*
X159832181Y-104695049D01*
X159832184Y-104695051D01*
X160021588Y-104791557D01*
X160223757Y-104857246D01*
X160433713Y-104890500D01*
X160433714Y-104890500D01*
X160646286Y-104890500D01*
X160646287Y-104890500D01*
X160856243Y-104857246D01*
X161058412Y-104791557D01*
X161247816Y-104695051D01*
X161269789Y-104679086D01*
X161419786Y-104570109D01*
X161419788Y-104570106D01*
X161419792Y-104570104D01*
X161570104Y-104419792D01*
X161570106Y-104419788D01*
X161570109Y-104419786D01*
X161695048Y-104247820D01*
X161695047Y-104247820D01*
X161695051Y-104247816D01*
X161699514Y-104239054D01*
X161747488Y-104188259D01*
X161815308Y-104171463D01*
X161881444Y-104193999D01*
X161920486Y-104239056D01*
X161924951Y-104247820D01*
X162049890Y-104419786D01*
X162200213Y-104570109D01*
X162372179Y-104695048D01*
X162372181Y-104695049D01*
X162372184Y-104695051D01*
X162561588Y-104791557D01*
X162763757Y-104857246D01*
X162973713Y-104890500D01*
X162973714Y-104890500D01*
X163186286Y-104890500D01*
X163186287Y-104890500D01*
X163396243Y-104857246D01*
X163598412Y-104791557D01*
X163787816Y-104695051D01*
X163809789Y-104679086D01*
X163959786Y-104570109D01*
X163959788Y-104570106D01*
X163959792Y-104570104D01*
X164110104Y-104419792D01*
X164110106Y-104419788D01*
X164110109Y-104419786D01*
X164235048Y-104247820D01*
X164235047Y-104247820D01*
X164235051Y-104247816D01*
X164239514Y-104239054D01*
X164287488Y-104188259D01*
X164355308Y-104171463D01*
X164421444Y-104193999D01*
X164460486Y-104239056D01*
X164464951Y-104247820D01*
X164589890Y-104419786D01*
X164740213Y-104570109D01*
X164912179Y-104695048D01*
X164912181Y-104695049D01*
X164912184Y-104695051D01*
X165101588Y-104791557D01*
X165303757Y-104857246D01*
X165513713Y-104890500D01*
X165513714Y-104890500D01*
X165726286Y-104890500D01*
X165726287Y-104890500D01*
X165936243Y-104857246D01*
X166138412Y-104791557D01*
X166327816Y-104695051D01*
X166349789Y-104679086D01*
X166499786Y-104570109D01*
X166499788Y-104570106D01*
X166499792Y-104570104D01*
X166650104Y-104419792D01*
X166650106Y-104419788D01*
X166650109Y-104419786D01*
X166775048Y-104247820D01*
X166775047Y-104247820D01*
X166775051Y-104247816D01*
X166779514Y-104239054D01*
X166827488Y-104188259D01*
X166895308Y-104171463D01*
X166961444Y-104193999D01*
X167000486Y-104239056D01*
X167004951Y-104247820D01*
X167132759Y-104423734D01*
X167131888Y-104424366D01*
X167158357Y-104483401D01*
X167159500Y-104500199D01*
X167159500Y-105374217D01*
X167139815Y-105441256D01*
X167123181Y-105461898D01*
X166421899Y-106163181D01*
X166360576Y-106196666D01*
X166334218Y-106199500D01*
X155865782Y-106199500D01*
X155798743Y-106179815D01*
X155778101Y-106163181D01*
X149981479Y-100366559D01*
X149981459Y-100366537D01*
X149837785Y-100222863D01*
X149837781Y-100222860D01*
X149673920Y-100113371D01*
X149673911Y-100113366D01*
X149594958Y-100080663D01*
X149545165Y-100060038D01*
X149491836Y-100037949D01*
X149491832Y-100037948D01*
X149491828Y-100037946D01*
X149395188Y-100018724D01*
X149298544Y-99999500D01*
X149298541Y-99999500D01*
X143865782Y-99999500D01*
X143798743Y-99979815D01*
X143778101Y-99963181D01*
X139196819Y-95381899D01*
X139163334Y-95320576D01*
X139160500Y-95294218D01*
X139160500Y-89635761D01*
X139180185Y-89568722D01*
X139184165Y-89562899D01*
X139272287Y-89441610D01*
X139319516Y-89348917D01*
X139367489Y-89298123D01*
X139435310Y-89281328D01*
X139501445Y-89303865D01*
G37*
%TD.AperFunction*%
%TA.AperFunction,Conductor*%
G36*
X131881445Y-89303865D02*
G01*
X131920483Y-89348917D01*
X131967713Y-89441610D01*
X132055819Y-89562877D01*
X132079298Y-89628681D01*
X132079500Y-89635761D01*
X132079500Y-92454218D01*
X132059815Y-92521257D01*
X132043181Y-92541899D01*
X130621899Y-93963181D01*
X130560576Y-93996666D01*
X130534218Y-93999500D01*
X121912230Y-93999500D01*
X121845191Y-93979815D01*
X121824549Y-93963181D01*
X121818657Y-93957289D01*
X121818656Y-93957288D01*
X121719410Y-93896073D01*
X121669336Y-93865187D01*
X121669331Y-93865185D01*
X121613423Y-93846659D01*
X121502797Y-93810001D01*
X121502795Y-93810000D01*
X121400010Y-93799500D01*
X120599998Y-93799500D01*
X120599980Y-93799501D01*
X120497203Y-93810000D01*
X120497200Y-93810001D01*
X120330668Y-93865185D01*
X120330659Y-93865189D01*
X120189596Y-93952198D01*
X120181978Y-93954282D01*
X120176011Y-93959453D01*
X120148762Y-93963370D01*
X120122204Y-93970638D01*
X120114669Y-93968273D01*
X120106853Y-93969397D01*
X120081807Y-93957958D01*
X120055541Y-93949715D01*
X120050481Y-93943653D01*
X120043297Y-93940372D01*
X120028410Y-93917208D01*
X120010771Y-93896073D01*
X120008831Y-93886742D01*
X120005523Y-93881594D01*
X120000500Y-93846659D01*
X120000500Y-93767005D01*
X120006794Y-93728001D01*
X120039999Y-93627797D01*
X120050500Y-93525009D01*
X120050499Y-92474992D01*
X120046238Y-92433286D01*
X120059007Y-92364595D01*
X120081912Y-92333006D01*
X121157140Y-91257781D01*
X121220992Y-91162219D01*
X121266632Y-91093914D01*
X121269082Y-91087999D01*
X121334438Y-90930215D01*
X121334439Y-90930211D01*
X121342051Y-90911836D01*
X121380500Y-90718540D01*
X121380500Y-90521460D01*
X121380500Y-89635761D01*
X121400185Y-89568722D01*
X121404165Y-89562899D01*
X121492287Y-89441610D01*
X121539516Y-89348917D01*
X121587489Y-89298123D01*
X121655310Y-89281328D01*
X121721445Y-89303865D01*
X121760483Y-89348917D01*
X121774985Y-89377377D01*
X121807715Y-89441614D01*
X121928028Y-89607213D01*
X122072786Y-89751971D01*
X122190881Y-89837770D01*
X122238390Y-89872287D01*
X122342730Y-89925451D01*
X122420776Y-89965218D01*
X122420778Y-89965218D01*
X122420781Y-89965220D01*
X122525137Y-89999127D01*
X122615465Y-90028477D01*
X122716557Y-90044488D01*
X122817648Y-90060500D01*
X122817649Y-90060500D01*
X123022351Y-90060500D01*
X123022352Y-90060500D01*
X123224534Y-90028477D01*
X123419219Y-89965220D01*
X123601610Y-89872287D01*
X123723556Y-89783689D01*
X123767213Y-89751971D01*
X123767215Y-89751968D01*
X123767219Y-89751966D01*
X123911966Y-89607219D01*
X123911968Y-89607215D01*
X123911971Y-89607213D01*
X124032284Y-89441614D01*
X124032285Y-89441613D01*
X124032287Y-89441610D01*
X124079516Y-89348917D01*
X124127489Y-89298123D01*
X124195310Y-89281328D01*
X124261445Y-89303865D01*
X124300483Y-89348917D01*
X124314985Y-89377377D01*
X124347715Y-89441614D01*
X124468028Y-89607213D01*
X124612786Y-89751971D01*
X124730881Y-89837770D01*
X124778390Y-89872287D01*
X124882730Y-89925451D01*
X124960776Y-89965218D01*
X124960778Y-89965218D01*
X124960781Y-89965220D01*
X125065137Y-89999127D01*
X125155465Y-90028477D01*
X125256557Y-90044488D01*
X125357648Y-90060500D01*
X125357649Y-90060500D01*
X125562351Y-90060500D01*
X125562352Y-90060500D01*
X125764534Y-90028477D01*
X125959219Y-89965220D01*
X126141610Y-89872287D01*
X126263556Y-89783689D01*
X126307213Y-89751971D01*
X126307215Y-89751968D01*
X126307219Y-89751966D01*
X126451966Y-89607219D01*
X126451968Y-89607215D01*
X126451971Y-89607213D01*
X126572284Y-89441614D01*
X126572285Y-89441613D01*
X126572287Y-89441610D01*
X126619516Y-89348917D01*
X126667489Y-89298123D01*
X126735310Y-89281328D01*
X126801445Y-89303865D01*
X126840483Y-89348917D01*
X126854985Y-89377377D01*
X126887715Y-89441614D01*
X127008028Y-89607213D01*
X127152786Y-89751971D01*
X127270881Y-89837770D01*
X127318390Y-89872287D01*
X127422730Y-89925451D01*
X127500776Y-89965218D01*
X127500778Y-89965218D01*
X127500781Y-89965220D01*
X127605137Y-89999127D01*
X127695465Y-90028477D01*
X127796557Y-90044488D01*
X127897648Y-90060500D01*
X127897649Y-90060500D01*
X128102351Y-90060500D01*
X128102352Y-90060500D01*
X128304534Y-90028477D01*
X128499219Y-89965220D01*
X128681610Y-89872287D01*
X128803556Y-89783689D01*
X128847213Y-89751971D01*
X128847215Y-89751968D01*
X128847219Y-89751966D01*
X128991966Y-89607219D01*
X128991968Y-89607215D01*
X128991971Y-89607213D01*
X129112284Y-89441614D01*
X129112285Y-89441613D01*
X129112287Y-89441610D01*
X129159516Y-89348917D01*
X129207489Y-89298123D01*
X129275310Y-89281328D01*
X129341445Y-89303865D01*
X129380483Y-89348917D01*
X129394985Y-89377377D01*
X129427715Y-89441614D01*
X129548028Y-89607213D01*
X129692786Y-89751971D01*
X129810881Y-89837770D01*
X129858390Y-89872287D01*
X129962730Y-89925451D01*
X130040776Y-89965218D01*
X130040778Y-89965218D01*
X130040781Y-89965220D01*
X130145137Y-89999127D01*
X130235465Y-90028477D01*
X130336557Y-90044488D01*
X130437648Y-90060500D01*
X130437649Y-90060500D01*
X130642351Y-90060500D01*
X130642352Y-90060500D01*
X130844534Y-90028477D01*
X131039219Y-89965220D01*
X131221610Y-89872287D01*
X131343556Y-89783689D01*
X131387213Y-89751971D01*
X131387215Y-89751968D01*
X131387219Y-89751966D01*
X131531966Y-89607219D01*
X131531968Y-89607215D01*
X131531971Y-89607213D01*
X131652284Y-89441614D01*
X131652285Y-89441613D01*
X131652287Y-89441610D01*
X131699516Y-89348917D01*
X131747489Y-89298123D01*
X131815310Y-89281328D01*
X131881445Y-89303865D01*
G37*
%TD.AperFunction*%
%TA.AperFunction,Conductor*%
G36*
X136743039Y-47520185D02*
G01*
X136788794Y-47572989D01*
X136800000Y-47624500D01*
X136800000Y-51400000D01*
X137135501Y-51400000D01*
X137202540Y-51419685D01*
X137248295Y-51472489D01*
X137259501Y-51524000D01*
X137259501Y-51547876D01*
X137265908Y-51607483D01*
X137316202Y-51742328D01*
X137316206Y-51742335D01*
X137402452Y-51857544D01*
X137402455Y-51857547D01*
X137517664Y-51943793D01*
X137517671Y-51943797D01*
X137562618Y-51960561D01*
X137652517Y-51994091D01*
X137689257Y-51998041D01*
X137753806Y-52024778D01*
X137793654Y-52082171D01*
X137800000Y-52121330D01*
X137800000Y-53459732D01*
X137780315Y-53526771D01*
X137727511Y-53572526D01*
X137658353Y-53582470D01*
X137632667Y-53575914D01*
X137500372Y-53526572D01*
X137500371Y-53526571D01*
X137500369Y-53526571D01*
X137440759Y-53520162D01*
X137440749Y-53520162D01*
X136945015Y-53520162D01*
X136945009Y-53520163D01*
X136885402Y-53526570D01*
X136750557Y-53576864D01*
X136750550Y-53576868D01*
X136635341Y-53663114D01*
X136564230Y-53758106D01*
X136508296Y-53799976D01*
X136464868Y-53807794D01*
X128471608Y-53801603D01*
X128404584Y-53781866D01*
X128371386Y-53750489D01*
X128362259Y-53737927D01*
X128206321Y-53581989D01*
X128206319Y-53581987D01*
X128053444Y-53470917D01*
X128031492Y-53459732D01*
X127885081Y-53385131D01*
X127705363Y-53326736D01*
X127518731Y-53297177D01*
X127518726Y-53297177D01*
X127329764Y-53297177D01*
X127329759Y-53297177D01*
X127143126Y-53326736D01*
X126963408Y-53385131D01*
X126795045Y-53470917D01*
X126642168Y-53581989D01*
X126508557Y-53715600D01*
X126508552Y-53715606D01*
X126485401Y-53747469D01*
X126485373Y-53747509D01*
X126447210Y-53800036D01*
X126400000Y-53800000D01*
X126400000Y-53865016D01*
X126397485Y-53868478D01*
X126382844Y-53897212D01*
X126382841Y-53897217D01*
X126311699Y-54036840D01*
X126253304Y-54216558D01*
X126223745Y-54403190D01*
X126223745Y-54592163D01*
X126253304Y-54778795D01*
X126311699Y-54958513D01*
X126359061Y-55051465D01*
X126397485Y-55126876D01*
X126400000Y-55130337D01*
X126400000Y-55200000D01*
X126450613Y-55200000D01*
X126508555Y-55279751D01*
X126664494Y-55435690D01*
X126769931Y-55512295D01*
X126817369Y-55546761D01*
X126985090Y-55632218D01*
X126985736Y-55632547D01*
X127165450Y-55690939D01*
X127247170Y-55703882D01*
X127352081Y-55720499D01*
X127352086Y-55720499D01*
X127541054Y-55720499D01*
X127633875Y-55705797D01*
X127727686Y-55690939D01*
X127907400Y-55632547D01*
X128075767Y-55546760D01*
X128228641Y-55435690D01*
X128362258Y-55302073D01*
X128378849Y-55279236D01*
X128383908Y-55272275D01*
X128439239Y-55229610D01*
X128484225Y-55221162D01*
X136428745Y-55221162D01*
X136495784Y-55240847D01*
X136531330Y-55275503D01*
X136539709Y-55287843D01*
X136549090Y-55312993D01*
X136631920Y-55423640D01*
X136633525Y-55426003D01*
X136643372Y-55456648D01*
X136654624Y-55486815D01*
X136653995Y-55489706D01*
X136654900Y-55492523D01*
X136646617Y-55523622D01*
X136639773Y-55555088D01*
X136637150Y-55559167D01*
X136636919Y-55560039D01*
X136636127Y-55560761D01*
X136630207Y-55569971D01*
X136628700Y-55571986D01*
X136549090Y-55678330D01*
X136547859Y-55680586D01*
X136546040Y-55682404D01*
X136543775Y-55685431D01*
X136543339Y-55685105D01*
X136498455Y-55729993D01*
X136439025Y-55745162D01*
X134885341Y-55745162D01*
X134776928Y-55766727D01*
X134776927Y-55766727D01*
X134763469Y-55769404D01*
X134750011Y-55772081D01*
X134750009Y-55772082D01*
X134712670Y-55787548D01*
X134692248Y-55796006D01*
X134622528Y-55824886D01*
X134622524Y-55824888D01*
X134507800Y-55901544D01*
X134507797Y-55901546D01*
X134507795Y-55901549D01*
X134446163Y-55963181D01*
X134384840Y-55996666D01*
X134358482Y-55999500D01*
X132801457Y-55999500D01*
X132608170Y-56037947D01*
X132608160Y-56037950D01*
X132426092Y-56113364D01*
X132426079Y-56113371D01*
X132262218Y-56222860D01*
X132262214Y-56222863D01*
X132122863Y-56362214D01*
X132122860Y-56362218D01*
X132013371Y-56526079D01*
X132013364Y-56526092D01*
X131937950Y-56708160D01*
X131937947Y-56708170D01*
X131899500Y-56901456D01*
X131899500Y-56901459D01*
X131899500Y-57098541D01*
X131899500Y-57098543D01*
X131899499Y-57098543D01*
X131937947Y-57291829D01*
X131937950Y-57291839D01*
X132013364Y-57473907D01*
X132013371Y-57473920D01*
X132122860Y-57637781D01*
X132122863Y-57637785D01*
X132262214Y-57777136D01*
X132262218Y-57777139D01*
X132426079Y-57886628D01*
X132426092Y-57886635D01*
X132608160Y-57962049D01*
X132608165Y-57962051D01*
X132608169Y-57962051D01*
X132608170Y-57962052D01*
X132801456Y-58000500D01*
X132801459Y-58000500D01*
X134498543Y-58000500D01*
X134628582Y-57974632D01*
X134691835Y-57962051D01*
X134838121Y-57901458D01*
X134873907Y-57886635D01*
X134873907Y-57886634D01*
X134873914Y-57886632D01*
X135037782Y-57777139D01*
X135177139Y-57637782D01*
X135286632Y-57473914D01*
X135362051Y-57291835D01*
X135371174Y-57245969D01*
X135403558Y-57184060D01*
X135464273Y-57149486D01*
X135492791Y-57146162D01*
X136055255Y-57146162D01*
X136122294Y-57165847D01*
X136168049Y-57218651D01*
X136179246Y-57268705D01*
X136198275Y-58887913D01*
X136179380Y-58955179D01*
X136127117Y-59001551D01*
X136061683Y-59012728D01*
X136024013Y-59008880D01*
X135425663Y-59008880D01*
X135425645Y-59008881D01*
X135324581Y-59019205D01*
X135317962Y-59020623D01*
X135317786Y-59019802D01*
X135290345Y-59023402D01*
X135130378Y-59021422D01*
X135066821Y-59002971D01*
X134980237Y-58949566D01*
X134813700Y-58894381D01*
X134813698Y-58894380D01*
X134710913Y-58883880D01*
X134060901Y-58883880D01*
X134060883Y-58883881D01*
X133958106Y-58894380D01*
X133958103Y-58894381D01*
X133791569Y-58949566D01*
X133791566Y-58949567D01*
X133734342Y-58984862D01*
X133667714Y-59003313D01*
X133400000Y-59000000D01*
X133400000Y-59373767D01*
X133393706Y-59412770D01*
X133370905Y-59481578D01*
X133370903Y-59481589D01*
X133360403Y-59584363D01*
X133360403Y-60384381D01*
X133360404Y-60384399D01*
X133370903Y-60487176D01*
X133393706Y-60555987D01*
X133400000Y-60594992D01*
X133400000Y-60799999D01*
X133400000Y-60800000D01*
X133463783Y-60799996D01*
X133530822Y-60819676D01*
X133551470Y-60836315D01*
X133642247Y-60927092D01*
X133791569Y-61019194D01*
X133958106Y-61074379D01*
X134060894Y-61084880D01*
X134710911Y-61084879D01*
X134710919Y-61084878D01*
X134710922Y-61084878D01*
X134767205Y-61079128D01*
X134813700Y-61074379D01*
X134980237Y-61019194D01*
X135124812Y-60930019D01*
X135192203Y-60911579D01*
X135228911Y-60917851D01*
X135324580Y-60949554D01*
X135425656Y-60959880D01*
X135909385Y-60959879D01*
X135976424Y-60979563D01*
X136022179Y-61032367D01*
X136032743Y-61096480D01*
X136024087Y-61181207D01*
X136024087Y-61779566D01*
X136024088Y-61779584D01*
X136034412Y-61880649D01*
X136052499Y-61935231D01*
X136086891Y-62039018D01*
X136088679Y-62044412D01*
X136088680Y-62044415D01*
X136178032Y-62189277D01*
X136196493Y-62254673D01*
X136195823Y-62532804D01*
X136177362Y-62597601D01*
X136088682Y-62741374D01*
X136088678Y-62741383D01*
X136068985Y-62800812D01*
X136034413Y-62905144D01*
X136034413Y-62905145D01*
X136034412Y-62905145D01*
X136024087Y-63006212D01*
X136024087Y-63498464D01*
X136004402Y-63565503D01*
X135951598Y-63611258D01*
X135887487Y-63621822D01*
X135873937Y-63620438D01*
X135873928Y-63620437D01*
X135873923Y-63620437D01*
X135873917Y-63620437D01*
X135275576Y-63620437D01*
X135275558Y-63620438D01*
X135174493Y-63630762D01*
X135174486Y-63630764D01*
X135080432Y-63661930D01*
X135010603Y-63664331D01*
X134987176Y-63654374D01*
X134986781Y-63655223D01*
X134980237Y-63652171D01*
X134969210Y-63648517D01*
X134813700Y-63596986D01*
X134813698Y-63596985D01*
X134710913Y-63586485D01*
X134060901Y-63586485D01*
X134060883Y-63586486D01*
X133958106Y-63596985D01*
X133958103Y-63596986D01*
X133791571Y-63652170D01*
X133791566Y-63652172D01*
X133642240Y-63744277D01*
X133622512Y-63764006D01*
X133561189Y-63797490D01*
X133534535Y-63800323D01*
X133400000Y-63799999D01*
X133400000Y-64076372D01*
X133393706Y-64115375D01*
X133370905Y-64184183D01*
X133370903Y-64184194D01*
X133360403Y-64286968D01*
X133360403Y-65086986D01*
X133360404Y-65087004D01*
X133370903Y-65189781D01*
X133393706Y-65258592D01*
X133400000Y-65297597D01*
X133400000Y-65400000D01*
X133406724Y-65406724D01*
X133450863Y-65419685D01*
X133489362Y-65458903D01*
X133518188Y-65505637D01*
X133518191Y-65505641D01*
X133642247Y-65629697D01*
X133791569Y-65721799D01*
X133958106Y-65776984D01*
X134060894Y-65787485D01*
X134710911Y-65787484D01*
X134710919Y-65787483D01*
X134710922Y-65787483D01*
X134767205Y-65781733D01*
X134813700Y-65776984D01*
X134980237Y-65721799D01*
X135129559Y-65629697D01*
X135154285Y-65604970D01*
X135215606Y-65571484D01*
X135254573Y-65569292D01*
X135275569Y-65571437D01*
X135873922Y-65571436D01*
X135873930Y-65571435D01*
X135873933Y-65571435D01*
X135953540Y-65563303D01*
X135974999Y-65561111D01*
X136036996Y-65540566D01*
X136106824Y-65538165D01*
X136166866Y-65573896D01*
X136198059Y-65636417D01*
X136200000Y-65658273D01*
X136200000Y-69605261D01*
X136200000Y-69605262D01*
X136324831Y-69605090D01*
X136391896Y-69624683D01*
X136437724Y-69677424D01*
X136449000Y-69729090D01*
X136449000Y-70337870D01*
X136449001Y-70337876D01*
X136455408Y-70397483D01*
X136505702Y-70532328D01*
X136509954Y-70540114D01*
X136506780Y-70541846D01*
X136525159Y-70591302D01*
X136510225Y-70659557D01*
X136509617Y-70660502D01*
X136505702Y-70667671D01*
X136455410Y-70802513D01*
X136455409Y-70802517D01*
X136449000Y-70862127D01*
X136449000Y-70862134D01*
X136449000Y-70862135D01*
X136449000Y-71607870D01*
X136449001Y-71607876D01*
X136455408Y-71667483D01*
X136505702Y-71802328D01*
X136509954Y-71810114D01*
X136506780Y-71811846D01*
X136525159Y-71861302D01*
X136510225Y-71929557D01*
X136509617Y-71930502D01*
X136505702Y-71937671D01*
X136461713Y-72055614D01*
X136455409Y-72072517D01*
X136449000Y-72132127D01*
X136449000Y-72132134D01*
X136449000Y-72132135D01*
X136449000Y-72877870D01*
X136449001Y-72877876D01*
X136455408Y-72937483D01*
X136505702Y-73072328D01*
X136505706Y-73072335D01*
X136591952Y-73187544D01*
X136591955Y-73187547D01*
X136707164Y-73273793D01*
X136707171Y-73273797D01*
X136842017Y-73324091D01*
X136842016Y-73324091D01*
X136845821Y-73324500D01*
X136901627Y-73330500D01*
X138522372Y-73330499D01*
X138581983Y-73324091D01*
X138716831Y-73273796D01*
X138832046Y-73187546D01*
X138918296Y-73072331D01*
X138968591Y-72937483D01*
X138975000Y-72877873D01*
X138974999Y-72179802D01*
X138994683Y-72112764D01*
X139047487Y-72067009D01*
X139116646Y-72057065D01*
X139137991Y-72062094D01*
X139222203Y-72089999D01*
X139324991Y-72100500D01*
X139975008Y-72100499D01*
X139975016Y-72100498D01*
X139975019Y-72100498D01*
X140031302Y-72094748D01*
X140077797Y-72089999D01*
X140244334Y-72034814D01*
X140393656Y-71942712D01*
X140517712Y-71818656D01*
X140609814Y-71669334D01*
X140664999Y-71502797D01*
X140675500Y-71400009D01*
X140675499Y-70599992D01*
X140675498Y-70599983D01*
X140924500Y-70599983D01*
X140924500Y-71400001D01*
X140924501Y-71400019D01*
X140935000Y-71502796D01*
X140943206Y-71527557D01*
X140949500Y-71566562D01*
X140949500Y-74248544D01*
X140987947Y-74441828D01*
X140987949Y-74441836D01*
X140990061Y-74446936D01*
X140999500Y-74494387D01*
X140999500Y-75498541D01*
X140999500Y-75498543D01*
X140999499Y-75498543D01*
X141037947Y-75691829D01*
X141037950Y-75691839D01*
X141113364Y-75873907D01*
X141113371Y-75873920D01*
X141222860Y-76037781D01*
X141222863Y-76037785D01*
X141362214Y-76177136D01*
X141362218Y-76177139D01*
X141526079Y-76286628D01*
X141526092Y-76286635D01*
X141708160Y-76362049D01*
X141708165Y-76362051D01*
X141708169Y-76362051D01*
X141708170Y-76362052D01*
X141901456Y-76400500D01*
X141901459Y-76400500D01*
X142098543Y-76400500D01*
X142228582Y-76374632D01*
X142291835Y-76362051D01*
X142473914Y-76286632D01*
X142637782Y-76177139D01*
X142777139Y-76037782D01*
X142886632Y-75873914D01*
X142962051Y-75691835D01*
X142988777Y-75557476D01*
X143000500Y-75498543D01*
X143000500Y-74101458D01*
X143000499Y-74101457D01*
X142994121Y-74069389D01*
X142962052Y-73908165D01*
X142955691Y-73892808D01*
X142953333Y-73881967D01*
X142953970Y-73873057D01*
X142950500Y-73855611D01*
X142950500Y-73144389D01*
X142959942Y-73096930D01*
X142962050Y-73091840D01*
X142962052Y-73091836D01*
X143000500Y-72898541D01*
X143000500Y-72701460D01*
X142962052Y-72508165D01*
X142959939Y-72503063D01*
X142950500Y-72455611D01*
X142950500Y-71566561D01*
X142956794Y-71527557D01*
X142964999Y-71502797D01*
X142975500Y-71400009D01*
X142975499Y-70599992D01*
X142974611Y-70591302D01*
X142964999Y-70497203D01*
X142964998Y-70497200D01*
X142909814Y-70330666D01*
X142817712Y-70181344D01*
X142693656Y-70057288D01*
X142544334Y-69965186D01*
X142377797Y-69910001D01*
X142377795Y-69910000D01*
X142275010Y-69899500D01*
X141624998Y-69899500D01*
X141624980Y-69899501D01*
X141522203Y-69910000D01*
X141522200Y-69910001D01*
X141355668Y-69965185D01*
X141355663Y-69965187D01*
X141206342Y-70057289D01*
X141082289Y-70181342D01*
X140990187Y-70330663D01*
X140990186Y-70330666D01*
X140935001Y-70497203D01*
X140935001Y-70497204D01*
X140935000Y-70497204D01*
X140924500Y-70599983D01*
X140675498Y-70599983D01*
X140674611Y-70591302D01*
X140664999Y-70497203D01*
X140664998Y-70497200D01*
X140624713Y-70375630D01*
X140622312Y-70305805D01*
X140636881Y-70271532D01*
X140710908Y-70151516D01*
X140765174Y-69987753D01*
X140775500Y-69886677D01*
X140775499Y-69313324D01*
X140770290Y-69262335D01*
X140765174Y-69212247D01*
X140757057Y-69187752D01*
X140710908Y-69048484D01*
X140620340Y-68901650D01*
X140498350Y-68779660D01*
X140351516Y-68689092D01*
X140187753Y-68634826D01*
X140187751Y-68634825D01*
X140086684Y-68624500D01*
X139411790Y-68624500D01*
X139403199Y-68621977D01*
X139394337Y-68623266D01*
X139370192Y-68612285D01*
X139344751Y-68604815D01*
X139338888Y-68598048D01*
X139330735Y-68594341D01*
X139316358Y-68572048D01*
X139298996Y-68552011D01*
X139296722Y-68541599D01*
X139292868Y-68535623D01*
X139287790Y-68500696D01*
X139287613Y-68388315D01*
X151424500Y-68388315D01*
X151424500Y-69086669D01*
X151424501Y-69086687D01*
X151434825Y-69187752D01*
X151489092Y-69351515D01*
X151489093Y-69351518D01*
X151498151Y-69366203D01*
X151579660Y-69498350D01*
X151701650Y-69620340D01*
X151848484Y-69710908D01*
X152012247Y-69765174D01*
X152113323Y-69775500D01*
X152686676Y-69775499D01*
X152686684Y-69775498D01*
X152686687Y-69775498D01*
X152742030Y-69769844D01*
X152787753Y-69765174D01*
X152951516Y-69710908D01*
X153098350Y-69620340D01*
X153166405Y-69552284D01*
X153227724Y-69518802D01*
X153297416Y-69523786D01*
X153328392Y-69540700D01*
X153343870Y-69552287D01*
X153364410Y-69567663D01*
X153364413Y-69567665D01*
X153499259Y-69617959D01*
X153499258Y-69617959D01*
X153506186Y-69618703D01*
X153558869Y-69624368D01*
X155179614Y-69624367D01*
X155239225Y-69617959D01*
X155374073Y-69567664D01*
X155489288Y-69481414D01*
X155575538Y-69366199D01*
X155625833Y-69231351D01*
X155632242Y-69171741D01*
X155632241Y-68425996D01*
X155625833Y-68366385D01*
X155609326Y-68322128D01*
X155575539Y-68231539D01*
X155575535Y-68231532D01*
X155489289Y-68116323D01*
X155489286Y-68116320D01*
X155374077Y-68030074D01*
X155374070Y-68030070D01*
X155239224Y-67979776D01*
X155239225Y-67979776D01*
X155179625Y-67973369D01*
X155179623Y-67973368D01*
X155179615Y-67973368D01*
X155179606Y-67973368D01*
X153558871Y-67973368D01*
X153558865Y-67973369D01*
X153499257Y-67979777D01*
X153369484Y-68028178D01*
X153299792Y-68033162D01*
X153238470Y-67999676D01*
X153220615Y-67977096D01*
X153220339Y-67976649D01*
X153098351Y-67854661D01*
X153098350Y-67854660D01*
X152951516Y-67764092D01*
X152787753Y-67709826D01*
X152787751Y-67709825D01*
X152686678Y-67699500D01*
X152113330Y-67699500D01*
X152113312Y-67699501D01*
X152012247Y-67709825D01*
X151848484Y-67764092D01*
X151848481Y-67764093D01*
X151701648Y-67854661D01*
X151579661Y-67976648D01*
X151489093Y-68123481D01*
X151489091Y-68123486D01*
X151461719Y-68206088D01*
X151434826Y-68287247D01*
X151434826Y-68287248D01*
X151434825Y-68287248D01*
X151424500Y-68388315D01*
X139287613Y-68388315D01*
X139287608Y-68385362D01*
X139283648Y-65881566D01*
X139280511Y-63898192D01*
X139298974Y-63832901D01*
X139304467Y-63823996D01*
X139358733Y-63660233D01*
X139369059Y-63559157D01*
X139369058Y-62860804D01*
X139358733Y-62759727D01*
X139304467Y-62595964D01*
X139296791Y-62583519D01*
X139278329Y-62518618D01*
X139277789Y-62177604D01*
X139296253Y-62112311D01*
X139304467Y-62098996D01*
X139358733Y-61935233D01*
X139369059Y-61834157D01*
X139369058Y-61135804D01*
X139362783Y-61074379D01*
X139358733Y-61034727D01*
X139343249Y-60988000D01*
X139304467Y-60870964D01*
X139294055Y-60854083D01*
X139275594Y-60789184D01*
X139270255Y-57413500D01*
X139289834Y-57346433D01*
X139342565Y-57300594D01*
X139411708Y-57290541D01*
X139475309Y-57319466D01*
X139481936Y-57325626D01*
X139501650Y-57345340D01*
X139648484Y-57435908D01*
X139812247Y-57490174D01*
X139913323Y-57500500D01*
X140486676Y-57500499D01*
X140486684Y-57500498D01*
X140486687Y-57500498D01*
X140542030Y-57494844D01*
X140587753Y-57490174D01*
X140751516Y-57435908D01*
X140867937Y-57364098D01*
X140935329Y-57345659D01*
X140998128Y-57364098D01*
X141097093Y-57425140D01*
X141263630Y-57480325D01*
X141366418Y-57490826D01*
X142016435Y-57490825D01*
X142016443Y-57490824D01*
X142016446Y-57490824D01*
X142072729Y-57485074D01*
X142119224Y-57480325D01*
X142285761Y-57425140D01*
X142435083Y-57333038D01*
X142559139Y-57208982D01*
X142651241Y-57059660D01*
X142706426Y-56893123D01*
X142716927Y-56790335D01*
X142716926Y-55990318D01*
X142716925Y-55990309D01*
X142965927Y-55990309D01*
X142965927Y-56790327D01*
X142965928Y-56790345D01*
X142976427Y-56893122D01*
X142984633Y-56917883D01*
X142990927Y-56956887D01*
X142990927Y-57910032D01*
X142990927Y-58892887D01*
X142990927Y-59089967D01*
X142997117Y-59121088D01*
X142999500Y-59145277D01*
X142999500Y-60098541D01*
X142999500Y-60098543D01*
X142999499Y-60098543D01*
X143037947Y-60291829D01*
X143037950Y-60291839D01*
X143113364Y-60473907D01*
X143113371Y-60473920D01*
X143222860Y-60637781D01*
X143222863Y-60637785D01*
X143362214Y-60777136D01*
X143362218Y-60777139D01*
X143526079Y-60886628D01*
X143526092Y-60886635D01*
X143708160Y-60962049D01*
X143708165Y-60962051D01*
X143708169Y-60962051D01*
X143708170Y-60962052D01*
X143901456Y-61000500D01*
X143901459Y-61000500D01*
X144098543Y-61000500D01*
X144239451Y-60972471D01*
X144291835Y-60962051D01*
X144441682Y-60899983D01*
X144473907Y-60886635D01*
X144473907Y-60886634D01*
X144473914Y-60886632D01*
X144637782Y-60777139D01*
X144777139Y-60637782D01*
X144886632Y-60473914D01*
X144962051Y-60291835D01*
X145000500Y-60098541D01*
X145000500Y-58901459D01*
X144997003Y-58883881D01*
X144994310Y-58870341D01*
X144991927Y-58846148D01*
X144991927Y-58153850D01*
X144994309Y-58129661D01*
X145000500Y-58098540D01*
X145000500Y-57901460D01*
X144994310Y-57870340D01*
X144991927Y-57846148D01*
X144991927Y-56956887D01*
X144998221Y-56917883D01*
X145006426Y-56893123D01*
X145016927Y-56790335D01*
X145016926Y-55990318D01*
X145009065Y-55913368D01*
X145006426Y-55887529D01*
X145006425Y-55887526D01*
X144989996Y-55837947D01*
X144951241Y-55720992D01*
X144859139Y-55571670D01*
X144735083Y-55447614D01*
X144585761Y-55355512D01*
X144419224Y-55300327D01*
X144419222Y-55300326D01*
X144316437Y-55289826D01*
X143666425Y-55289826D01*
X143666407Y-55289827D01*
X143563630Y-55300326D01*
X143563627Y-55300327D01*
X143397095Y-55355511D01*
X143397090Y-55355513D01*
X143247769Y-55447615D01*
X143123716Y-55571668D01*
X143031614Y-55720989D01*
X143031612Y-55720994D01*
X143016196Y-55767516D01*
X142976428Y-55887529D01*
X142976428Y-55887530D01*
X142976427Y-55887530D01*
X142965927Y-55990309D01*
X142716925Y-55990309D01*
X142709065Y-55913368D01*
X142706426Y-55887529D01*
X142706425Y-55887526D01*
X142689996Y-55837947D01*
X142651241Y-55720992D01*
X142559139Y-55571670D01*
X142435083Y-55447614D01*
X142285761Y-55355512D01*
X142119224Y-55300327D01*
X142119222Y-55300326D01*
X142016437Y-55289826D01*
X141366425Y-55289826D01*
X141366407Y-55289827D01*
X141263630Y-55300326D01*
X141263627Y-55300327D01*
X141097095Y-55355511D01*
X141097090Y-55355513D01*
X141010402Y-55408983D01*
X140968506Y-55434825D01*
X140947765Y-55447618D01*
X140916573Y-55478810D01*
X140855249Y-55512295D01*
X140785558Y-55507309D01*
X140763796Y-55496666D01*
X140751524Y-55489096D01*
X140751518Y-55489093D01*
X140751516Y-55489092D01*
X140587753Y-55434826D01*
X140587751Y-55434825D01*
X140486678Y-55424500D01*
X139913330Y-55424500D01*
X139913312Y-55424501D01*
X139812247Y-55434825D01*
X139648484Y-55489092D01*
X139648481Y-55489093D01*
X139501648Y-55579661D01*
X139374553Y-55706757D01*
X139373593Y-55705797D01*
X139351785Y-55719813D01*
X139325447Y-55738456D01*
X139321840Y-55739057D01*
X139320157Y-55740139D01*
X139285222Y-55745162D01*
X139246747Y-55745162D01*
X139179708Y-55725477D01*
X139142249Y-55685243D01*
X139141998Y-55685432D01*
X139140246Y-55683092D01*
X139137913Y-55680586D01*
X139136683Y-55678336D01*
X139136682Y-55678331D01*
X139055564Y-55569971D01*
X139031147Y-55504510D01*
X139045998Y-55436236D01*
X139055559Y-55421358D01*
X139136682Y-55312993D01*
X139186977Y-55178145D01*
X139193386Y-55118535D01*
X139193386Y-55118509D01*
X139193449Y-55117352D01*
X139193541Y-55117090D01*
X139193741Y-55115234D01*
X139194179Y-55115281D01*
X139216700Y-55051465D01*
X139271880Y-55008606D01*
X139317271Y-55000000D01*
X139400000Y-55000000D01*
X139400000Y-52007610D01*
X139419685Y-51940571D01*
X139449686Y-51908345D01*
X139517546Y-51857546D01*
X139603796Y-51742331D01*
X139654091Y-51607483D01*
X139660500Y-51547873D01*
X139660500Y-51524000D01*
X139680185Y-51456961D01*
X139732989Y-51411206D01*
X139784500Y-51400000D01*
X140000000Y-51400000D01*
X140000000Y-47624500D01*
X140019685Y-47557461D01*
X140072489Y-47511706D01*
X140124000Y-47500500D01*
X158776000Y-47500500D01*
X158843039Y-47520185D01*
X158888794Y-47572989D01*
X158900000Y-47624500D01*
X158900000Y-51500000D01*
X159182970Y-51500000D01*
X159250009Y-51519685D01*
X159295764Y-51572489D01*
X159303342Y-51600116D01*
X159304124Y-51599932D01*
X159305907Y-51607479D01*
X159356202Y-51742328D01*
X159356206Y-51742335D01*
X159442452Y-51857544D01*
X159442455Y-51857547D01*
X159557664Y-51943793D01*
X159557671Y-51943797D01*
X159608337Y-51962694D01*
X159692517Y-51994091D01*
X159692527Y-51994092D01*
X159693671Y-51994363D01*
X159694478Y-51994822D01*
X159699785Y-51996802D01*
X159699464Y-51997661D01*
X159754390Y-52028933D01*
X159786780Y-52090842D01*
X159789164Y-52115042D01*
X159789164Y-53411230D01*
X159769479Y-53478269D01*
X159716675Y-53524024D01*
X159647517Y-53533968D01*
X159621832Y-53527412D01*
X159497152Y-53480910D01*
X159497148Y-53480909D01*
X159497147Y-53480909D01*
X159437537Y-53474500D01*
X159437527Y-53474500D01*
X158941793Y-53474500D01*
X158941787Y-53474501D01*
X158882180Y-53480908D01*
X158747335Y-53531202D01*
X158747328Y-53531206D01*
X158632119Y-53617452D01*
X158632116Y-53617455D01*
X158545871Y-53732663D01*
X158544644Y-53734911D01*
X158542833Y-53736721D01*
X158540552Y-53739769D01*
X158540113Y-53739441D01*
X158495239Y-53784316D01*
X158435715Y-53799485D01*
X150799128Y-53793570D01*
X150732104Y-53773833D01*
X150711543Y-53757252D01*
X150669891Y-53715600D01*
X150615983Y-53661692D01*
X150615979Y-53661689D01*
X150476026Y-53560008D01*
X150321886Y-53481469D01*
X150157363Y-53428013D01*
X150043451Y-53409971D01*
X149986497Y-53400950D01*
X149813503Y-53400950D01*
X149756548Y-53409971D01*
X149642637Y-53428013D01*
X149642634Y-53428013D01*
X149478113Y-53481469D01*
X149323973Y-53560008D01*
X149184016Y-53661692D01*
X149061692Y-53784016D01*
X148960008Y-53923973D01*
X148881469Y-54078113D01*
X148828013Y-54242634D01*
X148828013Y-54242637D01*
X148828013Y-54242639D01*
X148800950Y-54413503D01*
X148800950Y-54586497D01*
X148818992Y-54700406D01*
X148828013Y-54757362D01*
X148828013Y-54757365D01*
X148881469Y-54921886D01*
X148960008Y-55076026D01*
X148999467Y-55130337D01*
X149061692Y-55215983D01*
X149184017Y-55338308D01*
X149298316Y-55421350D01*
X149323973Y-55439991D01*
X149478113Y-55518530D01*
X149608089Y-55560761D01*
X149642639Y-55571987D01*
X149813503Y-55599050D01*
X149813504Y-55599050D01*
X149986496Y-55599050D01*
X149986497Y-55599050D01*
X150157361Y-55571987D01*
X150157364Y-55571986D01*
X150157365Y-55571986D01*
X150321886Y-55518530D01*
X150321886Y-55518529D01*
X150321889Y-55518529D01*
X150476027Y-55439991D01*
X150615983Y-55338308D01*
X150717472Y-55236819D01*
X150778795Y-55203334D01*
X150805153Y-55200500D01*
X158435803Y-55200500D01*
X158440820Y-55201973D01*
X158445943Y-55200915D01*
X158474003Y-55211716D01*
X158502842Y-55220185D01*
X158507579Y-55224642D01*
X158511148Y-55226016D01*
X158519942Y-55236273D01*
X158535842Y-55251232D01*
X158544036Y-55262420D01*
X158545868Y-55267331D01*
X158627366Y-55376199D01*
X158627757Y-55376732D01*
X158639403Y-55408983D01*
X158651402Y-55441153D01*
X158651258Y-55441813D01*
X158651488Y-55442449D01*
X158643850Y-55475870D01*
X158636551Y-55509426D01*
X158635977Y-55510317D01*
X158635922Y-55510562D01*
X158635649Y-55510829D01*
X158626985Y-55524311D01*
X158545867Y-55632669D01*
X158545866Y-55632671D01*
X158495572Y-55767516D01*
X158493289Y-55788757D01*
X158466550Y-55853308D01*
X158409157Y-55893155D01*
X158370000Y-55899500D01*
X157265098Y-55899500D01*
X157217646Y-55890061D01*
X157091839Y-55837950D01*
X157091829Y-55837947D01*
X156898543Y-55799500D01*
X156898541Y-55799500D01*
X155301459Y-55799500D01*
X155301457Y-55799500D01*
X155108170Y-55837947D01*
X155108160Y-55837950D01*
X154926092Y-55913364D01*
X154926079Y-55913371D01*
X154762218Y-56022860D01*
X154762214Y-56022863D01*
X154622863Y-56162214D01*
X154622860Y-56162218D01*
X154513371Y-56326079D01*
X154513364Y-56326092D01*
X154437950Y-56508160D01*
X154437947Y-56508170D01*
X154399500Y-56701456D01*
X154399500Y-56701459D01*
X154399500Y-56898541D01*
X154399500Y-56898543D01*
X154399499Y-56898543D01*
X154437947Y-57091829D01*
X154437950Y-57091839D01*
X154513364Y-57273907D01*
X154513371Y-57273920D01*
X154622860Y-57437781D01*
X154622863Y-57437785D01*
X154762214Y-57577136D01*
X154762218Y-57577139D01*
X154926079Y-57686628D01*
X154926092Y-57686635D01*
X154998766Y-57716737D01*
X155108165Y-57762051D01*
X155108169Y-57762051D01*
X155108170Y-57762052D01*
X155301456Y-57800500D01*
X155301459Y-57800500D01*
X156898543Y-57800500D01*
X157028582Y-57774632D01*
X157091835Y-57762051D01*
X157273914Y-57686632D01*
X157437782Y-57577139D01*
X157577139Y-57437782D01*
X157632045Y-57355608D01*
X157638135Y-57350518D01*
X157641434Y-57343297D01*
X157664562Y-57328433D01*
X157685657Y-57310804D01*
X157695031Y-57308852D01*
X157700212Y-57305523D01*
X157735147Y-57300500D01*
X157984867Y-57300500D01*
X158051906Y-57320185D01*
X158097661Y-57372989D01*
X158108858Y-57423043D01*
X158124881Y-58786543D01*
X158105986Y-58853809D01*
X158053723Y-58900181D01*
X158000890Y-58912000D01*
X157488330Y-58912000D01*
X157488312Y-58912001D01*
X157387247Y-58922325D01*
X157387240Y-58922327D01*
X157292508Y-58953718D01*
X157222680Y-58956119D01*
X157188409Y-58941551D01*
X157044340Y-58852689D01*
X157044335Y-58852687D01*
X157044334Y-58852686D01*
X156877797Y-58797501D01*
X156877795Y-58797500D01*
X156775010Y-58787000D01*
X156124998Y-58787000D01*
X156124980Y-58787001D01*
X156022203Y-58797500D01*
X156022200Y-58797501D01*
X155855668Y-58852685D01*
X155855663Y-58852687D01*
X155706345Y-58944787D01*
X155585260Y-59065871D01*
X155523936Y-59099355D01*
X155496044Y-59102180D01*
X155328975Y-59100112D01*
X155328975Y-60900112D01*
X155784466Y-60900090D01*
X155849563Y-60918550D01*
X155855666Y-60922314D01*
X156022203Y-60977499D01*
X156124991Y-60988000D01*
X156775008Y-60987999D01*
X156775016Y-60987998D01*
X156775019Y-60987998D01*
X156831302Y-60982248D01*
X156877797Y-60977499D01*
X157044334Y-60922314D01*
X157050525Y-60918494D01*
X157115621Y-60900029D01*
X158004671Y-60899988D01*
X158013509Y-60902583D01*
X158022632Y-60901295D01*
X158046501Y-60912268D01*
X158071710Y-60919669D01*
X158077743Y-60926631D01*
X158086114Y-60930480D01*
X158100261Y-60952616D01*
X158117467Y-60972471D01*
X158119776Y-60983151D01*
X158123740Y-60989353D01*
X158128675Y-61024301D01*
X158128663Y-61029058D01*
X158128021Y-61041344D01*
X158124502Y-61075795D01*
X158124500Y-61075827D01*
X158124500Y-61674169D01*
X158124502Y-61674189D01*
X158126391Y-61692684D01*
X158127033Y-61705583D01*
X158122179Y-63720081D01*
X158102333Y-63787073D01*
X158049419Y-63832700D01*
X157980236Y-63842477D01*
X157959175Y-63837488D01*
X157800253Y-63784826D01*
X157800251Y-63784825D01*
X157699178Y-63774500D01*
X157100830Y-63774500D01*
X157100812Y-63774501D01*
X156999747Y-63784825D01*
X156999744Y-63784826D01*
X156918223Y-63811840D01*
X156848394Y-63814242D01*
X156814123Y-63799673D01*
X156727522Y-63746257D01*
X156727517Y-63746255D01*
X156727516Y-63746254D01*
X156560979Y-63691069D01*
X156560977Y-63691068D01*
X156458192Y-63680568D01*
X155808180Y-63680568D01*
X155808162Y-63680569D01*
X155705385Y-63691068D01*
X155705382Y-63691069D01*
X155538850Y-63746253D01*
X155538845Y-63746255D01*
X155389524Y-63838357D01*
X155265471Y-63962410D01*
X155173369Y-64111731D01*
X155173368Y-64111734D01*
X155118183Y-64278271D01*
X155118183Y-64278272D01*
X155118182Y-64278272D01*
X155107682Y-64381051D01*
X155107682Y-65181069D01*
X155107683Y-65181087D01*
X155118182Y-65283864D01*
X155118183Y-65283867D01*
X155163189Y-65419685D01*
X155173368Y-65450402D01*
X155265470Y-65599724D01*
X155389526Y-65723780D01*
X155538848Y-65815882D01*
X155705385Y-65871067D01*
X155808173Y-65881568D01*
X156458190Y-65881567D01*
X156458198Y-65881566D01*
X156458201Y-65881566D01*
X156514484Y-65875816D01*
X156560979Y-65871067D01*
X156727516Y-65815882D01*
X156876838Y-65723780D01*
X156876841Y-65723776D01*
X156879655Y-65722041D01*
X156947047Y-65703601D01*
X156983753Y-65709873D01*
X156999747Y-65715174D01*
X157100823Y-65725500D01*
X157699176Y-65725499D01*
X157699184Y-65725498D01*
X157699187Y-65725498D01*
X157754530Y-65719844D01*
X157800253Y-65715174D01*
X157964016Y-65660908D01*
X157964021Y-65660904D01*
X157965970Y-65660259D01*
X158035798Y-65657857D01*
X158095841Y-65693588D01*
X158127034Y-65756108D01*
X158128975Y-65777965D01*
X158128975Y-69705374D01*
X158406073Y-69704992D01*
X158473138Y-69724584D01*
X158518965Y-69777325D01*
X158530242Y-69828992D01*
X158530242Y-70441738D01*
X158530243Y-70441744D01*
X158536650Y-70501351D01*
X158586944Y-70636196D01*
X158591196Y-70643982D01*
X158588022Y-70645714D01*
X158606401Y-70695170D01*
X158591467Y-70763425D01*
X158590859Y-70764370D01*
X158586944Y-70771539D01*
X158536652Y-70906381D01*
X158536651Y-70906385D01*
X158530242Y-70965995D01*
X158530242Y-70966002D01*
X158530242Y-70966003D01*
X158530242Y-71711738D01*
X158530243Y-71711744D01*
X158536650Y-71771351D01*
X158586944Y-71906196D01*
X158591196Y-71913982D01*
X158588022Y-71915714D01*
X158606401Y-71965170D01*
X158591467Y-72033425D01*
X158590859Y-72034370D01*
X158586944Y-72041539D01*
X158536652Y-72176381D01*
X158536651Y-72176385D01*
X158530242Y-72235995D01*
X158530242Y-72236002D01*
X158530242Y-72236003D01*
X158530242Y-72981738D01*
X158530243Y-72981744D01*
X158536650Y-73041351D01*
X158586944Y-73176196D01*
X158586948Y-73176203D01*
X158673194Y-73291412D01*
X158673197Y-73291415D01*
X158788406Y-73377661D01*
X158788413Y-73377665D01*
X158923259Y-73427959D01*
X158923258Y-73427959D01*
X158930186Y-73428703D01*
X158982869Y-73434368D01*
X160603614Y-73434367D01*
X160663225Y-73427959D01*
X160798073Y-73377664D01*
X160913288Y-73291414D01*
X160999538Y-73176199D01*
X161049833Y-73041351D01*
X161056242Y-72981741D01*
X161056241Y-72235996D01*
X161054429Y-72219141D01*
X161066835Y-72150383D01*
X161114445Y-72099246D01*
X161182145Y-72081967D01*
X161216720Y-72088182D01*
X161222203Y-72089999D01*
X161324991Y-72100500D01*
X161975008Y-72100499D01*
X161975016Y-72100498D01*
X161975019Y-72100498D01*
X162031302Y-72094748D01*
X162077797Y-72089999D01*
X162244334Y-72034814D01*
X162393656Y-71942712D01*
X162517712Y-71818656D01*
X162609814Y-71669334D01*
X162664999Y-71502797D01*
X162675500Y-71400009D01*
X162675499Y-70599992D01*
X162675498Y-70599983D01*
X162924500Y-70599983D01*
X162924500Y-71400001D01*
X162924501Y-71400019D01*
X162935000Y-71502796D01*
X162943206Y-71527557D01*
X162949500Y-71566561D01*
X162949500Y-72448541D01*
X162949500Y-72448543D01*
X162949499Y-72448543D01*
X162987947Y-72641829D01*
X162987948Y-72641831D01*
X162987949Y-72641835D01*
X162990061Y-72646935D01*
X162999500Y-72694386D01*
X162999500Y-73301459D01*
X162999500Y-74498541D01*
X162999500Y-74498543D01*
X162999499Y-74498543D01*
X163037947Y-74691829D01*
X163037950Y-74691839D01*
X163113364Y-74873907D01*
X163113371Y-74873920D01*
X163222860Y-75037781D01*
X163222863Y-75037785D01*
X163362214Y-75177136D01*
X163362218Y-75177139D01*
X163526079Y-75286628D01*
X163526092Y-75286635D01*
X163708160Y-75362049D01*
X163708165Y-75362051D01*
X163708169Y-75362051D01*
X163708170Y-75362052D01*
X163901456Y-75400500D01*
X163901459Y-75400500D01*
X164098543Y-75400500D01*
X164228582Y-75374632D01*
X164291835Y-75362051D01*
X164473914Y-75286632D01*
X164637782Y-75177139D01*
X164777139Y-75037782D01*
X164886632Y-74873914D01*
X164962051Y-74691835D01*
X165000500Y-74498541D01*
X165000500Y-73301459D01*
X165000500Y-72301459D01*
X165000500Y-72301456D01*
X164966819Y-72132135D01*
X164962051Y-72108165D01*
X164959937Y-72103063D01*
X164950500Y-72055614D01*
X164950500Y-71566561D01*
X164956794Y-71527557D01*
X164964999Y-71502797D01*
X164975500Y-71400009D01*
X164975499Y-70599992D01*
X164974611Y-70591302D01*
X164964999Y-70497203D01*
X164964998Y-70497200D01*
X164909814Y-70330666D01*
X164817712Y-70181344D01*
X164693656Y-70057288D01*
X164544334Y-69965186D01*
X164377797Y-69910001D01*
X164377795Y-69910000D01*
X164275010Y-69899500D01*
X163624998Y-69899500D01*
X163624980Y-69899501D01*
X163522203Y-69910000D01*
X163522200Y-69910001D01*
X163355668Y-69965185D01*
X163355663Y-69965187D01*
X163206342Y-70057289D01*
X163082289Y-70181342D01*
X162990187Y-70330663D01*
X162990186Y-70330666D01*
X162935001Y-70497203D01*
X162935001Y-70497204D01*
X162935000Y-70497204D01*
X162924500Y-70599983D01*
X162675498Y-70599983D01*
X162674611Y-70591302D01*
X162664999Y-70497203D01*
X162664998Y-70497200D01*
X162624713Y-70375630D01*
X162622312Y-70305805D01*
X162636881Y-70271532D01*
X162710908Y-70151516D01*
X162765174Y-69987753D01*
X162775500Y-69886677D01*
X162775499Y-69313324D01*
X162770290Y-69262335D01*
X162765174Y-69212247D01*
X162757057Y-69187752D01*
X162710908Y-69048484D01*
X162620340Y-68901650D01*
X162498350Y-68779660D01*
X162351516Y-68689092D01*
X162187753Y-68634826D01*
X162187751Y-68634825D01*
X162086678Y-68624500D01*
X161388330Y-68624500D01*
X161388309Y-68624502D01*
X161353213Y-68628087D01*
X161284521Y-68615317D01*
X161233637Y-68567435D01*
X161216613Y-68504927D01*
X161211575Y-65319700D01*
X161217868Y-65280509D01*
X161265174Y-65137753D01*
X161275500Y-65036677D01*
X161275499Y-64463324D01*
X161265174Y-64362247D01*
X161216059Y-64214031D01*
X161215627Y-64211367D01*
X161214844Y-64210152D01*
X161209766Y-64175225D01*
X161209671Y-64115375D01*
X161209604Y-64073142D01*
X161229182Y-64006073D01*
X161245924Y-63985265D01*
X161268778Y-63962412D01*
X161320340Y-63910850D01*
X161410908Y-63764016D01*
X161465174Y-63600253D01*
X161475500Y-63499177D01*
X161475499Y-62800824D01*
X161465174Y-62699747D01*
X161410908Y-62535984D01*
X161320340Y-62389150D01*
X161306371Y-62375181D01*
X161272886Y-62313858D01*
X161277870Y-62244166D01*
X161306371Y-62199819D01*
X161320340Y-62185850D01*
X161410908Y-62039016D01*
X161465174Y-61875253D01*
X161475500Y-61774177D01*
X161475499Y-61075824D01*
X161475351Y-61074379D01*
X161465174Y-60974747D01*
X161460966Y-60962049D01*
X161410908Y-60810984D01*
X161320340Y-60664150D01*
X161240266Y-60584076D01*
X161206781Y-60522753D01*
X161203947Y-60496600D01*
X161203318Y-60098543D01*
X164999499Y-60098543D01*
X165037947Y-60291829D01*
X165037950Y-60291839D01*
X165113364Y-60473907D01*
X165113371Y-60473920D01*
X165222860Y-60637781D01*
X165222863Y-60637785D01*
X165362214Y-60777136D01*
X165362218Y-60777139D01*
X165526079Y-60886628D01*
X165526092Y-60886635D01*
X165708160Y-60962049D01*
X165708165Y-60962051D01*
X165708169Y-60962051D01*
X165708170Y-60962052D01*
X165901456Y-61000500D01*
X165901459Y-61000500D01*
X166098543Y-61000500D01*
X166239451Y-60972471D01*
X166291835Y-60962051D01*
X166441682Y-60899983D01*
X166473907Y-60886635D01*
X166473907Y-60886634D01*
X166473914Y-60886632D01*
X166637782Y-60777139D01*
X166777139Y-60637782D01*
X166886632Y-60473914D01*
X166962051Y-60291835D01*
X167000500Y-60098541D01*
X167000500Y-58901459D01*
X167000500Y-58415604D01*
X167020185Y-58348565D01*
X167021399Y-58346711D01*
X167036632Y-58323914D01*
X167112051Y-58141835D01*
X167140165Y-58000500D01*
X167150500Y-57948543D01*
X167150500Y-56966561D01*
X167156794Y-56927557D01*
X167164999Y-56902797D01*
X167175500Y-56800009D01*
X167175499Y-55999992D01*
X167174511Y-55990324D01*
X167164999Y-55897203D01*
X167164998Y-55897200D01*
X167161792Y-55887526D01*
X167109814Y-55730666D01*
X167017712Y-55581344D01*
X166893656Y-55457288D01*
X166761361Y-55375688D01*
X166744336Y-55365187D01*
X166744331Y-55365185D01*
X166715137Y-55355511D01*
X166577797Y-55310001D01*
X166577795Y-55310000D01*
X166475010Y-55299500D01*
X165824998Y-55299500D01*
X165824980Y-55299501D01*
X165722203Y-55310000D01*
X165722200Y-55310001D01*
X165555668Y-55365185D01*
X165555663Y-55365187D01*
X165406342Y-55457289D01*
X165282289Y-55581342D01*
X165190187Y-55730663D01*
X165190185Y-55730668D01*
X165167377Y-55799500D01*
X165135001Y-55897203D01*
X165135001Y-55897204D01*
X165135000Y-55897204D01*
X165124500Y-55999983D01*
X165124500Y-56800001D01*
X165124501Y-56800019D01*
X165135000Y-56902796D01*
X165143206Y-56927557D01*
X165149500Y-56966562D01*
X165149500Y-57434395D01*
X165137814Y-57486945D01*
X165133826Y-57495467D01*
X165113368Y-57526086D01*
X165067102Y-57637782D01*
X165066044Y-57640335D01*
X165066038Y-57640349D01*
X165037950Y-57708160D01*
X165037948Y-57708165D01*
X165036310Y-57716403D01*
X165036244Y-57716737D01*
X164999500Y-57901459D01*
X164999500Y-58901459D01*
X164999500Y-60098541D01*
X164999500Y-60098543D01*
X164999499Y-60098543D01*
X161203318Y-60098543D01*
X161198960Y-57342206D01*
X161218539Y-57275138D01*
X161271270Y-57229299D01*
X161340413Y-57219246D01*
X161404014Y-57248171D01*
X161410641Y-57254331D01*
X161501650Y-57345340D01*
X161648484Y-57435908D01*
X161812247Y-57490174D01*
X161913323Y-57500500D01*
X162486676Y-57500499D01*
X162486684Y-57500498D01*
X162486687Y-57500498D01*
X162542030Y-57494844D01*
X162587753Y-57490174D01*
X162751516Y-57435908D01*
X162898350Y-57345340D01*
X162915980Y-57327710D01*
X162977303Y-57294225D01*
X163046995Y-57299209D01*
X163091342Y-57327710D01*
X163106344Y-57342712D01*
X163255666Y-57434814D01*
X163422203Y-57489999D01*
X163524991Y-57500500D01*
X164175008Y-57500499D01*
X164175016Y-57500498D01*
X164175019Y-57500498D01*
X164231302Y-57494748D01*
X164277797Y-57489999D01*
X164444334Y-57434814D01*
X164593656Y-57342712D01*
X164717712Y-57218656D01*
X164809814Y-57069334D01*
X164864999Y-56902797D01*
X164875500Y-56800009D01*
X164875499Y-55999992D01*
X164874511Y-55990324D01*
X164864999Y-55897203D01*
X164864998Y-55897200D01*
X164861792Y-55887526D01*
X164809814Y-55730666D01*
X164717712Y-55581344D01*
X164593656Y-55457288D01*
X164461361Y-55375688D01*
X164444336Y-55365187D01*
X164444331Y-55365185D01*
X164415137Y-55355511D01*
X164277797Y-55310001D01*
X164277795Y-55310000D01*
X164175010Y-55299500D01*
X163524998Y-55299500D01*
X163524980Y-55299501D01*
X163422203Y-55310000D01*
X163422200Y-55310001D01*
X163255668Y-55365185D01*
X163255663Y-55365187D01*
X163106345Y-55457287D01*
X163020636Y-55542996D01*
X162959312Y-55576480D01*
X162889621Y-55571496D01*
X162867862Y-55560855D01*
X162776513Y-55504510D01*
X162751518Y-55489093D01*
X162751513Y-55489091D01*
X162750069Y-55488612D01*
X162587753Y-55434826D01*
X162587751Y-55434825D01*
X162486678Y-55424500D01*
X161913330Y-55424500D01*
X161913312Y-55424501D01*
X161812247Y-55434825D01*
X161648484Y-55489092D01*
X161648481Y-55489093D01*
X161501648Y-55579661D01*
X161379661Y-55701648D01*
X161379660Y-55701650D01*
X161378766Y-55703098D01*
X161377895Y-55703882D01*
X161375179Y-55707317D01*
X161374592Y-55706852D01*
X161371180Y-55709921D01*
X161366942Y-55719203D01*
X161345642Y-55732891D01*
X161326820Y-55749821D01*
X161315184Y-55752465D01*
X161308164Y-55756977D01*
X161273229Y-55762000D01*
X161267793Y-55762000D01*
X161200754Y-55742315D01*
X161154999Y-55689511D01*
X161151611Y-55681333D01*
X161133461Y-55632671D01*
X161133459Y-55632668D01*
X161133369Y-55632548D01*
X161052342Y-55524309D01*
X161027925Y-55458848D01*
X161042776Y-55390574D01*
X161052337Y-55375696D01*
X161133460Y-55267331D01*
X161147529Y-55229610D01*
X161165784Y-55180667D01*
X161207655Y-55124733D01*
X161273119Y-55100316D01*
X161281966Y-55100000D01*
X161500000Y-55100000D01*
X161500000Y-51962694D01*
X161519685Y-51895655D01*
X161549691Y-51863426D01*
X161557546Y-51857546D01*
X161643796Y-51742331D01*
X161694091Y-51607483D01*
X161694091Y-51607481D01*
X161695874Y-51599938D01*
X161698005Y-51600441D01*
X161720487Y-51546184D01*
X161777883Y-51506342D01*
X161817030Y-51500000D01*
X162100000Y-51500000D01*
X162100000Y-47624500D01*
X162119685Y-47557461D01*
X162172489Y-47511706D01*
X162224000Y-47500500D01*
X177375500Y-47500500D01*
X177442539Y-47520185D01*
X177488294Y-47572989D01*
X177499500Y-47624500D01*
X177499500Y-116375500D01*
X177479815Y-116442539D01*
X177427011Y-116488294D01*
X177375500Y-116499500D01*
X113624500Y-116499500D01*
X113557461Y-116479815D01*
X113511706Y-116427011D01*
X113500500Y-116375500D01*
X113500500Y-103897648D01*
X116539500Y-103897648D01*
X116539500Y-104102351D01*
X116571522Y-104304534D01*
X116634781Y-104499223D01*
X116727715Y-104681613D01*
X116848028Y-104847213D01*
X116991323Y-104990508D01*
X117002840Y-105003786D01*
X118108339Y-106477785D01*
X122999999Y-113000000D01*
X123000000Y-113000000D01*
X150000000Y-113000000D01*
X150000000Y-103514282D01*
X150019685Y-103447243D01*
X150072489Y-103401488D01*
X150141647Y-103391544D01*
X150205203Y-103420569D01*
X150211681Y-103426601D01*
X154619735Y-107834655D01*
X154619764Y-107834686D01*
X154762214Y-107977136D01*
X154762218Y-107977139D01*
X154926079Y-108086628D01*
X154926092Y-108086635D01*
X155054833Y-108139961D01*
X155108159Y-108162049D01*
X155108164Y-108162051D01*
X155147659Y-108169907D01*
X155186109Y-108177555D01*
X155301456Y-108200500D01*
X155301459Y-108200500D01*
X166898543Y-108200500D01*
X166935585Y-108193131D01*
X167052341Y-108169907D01*
X167091836Y-108162051D01*
X167145165Y-108139961D01*
X167273914Y-108086632D01*
X167437782Y-107977139D01*
X167577139Y-107837782D01*
X167577139Y-107837780D01*
X167587347Y-107827573D01*
X167587348Y-107827570D01*
X168937139Y-106477782D01*
X168954250Y-106452173D01*
X168987783Y-106401989D01*
X168987783Y-106401988D01*
X169046632Y-106313914D01*
X169092993Y-106201988D01*
X169122051Y-106131836D01*
X169160500Y-105938541D01*
X169160500Y-105741460D01*
X169160500Y-104500199D01*
X169180185Y-104433160D01*
X169189471Y-104420664D01*
X169315048Y-104247820D01*
X169315047Y-104247820D01*
X169315051Y-104247816D01*
X169411557Y-104058412D01*
X169477246Y-103856243D01*
X169510500Y-103646287D01*
X169510500Y-103433713D01*
X169477246Y-103223757D01*
X169411557Y-103021588D01*
X169315051Y-102832184D01*
X169315049Y-102832181D01*
X169315048Y-102832179D01*
X169190109Y-102660213D01*
X169039790Y-102509894D01*
X169039785Y-102509890D01*
X169034891Y-102506334D01*
X168992227Y-102451003D01*
X168986249Y-102381390D01*
X169018857Y-102319595D01*
X169068774Y-102288312D01*
X169079334Y-102284814D01*
X169228656Y-102192712D01*
X169352712Y-102068656D01*
X169444814Y-101919334D01*
X169499999Y-101752797D01*
X169510500Y-101650009D01*
X169510499Y-100349992D01*
X169499999Y-100247203D01*
X169444814Y-100080666D01*
X169352712Y-99931344D01*
X169228656Y-99807288D01*
X169228655Y-99807287D01*
X169219402Y-99801580D01*
X169172678Y-99749632D01*
X169160500Y-99696042D01*
X169160500Y-99661456D01*
X169122052Y-99468170D01*
X169122051Y-99468169D01*
X169122051Y-99468165D01*
X169122049Y-99468160D01*
X169046635Y-99286092D01*
X169046628Y-99286079D01*
X168937139Y-99122218D01*
X168937136Y-99122214D01*
X168794686Y-98979764D01*
X168794655Y-98979735D01*
X167381479Y-97566559D01*
X167381459Y-97566537D01*
X167237785Y-97422863D01*
X167237781Y-97422860D01*
X167073920Y-97313371D01*
X167073911Y-97313366D01*
X167001315Y-97283296D01*
X166945165Y-97260038D01*
X166891836Y-97237949D01*
X166891832Y-97237948D01*
X166891828Y-97237946D01*
X166795188Y-97218724D01*
X166698544Y-97199500D01*
X166698541Y-97199500D01*
X144865782Y-97199500D01*
X144798743Y-97179815D01*
X144778101Y-97163181D01*
X141736819Y-94121899D01*
X141703334Y-94060576D01*
X141700500Y-94034218D01*
X141700500Y-92918398D01*
X155353070Y-92918398D01*
X155353070Y-93115243D01*
X155383860Y-93309647D01*
X155444687Y-93496850D01*
X155511405Y-93627791D01*
X155534046Y-93672226D01*
X155649742Y-93831467D01*
X155788924Y-93970649D01*
X155948165Y-94086345D01*
X156017944Y-94121899D01*
X156123540Y-94175703D01*
X156123542Y-94175703D01*
X156123545Y-94175705D01*
X156213585Y-94204961D01*
X156310743Y-94236530D01*
X156505148Y-94267321D01*
X156505153Y-94267321D01*
X156701992Y-94267321D01*
X156896396Y-94236530D01*
X156914443Y-94230666D01*
X157083595Y-94175705D01*
X157258975Y-94086345D01*
X157418216Y-93970649D01*
X157557398Y-93831467D01*
X157673094Y-93672226D01*
X157762454Y-93496846D01*
X157823279Y-93309647D01*
X157829349Y-93271325D01*
X157854070Y-93115243D01*
X157854070Y-92918398D01*
X157823279Y-92723994D01*
X157786344Y-92610322D01*
X157762454Y-92536796D01*
X157762452Y-92536793D01*
X157762452Y-92536791D01*
X157700863Y-92415917D01*
X157673094Y-92361416D01*
X157557398Y-92202175D01*
X157418216Y-92062993D01*
X157258975Y-91947297D01*
X157223605Y-91929275D01*
X157083599Y-91857938D01*
X156896396Y-91797111D01*
X156701992Y-91766321D01*
X156701987Y-91766321D01*
X156505153Y-91766321D01*
X156505148Y-91766321D01*
X156310743Y-91797111D01*
X156123540Y-91857938D01*
X155948164Y-91947297D01*
X155857311Y-92013306D01*
X155788924Y-92062993D01*
X155788922Y-92062995D01*
X155788921Y-92062995D01*
X155649744Y-92202172D01*
X155649744Y-92202173D01*
X155649742Y-92202175D01*
X155647206Y-92205666D01*
X155534046Y-92361415D01*
X155444687Y-92536791D01*
X155383860Y-92723994D01*
X155353070Y-92918398D01*
X141700500Y-92918398D01*
X141700500Y-89635761D01*
X141720185Y-89568722D01*
X141724165Y-89562899D01*
X141812287Y-89441610D01*
X141859516Y-89348917D01*
X141907489Y-89298123D01*
X141975310Y-89281328D01*
X142041445Y-89303865D01*
X142080483Y-89348917D01*
X142094985Y-89377377D01*
X142127715Y-89441614D01*
X142248028Y-89607213D01*
X142363181Y-89722366D01*
X142377884Y-89749293D01*
X142394477Y-89775112D01*
X142395368Y-89781312D01*
X142396666Y-89783689D01*
X142399500Y-89810047D01*
X142399500Y-89837770D01*
X142379815Y-89904809D01*
X142363181Y-89925451D01*
X142332289Y-89956342D01*
X142240187Y-90105663D01*
X142240186Y-90105666D01*
X142185001Y-90272203D01*
X142185001Y-90272204D01*
X142185000Y-90272204D01*
X142174500Y-90374983D01*
X142174500Y-91150001D01*
X142174501Y-91150019D01*
X142185000Y-91252796D01*
X142185001Y-91252799D01*
X142219577Y-91357140D01*
X142240186Y-91419334D01*
X142332288Y-91568656D01*
X142456344Y-91692712D01*
X142605666Y-91784814D01*
X142772203Y-91839999D01*
X142874991Y-91850500D01*
X143925008Y-91850499D01*
X143925016Y-91850498D01*
X143925019Y-91850498D01*
X143981302Y-91844748D01*
X144027797Y-91839999D01*
X144194334Y-91784814D01*
X144343656Y-91692712D01*
X144467712Y-91568656D01*
X144559814Y-91419334D01*
X144614999Y-91252797D01*
X144625500Y-91150009D01*
X144625499Y-91030610D01*
X144645183Y-90963573D01*
X144697987Y-90917818D01*
X144767145Y-90907874D01*
X144830701Y-90936898D01*
X144864060Y-90983159D01*
X144893366Y-91053910D01*
X144893371Y-91053920D01*
X145002859Y-91217780D01*
X145002860Y-91217781D01*
X145002861Y-91217782D01*
X145142218Y-91357139D01*
X145142219Y-91357139D01*
X145149286Y-91364206D01*
X145149285Y-91364206D01*
X145149289Y-91364209D01*
X146362215Y-92577137D01*
X146362219Y-92577140D01*
X146526079Y-92686628D01*
X146526085Y-92686631D01*
X146526086Y-92686632D01*
X146708165Y-92762052D01*
X146858296Y-92791915D01*
X146901455Y-92800500D01*
X146901458Y-92800501D01*
X146901460Y-92800501D01*
X147104655Y-92800501D01*
X147104675Y-92800500D01*
X153098543Y-92800500D01*
X153141702Y-92791915D01*
X153218167Y-92776704D01*
X153264296Y-92767529D01*
X153291836Y-92762051D01*
X153345165Y-92739961D01*
X153473914Y-92686632D01*
X153637782Y-92577139D01*
X153777139Y-92437782D01*
X153777139Y-92437780D01*
X153787347Y-92427573D01*
X153787348Y-92427570D01*
X156190325Y-90024595D01*
X156602438Y-89612483D01*
X164774500Y-89612483D01*
X164774500Y-90387501D01*
X164774501Y-90387519D01*
X164785000Y-90490296D01*
X164785001Y-90490299D01*
X164795327Y-90521460D01*
X164840186Y-90656834D01*
X164932288Y-90806156D01*
X165056344Y-90930212D01*
X165205666Y-91022314D01*
X165372203Y-91077499D01*
X165474991Y-91088000D01*
X166525008Y-91087999D01*
X166525016Y-91087998D01*
X166525019Y-91087998D01*
X166581302Y-91082248D01*
X166627797Y-91077499D01*
X166794334Y-91022314D01*
X166794926Y-91021948D01*
X166795385Y-91021823D01*
X166800882Y-91019260D01*
X166801319Y-91020198D01*
X166862316Y-91003504D01*
X166928981Y-91024422D01*
X166973754Y-91078061D01*
X166984029Y-91127483D01*
X166984029Y-91865571D01*
X166996700Y-91929275D01*
X166996703Y-91929288D01*
X166997300Y-91932288D01*
X167022478Y-92058865D01*
X167036135Y-92091835D01*
X167039619Y-92100247D01*
X167039621Y-92100253D01*
X167097898Y-92240946D01*
X167207388Y-92404809D01*
X167207389Y-92404810D01*
X167207390Y-92404811D01*
X167268432Y-92465853D01*
X167301916Y-92527174D01*
X167303223Y-92534135D01*
X167315290Y-92610322D01*
X167315291Y-92610326D01*
X167376116Y-92797525D01*
X167465476Y-92972905D01*
X167581172Y-93132146D01*
X167720354Y-93271328D01*
X167879595Y-93387024D01*
X167962455Y-93429243D01*
X168054970Y-93476382D01*
X168054972Y-93476382D01*
X168054975Y-93476384D01*
X168117963Y-93496850D01*
X168242173Y-93537209D01*
X168436578Y-93568000D01*
X168436583Y-93568000D01*
X168633422Y-93568000D01*
X168827826Y-93537209D01*
X169015025Y-93476384D01*
X169190405Y-93387024D01*
X169349646Y-93271328D01*
X169488828Y-93132146D01*
X169604524Y-92972905D01*
X169693884Y-92797525D01*
X169754709Y-92610326D01*
X169766356Y-92536791D01*
X169785500Y-92415922D01*
X169785500Y-92219077D01*
X169754709Y-92024673D01*
X169703013Y-91865571D01*
X169693884Y-91837475D01*
X169693882Y-91837472D01*
X169693882Y-91837470D01*
X169607782Y-91668490D01*
X169604524Y-91662095D01*
X169488828Y-91502854D01*
X169349646Y-91363672D01*
X169227198Y-91274707D01*
X169184534Y-91219379D01*
X169178555Y-91149765D01*
X169211161Y-91087970D01*
X169272000Y-91053613D01*
X169339087Y-91056684D01*
X169358082Y-91062979D01*
X169460870Y-91073480D01*
X170510887Y-91073479D01*
X170510895Y-91073478D01*
X170510898Y-91073478D01*
X170574313Y-91067000D01*
X170613676Y-91062979D01*
X170780213Y-91007794D01*
X170780214Y-91007792D01*
X170787068Y-91005522D01*
X170787810Y-91007763D01*
X170845711Y-90998961D01*
X170909498Y-91027472D01*
X170916735Y-91034156D01*
X171100359Y-91217780D01*
X171222860Y-91340281D01*
X171222861Y-91340282D01*
X171362218Y-91479639D01*
X171362221Y-91479641D01*
X171366560Y-91483980D01*
X172328181Y-92445601D01*
X172361666Y-92506924D01*
X172364500Y-92533282D01*
X172364500Y-92867515D01*
X172375000Y-92970295D01*
X172375001Y-92970297D01*
X172390987Y-93018540D01*
X172430186Y-93136835D01*
X172430187Y-93136837D01*
X172522286Y-93286151D01*
X172522289Y-93286155D01*
X172646344Y-93410210D01*
X172646348Y-93410213D01*
X172795662Y-93502312D01*
X172795664Y-93502313D01*
X172795666Y-93502314D01*
X172962203Y-93557499D01*
X173064992Y-93568000D01*
X173064997Y-93568000D01*
X174165003Y-93568000D01*
X174165008Y-93568000D01*
X174267797Y-93557499D01*
X174434334Y-93502314D01*
X174583655Y-93410211D01*
X174707711Y-93286155D01*
X174799814Y-93136834D01*
X174854999Y-92970297D01*
X174865500Y-92867508D01*
X174865500Y-91767492D01*
X174854999Y-91664703D01*
X174799814Y-91498166D01*
X174788386Y-91479639D01*
X174707713Y-91348848D01*
X174707710Y-91348844D01*
X174583655Y-91224789D01*
X174583651Y-91224786D01*
X174434337Y-91132687D01*
X174434335Y-91132686D01*
X174317307Y-91093907D01*
X174267797Y-91077501D01*
X174267795Y-91077500D01*
X174165015Y-91067000D01*
X174165008Y-91067000D01*
X173830782Y-91067000D01*
X173763743Y-91047315D01*
X173743101Y-91030681D01*
X173036819Y-90324399D01*
X173003334Y-90263076D01*
X173000500Y-90236718D01*
X173000500Y-85665781D01*
X173020185Y-85598742D01*
X173036814Y-85578104D01*
X174078101Y-84536817D01*
X174139424Y-84503333D01*
X174165782Y-84500499D01*
X175100002Y-84500499D01*
X175100008Y-84500499D01*
X175202797Y-84489999D01*
X175369334Y-84434814D01*
X175518656Y-84342712D01*
X175642712Y-84218656D01*
X175734814Y-84069334D01*
X175789999Y-83902797D01*
X175800500Y-83800009D01*
X175800499Y-81599992D01*
X175789999Y-81497203D01*
X175734814Y-81330666D01*
X175642712Y-81181344D01*
X175536818Y-81075450D01*
X175503334Y-81014127D01*
X175500500Y-80987769D01*
X175500500Y-79867354D01*
X175520185Y-79800315D01*
X175558526Y-79762361D01*
X175749248Y-79642523D01*
X175968825Y-79467416D01*
X176167416Y-79268825D01*
X176342523Y-79049248D01*
X176491945Y-78811445D01*
X176613801Y-78558408D01*
X176706560Y-78293318D01*
X176769055Y-78019509D01*
X176800500Y-77740425D01*
X176800500Y-77459575D01*
X176790018Y-77366547D01*
X176769057Y-77180505D01*
X176769054Y-77180487D01*
X176706560Y-76906682D01*
X176706556Y-76906670D01*
X176683465Y-76840680D01*
X176613801Y-76641592D01*
X176491945Y-76388555D01*
X176342523Y-76150752D01*
X176167416Y-75931175D01*
X175968825Y-75732584D01*
X175749248Y-75557477D01*
X175511445Y-75408055D01*
X175511442Y-75408053D01*
X175258411Y-75286200D01*
X174993329Y-75193443D01*
X174993317Y-75193439D01*
X174719512Y-75130945D01*
X174719494Y-75130942D01*
X174440431Y-75099500D01*
X174440425Y-75099500D01*
X174159575Y-75099500D01*
X174159568Y-75099500D01*
X173880505Y-75130942D01*
X173880487Y-75130945D01*
X173606682Y-75193439D01*
X173606670Y-75193443D01*
X173341588Y-75286200D01*
X173088557Y-75408053D01*
X172850753Y-75557476D01*
X172631175Y-75732583D01*
X172432583Y-75931175D01*
X172257476Y-76150753D01*
X172108053Y-76388557D01*
X171986200Y-76641588D01*
X171893443Y-76906670D01*
X171893439Y-76906682D01*
X171830945Y-77180487D01*
X171830942Y-77180505D01*
X171799500Y-77459568D01*
X171799500Y-77740431D01*
X171830942Y-78019494D01*
X171830945Y-78019512D01*
X171893439Y-78293317D01*
X171893443Y-78293329D01*
X171986200Y-78558411D01*
X172108053Y-78811442D01*
X172108055Y-78811445D01*
X172257477Y-79049248D01*
X172336466Y-79148297D01*
X172431207Y-79267099D01*
X172432584Y-79268825D01*
X172631175Y-79467416D01*
X172850752Y-79642523D01*
X173041471Y-79762360D01*
X173088557Y-79791946D01*
X173215073Y-79852873D01*
X173341592Y-79913801D01*
X173416454Y-79939996D01*
X173473230Y-79980718D01*
X173498978Y-80045670D01*
X173499500Y-80057038D01*
X173499500Y-80987769D01*
X173479815Y-81054808D01*
X173463182Y-81075450D01*
X173357287Y-81181345D01*
X173265187Y-81330663D01*
X173265185Y-81330668D01*
X173252288Y-81369590D01*
X173210001Y-81497203D01*
X173210001Y-81497204D01*
X173210000Y-81497204D01*
X173199500Y-81599983D01*
X173199500Y-82534217D01*
X173179815Y-82601256D01*
X173163181Y-82621898D01*
X171362221Y-84422858D01*
X171362218Y-84422861D01*
X171322086Y-84462993D01*
X171222859Y-84562219D01*
X171113371Y-84726080D01*
X171113364Y-84726093D01*
X171088965Y-84785000D01*
X171088965Y-84785001D01*
X171037950Y-84908161D01*
X171037947Y-84908170D01*
X171032253Y-84936798D01*
X170999500Y-85101454D01*
X170999500Y-88860980D01*
X170996949Y-88869665D01*
X170998238Y-88878627D01*
X170987259Y-88902667D01*
X170979815Y-88928019D01*
X170972974Y-88933946D01*
X170969213Y-88942183D01*
X170946978Y-88956472D01*
X170927011Y-88973774D01*
X170916496Y-88976061D01*
X170910435Y-88979957D01*
X170875500Y-88984980D01*
X170850745Y-88984980D01*
X170785647Y-88966518D01*
X170780217Y-88963168D01*
X170780214Y-88963166D01*
X170780213Y-88963166D01*
X170613676Y-88907981D01*
X170613674Y-88907980D01*
X170510889Y-88897480D01*
X169460877Y-88897480D01*
X169460859Y-88897481D01*
X169358082Y-88907980D01*
X169358079Y-88907981D01*
X169191547Y-88963165D01*
X169191538Y-88963169D01*
X169050300Y-89050285D01*
X168982907Y-89068725D01*
X168920108Y-89050285D01*
X168778869Y-88963169D01*
X168778864Y-88963167D01*
X168778863Y-88963166D01*
X168612326Y-88907981D01*
X168612324Y-88907980D01*
X168509539Y-88897480D01*
X167459527Y-88897480D01*
X167459509Y-88897481D01*
X167356732Y-88907980D01*
X167356729Y-88907981D01*
X167190197Y-88963165D01*
X167190192Y-88963167D01*
X167172997Y-88973774D01*
X167161217Y-88981039D01*
X167144659Y-88985735D01*
X167131057Y-88994477D01*
X167096122Y-88999500D01*
X166864866Y-88999500D01*
X166799768Y-88981038D01*
X166794338Y-88977688D01*
X166794335Y-88977686D01*
X166794334Y-88977686D01*
X166627797Y-88922501D01*
X166627795Y-88922500D01*
X166525010Y-88912000D01*
X165474998Y-88912000D01*
X165474980Y-88912001D01*
X165372203Y-88922500D01*
X165372200Y-88922501D01*
X165205668Y-88977685D01*
X165205663Y-88977687D01*
X165056342Y-89069789D01*
X164932289Y-89193842D01*
X164840187Y-89343163D01*
X164840185Y-89343168D01*
X164823196Y-89394439D01*
X164785001Y-89509703D01*
X164785001Y-89509704D01*
X164785000Y-89509704D01*
X164774500Y-89612483D01*
X156602438Y-89612483D01*
X156693268Y-89521653D01*
X157380707Y-88834214D01*
X157380707Y-88834213D01*
X157380710Y-88834211D01*
X157490202Y-88670344D01*
X157565622Y-88488265D01*
X157604071Y-88294970D01*
X157604071Y-88097889D01*
X157604071Y-88092779D01*
X157604070Y-88092753D01*
X157604070Y-86207518D01*
X157623755Y-86140479D01*
X157627740Y-86134648D01*
X157673094Y-86072226D01*
X157762454Y-85896846D01*
X157823279Y-85709647D01*
X157830227Y-85665781D01*
X157854070Y-85515243D01*
X157854070Y-85318398D01*
X157823279Y-85123994D01*
X157782828Y-84999500D01*
X157762454Y-84936796D01*
X157762452Y-84936793D01*
X157762452Y-84936791D01*
X157713229Y-84840185D01*
X157673094Y-84761416D01*
X157557398Y-84602175D01*
X157418216Y-84462993D01*
X157258975Y-84347297D01*
X157249976Y-84342712D01*
X157083599Y-84257938D01*
X156896396Y-84197111D01*
X156701992Y-84166321D01*
X156701987Y-84166321D01*
X156505153Y-84166321D01*
X156505148Y-84166321D01*
X156310743Y-84197111D01*
X156123540Y-84257938D01*
X155948164Y-84347297D01*
X155857311Y-84413306D01*
X155788924Y-84462993D01*
X155788922Y-84462995D01*
X155788921Y-84462995D01*
X155649744Y-84602172D01*
X155649744Y-84602173D01*
X155649742Y-84602175D01*
X155636873Y-84619888D01*
X155534046Y-84761415D01*
X155444687Y-84936791D01*
X155383860Y-85123994D01*
X155353070Y-85318398D01*
X155353070Y-85515243D01*
X155383860Y-85709647D01*
X155444687Y-85896850D01*
X155527933Y-86060228D01*
X155534046Y-86072226D01*
X155579388Y-86134633D01*
X155602868Y-86200439D01*
X155603070Y-86207518D01*
X155603070Y-87730647D01*
X155583385Y-87797686D01*
X155566751Y-87818328D01*
X152621899Y-90763181D01*
X152560576Y-90796666D01*
X152534218Y-90799500D01*
X147465783Y-90799500D01*
X147398744Y-90779815D01*
X147378102Y-90763181D01*
X146816819Y-90201898D01*
X146783334Y-90140575D01*
X146780500Y-90114217D01*
X146780500Y-89635761D01*
X146800185Y-89568722D01*
X146804165Y-89562899D01*
X146892287Y-89441610D01*
X146939516Y-89348917D01*
X146987489Y-89298123D01*
X147055310Y-89281328D01*
X147121445Y-89303865D01*
X147160483Y-89348917D01*
X147174985Y-89377377D01*
X147207715Y-89441614D01*
X147328028Y-89607213D01*
X147472786Y-89751971D01*
X147590881Y-89837770D01*
X147638390Y-89872287D01*
X147742730Y-89925451D01*
X147820776Y-89965218D01*
X147820778Y-89965218D01*
X147820781Y-89965220D01*
X147925137Y-89999127D01*
X148015465Y-90028477D01*
X148116557Y-90044488D01*
X148217648Y-90060500D01*
X148217649Y-90060500D01*
X148422351Y-90060500D01*
X148422352Y-90060500D01*
X148624534Y-90028477D01*
X148819219Y-89965220D01*
X149001610Y-89872287D01*
X149123556Y-89783689D01*
X149167213Y-89751971D01*
X149167215Y-89751968D01*
X149167219Y-89751966D01*
X149311966Y-89607219D01*
X149311968Y-89607215D01*
X149311971Y-89607213D01*
X149382815Y-89509703D01*
X149432287Y-89441610D01*
X149525220Y-89259219D01*
X149588477Y-89064534D01*
X149620500Y-88862352D01*
X149620500Y-88657648D01*
X149588477Y-88455466D01*
X149525220Y-88260781D01*
X149525218Y-88260778D01*
X149525218Y-88260776D01*
X149468869Y-88150187D01*
X149432287Y-88078390D01*
X149424556Y-88067749D01*
X149311971Y-87912786D01*
X149167213Y-87768028D01*
X149001613Y-87647715D01*
X149001612Y-87647714D01*
X149001610Y-87647713D01*
X148944653Y-87618691D01*
X148819223Y-87554781D01*
X148624534Y-87491522D01*
X148449995Y-87463878D01*
X148422352Y-87459500D01*
X148217648Y-87459500D01*
X148193329Y-87463351D01*
X148015465Y-87491522D01*
X147820776Y-87554781D01*
X147638386Y-87647715D01*
X147472786Y-87768028D01*
X147328028Y-87912786D01*
X147207715Y-88078386D01*
X147160485Y-88171080D01*
X147112510Y-88221876D01*
X147044689Y-88238671D01*
X146978554Y-88216134D01*
X146939515Y-88171080D01*
X146928869Y-88150187D01*
X146892287Y-88078390D01*
X146884556Y-88067749D01*
X146771971Y-87912786D01*
X146627213Y-87768028D01*
X146461613Y-87647715D01*
X146461612Y-87647714D01*
X146461610Y-87647713D01*
X146404653Y-87618691D01*
X146279223Y-87554781D01*
X146084534Y-87491522D01*
X145909995Y-87463878D01*
X145882352Y-87459500D01*
X145677648Y-87459500D01*
X145653329Y-87463351D01*
X145475465Y-87491522D01*
X145280776Y-87554781D01*
X145098386Y-87647715D01*
X144932786Y-87768028D01*
X144788028Y-87912786D01*
X144667715Y-88078386D01*
X144620485Y-88171080D01*
X144572510Y-88221876D01*
X144504689Y-88238671D01*
X144438554Y-88216134D01*
X144399515Y-88171080D01*
X144388869Y-88150187D01*
X144352287Y-88078390D01*
X144344556Y-88067749D01*
X144231971Y-87912786D01*
X144086819Y-87767634D01*
X144053334Y-87706311D01*
X144050500Y-87679953D01*
X144050500Y-86566561D01*
X144056794Y-86527557D01*
X144057636Y-86525016D01*
X144064999Y-86502797D01*
X144075500Y-86400009D01*
X144075499Y-85599992D01*
X144075498Y-85599983D01*
X144324500Y-85599983D01*
X144324500Y-86400001D01*
X144324501Y-86400019D01*
X144335000Y-86502796D01*
X144335001Y-86502799D01*
X144379730Y-86637781D01*
X144390186Y-86669334D01*
X144482288Y-86818656D01*
X144606344Y-86942712D01*
X144755666Y-87034814D01*
X144922203Y-87089999D01*
X145024991Y-87100500D01*
X145675008Y-87100499D01*
X145675016Y-87100498D01*
X145675019Y-87100498D01*
X145731302Y-87094748D01*
X145777797Y-87089999D01*
X145944334Y-87034814D01*
X145970036Y-87018960D01*
X146035132Y-87000500D01*
X148498543Y-87000500D01*
X148634509Y-86973454D01*
X148691835Y-86962051D01*
X148873914Y-86886632D01*
X149037782Y-86777139D01*
X149177139Y-86637782D01*
X149286632Y-86473914D01*
X149362051Y-86291835D01*
X149400500Y-86098541D01*
X149400500Y-85901459D01*
X149400500Y-85901456D01*
X149362052Y-85708170D01*
X149362051Y-85708169D01*
X149362051Y-85708165D01*
X149317245Y-85599992D01*
X149286635Y-85526092D01*
X149286628Y-85526079D01*
X149177139Y-85362218D01*
X149177136Y-85362214D01*
X149037785Y-85222863D01*
X149037781Y-85222860D01*
X148873920Y-85113371D01*
X148873907Y-85113364D01*
X148691839Y-85037950D01*
X148691829Y-85037947D01*
X148498543Y-84999500D01*
X148498541Y-84999500D01*
X147498541Y-84999500D01*
X146698541Y-84999500D01*
X146035132Y-84999500D01*
X145970036Y-84981039D01*
X145944334Y-84965186D01*
X145777797Y-84910001D01*
X145777795Y-84910000D01*
X145675010Y-84899500D01*
X145024998Y-84899500D01*
X145024980Y-84899501D01*
X144922203Y-84910000D01*
X144922200Y-84910001D01*
X144755668Y-84965185D01*
X144755663Y-84965187D01*
X144606342Y-85057289D01*
X144482289Y-85181342D01*
X144390187Y-85330663D01*
X144390185Y-85330668D01*
X144374095Y-85379224D01*
X144335001Y-85497203D01*
X144335001Y-85497204D01*
X144335000Y-85497204D01*
X144324500Y-85599983D01*
X144075498Y-85599983D01*
X144075371Y-85598742D01*
X144064999Y-85497203D01*
X144064998Y-85497200D01*
X144048018Y-85445958D01*
X144009814Y-85330666D01*
X143917712Y-85181344D01*
X143793656Y-85057288D01*
X143644334Y-84965186D01*
X143477797Y-84910001D01*
X143477795Y-84910000D01*
X143375010Y-84899500D01*
X142724998Y-84899500D01*
X142724980Y-84899501D01*
X142622203Y-84910000D01*
X142622200Y-84910001D01*
X142455668Y-84965185D01*
X142455663Y-84965187D01*
X142306342Y-85057289D01*
X142182289Y-85181342D01*
X142090187Y-85330663D01*
X142090185Y-85330668D01*
X142074095Y-85379224D01*
X142035001Y-85497203D01*
X142035001Y-85497204D01*
X142035000Y-85497204D01*
X142024500Y-85599983D01*
X142024500Y-86400001D01*
X142024501Y-86400019D01*
X142035000Y-86502796D01*
X142040482Y-86519338D01*
X142042361Y-86525009D01*
X142043206Y-86527557D01*
X142049500Y-86566562D01*
X142049500Y-88027449D01*
X142029815Y-88094488D01*
X141977011Y-88140243D01*
X141907853Y-88150187D01*
X141844297Y-88121162D01*
X141815016Y-88083745D01*
X141812286Y-88078388D01*
X141691971Y-87912786D01*
X141547213Y-87768028D01*
X141381613Y-87647715D01*
X141381612Y-87647714D01*
X141381610Y-87647713D01*
X141324653Y-87618691D01*
X141199223Y-87554781D01*
X141004534Y-87491522D01*
X140829995Y-87463878D01*
X140802352Y-87459500D01*
X140597648Y-87459500D01*
X140573329Y-87463351D01*
X140395465Y-87491522D01*
X140200776Y-87554781D01*
X140018386Y-87647715D01*
X139852786Y-87768028D01*
X139708028Y-87912786D01*
X139587715Y-88078386D01*
X139540485Y-88171080D01*
X139492510Y-88221876D01*
X139424689Y-88238671D01*
X139358554Y-88216134D01*
X139319515Y-88171080D01*
X139308869Y-88150187D01*
X139272287Y-88078390D01*
X139264556Y-88067749D01*
X139151971Y-87912786D01*
X139007213Y-87768028D01*
X138947738Y-87724818D01*
X138905072Y-87669489D01*
X138899093Y-87599875D01*
X138931698Y-87538080D01*
X138992537Y-87503723D01*
X139020623Y-87500500D01*
X139068996Y-87500500D01*
X139160040Y-87482389D01*
X139204328Y-87473580D01*
X139268069Y-87447177D01*
X139331807Y-87420777D01*
X139331808Y-87420776D01*
X139331811Y-87420775D01*
X139446543Y-87344114D01*
X142586204Y-84204452D01*
X142591109Y-84197112D01*
X142662866Y-84089720D01*
X142715671Y-83962237D01*
X142724480Y-83917950D01*
X142742591Y-83826904D01*
X142742591Y-80676795D01*
X142722789Y-80577250D01*
X142721025Y-80568382D01*
X142715671Y-80541462D01*
X142676924Y-80447919D01*
X142675720Y-80445012D01*
X142662869Y-80413986D01*
X142662867Y-80413982D01*
X142662866Y-80413980D01*
X142596183Y-80314182D01*
X142575305Y-80247505D01*
X142593789Y-80180125D01*
X142645768Y-80133434D01*
X142699285Y-80121291D01*
X150648205Y-80121291D01*
X150739249Y-80103180D01*
X150783537Y-80094371D01*
X150873667Y-80057038D01*
X150911016Y-80041568D01*
X150911017Y-80041567D01*
X150911020Y-80041566D01*
X151025752Y-79964905D01*
X151544113Y-79446543D01*
X151595063Y-79370292D01*
X151620775Y-79331811D01*
X151627915Y-79314571D01*
X151654792Y-79274347D01*
X154913356Y-76015785D01*
X154990017Y-75901053D01*
X155042822Y-75773570D01*
X155059080Y-75691839D01*
X155069742Y-75638238D01*
X155069742Y-73557563D01*
X155089427Y-73490524D01*
X155142231Y-73444769D01*
X155180489Y-73434273D01*
X155239225Y-73427959D01*
X155327550Y-73395016D01*
X155374073Y-73377664D01*
X155489288Y-73291414D01*
X155575538Y-73176199D01*
X155625833Y-73041351D01*
X155632242Y-72981741D01*
X155632241Y-72235996D01*
X155625833Y-72176385D01*
X155609329Y-72132135D01*
X155575539Y-72041538D01*
X155571289Y-72033756D01*
X155574499Y-72032002D01*
X155556103Y-71982869D01*
X155570869Y-71914577D01*
X155571494Y-71913604D01*
X155575539Y-71906197D01*
X155592283Y-71861302D01*
X155625833Y-71771351D01*
X155632242Y-71711741D01*
X155632241Y-70965996D01*
X155625833Y-70906385D01*
X155625130Y-70904501D01*
X155575539Y-70771539D01*
X155575535Y-70771532D01*
X155489289Y-70656323D01*
X155489286Y-70656320D01*
X155374077Y-70570074D01*
X155374070Y-70570070D01*
X155239224Y-70519776D01*
X155239225Y-70519776D01*
X155179625Y-70513369D01*
X155179623Y-70513368D01*
X155179615Y-70513368D01*
X155179606Y-70513368D01*
X153558871Y-70513368D01*
X153558865Y-70513369D01*
X153499258Y-70519776D01*
X153364413Y-70570070D01*
X153364406Y-70570074D01*
X153249197Y-70656320D01*
X153249194Y-70656323D01*
X153162948Y-70771532D01*
X153162944Y-70771539D01*
X153112650Y-70906385D01*
X153106243Y-70965984D01*
X153106243Y-70965991D01*
X153106242Y-70966003D01*
X153106242Y-71443643D01*
X153086557Y-71510682D01*
X153033753Y-71556437D01*
X152964595Y-71566381D01*
X152943238Y-71561349D01*
X152898584Y-71546552D01*
X152787753Y-71509826D01*
X152787751Y-71509825D01*
X152686678Y-71499500D01*
X152113330Y-71499500D01*
X152113312Y-71499501D01*
X152012247Y-71509825D01*
X151848484Y-71564092D01*
X151848481Y-71564093D01*
X151701648Y-71654661D01*
X151579661Y-71776648D01*
X151579660Y-71776650D01*
X151578766Y-71778098D01*
X151577895Y-71778882D01*
X151575179Y-71782317D01*
X151574592Y-71781852D01*
X151526820Y-71824821D01*
X151473229Y-71837000D01*
X149994499Y-71837000D01*
X149927460Y-71817315D01*
X149881705Y-71764511D01*
X149870499Y-71713000D01*
X149870499Y-71604998D01*
X149870498Y-71604981D01*
X149859999Y-71502203D01*
X149859998Y-71502200D01*
X149831673Y-71416722D01*
X149804814Y-71335666D01*
X149712712Y-71186344D01*
X149588656Y-71062288D01*
X149439334Y-70970186D01*
X149272797Y-70915001D01*
X149272795Y-70915000D01*
X149170010Y-70904500D01*
X147829998Y-70904500D01*
X147829981Y-70904501D01*
X147727203Y-70915000D01*
X147727200Y-70915001D01*
X147560668Y-70970185D01*
X147560663Y-70970187D01*
X147411342Y-71062289D01*
X147287289Y-71186342D01*
X147195187Y-71335663D01*
X147195186Y-71335666D01*
X147140001Y-71502203D01*
X147140001Y-71502204D01*
X147140000Y-71502204D01*
X147129500Y-71604983D01*
X147129500Y-73395001D01*
X147129501Y-73395018D01*
X147140000Y-73497796D01*
X147140001Y-73497799D01*
X147165749Y-73575499D01*
X147195186Y-73664334D01*
X147287288Y-73813656D01*
X147411344Y-73937712D01*
X147560666Y-74029814D01*
X147727203Y-74084999D01*
X147829991Y-74095500D01*
X149170008Y-74095499D01*
X149272797Y-74084999D01*
X149439334Y-74029814D01*
X149588656Y-73937712D01*
X149712712Y-73813656D01*
X149804814Y-73664334D01*
X149859999Y-73497797D01*
X149870500Y-73395009D01*
X149870500Y-73362000D01*
X149890185Y-73294961D01*
X149942989Y-73249206D01*
X149994500Y-73238000D01*
X151473229Y-73238000D01*
X151540268Y-73257685D01*
X151574867Y-73292929D01*
X151575179Y-73292683D01*
X151577471Y-73295582D01*
X151578766Y-73296901D01*
X151579660Y-73298350D01*
X151701650Y-73420340D01*
X151848484Y-73510908D01*
X152012247Y-73565174D01*
X152113323Y-73575500D01*
X152686676Y-73575499D01*
X152686684Y-73575498D01*
X152686687Y-73575498D01*
X152742030Y-73569844D01*
X152787753Y-73565174D01*
X152951516Y-73510908D01*
X153098350Y-73420340D01*
X153160686Y-73358003D01*
X153222005Y-73324521D01*
X153291697Y-73329505D01*
X153322674Y-73346420D01*
X153343487Y-73362000D01*
X153364410Y-73377663D01*
X153364413Y-73377665D01*
X153499259Y-73427959D01*
X153499258Y-73427959D01*
X153557998Y-73434275D01*
X153622549Y-73461013D01*
X153662397Y-73518406D01*
X153668742Y-73557564D01*
X153668742Y-75227722D01*
X153649057Y-75294761D01*
X153632423Y-75315403D01*
X150455888Y-78491937D01*
X150455885Y-78491940D01*
X150379229Y-78606665D01*
X150379223Y-78606675D01*
X150372081Y-78623917D01*
X150367452Y-78630843D01*
X150366357Y-78635881D01*
X150345206Y-78664136D01*
X150325373Y-78683970D01*
X150264051Y-78717457D01*
X150237690Y-78720291D01*
X141821791Y-78720291D01*
X141778458Y-78712473D01*
X141762186Y-78706404D01*
X141749572Y-78701699D01*
X141689974Y-78695292D01*
X141689972Y-78695291D01*
X141689964Y-78695291D01*
X141689956Y-78695291D01*
X140424500Y-78695291D01*
X140357461Y-78675606D01*
X140311706Y-78622802D01*
X140300500Y-78571291D01*
X140300500Y-77531007D01*
X140295956Y-77508167D01*
X140295956Y-77508163D01*
X140273581Y-77395679D01*
X140273580Y-77395672D01*
X140273578Y-77395667D01*
X140220777Y-77268192D01*
X140144112Y-77153454D01*
X134951545Y-71960887D01*
X134836807Y-71884222D01*
X134709332Y-71831421D01*
X134709322Y-71831418D01*
X134573996Y-71804500D01*
X134573994Y-71804500D01*
X134573993Y-71804500D01*
X133667906Y-71804500D01*
X133600867Y-71784815D01*
X133555112Y-71732011D01*
X133544616Y-71667247D01*
X133551000Y-71607873D01*
X133550999Y-70862128D01*
X133544591Y-70802517D01*
X133533036Y-70771537D01*
X133494297Y-70667671D01*
X133494293Y-70667664D01*
X133408047Y-70552455D01*
X133408044Y-70552452D01*
X133292835Y-70466206D01*
X133292828Y-70466202D01*
X133157982Y-70415908D01*
X133157983Y-70415908D01*
X133098383Y-70409501D01*
X133098381Y-70409500D01*
X133098373Y-70409500D01*
X133098364Y-70409500D01*
X131477629Y-70409500D01*
X131477623Y-70409501D01*
X131418016Y-70415908D01*
X131283171Y-70466202D01*
X131283164Y-70466206D01*
X131167955Y-70552452D01*
X131167952Y-70552455D01*
X131081706Y-70667664D01*
X131081702Y-70667671D01*
X131031410Y-70802513D01*
X131031409Y-70802517D01*
X131025000Y-70862127D01*
X131025000Y-70862134D01*
X131025000Y-70862135D01*
X131025000Y-71416722D01*
X131005315Y-71483761D01*
X130952511Y-71529516D01*
X130883353Y-71539460D01*
X130861996Y-71534428D01*
X130841261Y-71527557D01*
X130787753Y-71509826D01*
X130787751Y-71509825D01*
X130686678Y-71499500D01*
X130113330Y-71499500D01*
X130113312Y-71499501D01*
X130012247Y-71509825D01*
X129848484Y-71564092D01*
X129848481Y-71564093D01*
X129701648Y-71654661D01*
X129593129Y-71763181D01*
X129531806Y-71796666D01*
X129505448Y-71799500D01*
X127494499Y-71799500D01*
X127427460Y-71779815D01*
X127381705Y-71727011D01*
X127370499Y-71675500D01*
X127370499Y-71604998D01*
X127370498Y-71604981D01*
X127359999Y-71502203D01*
X127359998Y-71502200D01*
X127331673Y-71416722D01*
X127304814Y-71335666D01*
X127212712Y-71186344D01*
X127088656Y-71062288D01*
X126939334Y-70970186D01*
X126772797Y-70915001D01*
X126772795Y-70915000D01*
X126670010Y-70904500D01*
X125329998Y-70904500D01*
X125329981Y-70904501D01*
X125227203Y-70915000D01*
X125227200Y-70915001D01*
X125060668Y-70970185D01*
X125060663Y-70970187D01*
X124911342Y-71062289D01*
X124787289Y-71186342D01*
X124695187Y-71335663D01*
X124695186Y-71335666D01*
X124640001Y-71502203D01*
X124640001Y-71502204D01*
X124640000Y-71502204D01*
X124629500Y-71604983D01*
X124629500Y-73395001D01*
X124629501Y-73395018D01*
X124640000Y-73497796D01*
X124640001Y-73497799D01*
X124665749Y-73575499D01*
X124695186Y-73664334D01*
X124787288Y-73813656D01*
X124911344Y-73937712D01*
X125060666Y-74029814D01*
X125227203Y-74084999D01*
X125329991Y-74095500D01*
X126670008Y-74095499D01*
X126772797Y-74084999D01*
X126939334Y-74029814D01*
X127088656Y-73937712D01*
X127212712Y-73813656D01*
X127304814Y-73664334D01*
X127359999Y-73497797D01*
X127370500Y-73395009D01*
X127370500Y-73324500D01*
X127390185Y-73257461D01*
X127442989Y-73211706D01*
X127494500Y-73200500D01*
X129450099Y-73200500D01*
X129517138Y-73220185D01*
X129555638Y-73259404D01*
X129577952Y-73295582D01*
X129579660Y-73298350D01*
X129701650Y-73420340D01*
X129848484Y-73510908D01*
X130012247Y-73565174D01*
X130113323Y-73575500D01*
X130686676Y-73575499D01*
X130686684Y-73575498D01*
X130686687Y-73575498D01*
X130742030Y-73569844D01*
X130787753Y-73565174D01*
X130951516Y-73510908D01*
X131098350Y-73420340D01*
X131198945Y-73319744D01*
X131260264Y-73286262D01*
X131329954Y-73291245D01*
X131418017Y-73324091D01*
X131477627Y-73330500D01*
X133098372Y-73330499D01*
X133157983Y-73324091D01*
X133292831Y-73273796D01*
X133351024Y-73230233D01*
X133416489Y-73205816D01*
X133425335Y-73205500D01*
X134163481Y-73205500D01*
X134230520Y-73225185D01*
X134251162Y-73241819D01*
X138863181Y-77853838D01*
X138896666Y-77915161D01*
X138899500Y-77941519D01*
X138899500Y-79221291D01*
X138879815Y-79288330D01*
X138827011Y-79334085D01*
X138775500Y-79345291D01*
X137909353Y-79345291D01*
X137842314Y-79325606D01*
X137796559Y-79272802D01*
X137785353Y-79221295D01*
X137785353Y-78492083D01*
X137785338Y-78491941D01*
X137774853Y-78389294D01*
X137774852Y-78389291D01*
X137743053Y-78293329D01*
X137719668Y-78222757D01*
X137627566Y-78073435D01*
X137503510Y-77949379D01*
X137354188Y-77857277D01*
X137187651Y-77802092D01*
X137187649Y-77802091D01*
X137084864Y-77791591D01*
X136034852Y-77791591D01*
X136034834Y-77791592D01*
X135932057Y-77802091D01*
X135932054Y-77802092D01*
X135765522Y-77857276D01*
X135765517Y-77857278D01*
X135616196Y-77949380D01*
X135492143Y-78073433D01*
X135400041Y-78222754D01*
X135400040Y-78222757D01*
X135344855Y-78389294D01*
X135344855Y-78389295D01*
X135344854Y-78389295D01*
X135334354Y-78492074D01*
X135334354Y-78492087D01*
X135334355Y-79246291D01*
X135314671Y-79313330D01*
X135261867Y-79359085D01*
X135210355Y-79370291D01*
X134162157Y-79370291D01*
X134058328Y-79390944D01*
X134058323Y-79390945D01*
X134053745Y-79391856D01*
X134026825Y-79397211D01*
X134015276Y-79401995D01*
X134008340Y-79404867D01*
X134008336Y-79404869D01*
X133942471Y-79432152D01*
X133895018Y-79441591D01*
X132873995Y-79441591D01*
X132806956Y-79421906D01*
X132761201Y-79369102D01*
X132757823Y-79360950D01*
X132753650Y-79349760D01*
X132753647Y-79349756D01*
X132753647Y-79349755D01*
X132667401Y-79234546D01*
X132667398Y-79234543D01*
X132552189Y-79148297D01*
X132552182Y-79148293D01*
X132417340Y-79098001D01*
X132417339Y-79098000D01*
X132417337Y-79098000D01*
X132357727Y-79091591D01*
X132357717Y-79091591D01*
X131661983Y-79091591D01*
X131661977Y-79091592D01*
X131602370Y-79097999D01*
X131467525Y-79148293D01*
X131467518Y-79148297D01*
X131352309Y-79234543D01*
X131352306Y-79234546D01*
X131266060Y-79349755D01*
X131266056Y-79349762D01*
X131215762Y-79484608D01*
X131209355Y-79544207D01*
X131209355Y-79544214D01*
X131209354Y-79544226D01*
X131209354Y-80739961D01*
X131209355Y-80739967D01*
X131215763Y-80799576D01*
X131224969Y-80824259D01*
X131227157Y-80854865D01*
X131231525Y-80885238D01*
X131229627Y-80889393D01*
X131229953Y-80893951D01*
X131215247Y-80920880D01*
X131202500Y-80948794D01*
X131198655Y-80951264D01*
X131196467Y-80955273D01*
X131169538Y-80969976D01*
X131143722Y-80986568D01*
X131137520Y-80987459D01*
X131135143Y-80988758D01*
X131108787Y-80991591D01*
X131010921Y-80991591D01*
X130943882Y-80971906D01*
X130898127Y-80919102D01*
X130888183Y-80849944D01*
X130894739Y-80824259D01*
X130903944Y-80799576D01*
X130903945Y-80799574D01*
X130906843Y-80772619D01*
X130910354Y-80739964D01*
X130910353Y-79544219D01*
X130903945Y-79484608D01*
X130889750Y-79446550D01*
X130853651Y-79349762D01*
X130853647Y-79349755D01*
X130767401Y-79234546D01*
X130767398Y-79234543D01*
X130652189Y-79148297D01*
X130652182Y-79148293D01*
X130517340Y-79098001D01*
X130517339Y-79098000D01*
X130517337Y-79098000D01*
X130457727Y-79091591D01*
X130457717Y-79091591D01*
X129761983Y-79091591D01*
X129761977Y-79091592D01*
X129702370Y-79097999D01*
X129567525Y-79148293D01*
X129567518Y-79148297D01*
X129452309Y-79234543D01*
X129452306Y-79234546D01*
X129366060Y-79349755D01*
X129366056Y-79349762D01*
X129315762Y-79484608D01*
X129309355Y-79544207D01*
X129309355Y-79544214D01*
X129309354Y-79544226D01*
X129309354Y-80739961D01*
X129309355Y-80739967D01*
X129315762Y-80799573D01*
X129334396Y-80849534D01*
X129339379Y-80919225D01*
X129305893Y-80980548D01*
X129283311Y-80998403D01*
X129241198Y-81024378D01*
X129117143Y-81148433D01*
X129025041Y-81297754D01*
X129025039Y-81297759D01*
X129001237Y-81369590D01*
X128969855Y-81464294D01*
X128969855Y-81464295D01*
X128969854Y-81464295D01*
X128959354Y-81567074D01*
X128959354Y-82217092D01*
X128959355Y-82217110D01*
X128969854Y-82319887D01*
X128969855Y-82319890D01*
X129025039Y-82486422D01*
X129025040Y-82486425D01*
X129117142Y-82635747D01*
X129241198Y-82759803D01*
X129390520Y-82851905D01*
X129557057Y-82907090D01*
X129659845Y-82917591D01*
X130459862Y-82917590D01*
X130459870Y-82917589D01*
X130459873Y-82917589D01*
X130516156Y-82911839D01*
X130562651Y-82907090D01*
X130729188Y-82851905D01*
X130772153Y-82825403D01*
X130795422Y-82811052D01*
X130811979Y-82806356D01*
X130825583Y-82797614D01*
X130860518Y-82792591D01*
X130922623Y-82792591D01*
X130989662Y-82812276D01*
X131010304Y-82828909D01*
X131116198Y-82934803D01*
X131265520Y-83026905D01*
X131432057Y-83082090D01*
X131534845Y-83092591D01*
X132584862Y-83092590D01*
X132584870Y-83092589D01*
X132584873Y-83092589D01*
X132641156Y-83086839D01*
X132687651Y-83082090D01*
X132854188Y-83026905D01*
X133003510Y-82934803D01*
X133127566Y-82810747D01*
X133204315Y-82686315D01*
X133256263Y-82639591D01*
X133325225Y-82628368D01*
X133389307Y-82656211D01*
X133415393Y-82686316D01*
X133489433Y-82806356D01*
X133492142Y-82810747D01*
X133616198Y-82934803D01*
X133765520Y-83026905D01*
X133932057Y-83082090D01*
X134034845Y-83092591D01*
X135084862Y-83092590D01*
X135084870Y-83092589D01*
X135084873Y-83092589D01*
X135141156Y-83086839D01*
X135187651Y-83082090D01*
X135354188Y-83026905D01*
X135494759Y-82940200D01*
X135562150Y-82921761D01*
X135624948Y-82940200D01*
X135765520Y-83026905D01*
X135932057Y-83082090D01*
X136034845Y-83092591D01*
X137084862Y-83092590D01*
X137084870Y-83092589D01*
X137084873Y-83092589D01*
X137141156Y-83086839D01*
X137187651Y-83082090D01*
X137354188Y-83026905D01*
X137382474Y-83009457D01*
X137449863Y-82991018D01*
X137516526Y-83011939D01*
X137561297Y-83065581D01*
X137562130Y-83067545D01*
X137608367Y-83179174D01*
X137608374Y-83179187D01*
X137695975Y-83310290D01*
X137695978Y-83310294D01*
X137807472Y-83421788D01*
X137807476Y-83421791D01*
X137938579Y-83509392D01*
X137938592Y-83509399D01*
X138084258Y-83569735D01*
X138084268Y-83569739D01*
X138225108Y-83597754D01*
X138238918Y-83600501D01*
X138238921Y-83600502D01*
X138238923Y-83600502D01*
X138396609Y-83600502D01*
X138396610Y-83600501D01*
X138551262Y-83569739D01*
X138606365Y-83546914D01*
X138695632Y-83509940D01*
X138703808Y-83508313D01*
X138708149Y-83505524D01*
X138743084Y-83500501D01*
X138892450Y-83500501D01*
X138939902Y-83509940D01*
X139084262Y-83569735D01*
X139084269Y-83569738D01*
X139225114Y-83597754D01*
X139238919Y-83600500D01*
X139238922Y-83600501D01*
X139238924Y-83600501D01*
X139396610Y-83600501D01*
X139396611Y-83600500D01*
X139551263Y-83569738D01*
X139606366Y-83546913D01*
X139695633Y-83509939D01*
X139703809Y-83508312D01*
X139708150Y-83505523D01*
X139743085Y-83500500D01*
X139774684Y-83500500D01*
X139822136Y-83509939D01*
X139966497Y-83569735D01*
X139966499Y-83569735D01*
X139966503Y-83569737D01*
X139966756Y-83569787D01*
X139966876Y-83569850D01*
X139972335Y-83571506D01*
X139972021Y-83572540D01*
X140028668Y-83602166D01*
X140063248Y-83662878D01*
X140059515Y-83732648D01*
X140030255Y-83779087D01*
X138546162Y-85263181D01*
X138484839Y-85296666D01*
X138458481Y-85299500D01*
X134431005Y-85299500D01*
X134367649Y-85312102D01*
X134335971Y-85318404D01*
X134303686Y-85324825D01*
X134295670Y-85326420D01*
X134168190Y-85379224D01*
X134053454Y-85455887D01*
X132535887Y-86973454D01*
X132459222Y-87088192D01*
X132406421Y-87215667D01*
X132406418Y-87215679D01*
X132387457Y-87311005D01*
X132387457Y-87311008D01*
X132379500Y-87351006D01*
X132379500Y-87598255D01*
X132359815Y-87665294D01*
X132328385Y-87698573D01*
X132232787Y-87768028D01*
X132232782Y-87768032D01*
X132088028Y-87912786D01*
X131967715Y-88078386D01*
X131920485Y-88171080D01*
X131872510Y-88221876D01*
X131804689Y-88238671D01*
X131738554Y-88216134D01*
X131699515Y-88171080D01*
X131688869Y-88150187D01*
X131652287Y-88078390D01*
X131644556Y-88067749D01*
X131531971Y-87912786D01*
X131387213Y-87768028D01*
X131221613Y-87647715D01*
X131221612Y-87647714D01*
X131221610Y-87647713D01*
X131164653Y-87618691D01*
X131039223Y-87554781D01*
X130844534Y-87491522D01*
X130669995Y-87463878D01*
X130642352Y-87459500D01*
X130437648Y-87459500D01*
X130413329Y-87463351D01*
X130235465Y-87491522D01*
X130040776Y-87554781D01*
X129858386Y-87647715D01*
X129692786Y-87768028D01*
X129548028Y-87912786D01*
X129427715Y-88078386D01*
X129380485Y-88171080D01*
X129332510Y-88221876D01*
X129264689Y-88238671D01*
X129198554Y-88216134D01*
X129159515Y-88171080D01*
X129148869Y-88150187D01*
X129112287Y-88078390D01*
X129104556Y-88067749D01*
X128991971Y-87912786D01*
X128847213Y-87768028D01*
X128681613Y-87647715D01*
X128681612Y-87647714D01*
X128681610Y-87647713D01*
X128624653Y-87618691D01*
X128499223Y-87554781D01*
X128304534Y-87491522D01*
X128129995Y-87463878D01*
X128102352Y-87459500D01*
X127897648Y-87459500D01*
X127873329Y-87463351D01*
X127695465Y-87491522D01*
X127500776Y-87554781D01*
X127318386Y-87647715D01*
X127152786Y-87768028D01*
X127008028Y-87912786D01*
X126887715Y-88078386D01*
X126840485Y-88171080D01*
X126792510Y-88221876D01*
X126724689Y-88238671D01*
X126658554Y-88216134D01*
X126619515Y-88171080D01*
X126608869Y-88150187D01*
X126572287Y-88078390D01*
X126564556Y-88067749D01*
X126451971Y-87912786D01*
X126307213Y-87768028D01*
X126141613Y-87647715D01*
X126141612Y-87647714D01*
X126141610Y-87647713D01*
X126084653Y-87618691D01*
X125959223Y-87554781D01*
X125764534Y-87491522D01*
X125589995Y-87463878D01*
X125562352Y-87459500D01*
X125357648Y-87459500D01*
X125333329Y-87463351D01*
X125155465Y-87491522D01*
X124960776Y-87554781D01*
X124778386Y-87647715D01*
X124612786Y-87768028D01*
X124468028Y-87912786D01*
X124347715Y-88078386D01*
X124300485Y-88171080D01*
X124252510Y-88221876D01*
X124184689Y-88238671D01*
X124118554Y-88216134D01*
X124079515Y-88171080D01*
X124068869Y-88150187D01*
X124032287Y-88078390D01*
X124024556Y-88067749D01*
X123911971Y-87912786D01*
X123767213Y-87768028D01*
X123601613Y-87647715D01*
X123601612Y-87647714D01*
X123601610Y-87647713D01*
X123544653Y-87618691D01*
X123419223Y-87554781D01*
X123224534Y-87491522D01*
X123049995Y-87463878D01*
X123022352Y-87459500D01*
X122817648Y-87459500D01*
X122793329Y-87463351D01*
X122615465Y-87491522D01*
X122420776Y-87554781D01*
X122238386Y-87647715D01*
X122072786Y-87768028D01*
X121928028Y-87912786D01*
X121807715Y-88078386D01*
X121760485Y-88171080D01*
X121712510Y-88221876D01*
X121644689Y-88238671D01*
X121578554Y-88216134D01*
X121539515Y-88171080D01*
X121528869Y-88150187D01*
X121492287Y-88078390D01*
X121484556Y-88067749D01*
X121371971Y-87912786D01*
X121316819Y-87857634D01*
X121283334Y-87796311D01*
X121280500Y-87769953D01*
X121280500Y-86444361D01*
X121300185Y-86377322D01*
X121316819Y-86356680D01*
X122544589Y-85128910D01*
X122605912Y-85095425D01*
X122632270Y-85092591D01*
X129259190Y-85092591D01*
X129324286Y-85111052D01*
X129390513Y-85151901D01*
X129390514Y-85151901D01*
X129390520Y-85151905D01*
X129557057Y-85207090D01*
X129659845Y-85217591D01*
X130459862Y-85217590D01*
X130459870Y-85217589D01*
X130459873Y-85217589D01*
X130516156Y-85211839D01*
X130562651Y-85207090D01*
X130729188Y-85151905D01*
X130878510Y-85059803D01*
X131002566Y-84935747D01*
X131094668Y-84786425D01*
X131149853Y-84619888D01*
X131160354Y-84517100D01*
X131160353Y-83867083D01*
X131156248Y-83826902D01*
X131149853Y-83764294D01*
X131149852Y-83764291D01*
X131094668Y-83597757D01*
X131002566Y-83448435D01*
X130878510Y-83324379D01*
X130729188Y-83232277D01*
X130562651Y-83177092D01*
X130562649Y-83177091D01*
X130459864Y-83166591D01*
X129659852Y-83166591D01*
X129659834Y-83166592D01*
X129557057Y-83177091D01*
X129557054Y-83177092D01*
X129390522Y-83232276D01*
X129390513Y-83232280D01*
X129324286Y-83273130D01*
X129259190Y-83291591D01*
X122119213Y-83291591D01*
X121945248Y-83326194D01*
X121945232Y-83326199D01*
X121829362Y-83374193D01*
X121829363Y-83374194D01*
X121781360Y-83394078D01*
X121662380Y-83473580D01*
X121662379Y-83473581D01*
X121633871Y-83492628D01*
X121633870Y-83492629D01*
X119680540Y-85445958D01*
X119680539Y-85445959D01*
X119652650Y-85487698D01*
X119652645Y-85487705D01*
X119649886Y-85491836D01*
X119581987Y-85593453D01*
X119551031Y-85668189D01*
X119548278Y-85674833D01*
X119548274Y-85674842D01*
X119514105Y-85757333D01*
X119514103Y-85757341D01*
X119481518Y-85921153D01*
X119481519Y-85921154D01*
X119479500Y-85931303D01*
X119479500Y-87769953D01*
X119459815Y-87836992D01*
X119443181Y-87857634D01*
X119388032Y-87912782D01*
X119388028Y-87912786D01*
X119267715Y-88078386D01*
X119174781Y-88260776D01*
X119111522Y-88455465D01*
X119079500Y-88657648D01*
X119079500Y-88862351D01*
X119111522Y-89064534D01*
X119174781Y-89259223D01*
X119243678Y-89394439D01*
X119267713Y-89441610D01*
X119355819Y-89562877D01*
X119379298Y-89628681D01*
X119379500Y-89635761D01*
X119379500Y-90154217D01*
X119359815Y-90221256D01*
X119343181Y-90241898D01*
X118324720Y-91260359D01*
X118324718Y-91260361D01*
X118255038Y-91330040D01*
X118185359Y-91399719D01*
X118075871Y-91563579D01*
X118075864Y-91563592D01*
X118032416Y-91668489D01*
X118032416Y-91668490D01*
X118009194Y-91724552D01*
X118000451Y-91745657D01*
X118000447Y-91745669D01*
X117962000Y-91938956D01*
X117962000Y-92135134D01*
X117943541Y-92200225D01*
X117941188Y-92204039D01*
X117940185Y-92205667D01*
X117928496Y-92240943D01*
X117885001Y-92372203D01*
X117885001Y-92372204D01*
X117885000Y-92372204D01*
X117874500Y-92474983D01*
X117874500Y-93525001D01*
X117874501Y-93525019D01*
X117885000Y-93627796D01*
X117885001Y-93627799D01*
X117940185Y-93794331D01*
X117940190Y-93794342D01*
X117981038Y-93860566D01*
X117985733Y-93877123D01*
X117994477Y-93890728D01*
X117999500Y-93925663D01*
X117999500Y-94139867D01*
X117981040Y-94204961D01*
X117965187Y-94230663D01*
X117965186Y-94230665D01*
X117965186Y-94230666D01*
X117910001Y-94397203D01*
X117910001Y-94397204D01*
X117910000Y-94397204D01*
X117899500Y-94499983D01*
X117899500Y-95500001D01*
X117899501Y-95500019D01*
X117910000Y-95602796D01*
X117910001Y-95602799D01*
X117965185Y-95769331D01*
X117965186Y-95769334D01*
X117981039Y-95795036D01*
X117999500Y-95860132D01*
X117999500Y-96139867D01*
X117981040Y-96204961D01*
X117965187Y-96230663D01*
X117965186Y-96230665D01*
X117937593Y-96313934D01*
X117910001Y-96397203D01*
X117910001Y-96397204D01*
X117910000Y-96397204D01*
X117899500Y-96499983D01*
X117899500Y-97500001D01*
X117899501Y-97500019D01*
X117910000Y-97602796D01*
X117910001Y-97602799D01*
X117965185Y-97769331D01*
X117965186Y-97769334D01*
X117981039Y-97795036D01*
X117999500Y-97860132D01*
X117999500Y-98172634D01*
X117981041Y-98237725D01*
X117978688Y-98241539D01*
X117977685Y-98243167D01*
X117977685Y-98243168D01*
X117922501Y-98409703D01*
X117922501Y-98409704D01*
X117922500Y-98409704D01*
X117912000Y-98512483D01*
X117912000Y-99562501D01*
X117912001Y-99562519D01*
X117922500Y-99665296D01*
X117922501Y-99665299D01*
X117977685Y-99831831D01*
X117977687Y-99831836D01*
X118012569Y-99888388D01*
X118069788Y-99981156D01*
X118193844Y-100105212D01*
X118343166Y-100197314D01*
X118509703Y-100252499D01*
X118612491Y-100263000D01*
X119387508Y-100262999D01*
X119387516Y-100262998D01*
X119387519Y-100262998D01*
X119443802Y-100257248D01*
X119490297Y-100252499D01*
X119656834Y-100197314D01*
X119806156Y-100105212D01*
X119930212Y-99981156D01*
X120022314Y-99831834D01*
X120077499Y-99665297D01*
X120088000Y-99562509D01*
X120087999Y-98512492D01*
X120077499Y-98409703D01*
X120022314Y-98243166D01*
X120018958Y-98237725D01*
X120014263Y-98221169D01*
X120005523Y-98207569D01*
X120000500Y-98172634D01*
X120000500Y-98153340D01*
X120020185Y-98086301D01*
X120072989Y-98040546D01*
X120142147Y-98030602D01*
X120189591Y-98047798D01*
X120330666Y-98134814D01*
X120497203Y-98189999D01*
X120599991Y-98200500D01*
X121400008Y-98200499D01*
X121400016Y-98200498D01*
X121400019Y-98200498D01*
X121456302Y-98194748D01*
X121502797Y-98189999D01*
X121669334Y-98134814D01*
X121818656Y-98042712D01*
X121824549Y-98036819D01*
X121885872Y-98003334D01*
X121912230Y-98000500D01*
X132898542Y-98000500D01*
X132929566Y-97994328D01*
X132995188Y-97981275D01*
X133091836Y-97962051D01*
X133145165Y-97939961D01*
X133273914Y-97886632D01*
X133437782Y-97777139D01*
X133577139Y-97637782D01*
X133577140Y-97637779D01*
X133584206Y-97630714D01*
X133584209Y-97630710D01*
X136257778Y-94957141D01*
X136257782Y-94957139D01*
X136397139Y-94817782D01*
X136506632Y-94653914D01*
X136570388Y-94499992D01*
X136582051Y-94471836D01*
X136620500Y-94278540D01*
X136620500Y-94081460D01*
X136620500Y-89635761D01*
X136640185Y-89568722D01*
X136644165Y-89562899D01*
X136732287Y-89441610D01*
X136779516Y-89348917D01*
X136827489Y-89298123D01*
X136895310Y-89281328D01*
X136961445Y-89303865D01*
X137000483Y-89348917D01*
X137047713Y-89441610D01*
X137135819Y-89562877D01*
X137159298Y-89628681D01*
X137159500Y-89635761D01*
X137159500Y-95858541D01*
X137159500Y-95858543D01*
X137159499Y-95858543D01*
X137197947Y-96051829D01*
X137197950Y-96051839D01*
X137273364Y-96233907D01*
X137273371Y-96233920D01*
X137382860Y-96397781D01*
X137382863Y-96397785D01*
X137526537Y-96541459D01*
X137526559Y-96541479D01*
X142622858Y-101637778D01*
X142622861Y-101637782D01*
X142762218Y-101777139D01*
X142766503Y-101780002D01*
X142774472Y-101787894D01*
X142788676Y-101813609D01*
X142805216Y-101837889D01*
X142805375Y-101843841D01*
X142808255Y-101849054D01*
X142806301Y-101878367D01*
X142807089Y-101907734D01*
X142804004Y-101912828D01*
X142803609Y-101918769D01*
X142786117Y-101942373D01*
X142770903Y-101967503D01*
X142765555Y-101970120D01*
X142762010Y-101974905D01*
X142734532Y-101985306D01*
X142708148Y-101998221D01*
X142698174Y-101999068D01*
X142696665Y-101999640D01*
X142695175Y-101999323D01*
X142687218Y-102000000D01*
X117000000Y-102000000D01*
X117000000Y-102949453D01*
X116980315Y-103016492D01*
X116963681Y-103037134D01*
X116848032Y-103152782D01*
X116848028Y-103152786D01*
X116727715Y-103318386D01*
X116634781Y-103500776D01*
X116571522Y-103695465D01*
X116539500Y-103897648D01*
X113500500Y-103897648D01*
X113500500Y-88657648D01*
X113999500Y-88657648D01*
X113999500Y-88862351D01*
X114031522Y-89064534D01*
X114094781Y-89259223D01*
X114149510Y-89366633D01*
X114183668Y-89433672D01*
X114187715Y-89441613D01*
X114308028Y-89607213D01*
X114452786Y-89751971D01*
X114570881Y-89837770D01*
X114618390Y-89872287D01*
X114722730Y-89925451D01*
X114800776Y-89965218D01*
X114800778Y-89965218D01*
X114800781Y-89965220D01*
X114905137Y-89999127D01*
X114995465Y-90028477D01*
X115096557Y-90044488D01*
X115197648Y-90060500D01*
X115197649Y-90060500D01*
X115402351Y-90060500D01*
X115402352Y-90060500D01*
X115604534Y-90028477D01*
X115799219Y-89965220D01*
X115981610Y-89872287D01*
X116103556Y-89783689D01*
X116147213Y-89751971D01*
X116147215Y-89751968D01*
X116147219Y-89751966D01*
X116291966Y-89607219D01*
X116291968Y-89607215D01*
X116291971Y-89607213D01*
X116362815Y-89509703D01*
X116412287Y-89441610D01*
X116505220Y-89259219D01*
X116568477Y-89064534D01*
X116600013Y-88865422D01*
X116619381Y-88815937D01*
X116649132Y-88771414D01*
X116724551Y-88589335D01*
X116749267Y-88465081D01*
X116763000Y-88396043D01*
X116763000Y-86864866D01*
X116781462Y-86799768D01*
X116784814Y-86794334D01*
X116839999Y-86627797D01*
X116850500Y-86525009D01*
X116850499Y-85474992D01*
X116848547Y-85455887D01*
X116839999Y-85372203D01*
X116839998Y-85372200D01*
X116836689Y-85362214D01*
X116784814Y-85205666D01*
X116692712Y-85056344D01*
X116568656Y-84932288D01*
X116419334Y-84840186D01*
X116252797Y-84785001D01*
X116252795Y-84785000D01*
X116150010Y-84774500D01*
X115374998Y-84774500D01*
X115374980Y-84774501D01*
X115272203Y-84785000D01*
X115272200Y-84785001D01*
X115105668Y-84840185D01*
X115105663Y-84840187D01*
X114956342Y-84932289D01*
X114832289Y-85056342D01*
X114740187Y-85205663D01*
X114740185Y-85205668D01*
X114736234Y-85217591D01*
X114685001Y-85372203D01*
X114685001Y-85372204D01*
X114685000Y-85372204D01*
X114674500Y-85474983D01*
X114674500Y-86525001D01*
X114674501Y-86525019D01*
X114685000Y-86627796D01*
X114685001Y-86627799D01*
X114740185Y-86794331D01*
X114740188Y-86794338D01*
X114743538Y-86799768D01*
X114762000Y-86864866D01*
X114762000Y-87498552D01*
X114742315Y-87565591D01*
X114694296Y-87609036D01*
X114618388Y-87647713D01*
X114452786Y-87768028D01*
X114308028Y-87912786D01*
X114187715Y-88078386D01*
X114094781Y-88260776D01*
X114031522Y-88455465D01*
X113999500Y-88657648D01*
X113500500Y-88657648D01*
X113500500Y-68388315D01*
X129424500Y-68388315D01*
X129424500Y-69086669D01*
X129424501Y-69086687D01*
X129434825Y-69187752D01*
X129489092Y-69351515D01*
X129489093Y-69351518D01*
X129498151Y-69366203D01*
X129579660Y-69498350D01*
X129701650Y-69620340D01*
X129848484Y-69710908D01*
X130012247Y-69765174D01*
X130113323Y-69775500D01*
X130686676Y-69775499D01*
X130686684Y-69775498D01*
X130686687Y-69775498D01*
X130742030Y-69769844D01*
X130787753Y-69765174D01*
X130951516Y-69710908D01*
X131098350Y-69620340D01*
X131206228Y-69512461D01*
X131267547Y-69478979D01*
X131337239Y-69483963D01*
X131418017Y-69514091D01*
X131418016Y-69514091D01*
X131424944Y-69514835D01*
X131477627Y-69520500D01*
X133098372Y-69520499D01*
X133157983Y-69514091D01*
X133292831Y-69463796D01*
X133408046Y-69377546D01*
X133494296Y-69262331D01*
X133544591Y-69127483D01*
X133551000Y-69067873D01*
X133550999Y-68322128D01*
X133544591Y-68262517D01*
X133533036Y-68231537D01*
X133494297Y-68127671D01*
X133494293Y-68127664D01*
X133408047Y-68012455D01*
X133408044Y-68012452D01*
X133292835Y-67926206D01*
X133292828Y-67926202D01*
X133157982Y-67875908D01*
X133157983Y-67875908D01*
X133098383Y-67869501D01*
X133098381Y-67869500D01*
X133098373Y-67869500D01*
X133098364Y-67869500D01*
X131477629Y-67869500D01*
X131477623Y-67869501D01*
X131418016Y-67875908D01*
X131275330Y-67929127D01*
X131205638Y-67934111D01*
X131144316Y-67900626D01*
X131098351Y-67854661D01*
X131098350Y-67854660D01*
X130951516Y-67764092D01*
X130787753Y-67709826D01*
X130787751Y-67709825D01*
X130686678Y-67699500D01*
X130113330Y-67699500D01*
X130113312Y-67699501D01*
X130012247Y-67709825D01*
X129848484Y-67764092D01*
X129848481Y-67764093D01*
X129701648Y-67854661D01*
X129579661Y-67976648D01*
X129489093Y-68123481D01*
X129489091Y-68123486D01*
X129461719Y-68206088D01*
X129434826Y-68287247D01*
X129434826Y-68287248D01*
X129434825Y-68287248D01*
X129424500Y-68388315D01*
X113500500Y-68388315D01*
X113500500Y-47624500D01*
X113520185Y-47557461D01*
X113572989Y-47511706D01*
X113624500Y-47500500D01*
X136676000Y-47500500D01*
X136743039Y-47520185D01*
G37*
%TD.AperFunction*%
%TD*%
M02*
